#VRML V2.0 utf8

Shape {
  appearance Appearance {
    material Material {
      diffuseColor 1.0000 1.0000 1.0000
      specularColor 0.8784 0.8784 0.8784
      ambientIntensity 0.2
      transparency 0.0000
      shininess 0.5
    }
  }
  geometry IndexedFaceSet {
    ccw TRUE
    solid FALSE
    coord DEF co Coordinate {
      point [
        -0.226599 0.152247 0.000000,
        -0.214368 0.161632 0.000000,
        -0.037154 -0.040304 0.000000,
        -0.240842 0.146348 0.000000,
        -0.037154 0.430863 0.000000,
        -0.199083 0.218675 0.000000,
        -0.204983 0.232918 0.000000,
        -0.204983 0.173863 0.000000,
        -0.199083 0.188106 0.000000,
        -0.197071 0.203391 0.000000,
        -0.214368 0.245149 0.000000,
        -0.226599 0.254534 0.000000,
        -0.256126 0.430863 0.000000,
        -0.240842 0.260433 0.000000,
        -0.256126 0.262446 0.000000,
        -0.037154 -0.074273 0.000000,
        -0.036673 -0.113282 0.000000,
        -0.036673 -0.153613 0.000000,
        0.034385 -0.066426 0.000000,
        -0.024731 -0.049397 0.000000,
        0.033142 -0.056855 0.000000,
        -0.023950 -0.047986 0.000000,
        0.029344 -0.047986 0.000000,
        0.021341 -0.102406 0.000000,
        0.028707 -0.097789 0.000000,
        0.042067 -0.143050 0.000000,
        0.039906 -0.047986 0.000000,
        0.256126 -0.040304 0.000000,
        -0.032592 -0.047986 0.000000,
        -0.036039 -0.056379 0.000000,
        -0.016078 -0.103496 0.000000,
        -0.028031 -0.113282 0.000000,
        -0.023593 -0.099335 0.000000,
        -0.029854 -0.093443 0.000000,
        0.033516 -0.074178 0.000000,
        0.031397 -0.080041 0.000000,
        0.027657 -0.085620 0.000000,
        0.022382 -0.090353 0.000000,
        0.016292 -0.093566 0.000000,
        0.007767 -0.095649 0.000000,
        0.001857 -0.095998 0.000000,
        -0.006661 -0.095202 0.000000,
        -0.013434 -0.093065 0.000000,
        -0.028991 -0.068196 0.000000,
        -0.022766 -0.086130 0.000000,
        -0.028176 -0.075503 0.000000,
        -0.026048 -0.081294 0.000000,
        -0.018903 -0.089791 0.000000,
        -0.027831 -0.057744 0.000000,
        -0.036625 -0.079356 0.000000,
        -0.033986 -0.087027 0.000000,
        -0.028031 -0.143050 0.000000,
        0.035336 -0.090944 0.000000,
        0.039661 -0.083591 0.000000,
        0.042286 -0.074956 0.000000,
        -0.007726 -0.105831 0.000000,
        0.001211 -0.106561 0.000000,
        0.012389 -0.105432 0.000000,
        0.043027 -0.066515 0.000000,
        0.042377 -0.057089 0.000000,
        -0.037154 -0.064335 0.000000,
        -0.256126 -0.040304 0.000000,
        -0.256126 0.144335 0.000000,
        -0.037596 -0.067498 0.000000,
        -0.037633 -0.069651 0.000000,
        0.042067 -0.153613 0.000000,
        0.256126 -0.430863 0.000000,
        -0.037154 -0.430863 0.000000,
        -0.256126 -0.430863 0.000000,
        -0.036673 0.153666 0.000000,
        -0.014587 0.145699 0.000000,
        -0.014587 0.113170 0.000000,
        0.256126 0.430863 0.000000,
        0.042067 -0.032622 0.000000,
        -0.036673 -0.032622 0.000000,
        -0.036673 0.009629 0.000000,
        0.040851 0.058589 0.000000,
        0.037617 0.067806 0.000000,
        0.042067 0.123898 0.000000,
        0.033425 -0.022059 0.000000,
        0.007498 -0.022059 0.000000,
        0.033425 0.007709 0.000000,
        0.007498 0.005788 0.000000,
        -0.001144 0.005788 0.000000,
        -0.001144 -0.022059 0.000000,
        -0.028031 -0.022059 0.000000,
        -0.036673 0.105654 0.000000,
        -0.036673 0.094131 0.000000,
        0.023430 0.083449 0.000000,
        0.015748 0.086746 0.000000,
        0.042067 0.007709 0.000000,
        0.042067 0.024993 0.000000,
        0.042067 0.047214 0.000000,
        -0.028031 0.009629 0.000000,
        -0.036673 0.024993 0.000000,
        0.032542 0.075605 0.000000,
        0.029699 0.078670 0.000000,
        -0.015092 0.084437 0.000000,
        -0.022135 0.079922 0.000000,
        -0.028341 0.073441 0.000000,
        -0.033119 0.065219 0.000000,
        -0.036673 0.165189 0.000000,
        0.042067 0.134461 0.000000,
        -0.036673 0.046404 0.000000,
        -0.035823 0.056146 0.000000,
        0.007544 0.088221 0.000000,
        0.003687 0.088369 0.000000,
        -0.006851 0.087264 0.000000,
      ]
    }
    coordIndex [
      0, 1, 2, -1,
      0, 2, 3, -1,
      4, 5, 6, -1,
      1, 7, 2, -1,
      2, 7, 8, -1,
      2, 8, 4, -1,
      4, 8, 9, -1,
      4, 9, 5, -1,
      6, 10, 4, -1,
      4, 10, 11, -1,
      4, 11, 12, -1,
      12, 11, 13, -1,
      12, 13, 14, -1,
      15, 16, 17, -1,
      18, 19, 20, -1,
      20, 19, 21, -1,
      20, 21, 22, -1,
      23, 24, 25, -1,
      26, 22, 27, -1,
      27, 22, 21, -1,
      27, 21, 2, -1,
      2, 21, 28, -1,
      2, 28, 29, -1,
      30, 31, 32, -1,
      32, 31, 16, -1,
      32, 16, 33, -1,
      18, 34, 19, -1,
      19, 34, 35, -1,
      19, 35, 36, -1,
      36, 37, 19, -1,
      19, 37, 38, -1,
      19, 38, 39, -1,
      39, 40, 19, -1,
      19, 40, 41, -1,
      19, 41, 42, -1,
      43, 44, 45, -1,
      45, 44, 46, -1,
      42, 47, 19, -1,
      19, 47, 44, -1,
      19, 44, 48, -1,
      48, 44, 43, -1,
      15, 49, 16, -1,
      16, 49, 50, -1,
      16, 50, 33, -1,
      25, 51, 31, -1,
      52, 53, 27, -1,
      27, 53, 54, -1,
      30, 55, 31, -1,
      31, 55, 56, -1,
      31, 56, 25, -1,
      25, 56, 57, -1,
      25, 57, 23, -1,
      54, 58, 27, -1,
      27, 58, 59, -1,
      27, 59, 26, -1,
      29, 60, 2, -1,
      2, 60, 61, -1,
      2, 61, 3, -1,
      3, 61, 62, -1,
      60, 63, 61, -1,
      61, 63, 64, -1,
      61, 64, 15, -1,
      24, 52, 25, -1,
      25, 52, 27, -1,
      25, 27, 65, -1,
      65, 27, 66, -1,
      65, 66, 17, -1,
      17, 66, 67, -1,
      17, 67, 15, -1,
      15, 67, 68, -1,
      15, 68, 61, -1,
      69, 70, 71, -1,
      72, 27, 73, -1,
      73, 27, 2, -1,
      73, 2, 74, -1,
      74, 2, 75, -1,
      76, 77, 78, -1,
      79, 80, 81, -1,
      81, 80, 82, -1,
      83, 84, 85, -1,
      2, 86, 87, -1,
      78, 88, 89, -1,
      73, 90, 72, -1,
      72, 90, 91, -1,
      72, 91, 92, -1,
      85, 93, 83, -1,
      83, 93, 94, -1,
      83, 94, 82, -1,
      82, 94, 91, -1,
      82, 91, 81, -1,
      81, 91, 90, -1,
      77, 95, 78, -1,
      78, 95, 96, -1,
      78, 96, 88, -1,
      97, 98, 87, -1,
      87, 98, 99, -1,
      87, 99, 100, -1,
      71, 86, 69, -1,
      69, 86, 2, -1,
      69, 2, 101, -1,
      101, 2, 4, -1,
      101, 4, 102, -1,
      102, 4, 72, -1,
      102, 72, 78, -1,
      78, 72, 92, -1,
      78, 92, 76, -1,
      93, 75, 94, -1,
      94, 75, 2, -1,
      94, 2, 103, -1,
      103, 2, 87, -1,
      103, 87, 104, -1,
      104, 87, 100, -1,
      89, 105, 78, -1,
      78, 105, 106, -1,
      78, 106, 87, -1,
      87, 106, 107, -1,
      87, 107, 97, -1,
    ]
  }
}

Shape {
  appearance Appearance {
    material Material {
      diffuseColor 0.2510 0.2510 0.2510
      specularColor 0.1255 0.1255 0.1255
      ambientIntensity 0.2
      transparency 0.0000
      shininess 0.5
    }
  }
  geometry IndexedFaceSet {
    ccw TRUE
    solid FALSE
    coord DEF co Coordinate {
      point [
        -0.590551 -0.590551 0.003937,
        -0.256126 -0.430863 0.003937,
        0.590551 -0.590551 0.003937,
        0.256126 -0.430863 0.003937,
        0.437008 -0.442913 0.003937,
        0.590551 -0.442913 0.003937,
        0.421723 0.440901 0.003937,
        0.407480 0.435002 0.003937,
        0.256126 0.430863 0.003937,
        0.590551 0.590551 0.003937,
        0.590551 0.442913 0.003937,
        0.437008 0.442913 0.003937,
        -0.407480 0.435002 0.003937,
        -0.421723 0.440901 0.003937,
        -0.590551 0.590551 0.003937,
        -0.437008 0.442913 0.003937,
        -0.590551 0.442913 0.003937,
        0.385865 -0.413386 0.003937,
        0.395250 -0.425617 0.003937,
        0.407480 -0.435002 0.003937,
        0.421723 -0.440901 0.003937,
        -0.407480 0.332715 0.003937,
        -0.395250 0.342100 0.003937,
        -0.421723 0.184996 0.003937,
        0.395250 0.425617 0.003937,
        0.385865 0.413386 0.003937,
        0.379965 0.399143 0.003937,
        0.377953 0.383858 0.003937,
        0.379965 0.368574 0.003937,
        0.385865 0.354331 0.003937,
        0.395250 0.342100 0.003937,
        -0.385865 0.413386 0.003937,
        -0.395250 0.425617 0.003937,
        -0.256126 0.430863 0.003937,
        -0.256126 0.144335 0.003937,
        -0.256126 0.262446 0.003937,
        -0.240842 0.260433 0.003937,
        0.407480 0.332715 0.003937,
        0.421723 0.184996 0.003937,
        0.407480 0.179096 0.003937,
        0.395250 0.169711 0.003937,
        -0.379965 0.399143 0.003937,
        -0.226599 0.254534 0.003937,
        -0.214368 0.245149 0.003937,
        -0.204983 0.232918 0.003937,
        -0.590551 -0.442913 0.003937,
        -0.437008 -0.442913 0.003937,
        -0.421723 -0.440901 0.003937,
        -0.407480 -0.435002 0.003937,
        -0.379965 0.143237 0.003937,
        -0.385865 0.157480 0.003937,
        -0.407480 -0.179096 0.003937,
        -0.395250 -0.169711 0.003937,
        -0.421723 -0.326815 0.003937,
        0.437008 0.324803 0.003937,
        0.590551 0.324803 0.003937,
        0.590551 0.187008 0.003937,
        0.379965 -0.143237 0.003937,
        0.385865 -0.157480 0.003937,
        0.421723 -0.326815 0.003937,
        0.395250 -0.169711 0.003937,
        0.407480 -0.179096 0.003937,
        -0.199083 0.218675 0.003937,
        -0.197071 0.203391 0.003937,
        -0.240842 0.146348 0.003937,
        0.421723 0.326815 0.003937,
        0.437008 0.187008 0.003937,
        0.407480 -0.076809 0.003937,
        0.395250 -0.086194 0.003937,
        0.395250 0.086194 0.003937,
        0.385865 -0.098425 0.003937,
        0.385865 0.098425 0.003937,
        0.379965 -0.368574 0.003937,
        0.377953 -0.383858 0.003937,
        0.379965 -0.399143 0.003937,
        -0.590551 0.187008 0.003937,
        -0.590551 0.324803 0.003937,
        -0.437008 0.187008 0.003937,
        -0.437008 0.324803 0.003937,
        -0.421723 0.326815 0.003937,
        -0.199083 0.188106 0.003937,
        -0.204983 0.173863 0.003937,
        -0.395250 -0.425617 0.003937,
        -0.385865 -0.413386 0.003937,
        -0.379965 -0.399143 0.003937,
        -0.590551 -0.324803 0.003937,
        -0.590551 -0.187008 0.003937,
        -0.437008 -0.324803 0.003937,
        -0.437008 -0.187008 0.003937,
        -0.421723 -0.184996 0.003937,
        0.385865 -0.354331 0.003937,
        0.377953 -0.127953 0.003937,
        0.395250 -0.342100 0.003937,
        0.407480 -0.332715 0.003937,
        -0.214368 0.161632 0.003937,
        -0.226599 0.152247 0.003937,
        -0.377953 -0.383858 0.003937,
        -0.379965 -0.368574 0.003937,
        -0.385865 -0.354331 0.003937,
        -0.379965 -0.143237 0.003937,
        -0.377953 -0.127953 0.003937,
        -0.379965 -0.112668 0.003937,
        -0.385865 -0.098425 0.003937,
        -0.407480 0.076809 0.003937,
        -0.395250 0.086194 0.003937,
        -0.421723 -0.070910 0.003937,
        0.437008 -0.187008 0.003937,
        0.590551 -0.187008 0.003937,
        0.590551 -0.324803 0.003937,
        -0.395250 0.169711 0.003937,
        -0.407480 0.179096 0.003937,
        -0.395250 -0.086194 0.003937,
        -0.407480 -0.076809 0.003937,
        0.421723 -0.184996 0.003937,
        0.437008 -0.324803 0.003937,
        -0.385865 0.354331 0.003937,
        -0.379965 0.368574 0.003937,
        -0.377953 0.383858 0.003937,
        -0.395250 -0.342100 0.003937,
        -0.407480 -0.332715 0.003937,
        -0.385865 -0.157480 0.003937,
        -0.385865 0.098425 0.003937,
        -0.379965 0.112668 0.003937,
        -0.377953 0.127953 0.003937,
        -0.590551 -0.068898 0.003937,
        -0.590551 0.068898 0.003937,
        -0.437008 -0.068898 0.003937,
        -0.437008 0.068898 0.003937,
        -0.421723 0.070910 0.003937,
        0.437008 0.068898 0.003937,
        0.590551 0.068898 0.003937,
        0.590551 -0.068898 0.003937,
        0.377953 0.127953 0.003937,
        0.379965 0.143237 0.003937,
        0.385865 0.157480 0.003937,
        0.379965 -0.112668 0.003937,
        0.379965 0.112668 0.003937,
        0.407480 0.076809 0.003937,
        0.421723 0.070910 0.003937,
        0.421723 -0.070910 0.003937,
        0.437008 -0.068898 0.003937,
        -0.590551 0.590551 0.358268,
        -0.590551 0.442913 0.078740,
        -0.590551 0.324803 0.078740,
        -0.590551 -0.590551 0.358268,
        -0.590551 0.068898 0.078740,
        -0.590551 -0.068898 0.078740,
        -0.590551 -0.187008 0.078740,
        -0.590551 0.187008 0.078740,
        -0.590551 -0.442913 0.078740,
        -0.590551 -0.324803 0.078740,
        0.001489 -0.132100 0.358268,
        0.007133 -0.138624 0.358268,
        0.065159 -0.101961 0.358268,
        -0.035725 -0.196254 0.358268,
        -0.042230 -0.191812 0.358268,
        -0.053671 -0.590551 0.358268,
        -0.047446 -0.185900 0.358268,
        -0.052951 -0.021300 0.358268,
        -0.052951 -0.005456 0.358268,
        -0.053671 0.006067 0.358268,
        0.065159 -0.005456 0.358268,
        0.590551 0.006067 0.358268,
        -0.005217 -0.127316 0.358268,
        0.011010 -0.146342 0.358268,
        0.016376 -0.138818 0.358268,
        0.590551 -0.590551 0.358268,
        0.029776 -0.196081 0.358268,
        0.023896 -0.193630 0.358268,
        -0.051241 -0.178789 0.358268,
        -0.053671 -0.170173 0.358268,
        -0.053719 -0.170006 0.358268,
        -0.590551 0.006067 0.358268,
        -0.054392 -0.161691 0.358268,
        -0.053671 -0.155033 0.358268,
        0.046434 -0.021300 0.358268,
        0.046434 -0.020828 0.358268,
        0.042495 -0.023091 0.358268,
        0.038181 -0.021232 0.358268,
        0.038737 -0.025239 0.358268,
        -0.052951 -0.083169 0.358268,
        -0.052951 -0.101961 0.358268,
        -0.053247 -0.151112 0.358268,
        -0.050119 -0.142253 0.358268,
        -0.045334 -0.134934 0.358268,
        -0.039717 -0.129780 0.358268,
        -0.032701 -0.125918 0.358268,
        0.036644 -0.129328 0.358268,
        0.044402 -0.130370 0.358268,
        0.050589 -0.132955 0.358268,
        0.056231 -0.137125 0.358268,
        0.018486 -0.189722 0.358268,
        0.006945 -0.187087 0.358268,
        0.013408 -0.183987 0.358268,
        0.011010 -0.180169 0.358268,
        -0.024968 -0.123900 0.358268,
        -0.019823 -0.123567 0.358268,
        -0.011802 -0.124635 0.358268,
        0.062630 -0.180634 0.358268,
        0.058757 -0.186629 0.358268,
        0.053916 -0.191300 0.358268,
        0.047767 -0.194844 0.358268,
        0.041740 -0.196610 0.358268,
        0.036644 -0.197025 0.358268,
        0.001251 -0.192685 0.358268,
        -0.006715 -0.197317 0.358268,
        -0.014144 -0.199454 0.358268,
        0.022056 -0.133922 0.358268,
        0.027734 -0.130946 0.358268,
        0.033190 -0.129569 0.358268,
        0.060793 -0.142635 0.358268,
        0.064170 -0.149315 0.358268,
        0.066284 -0.157920 0.358268,
        -0.019823 -0.199906 0.358268,
        -0.028676 -0.198872 0.358268,
        -0.032786 -0.086567 0.358268,
        -0.032786 -0.086882 0.358268,
        -0.028666 -0.084293 0.358268,
        -0.024225 -0.086243 0.358268,
        -0.024661 -0.081818 0.358268,
        0.065159 -0.025621 0.358268,
        -0.015637 -0.086117 0.358268,
        0.065159 -0.086117 0.358268,
        0.066599 -0.163131 0.358268,
        0.065517 -0.172718 0.358268,
        -0.429822 0.447835 0.358268,
        -0.424905 0.459704 0.358268,
        -0.053671 0.590551 0.358268,
        -0.423228 0.472441 0.358268,
        -0.519977 0.485178 0.358268,
        -0.515060 0.497047 0.358268,
        -0.507239 0.507239 0.358268,
        -0.497047 0.515060 0.358268,
        -0.485178 0.519977 0.358268,
        -0.437643 0.507239 0.358268,
        -0.429822 0.497047 0.358268,
        -0.424905 0.485178 0.358268,
        -0.472441 0.423228 0.358268,
        -0.485178 0.424905 0.358268,
        -0.497047 0.429822 0.358268,
        -0.507239 0.437643 0.358268,
        -0.515060 0.447835 0.358268,
        -0.519977 0.459704 0.358268,
        -0.521654 0.472441 0.358268,
        -0.437643 0.437643 0.358268,
        -0.447835 0.429822 0.358268,
        -0.459704 0.424905 0.358268,
        -0.472441 0.521654 0.358268,
        -0.459704 0.519977 0.358268,
        -0.447835 0.515060 0.358268,
        0.029915 -0.021300 0.358268,
        -0.052951 0.194755 0.358268,
        0.065159 0.194755 0.358268,
        0.590551 0.590551 0.358268,
        0.052196 0.017590 0.358268,
        0.052196 0.062241 0.358268,
        0.011865 0.062241 0.358268,
        0.011865 0.020470 0.358268,
        -0.001098 0.020470 0.358268,
        -0.001098 0.062241 0.358268,
        -0.052951 0.062241 0.358268,
        -0.052951 0.078085 0.358268,
        0.065159 0.017590 0.358268,
        0.065159 0.078085 0.358268,
        0.065159 0.161424 0.358268,
        0.063335 0.144359 0.358268,
        0.058491 0.130559 0.358268,
        0.049879 0.117699 0.358268,
        -0.052951 0.162639 0.358268,
        -0.051611 0.147674 0.358268,
        -0.047474 0.134078 0.358268,
        -0.020524 0.105572 0.358268,
        -0.030941 0.112198 0.358268,
        -0.040274 0.121851 0.358268,
        0.049726 0.117526 0.358268,
        0.040446 0.109173 0.358268,
        0.030127 0.103658 0.358268,
        0.018393 0.100499 0.358268,
        0.007589 0.099691 0.358268,
        -0.008215 0.101345 0.358268,
        0.590551 -0.068898 0.078740,
        0.590551 0.068898 0.078740,
        0.590551 0.187008 0.078740,
        0.590551 -0.442913 0.078740,
        0.590551 -0.324803 0.078740,
        0.590551 -0.187008 0.078740,
        0.590551 0.442913 0.078740,
        0.590551 0.324803 0.078740,
        -0.423228 0.472441 0.350394,
        -0.424905 0.485178 0.350394,
        -0.429822 0.497047 0.350394,
        -0.437643 0.507239 0.350394,
        -0.447835 0.515060 0.350394,
        -0.459704 0.519977 0.350394,
        -0.472441 0.521654 0.350394,
        -0.485178 0.519977 0.350394,
        -0.497047 0.515060 0.350394,
        -0.507239 0.507239 0.350394,
        -0.515060 0.497047 0.350394,
        -0.519977 0.485178 0.350394,
        -0.521654 0.472441 0.350394,
        -0.519977 0.459704 0.350394,
        -0.515060 0.447835 0.350394,
        -0.507239 0.437643 0.350394,
        -0.497047 0.429822 0.350394,
        -0.485178 0.424905 0.350394,
        -0.472441 0.423228 0.350394,
        -0.459704 0.424905 0.350394,
        -0.447835 0.429822 0.350394,
        -0.437643 0.437643 0.350394,
        -0.429822 0.447835 0.350394,
        -0.424905 0.459704 0.350394,
        -0.472441 0.472441 0.350394,
      ]
    }
    coordIndex [
      0, 1, 2, -1,
      2, 1, 3, -1,
      4, 5, 2, -1,
      6, 7, 8, -1,
      9, 10, 11, -1,
      12, 13, 14, -1,
      14, 13, 15, -1,
      14, 15, 16, -1,
      17, 18, 3, -1,
      3, 18, 19, -1,
      3, 19, 2, -1,
      2, 19, 20, -1,
      2, 20, 4, -1,
      21, 22, 23, -1,
      7, 24, 8, -1,
      8, 24, 25, -1,
      8, 25, 26, -1,
      26, 27, 8, -1,
      8, 27, 28, -1,
      8, 28, 3, -1,
      3, 28, 29, -1,
      3, 29, 30, -1,
      31, 32, 33, -1,
      34, 35, 36, -1,
      37, 38, 30, -1,
      30, 38, 39, -1,
      30, 39, 40, -1,
      31, 33, 41, -1,
      36, 42, 34, -1,
      34, 42, 43, -1,
      34, 43, 44, -1,
      45, 46, 0, -1,
      0, 46, 47, -1,
      0, 47, 1, -1,
      1, 47, 48, -1,
      49, 50, 34, -1,
      51, 52, 53, -1,
      54, 55, 56, -1,
      57, 58, 59, -1,
      59, 58, 60, -1,
      59, 60, 61, -1,
      32, 12, 33, -1,
      33, 12, 14, -1,
      33, 14, 8, -1,
      8, 14, 9, -1,
      8, 9, 6, -1,
      6, 9, 11, -1,
      44, 62, 34, -1,
      34, 62, 63, -1,
      34, 63, 64, -1,
      37, 65, 38, -1,
      38, 65, 54, -1,
      38, 54, 66, -1,
      66, 54, 56, -1,
      67, 68, 69, -1,
      69, 68, 70, -1,
      69, 70, 71, -1,
      72, 73, 3, -1,
      3, 73, 74, -1,
      3, 74, 17, -1,
      75, 76, 77, -1,
      77, 76, 78, -1,
      77, 78, 23, -1,
      23, 78, 79, -1,
      23, 79, 21, -1,
      63, 80, 81, -1,
      48, 82, 1, -1,
      1, 82, 83, -1,
      1, 83, 84, -1,
      85, 86, 87, -1,
      87, 86, 88, -1,
      87, 88, 53, -1,
      53, 88, 89, -1,
      53, 89, 51, -1,
      90, 91, 92, -1,
      92, 91, 57, -1,
      92, 57, 93, -1,
      93, 57, 59, -1,
      81, 94, 63, -1,
      63, 94, 95, -1,
      63, 95, 64, -1,
      84, 96, 1, -1,
      1, 96, 97, -1,
      1, 97, 34, -1,
      34, 97, 98, -1,
      99, 100, 34, -1,
      34, 100, 101, -1,
      34, 101, 102, -1,
      103, 104, 105, -1,
      106, 107, 108, -1,
      34, 50, 35, -1,
      35, 50, 109, -1,
      35, 109, 33, -1,
      33, 109, 110, -1,
      33, 110, 23, -1,
      102, 111, 34, -1,
      34, 111, 112, -1,
      34, 112, 105, -1,
      61, 113, 59, -1,
      59, 113, 106, -1,
      59, 106, 114, -1,
      114, 106, 108, -1,
      22, 115, 23, -1,
      23, 115, 116, -1,
      23, 116, 33, -1,
      33, 116, 117, -1,
      33, 117, 41, -1,
      98, 118, 34, -1,
      34, 118, 119, -1,
      34, 119, 99, -1,
      99, 119, 53, -1,
      99, 53, 120, -1,
      120, 53, 52, -1,
      104, 121, 105, -1,
      105, 121, 122, -1,
      105, 122, 34, -1,
      34, 122, 123, -1,
      34, 123, 49, -1,
      124, 125, 126, -1,
      126, 125, 127, -1,
      126, 127, 105, -1,
      105, 127, 128, -1,
      105, 128, 103, -1,
      129, 130, 131, -1,
      132, 3, 133, -1,
      133, 3, 30, -1,
      133, 30, 134, -1,
      134, 30, 40, -1,
      90, 72, 91, -1,
      91, 72, 3, -1,
      91, 3, 135, -1,
      135, 3, 132, -1,
      135, 132, 70, -1,
      70, 132, 136, -1,
      70, 136, 71, -1,
      69, 137, 67, -1,
      67, 137, 138, -1,
      67, 138, 139, -1,
      139, 138, 129, -1,
      139, 129, 140, -1,
      140, 129, 131, -1,
      141, 14, 16, -1,
      16, 142, 141, -1,
      141, 142, 143, -1,
      141, 143, 144, -1,
      145, 125, 124, -1,
      146, 147, 144, -1,
      124, 146, 145, -1,
      145, 146, 144, -1,
      145, 144, 148, -1,
      148, 144, 143, -1,
      148, 143, 75, -1,
      75, 143, 76, -1,
      45, 0, 149, -1,
      149, 0, 144, -1,
      149, 144, 150, -1,
      150, 144, 147, -1,
      150, 147, 85, -1,
      85, 147, 86, -1,
      151, 152, 153, -1,
      154, 155, 156, -1,
      156, 155, 157, -1,
      158, 159, 160, -1,
      160, 159, 161, -1,
      160, 161, 162, -1,
      151, 153, 163, -1,
      152, 164, 165, -1,
      166, 167, 168, -1,
      157, 169, 156, -1,
      156, 169, 170, -1,
      156, 170, 144, -1,
      144, 170, 171, -1,
      144, 171, 172, -1,
      172, 171, 173, -1,
      172, 173, 174, -1,
      175, 176, 177, -1,
      177, 176, 178, -1,
      177, 178, 179, -1,
      179, 178, 180, -1,
      180, 174, 181, -1,
      181, 174, 182, -1,
      181, 182, 183, -1,
      183, 184, 181, -1,
      181, 184, 185, -1,
      181, 185, 186, -1,
      187, 188, 153, -1,
      153, 188, 189, -1,
      153, 189, 190, -1,
      168, 191, 192, -1,
      192, 191, 193, -1,
      192, 193, 194, -1,
      186, 195, 181, -1,
      181, 195, 196, -1,
      181, 196, 153, -1,
      153, 196, 197, -1,
      153, 197, 163, -1,
      198, 199, 166, -1,
      166, 199, 200, -1,
      166, 200, 201, -1,
      201, 202, 166, -1,
      166, 202, 203, -1,
      166, 203, 167, -1,
      168, 192, 166, -1,
      166, 192, 204, -1,
      166, 204, 156, -1,
      156, 204, 205, -1,
      156, 205, 206, -1,
      165, 207, 152, -1,
      152, 207, 208, -1,
      152, 208, 153, -1,
      153, 208, 209, -1,
      153, 209, 187, -1,
      210, 211, 166, -1,
      166, 211, 212, -1,
      206, 213, 156, -1,
      156, 213, 214, -1,
      156, 214, 154, -1,
      215, 216, 217, -1,
      217, 216, 218, -1,
      217, 218, 219, -1,
      219, 218, 220, -1,
      220, 218, 221, -1,
      220, 221, 222, -1,
      190, 210, 153, -1,
      153, 210, 166, -1,
      153, 166, 222, -1,
      222, 166, 162, -1,
      222, 162, 220, -1,
      220, 162, 161, -1,
      212, 223, 166, -1,
      166, 223, 224, -1,
      166, 224, 198, -1,
      225, 160, 226, -1,
      226, 160, 227, -1,
      226, 227, 228, -1,
      141, 229, 230, -1,
      230, 231, 141, -1,
      141, 231, 232, -1,
      141, 232, 233, -1,
      234, 235, 227, -1,
      227, 235, 236, -1,
      227, 236, 228, -1,
      237, 238, 172, -1,
      172, 238, 239, -1,
      172, 239, 240, -1,
      240, 241, 172, -1,
      172, 241, 242, -1,
      172, 242, 141, -1,
      141, 242, 243, -1,
      141, 243, 229, -1,
      225, 244, 160, -1,
      160, 244, 245, -1,
      160, 245, 246, -1,
      233, 247, 141, -1,
      141, 247, 248, -1,
      141, 248, 227, -1,
      227, 248, 249, -1,
      227, 249, 234, -1,
      178, 250, 180, -1,
      180, 250, 158, -1,
      180, 158, 174, -1,
      174, 158, 160, -1,
      174, 160, 172, -1,
      172, 160, 246, -1,
      172, 246, 237, -1,
      251, 252, 253, -1,
      254, 255, 256, -1,
      257, 258, 160, -1,
      258, 259, 160, -1,
      160, 259, 260, -1,
      160, 260, 261, -1,
      256, 257, 254, -1,
      254, 257, 160, -1,
      254, 160, 262, -1,
      262, 160, 162, -1,
      262, 162, 263, -1,
      263, 162, 253, -1,
      252, 264, 253, -1,
      253, 264, 265, -1,
      253, 265, 263, -1,
      263, 265, 266, -1,
      263, 266, 267, -1,
      253, 227, 251, -1,
      251, 227, 160, -1,
      251, 160, 268, -1,
      268, 160, 261, -1,
      268, 261, 269, -1,
      269, 261, 270, -1,
      271, 272, 261, -1,
      261, 272, 273, -1,
      261, 273, 270, -1,
      267, 274, 263, -1,
      263, 274, 275, -1,
      263, 275, 276, -1,
      276, 277, 263, -1,
      263, 277, 278, -1,
      263, 278, 261, -1,
      261, 278, 279, -1,
      261, 279, 271, -1,
      166, 2, 5, -1,
      280, 131, 130, -1,
      281, 282, 253, -1,
      5, 283, 166, -1,
      166, 283, 284, -1,
      166, 284, 253, -1,
      130, 281, 280, -1,
      280, 281, 253, -1,
      280, 253, 285, -1,
      285, 253, 284, -1,
      285, 284, 107, -1,
      107, 284, 108, -1,
      10, 9, 286, -1,
      286, 9, 253, -1,
      286, 253, 287, -1,
      287, 253, 282, -1,
      287, 282, 55, -1,
      55, 282, 56, -1,
      253, 9, 227, -1,
      227, 9, 14, -1,
      227, 14, 141, -1,
      2, 166, 0, -1,
      0, 166, 156, -1,
      0, 156, 144, -1,
      288, 228, 289, -1,
      289, 228, 236, -1,
      289, 236, 290, -1,
      290, 236, 235, -1,
      290, 235, 291, -1,
      291, 235, 234, -1,
      291, 234, 292, -1,
      292, 234, 249, -1,
      292, 249, 293, -1,
      293, 249, 248, -1,
      293, 248, 294, -1,
      294, 248, 247, -1,
      294, 247, 295, -1,
      295, 247, 233, -1,
      295, 233, 296, -1,
      296, 233, 232, -1,
      296, 232, 297, -1,
      297, 232, 231, -1,
      297, 231, 298, -1,
      298, 231, 230, -1,
      298, 230, 299, -1,
      299, 230, 229, -1,
      299, 229, 300, -1,
      300, 229, 243, -1,
      300, 243, 301, -1,
      301, 243, 242, -1,
      301, 242, 302, -1,
      302, 242, 241, -1,
      302, 241, 303, -1,
      303, 241, 240, -1,
      303, 240, 304, -1,
      304, 240, 239, -1,
      304, 239, 305, -1,
      305, 239, 238, -1,
      305, 238, 306, -1,
      306, 238, 237, -1,
      306, 237, 307, -1,
      307, 237, 246, -1,
      307, 246, 308, -1,
      308, 246, 245, -1,
      308, 245, 309, -1,
      309, 245, 244, -1,
      309, 244, 310, -1,
      310, 244, 225, -1,
      310, 225, 311, -1,
      311, 225, 226, -1,
      311, 226, 288, -1,
      288, 226, 228, -1,
      310, 311, 312, -1,
      312, 311, 288, -1,
      312, 288, 289, -1,
      307, 308, 312, -1,
      312, 308, 309, -1,
      312, 309, 310, -1,
      304, 305, 312, -1,
      312, 305, 306, -1,
      312, 306, 307, -1,
      301, 302, 312, -1,
      312, 302, 303, -1,
      312, 303, 304, -1,
      298, 299, 312, -1,
      312, 299, 300, -1,
      312, 300, 301, -1,
      295, 296, 312, -1,
      312, 296, 297, -1,
      312, 297, 298, -1,
      292, 293, 312, -1,
      312, 293, 294, -1,
      312, 294, 295, -1,
      289, 290, 312, -1,
      312, 290, 291, -1,
      312, 291, 292, -1,
    ]
  }
}

Shape {
  appearance Appearance {
    material Material {
      diffuseColor 0.6667 0.6667 0.6667
      specularColor 0.3333 0.3333 0.3333
      ambientIntensity 0.2
      transparency 0.0000
      shininess 0.5
    }
  }
  geometry IndexedFaceSet {
    ccw TRUE
    solid FALSE
    coord DEF co Coordinate {
      point [
        0.001489 -0.132100 0.358268,
        0.007133 -0.138624 0.358268,
        -0.035725 -0.196254 0.358268,
        -0.042230 -0.191812 0.358268,
        -0.047446 -0.185900 0.358268,
        -0.005217 -0.127316 0.358268,
        0.011010 -0.146342 0.358268,
        0.016376 -0.138818 0.358268,
        0.029776 -0.196081 0.358268,
        0.023896 -0.193630 0.358268,
        -0.051241 -0.178789 0.358268,
        -0.053671 -0.170173 0.358268,
        -0.053719 -0.170006 0.358268,
        -0.054392 -0.161691 0.358268,
        -0.053671 -0.155033 0.358268,
        -0.053247 -0.151112 0.358268,
        -0.050119 -0.142253 0.358268,
        -0.045334 -0.134934 0.358268,
        -0.039717 -0.129780 0.358268,
        -0.032701 -0.125918 0.358268,
        0.036644 -0.129328 0.358268,
        0.044402 -0.130370 0.358268,
        0.050589 -0.132955 0.358268,
        0.056231 -0.137125 0.358268,
        0.018486 -0.189722 0.358268,
        0.006945 -0.187087 0.358268,
        0.013408 -0.183987 0.358268,
        0.011010 -0.180169 0.358268,
        -0.024968 -0.123900 0.358268,
        -0.019823 -0.123567 0.358268,
        -0.011802 -0.124635 0.358268,
        0.062630 -0.180634 0.358268,
        0.058757 -0.186629 0.358268,
        0.053916 -0.191300 0.358268,
        0.047767 -0.194844 0.358268,
        0.041740 -0.196610 0.358268,
        0.036644 -0.197025 0.358268,
        0.001251 -0.192685 0.358268,
        -0.006715 -0.197317 0.358268,
        -0.014144 -0.199454 0.358268,
        0.022056 -0.133922 0.358268,
        0.027734 -0.130946 0.358268,
        0.033190 -0.129569 0.358268,
        0.060793 -0.142635 0.358268,
        0.064170 -0.149315 0.358268,
        0.066284 -0.157920 0.358268,
        -0.019823 -0.199906 0.358268,
        -0.028676 -0.198872 0.358268,
        0.066599 -0.163131 0.358268,
        0.065517 -0.172718 0.358268,
        -0.054392 -0.161691 0.354331,
        -0.053247 -0.151112 0.354331,
        -0.050119 -0.142253 0.354331,
        -0.045334 -0.134934 0.354331,
        -0.039717 -0.129780 0.354331,
        -0.032701 -0.125918 0.354331,
        -0.024968 -0.123900 0.354331,
        -0.019823 -0.123567 0.354331,
        0.011010 -0.146342 0.354331,
        0.007133 -0.138624 0.354331,
        0.001489 -0.132100 0.354331,
        -0.005217 -0.127316 0.354331,
        -0.011802 -0.124635 0.354331,
        0.036644 -0.129328 0.354331,
        0.033190 -0.129569 0.354331,
        0.027734 -0.130946 0.354331,
        0.022056 -0.133922 0.354331,
        0.016376 -0.138818 0.354331,
        0.066599 -0.163131 0.354331,
        0.066284 -0.157920 0.354331,
        0.064170 -0.149315 0.354331,
        0.060793 -0.142635 0.354331,
        0.056231 -0.137125 0.354331,
        0.050589 -0.132955 0.354331,
        0.044402 -0.130370 0.354331,
        0.036644 -0.197025 0.354331,
        0.041740 -0.196610 0.354331,
        0.047767 -0.194844 0.354331,
        0.053916 -0.191300 0.354331,
        0.058757 -0.186629 0.354331,
        0.062630 -0.180634 0.354331,
        0.065517 -0.172718 0.354331,
        0.011010 -0.180169 0.354331,
        0.013408 -0.183987 0.354331,
        0.018486 -0.189722 0.354331,
        0.023896 -0.193630 0.354331,
        0.029776 -0.196081 0.354331,
        -0.019823 -0.199906 0.354331,
        -0.014144 -0.199454 0.354331,
        -0.006715 -0.197317 0.354331,
        0.001251 -0.192685 0.354331,
        0.006945 -0.187087 0.354331,
        -0.053719 -0.170006 0.354331,
        -0.051241 -0.178789 0.354331,
        -0.047446 -0.185900 0.354331,
        -0.042230 -0.191812 0.354331,
        -0.035725 -0.196254 0.354331,
        -0.028676 -0.198872 0.354331,
        0.016187 -0.163064 0.354331,
        0.016786 -0.158400 0.354331,
        0.003223 -0.161669 0.354331,
        -0.009336 -0.140029 0.354331,
        -0.005247 -0.142642 0.354331,
        0.016826 -0.167826 0.354331,
        -0.002096 -0.145785 0.354331,
        0.000726 -0.150122 0.354331,
        0.002552 -0.155295 0.354331,
        0.053198 -0.167294 0.354331,
        0.053636 -0.163064 0.354331,
        0.053084 -0.158357 0.354331,
        0.051759 -0.154811 0.354331,
        0.049532 -0.151528 0.354331,
        0.046700 -0.148872 0.354331,
        0.042766 -0.146601 0.354331,
        0.038510 -0.145435 0.354331,
        -0.019057 -0.185502 0.354331,
        -0.013217 -0.184780 0.354331,
        -0.008723 -0.183013 0.354331,
        -0.004609 -0.180112 0.354331,
        -0.000748 -0.175705 0.354331,
        0.001631 -0.171105 0.354331,
        0.034979 -0.145172 0.354331,
        0.029870 -0.145787 0.354331,
        0.025900 -0.147343 0.354331,
        0.022220 -0.149920 0.354331,
        0.020770 -0.151314 0.354331,
        0.018400 -0.154509 0.354331,
        -0.014293 -0.138422 0.354331,
        -0.019057 -0.137970 0.354331,
        -0.024892 -0.138573 0.354331,
        -0.029366 -0.140091 0.354331,
        -0.033171 -0.142461 0.354331,
        -0.036671 -0.146013 0.354331,
        -0.039303 -0.150480 0.354331,
        -0.040989 -0.156210 0.354331,
        -0.041428 -0.161669 0.354331,
        -0.040767 -0.168109 0.354331,
        -0.038956 -0.173391 0.354331,
        -0.036182 -0.177739 0.354331,
        -0.033043 -0.180861 0.354331,
        -0.029150 -0.183350 0.354331,
        -0.024554 -0.184922 0.354331,
        0.040011 -0.180590 0.354331,
        0.044028 -0.179059 0.354331,
        0.047654 -0.176543 0.354331,
        0.049631 -0.174512 0.354331,
        0.051811 -0.171245 0.354331,
        0.002967 -0.165689 0.354331,
        0.018351 -0.171510 0.354331,
        0.020881 -0.174944 0.354331,
        0.025015 -0.178387 0.354331,
        0.028793 -0.180197 0.354331,
        0.032760 -0.181059 0.354331,
        0.034979 -0.181181 0.354331,
        -0.019057 -0.137970 0.358268,
        -0.014293 -0.138422 0.358268,
        -0.009336 -0.140029 0.358268,
        -0.005247 -0.142642 0.358268,
        -0.002096 -0.145785 0.358268,
        0.000726 -0.150122 0.358268,
        0.002552 -0.155295 0.358268,
        0.003223 -0.161669 0.358268,
        0.002967 -0.165689 0.358268,
        0.001631 -0.171105 0.358268,
        -0.000748 -0.175705 0.358268,
        -0.004609 -0.180112 0.358268,
        -0.008723 -0.183013 0.358268,
        -0.013217 -0.184780 0.358268,
        -0.019057 -0.185502 0.358268,
        -0.024554 -0.184922 0.358268,
        -0.029150 -0.183350 0.358268,
        -0.033043 -0.180861 0.358268,
        -0.036182 -0.177739 0.358268,
        -0.038956 -0.173391 0.358268,
        -0.040767 -0.168109 0.358268,
        -0.041428 -0.161669 0.358268,
        -0.040989 -0.156210 0.358268,
        -0.039303 -0.150480 0.358268,
        -0.036671 -0.146013 0.358268,
        -0.033171 -0.142461 0.358268,
        -0.029366 -0.140091 0.358268,
        -0.024892 -0.138573 0.358268,
        0.034979 -0.145172 0.358268,
        0.038510 -0.145435 0.358268,
        0.042766 -0.146601 0.358268,
        0.046700 -0.148872 0.358268,
        0.049532 -0.151528 0.358268,
        0.051759 -0.154811 0.358268,
        0.053084 -0.158357 0.358268,
        0.053636 -0.163064 0.358268,
        0.053198 -0.167294 0.358268,
        0.051811 -0.171245 0.358268,
        0.049631 -0.174512 0.358268,
        0.047654 -0.176543 0.358268,
        0.044028 -0.179059 0.358268,
        0.040011 -0.180590 0.358268,
        0.034979 -0.181181 0.358268,
        0.032760 -0.181059 0.358268,
        0.028793 -0.180197 0.358268,
        0.025015 -0.178387 0.358268,
        0.020881 -0.174944 0.358268,
        0.018351 -0.171510 0.358268,
        0.016826 -0.167826 0.358268,
        0.016187 -0.163064 0.358268,
        0.016786 -0.158400 0.358268,
        0.018400 -0.154509 0.358268,
        0.020770 -0.151314 0.358268,
        0.022220 -0.149920 0.358268,
        0.025900 -0.147343 0.358268,
        0.029870 -0.145787 0.358268,
      ]
    }
    coordIndex [
      13, 50, 14, -1,
      14, 50, 51, -1,
      14, 51, 15, -1,
      15, 51, 52, -1,
      15, 52, 16, -1,
      16, 52, 53, -1,
      16, 53, 17, -1,
      17, 53, 54, -1,
      17, 54, 18, -1,
      18, 54, 55, -1,
      18, 55, 19, -1,
      19, 55, 56, -1,
      19, 56, 28, -1,
      28, 56, 57, -1,
      28, 57, 29, -1,
      58, 6, 1, -1,
      58, 1, 59, -1,
      59, 1, 0, -1,
      59, 0, 60, -1,
      60, 0, 5, -1,
      60, 5, 61, -1,
      61, 5, 30, -1,
      61, 30, 62, -1,
      62, 30, 29, -1,
      62, 29, 57, -1,
      63, 20, 42, -1,
      63, 42, 64, -1,
      64, 42, 41, -1,
      64, 41, 65, -1,
      65, 41, 40, -1,
      65, 40, 66, -1,
      66, 40, 7, -1,
      66, 7, 67, -1,
      67, 7, 6, -1,
      67, 6, 58, -1,
      68, 48, 45, -1,
      68, 45, 69, -1,
      69, 45, 44, -1,
      69, 44, 70, -1,
      70, 44, 43, -1,
      70, 43, 71, -1,
      71, 43, 23, -1,
      71, 23, 72, -1,
      72, 23, 22, -1,
      72, 22, 73, -1,
      73, 22, 21, -1,
      73, 21, 74, -1,
      74, 21, 20, -1,
      74, 20, 63, -1,
      75, 36, 35, -1,
      75, 35, 76, -1,
      76, 35, 34, -1,
      76, 34, 77, -1,
      77, 34, 33, -1,
      77, 33, 78, -1,
      78, 33, 32, -1,
      78, 32, 79, -1,
      79, 32, 31, -1,
      79, 31, 80, -1,
      80, 31, 49, -1,
      80, 49, 81, -1,
      81, 49, 48, -1,
      81, 48, 68, -1,
      82, 27, 26, -1,
      82, 26, 83, -1,
      83, 26, 24, -1,
      83, 24, 84, -1,
      84, 24, 9, -1,
      84, 9, 85, -1,
      85, 9, 8, -1,
      85, 8, 86, -1,
      86, 8, 36, -1,
      86, 36, 75, -1,
      87, 46, 39, -1,
      87, 39, 88, -1,
      88, 39, 38, -1,
      88, 38, 89, -1,
      89, 38, 37, -1,
      89, 37, 90, -1,
      90, 37, 25, -1,
      90, 25, 91, -1,
      91, 25, 27, -1,
      91, 27, 82, -1,
      50, 13, 12, -1,
      50, 12, 92, -1,
      92, 12, 11, -1,
      92, 11, 93, -1,
      11, 10, 93, -1,
      93, 10, 4, -1,
      93, 4, 94, -1,
      94, 4, 3, -1,
      94, 3, 95, -1,
      95, 3, 2, -1,
      95, 2, 96, -1,
      96, 2, 47, -1,
      96, 47, 97, -1,
      97, 47, 46, -1,
      97, 46, 87, -1,
      98, 99, 100, -1,
      101, 102, 58, -1,
      98, 100, 103, -1,
      102, 104, 58, -1,
      58, 104, 105, -1,
      58, 105, 99, -1,
      99, 105, 106, -1,
      99, 106, 100, -1,
      80, 81, 107, -1,
      107, 81, 108, -1,
      108, 81, 68, -1,
      108, 68, 109, -1,
      109, 68, 69, -1,
      109, 69, 110, -1,
      110, 69, 70, -1,
      110, 70, 111, -1,
      111, 70, 71, -1,
      111, 71, 112, -1,
      112, 71, 72, -1,
      112, 72, 113, -1,
      113, 72, 73, -1,
      113, 73, 114, -1,
      115, 88, 116, -1,
      116, 88, 89, -1,
      116, 89, 117, -1,
      117, 89, 90, -1,
      117, 90, 118, -1,
      118, 90, 91, -1,
      118, 91, 119, -1,
      119, 91, 82, -1,
      119, 82, 120, -1,
      73, 74, 114, -1,
      114, 74, 63, -1,
      114, 63, 121, -1,
      121, 63, 64, -1,
      121, 64, 122, -1,
      122, 64, 65, -1,
      122, 65, 123, -1,
      123, 65, 66, -1,
      123, 66, 124, -1,
      124, 66, 67, -1,
      124, 67, 125, -1,
      125, 67, 58, -1,
      125, 58, 126, -1,
      126, 58, 99, -1,
      60, 61, 127, -1,
      127, 61, 62, -1,
      127, 62, 128, -1,
      128, 62, 57, -1,
      128, 57, 129, -1,
      129, 57, 56, -1,
      129, 56, 130, -1,
      130, 56, 55, -1,
      130, 55, 131, -1,
      131, 55, 54, -1,
      131, 54, 132, -1,
      132, 54, 53, -1,
      132, 53, 133, -1,
      133, 53, 52, -1,
      133, 52, 134, -1,
      134, 52, 51, -1,
      134, 51, 135, -1,
      135, 51, 50, -1,
      135, 50, 136, -1,
      136, 50, 92, -1,
      136, 92, 137, -1,
      137, 92, 93, -1,
      137, 93, 138, -1,
      138, 93, 94, -1,
      138, 94, 139, -1,
      139, 94, 95, -1,
      139, 95, 140, -1,
      140, 95, 96, -1,
      140, 96, 141, -1,
      141, 96, 97, -1,
      141, 97, 115, -1,
      115, 97, 87, -1,
      115, 87, 88, -1,
      142, 77, 143, -1,
      143, 77, 78, -1,
      143, 78, 144, -1,
      144, 78, 79, -1,
      144, 79, 145, -1,
      145, 79, 80, -1,
      145, 80, 146, -1,
      146, 80, 107, -1,
      100, 147, 103, -1,
      103, 147, 120, -1,
      103, 120, 148, -1,
      148, 120, 82, -1,
      148, 82, 149, -1,
      149, 82, 83, -1,
      149, 83, 150, -1,
      150, 83, 84, -1,
      150, 84, 151, -1,
      151, 84, 85, -1,
      151, 85, 152, -1,
      152, 85, 86, -1,
      152, 86, 153, -1,
      153, 86, 75, -1,
      153, 75, 142, -1,
      142, 75, 76, -1,
      142, 76, 77, -1,
      101, 58, 127, -1,
      127, 58, 59, -1,
      127, 59, 60, -1,
      128, 154, 155, -1,
      128, 155, 127, -1,
      127, 155, 156, -1,
      127, 156, 101, -1,
      101, 156, 157, -1,
      101, 157, 102, -1,
      102, 157, 158, -1,
      102, 158, 104, -1,
      104, 158, 159, -1,
      104, 159, 105, -1,
      105, 159, 160, -1,
      105, 160, 106, -1,
      106, 160, 161, -1,
      106, 161, 100, -1,
      100, 161, 162, -1,
      100, 162, 147, -1,
      147, 162, 163, -1,
      147, 163, 120, -1,
      120, 163, 164, -1,
      120, 164, 119, -1,
      119, 164, 165, -1,
      119, 165, 118, -1,
      118, 165, 166, -1,
      118, 166, 117, -1,
      117, 166, 167, -1,
      117, 167, 116, -1,
      116, 167, 168, -1,
      116, 168, 115, -1,
      115, 168, 169, -1,
      115, 169, 141, -1,
      141, 169, 170, -1,
      141, 170, 140, -1,
      140, 170, 171, -1,
      140, 171, 139, -1,
      139, 171, 172, -1,
      139, 172, 138, -1,
      138, 172, 173, -1,
      138, 173, 137, -1,
      137, 173, 174, -1,
      137, 174, 136, -1,
      136, 174, 175, -1,
      136, 175, 135, -1,
      135, 175, 176, -1,
      135, 176, 134, -1,
      134, 176, 177, -1,
      134, 177, 133, -1,
      133, 177, 178, -1,
      133, 178, 132, -1,
      132, 178, 179, -1,
      132, 179, 131, -1,
      131, 179, 180, -1,
      131, 180, 130, -1,
      130, 180, 181, -1,
      130, 181, 129, -1,
      129, 181, 154, -1,
      129, 154, 128, -1,
      121, 182, 183, -1,
      121, 183, 114, -1,
      114, 183, 184, -1,
      114, 184, 113, -1,
      113, 184, 185, -1,
      113, 185, 112, -1,
      112, 185, 186, -1,
      112, 186, 111, -1,
      111, 186, 187, -1,
      111, 187, 110, -1,
      110, 187, 188, -1,
      110, 188, 109, -1,
      109, 188, 189, -1,
      109, 189, 108, -1,
      108, 189, 190, -1,
      108, 190, 107, -1,
      107, 190, 191, -1,
      107, 191, 146, -1,
      146, 191, 192, -1,
      146, 192, 145, -1,
      145, 192, 193, -1,
      145, 193, 144, -1,
      144, 193, 194, -1,
      144, 194, 143, -1,
      143, 194, 195, -1,
      143, 195, 142, -1,
      142, 195, 196, -1,
      142, 196, 153, -1,
      153, 196, 197, -1,
      153, 197, 152, -1,
      152, 197, 198, -1,
      152, 198, 151, -1,
      151, 198, 199, -1,
      151, 199, 150, -1,
      150, 199, 200, -1,
      150, 200, 149, -1,
      149, 200, 201, -1,
      149, 201, 148, -1,
      148, 201, 202, -1,
      148, 202, 103, -1,
      103, 202, 203, -1,
      103, 203, 98, -1,
      98, 203, 204, -1,
      98, 204, 99, -1,
      99, 204, 205, -1,
      99, 205, 126, -1,
      126, 205, 206, -1,
      126, 206, 125, -1,
      125, 206, 207, -1,
      125, 207, 124, -1,
      124, 207, 208, -1,
      124, 208, 123, -1,
      123, 208, 209, -1,
      123, 209, 122, -1,
      122, 209, 182, -1,
      122, 182, 121, -1,
    ]
  }
}

Shape {
  appearance Appearance {
    material Material {
      diffuseColor 0.2510 0.2510 0.2510
      specularColor 0.1255 0.1255 0.1255
      ambientIntensity 0.2
      transparency 0.0000
      shininess 0.5
    }
  }
  geometry IndexedFaceSet {
    ccw TRUE
    solid FALSE
    coord DEF co Coordinate {
      point [
        -0.019057 -0.137970 0.358268,
        -0.014293 -0.138422 0.358268,
        -0.009336 -0.140029 0.358268,
        -0.005247 -0.142642 0.358268,
        -0.002096 -0.145785 0.358268,
        0.000726 -0.150122 0.358268,
        0.002552 -0.155295 0.358268,
        0.003223 -0.161669 0.358268,
        0.002967 -0.165689 0.358268,
        0.001631 -0.171105 0.358268,
        -0.000748 -0.175705 0.358268,
        -0.004609 -0.180112 0.358268,
        -0.008723 -0.183013 0.358268,
        -0.013217 -0.184780 0.358268,
        -0.019057 -0.185502 0.358268,
        -0.024554 -0.184922 0.358268,
        -0.029150 -0.183350 0.358268,
        -0.033043 -0.180861 0.358268,
        -0.036182 -0.177739 0.358268,
        -0.038956 -0.173391 0.358268,
        -0.040767 -0.168109 0.358268,
        -0.041428 -0.161669 0.358268,
        -0.040989 -0.156210 0.358268,
        -0.039303 -0.150480 0.358268,
        -0.036671 -0.146013 0.358268,
        -0.033171 -0.142461 0.358268,
        -0.029366 -0.140091 0.358268,
        -0.024892 -0.138573 0.358268,
      ]
    }
    coordIndex [
      7, 21, 8, -1,
      8, 21, 20, -1,
      17, 16, 8, -1,
      8, 16, 15, -1,
      8, 15, 14, -1,
      27, 7, 0, -1,
      0, 7, 6, -1,
      0, 6, 5, -1,
      5, 4, 0, -1,
      0, 4, 3, -1,
      0, 3, 1, -1,
      1, 3, 2, -1,
      20, 19, 8, -1,
      8, 19, 18, -1,
      8, 18, 17, -1,
      27, 26, 7, -1,
      7, 26, 25, -1,
      7, 25, 24, -1,
      11, 14, 12, -1,
      12, 14, 13, -1,
      11, 10, 14, -1,
      14, 10, 9, -1,
      14, 9, 8, -1,
      24, 23, 7, -1,
      7, 23, 22, -1,
      7, 22, 21, -1,
    ]
  }
}

Shape {
  appearance Appearance {
    material Material {
      diffuseColor 0.6667 0.6667 0.6667
      specularColor 0.3333 0.3333 0.3333
      ambientIntensity 0.2
      transparency 0.0000
      shininess 0.5
    }
  }
  geometry IndexedFaceSet {
    ccw TRUE
    solid FALSE
    coord DEF co Coordinate {
      point [
        0.065159 -0.101961 0.358268,
        -0.052951 -0.021300 0.358268,
        -0.052951 -0.005456 0.358268,
        0.065159 -0.005456 0.358268,
        0.046434 -0.021300 0.358268,
        0.046434 -0.020828 0.358268,
        0.042495 -0.023091 0.358268,
        0.038181 -0.021232 0.358268,
        0.038737 -0.025239 0.358268,
        -0.052951 -0.083169 0.358268,
        -0.052951 -0.101961 0.358268,
        -0.032786 -0.086567 0.358268,
        -0.032786 -0.086882 0.358268,
        -0.028666 -0.084293 0.358268,
        -0.024225 -0.086243 0.358268,
        -0.024661 -0.081818 0.358268,
        0.065159 -0.025621 0.358268,
        -0.015637 -0.086117 0.358268,
        0.065159 -0.086117 0.358268,
        0.029915 -0.021300 0.358268,
        -0.052951 0.194755 0.358268,
        0.065159 0.194755 0.358268,
        0.052196 0.017590 0.358268,
        0.052196 0.062241 0.358268,
        0.011865 0.062241 0.358268,
        0.011865 0.020470 0.358268,
        -0.001098 0.020470 0.358268,
        -0.001098 0.062241 0.358268,
        -0.052951 0.062241 0.358268,
        -0.052951 0.078085 0.358268,
        0.065159 0.017590 0.358268,
        0.065159 0.078085 0.358268,
        0.065159 0.161424 0.358268,
        0.063335 0.144359 0.358268,
        0.058491 0.130559 0.358268,
        0.049879 0.117699 0.358268,
        -0.052951 0.162639 0.358268,
        -0.051611 0.147674 0.358268,
        -0.047474 0.134078 0.358268,
        -0.020524 0.105572 0.358268,
        -0.030941 0.112198 0.358268,
        -0.040274 0.121851 0.358268,
        0.049726 0.117526 0.358268,
        0.040446 0.109173 0.358268,
        0.030127 0.103658 0.358268,
        0.018393 0.100499 0.358268,
        0.007589 0.099691 0.358268,
        -0.008215 0.101345 0.358268,
        0.065159 -0.101961 0.354331,
        -0.052951 -0.101961 0.354331,
        -0.052951 -0.083169 0.354331,
        0.038737 -0.025239 0.354331,
        0.046434 -0.021300 0.354331,
        0.042495 -0.023091 0.354331,
        0.046434 -0.020828 0.354331,
        0.029915 -0.021300 0.354331,
        0.038181 -0.021232 0.354331,
        -0.052951 -0.021300 0.354331,
        -0.052951 -0.005456 0.354331,
        0.065159 -0.005456 0.354331,
        0.065159 -0.025621 0.354331,
        -0.024661 -0.081818 0.354331,
        -0.032786 -0.086567 0.354331,
        -0.028666 -0.084293 0.354331,
        -0.032786 -0.086882 0.354331,
        -0.015637 -0.086117 0.354331,
        -0.024225 -0.086243 0.354331,
        0.065159 -0.086117 0.354331,
        0.065159 0.017590 0.354331,
        0.052196 0.017590 0.354331,
        0.052196 0.062241 0.354331,
        0.011865 0.062241 0.354331,
        0.011865 0.020470 0.354331,
        -0.001098 0.020470 0.354331,
        -0.001098 0.062241 0.354331,
        -0.052951 0.062241 0.354331,
        -0.052951 0.078085 0.354331,
        0.065159 0.078085 0.354331,
        -0.052951 0.162639 0.354331,
        -0.052951 0.194755 0.354331,
        0.065159 0.194755 0.354331,
        0.065159 0.161424 0.354331,
        0.007589 0.099691 0.354331,
        0.018393 0.100499 0.354331,
        0.030127 0.103658 0.354331,
        0.040446 0.109173 0.354331,
        0.049726 0.117526 0.354331,
        0.049879 0.117699 0.354331,
        0.058491 0.130559 0.354331,
        0.063335 0.144359 0.354331,
        -0.051611 0.147674 0.354331,
        -0.047474 0.134078 0.354331,
        -0.040274 0.121851 0.354331,
        -0.030941 0.112198 0.354331,
        -0.020524 0.105572 0.354331,
        -0.008215 0.101345 0.354331,
        0.035644 0.123381 0.354331,
        0.041735 0.129124 0.354331,
        0.047288 0.137744 0.354331,
        0.050709 0.147512 0.354331,
        0.052196 0.161492 0.354331,
        0.052196 0.178911 0.354331,
        -0.039988 0.178911 0.354331,
        -0.039988 0.162144 0.354331,
        -0.038821 0.149646 0.354331,
        -0.035728 0.139729 0.354331,
        -0.030906 0.131644 0.354331,
        -0.024301 0.124964 0.354331,
        -0.016273 0.120091 0.354331,
        -0.006870 0.116974 0.354331,
        0.007252 0.115535 0.354331,
        0.019009 0.116539 0.354331,
        0.028357 0.119301 0.354331,
        0.052196 0.161492 0.358268,
        0.052196 0.178911 0.358268,
        0.050709 0.147512 0.358268,
        0.047288 0.137744 0.358268,
        0.041735 0.129124 0.358268,
        0.035644 0.123381 0.358268,
        0.028357 0.119301 0.358268,
        0.019009 0.116539 0.358268,
        0.007252 0.115535 0.358268,
        -0.006870 0.116974 0.358268,
        -0.016273 0.120091 0.358268,
        -0.024301 0.124964 0.358268,
        -0.030906 0.131644 0.358268,
        -0.035728 0.139729 0.358268,
        -0.038821 0.149646 0.358268,
        -0.039988 0.162144 0.358268,
        -0.039988 0.178911 0.358268,
      ]
    }
    coordIndex [
      48, 49, 0, -1,
      0, 49, 10, -1,
      49, 50, 10, -1,
      10, 50, 9, -1,
      50, 51, 9, -1,
      9, 51, 8, -1,
      52, 4, 6, -1,
      52, 6, 53, -1,
      53, 6, 8, -1,
      53, 8, 51, -1,
      52, 54, 4, -1,
      4, 54, 5, -1,
      55, 19, 7, -1,
      55, 7, 56, -1,
      56, 7, 5, -1,
      56, 5, 54, -1,
      55, 57, 19, -1,
      19, 57, 1, -1,
      57, 58, 1, -1,
      1, 58, 2, -1,
      58, 59, 2, -1,
      2, 59, 3, -1,
      59, 60, 3, -1,
      3, 60, 16, -1,
      60, 61, 16, -1,
      16, 61, 15, -1,
      62, 11, 13, -1,
      62, 13, 63, -1,
      63, 13, 15, -1,
      63, 15, 61, -1,
      62, 64, 11, -1,
      11, 64, 12, -1,
      65, 17, 14, -1,
      65, 14, 66, -1,
      66, 14, 12, -1,
      66, 12, 64, -1,
      65, 67, 17, -1,
      17, 67, 18, -1,
      67, 48, 18, -1,
      18, 48, 0, -1,
      48, 67, 49, -1,
      49, 67, 65, -1,
      58, 57, 59, -1,
      59, 57, 55, -1,
      55, 56, 59, -1,
      59, 56, 54, -1,
      59, 54, 60, -1,
      60, 54, 52, -1,
      65, 66, 49, -1,
      49, 66, 64, -1,
      49, 64, 50, -1,
      50, 64, 62, -1,
      62, 63, 50, -1,
      50, 63, 61, -1,
      50, 61, 51, -1,
      51, 61, 60, -1,
      51, 60, 53, -1,
      53, 60, 52, -1,
      68, 69, 30, -1,
      30, 69, 22, -1,
      69, 70, 22, -1,
      22, 70, 23, -1,
      70, 71, 23, -1,
      23, 71, 24, -1,
      71, 72, 24, -1,
      24, 72, 25, -1,
      72, 73, 25, -1,
      25, 73, 26, -1,
      73, 74, 26, -1,
      26, 74, 27, -1,
      74, 75, 27, -1,
      27, 75, 28, -1,
      75, 76, 28, -1,
      28, 76, 29, -1,
      76, 77, 29, -1,
      29, 77, 31, -1,
      77, 68, 31, -1,
      31, 68, 30, -1,
      77, 76, 74, -1,
      74, 76, 75, -1,
      69, 68, 70, -1,
      70, 68, 77, -1,
      70, 77, 71, -1,
      71, 77, 74, -1,
      71, 74, 72, -1,
      72, 74, 73, -1,
      78, 79, 36, -1,
      36, 79, 20, -1,
      79, 80, 20, -1,
      20, 80, 21, -1,
      80, 81, 21, -1,
      21, 81, 32, -1,
      82, 46, 45, -1,
      82, 45, 83, -1,
      83, 45, 44, -1,
      83, 44, 84, -1,
      84, 44, 43, -1,
      84, 43, 85, -1,
      85, 43, 42, -1,
      85, 42, 86, -1,
      86, 42, 35, -1,
      86, 35, 87, -1,
      87, 35, 34, -1,
      87, 34, 88, -1,
      88, 34, 33, -1,
      88, 33, 89, -1,
      89, 33, 32, -1,
      89, 32, 81, -1,
      78, 36, 37, -1,
      78, 37, 90, -1,
      90, 37, 38, -1,
      90, 38, 91, -1,
      91, 38, 41, -1,
      91, 41, 92, -1,
      92, 41, 40, -1,
      92, 40, 93, -1,
      93, 40, 39, -1,
      93, 39, 94, -1,
      94, 39, 47, -1,
      94, 47, 95, -1,
      95, 47, 46, -1,
      95, 46, 82, -1,
      84, 85, 96, -1,
      96, 85, 86, -1,
      96, 86, 97, -1,
      97, 86, 87, -1,
      97, 87, 98, -1,
      98, 87, 88, -1,
      98, 88, 99, -1,
      99, 88, 89, -1,
      99, 89, 100, -1,
      100, 89, 81, -1,
      100, 81, 101, -1,
      101, 81, 80, -1,
      101, 80, 102, -1,
      102, 80, 79, -1,
      102, 79, 103, -1,
      103, 79, 78, -1,
      103, 78, 104, -1,
      104, 78, 90, -1,
      104, 90, 105, -1,
      105, 90, 91, -1,
      105, 91, 106, -1,
      106, 91, 92, -1,
      106, 92, 107, -1,
      107, 92, 93, -1,
      107, 93, 108, -1,
      108, 93, 94, -1,
      108, 94, 109, -1,
      109, 94, 95, -1,
      109, 95, 110, -1,
      110, 95, 82, -1,
      110, 82, 111, -1,
      111, 82, 83, -1,
      111, 83, 112, -1,
      112, 83, 84, -1,
      112, 84, 96, -1,
      100, 101, 113, -1,
      113, 101, 114, -1,
      100, 113, 115, -1,
      100, 115, 99, -1,
      99, 115, 116, -1,
      99, 116, 98, -1,
      98, 116, 117, -1,
      98, 117, 97, -1,
      97, 117, 118, -1,
      97, 118, 96, -1,
      96, 118, 119, -1,
      96, 119, 112, -1,
      112, 119, 120, -1,
      112, 120, 111, -1,
      111, 120, 121, -1,
      111, 121, 110, -1,
      110, 121, 122, -1,
      110, 122, 109, -1,
      109, 122, 123, -1,
      109, 123, 108, -1,
      108, 123, 124, -1,
      108, 124, 107, -1,
      107, 124, 125, -1,
      107, 125, 106, -1,
      106, 125, 126, -1,
      106, 126, 105, -1,
      105, 126, 127, -1,
      105, 127, 104, -1,
      104, 127, 128, -1,
      104, 128, 103, -1,
      102, 103, 129, -1,
      129, 103, 128, -1,
      101, 102, 114, -1,
      114, 102, 129, -1,
    ]
  }
}

Shape {
  appearance Appearance {
    material Material {
      diffuseColor 0.2510 0.2510 0.2510
      specularColor 0.1255 0.1255 0.1255
      ambientIntensity 0.2
      transparency 0.0000
      shininess 0.5
    }
  }
  geometry IndexedFaceSet {
    ccw TRUE
    solid FALSE
    coord DEF co Coordinate {
      point [
        0.034979 -0.145172 0.358268,
        0.038510 -0.145435 0.358268,
        0.042766 -0.146601 0.358268,
        0.046700 -0.148872 0.358268,
        0.049532 -0.151528 0.358268,
        0.051759 -0.154811 0.358268,
        0.053084 -0.158357 0.358268,
        0.053636 -0.163064 0.358268,
        0.053198 -0.167294 0.358268,
        0.051811 -0.171245 0.358268,
        0.049631 -0.174512 0.358268,
        0.047654 -0.176543 0.358268,
        0.044028 -0.179059 0.358268,
        0.040011 -0.180590 0.358268,
        0.034979 -0.181181 0.358268,
        0.032760 -0.181059 0.358268,
        0.028793 -0.180197 0.358268,
        0.025015 -0.178387 0.358268,
        0.020881 -0.174944 0.358268,
        0.018351 -0.171510 0.358268,
        0.016826 -0.167826 0.358268,
        0.016187 -0.163064 0.358268,
        0.016786 -0.158400 0.358268,
        0.018400 -0.154509 0.358268,
        0.020770 -0.151314 0.358268,
        0.022220 -0.149920 0.358268,
        0.025900 -0.147343 0.358268,
        0.029870 -0.145787 0.358268,
        0.052196 0.161492 0.358268,
        0.052196 0.178911 0.358268,
        0.050709 0.147512 0.358268,
        0.047288 0.137744 0.358268,
        0.041735 0.129124 0.358268,
        0.035644 0.123381 0.358268,
        0.028357 0.119301 0.358268,
        0.019009 0.116539 0.358268,
        0.007252 0.115535 0.358268,
        -0.006870 0.116974 0.358268,
        -0.016273 0.120091 0.358268,
        -0.024301 0.124964 0.358268,
        -0.030906 0.131644 0.358268,
        -0.035728 0.139729 0.358268,
        -0.038821 0.149646 0.358268,
        -0.039988 0.162144 0.358268,
        -0.039988 0.178911 0.358268,
      ]
    }
    coordIndex [
      13, 12, 25, -1,
      25, 12, 11, -1,
      25, 11, 10, -1,
      17, 16, 24, -1,
      24, 16, 15, -1,
      24, 15, 25, -1,
      25, 15, 14, -1,
      25, 14, 13, -1,
      0, 10, 1, -1,
      1, 10, 9, -1,
      6, 5, 7, -1,
      7, 5, 4, -1,
      7, 4, 3, -1,
      0, 27, 10, -1,
      10, 27, 26, -1,
      10, 26, 25, -1,
      9, 8, 1, -1,
      1, 8, 7, -1,
      1, 7, 2, -1,
      2, 7, 3, -1,
      23, 19, 24, -1,
      24, 19, 18, -1,
      24, 18, 17, -1,
      22, 21, 23, -1,
      23, 21, 20, -1,
      23, 20, 19, -1,
      29, 44, 28, -1,
      28, 44, 43, -1,
      37, 36, 28, -1,
      36, 35, 28, -1,
      28, 35, 34, -1,
      28, 34, 30, -1,
      43, 42, 28, -1,
      28, 42, 41, -1,
      28, 41, 40, -1,
      33, 32, 34, -1,
      34, 32, 31, -1,
      34, 31, 30, -1,
      40, 39, 28, -1,
      28, 39, 38, -1,
      28, 38, 37, -1,
    ]
  }
}

Shape {
  appearance Appearance {
    material Material {
      diffuseColor 1.0000 1.0000 1.0000
      specularColor 0.8784 0.8784 0.8784
      ambientIntensity 0.2
      transparency 0.0000
      shininess 0.5
    }
  }
  geometry IndexedFaceSet {
    ccw TRUE
    solid FALSE
    coord DEF co Coordinate {
      point [
        -0.226599 0.152247 0.000000,
        -0.214368 0.161632 0.000000,
        -0.240842 0.146348 0.000000,
        -0.037154 0.430863 0.000000,
        -0.199083 0.218675 0.000000,
        -0.204983 0.232918 0.000000,
        -0.204983 0.173863 0.000000,
        -0.199083 0.188106 0.000000,
        -0.197071 0.203391 0.000000,
        -0.214368 0.245149 0.000000,
        -0.226599 0.254534 0.000000,
        -0.256126 0.430863 0.000000,
        -0.240842 0.260433 0.000000,
        -0.256126 0.262446 0.000000,
        0.256126 -0.040304 0.000000,
        -0.256126 -0.040304 0.000000,
        -0.256126 0.144335 0.000000,
        0.256126 -0.430863 0.000000,
        -0.037154 -0.430863 0.000000,
        -0.256126 -0.430863 0.000000,
        0.256126 0.430863 0.000000,
        -0.256126 -0.430863 0.003937,
        0.256126 -0.430863 0.003937,
        0.437008 -0.442913 0.003937,
        0.590551 -0.442913 0.003937,
        0.421723 0.440901 0.003937,
        0.407480 0.435002 0.003937,
        0.256126 0.430863 0.003937,
        0.590551 0.442913 0.003937,
        0.437008 0.442913 0.003937,
        -0.407480 0.435002 0.003937,
        -0.421723 0.440901 0.003937,
        -0.437008 0.442913 0.003937,
        -0.590551 0.442913 0.003937,
        0.385865 -0.413386 0.003937,
        0.395250 -0.425617 0.003937,
        0.407480 -0.435002 0.003937,
        0.421723 -0.440901 0.003937,
        -0.407480 0.332715 0.003937,
        -0.395250 0.342100 0.003937,
        -0.421723 0.184996 0.003937,
        0.395250 0.425617 0.003937,
        0.385865 0.413386 0.003937,
        0.379965 0.399143 0.003937,
        0.377953 0.383858 0.003937,
        0.379965 0.368574 0.003937,
        0.385865 0.354331 0.003937,
        0.395250 0.342100 0.003937,
        -0.385865 0.413386 0.003937,
        -0.395250 0.425617 0.003937,
        -0.256126 0.430863 0.003937,
        -0.256126 0.144335 0.003937,
        -0.256126 0.262446 0.003937,
        -0.240842 0.260433 0.003937,
        0.407480 0.332715 0.003937,
        0.421723 0.184996 0.003937,
        0.407480 0.179096 0.003937,
        0.395250 0.169711 0.003937,
        -0.379965 0.399143 0.003937,
        -0.226599 0.254534 0.003937,
        -0.214368 0.245149 0.003937,
        -0.204983 0.232918 0.003937,
        -0.590551 -0.442913 0.003937,
        -0.437008 -0.442913 0.003937,
        -0.421723 -0.440901 0.003937,
        -0.407480 -0.435002 0.003937,
        -0.379965 0.143237 0.003937,
        -0.385865 0.157480 0.003937,
        -0.407480 -0.179096 0.003937,
        -0.395250 -0.169711 0.003937,
        -0.421723 -0.326815 0.003937,
        0.437008 0.324803 0.003937,
        0.590551 0.324803 0.003937,
        0.590551 0.187008 0.003937,
        0.379965 -0.143237 0.003937,
        0.385865 -0.157480 0.003937,
        0.421723 -0.326815 0.003937,
        0.395250 -0.169711 0.003937,
        0.407480 -0.179096 0.003937,
        -0.199083 0.218675 0.003937,
        -0.197071 0.203391 0.003937,
        -0.240842 0.146348 0.003937,
        0.421723 0.326815 0.003937,
        0.437008 0.187008 0.003937,
        0.407480 -0.076809 0.003937,
        0.395250 -0.086194 0.003937,
        0.395250 0.086194 0.003937,
        0.385865 -0.098425 0.003937,
        0.385865 0.098425 0.003937,
        0.379965 -0.368574 0.003937,
        0.377953 -0.383858 0.003937,
        0.379965 -0.399143 0.003937,
        -0.590551 0.187008 0.003937,
        -0.590551 0.324803 0.003937,
        -0.437008 0.187008 0.003937,
        -0.437008 0.324803 0.003937,
        -0.421723 0.326815 0.003937,
        -0.199083 0.188106 0.003937,
        -0.204983 0.173863 0.003937,
        -0.395250 -0.425617 0.003937,
        -0.385865 -0.413386 0.003937,
        -0.379965 -0.399143 0.003937,
        -0.590551 -0.324803 0.003937,
        -0.590551 -0.187008 0.003937,
        -0.437008 -0.324803 0.003937,
        -0.437008 -0.187008 0.003937,
        -0.421723 -0.184996 0.003937,
        0.385865 -0.354331 0.003937,
        0.377953 -0.127953 0.003937,
        0.395250 -0.342100 0.003937,
        0.407480 -0.332715 0.003937,
        -0.214368 0.161632 0.003937,
        -0.226599 0.152247 0.003937,
        -0.377953 -0.383858 0.003937,
        -0.379965 -0.368574 0.003937,
        -0.385865 -0.354331 0.003937,
        -0.379965 -0.143237 0.003937,
        -0.377953 -0.127953 0.003937,
        -0.379965 -0.112668 0.003937,
        -0.385865 -0.098425 0.003937,
        -0.407480 0.076809 0.003937,
        -0.395250 0.086194 0.003937,
        -0.421723 -0.070910 0.003937,
        0.437008 -0.187008 0.003937,
        0.590551 -0.187008 0.003937,
        0.590551 -0.324803 0.003937,
        -0.395250 0.169711 0.003937,
        -0.407480 0.179096 0.003937,
        -0.395250 -0.086194 0.003937,
        -0.407480 -0.076809 0.003937,
        0.421723 -0.184996 0.003937,
        0.437008 -0.324803 0.003937,
        -0.385865 0.354331 0.003937,
        -0.379965 0.368574 0.003937,
        -0.377953 0.383858 0.003937,
        -0.395250 -0.342100 0.003937,
        -0.407480 -0.332715 0.003937,
        -0.385865 -0.157480 0.003937,
        -0.385865 0.098425 0.003937,
        -0.379965 0.112668 0.003937,
        -0.377953 0.127953 0.003937,
        -0.590551 -0.068898 0.003937,
        -0.590551 0.068898 0.003937,
        -0.437008 -0.068898 0.003937,
        -0.437008 0.068898 0.003937,
        -0.421723 0.070910 0.003937,
        0.437008 0.068898 0.003937,
        0.590551 0.068898 0.003937,
        0.590551 -0.068898 0.003937,
        0.377953 0.127953 0.003937,
        0.379965 0.143237 0.003937,
        0.385865 0.157480 0.003937,
        0.379965 -0.112668 0.003937,
        0.379965 0.112668 0.003937,
        0.407480 0.076809 0.003937,
        0.421723 0.070910 0.003937,
        0.421723 -0.070910 0.003937,
        0.437008 -0.068898 0.003937,
        -0.590551 0.442913 0.078740,
        -0.590551 0.324803 0.078740,
        -0.590551 0.068898 0.078740,
        -0.590551 -0.068898 0.078740,
        -0.590551 -0.187008 0.078740,
        -0.590551 0.187008 0.078740,
        -0.590551 -0.442913 0.078740,
        -0.590551 -0.324803 0.078740,
        0.590551 -0.068898 0.078740,
        0.590551 0.068898 0.078740,
        0.590551 0.187008 0.078740,
        0.590551 -0.442913 0.078740,
        0.590551 -0.324803 0.078740,
        0.590551 -0.187008 0.078740,
        0.590551 0.442913 0.078740,
        0.590551 0.324803 0.078740,
        -0.594488 0.442913 0.078740,
        -0.594488 0.324803 0.078740,
        -0.594488 0.324803 0.000000,
        -0.437008 0.324803 0.000000,
        -0.437008 0.442913 0.000000,
        -0.594488 0.442913 0.000000,
        -0.421723 0.326815 0.000000,
        -0.407480 0.332715 0.000000,
        -0.395250 0.342100 0.000000,
        -0.385865 0.354331 0.000000,
        -0.379965 0.368574 0.000000,
        -0.377953 0.383858 0.000000,
        -0.379965 0.399143 0.000000,
        -0.385865 0.413386 0.000000,
        -0.395250 0.425617 0.000000,
        -0.407480 0.435002 0.000000,
        -0.421723 0.440901 0.000000,
        -0.594488 0.187008 0.078740,
        -0.594488 0.068898 0.078740,
        -0.594488 0.068898 0.000000,
        -0.437008 0.068898 0.000000,
        -0.437008 0.187008 0.000000,
        -0.594488 0.187008 0.000000,
        -0.421723 0.070910 0.000000,
        -0.407480 0.076809 0.000000,
        -0.395250 0.086194 0.000000,
        -0.385865 0.098425 0.000000,
        -0.379965 0.112668 0.000000,
        -0.377953 0.127953 0.000000,
        -0.379965 0.143237 0.000000,
        -0.385865 0.157480 0.000000,
        -0.395250 0.169711 0.000000,
        -0.407480 0.179096 0.000000,
        -0.421723 0.184996 0.000000,
        -0.594488 -0.068898 0.078740,
        -0.594488 -0.187008 0.078740,
        -0.594488 -0.187008 0.000000,
        -0.437008 -0.187008 0.000000,
        -0.437008 -0.068898 0.000000,
        -0.594488 -0.068898 0.000000,
        -0.421723 -0.184996 0.000000,
        -0.407480 -0.179096 0.000000,
        -0.395250 -0.169711 0.000000,
        -0.385865 -0.157480 0.000000,
        -0.379965 -0.143237 0.000000,
        -0.377953 -0.127953 0.000000,
        -0.379965 -0.112668 0.000000,
        -0.385865 -0.098425 0.000000,
        -0.395250 -0.086194 0.000000,
        -0.407480 -0.076809 0.000000,
        -0.421723 -0.070910 0.000000,
        -0.594488 -0.324803 0.078740,
        -0.594488 -0.442913 0.078740,
        -0.594488 -0.442913 0.000000,
        -0.437008 -0.442913 0.000000,
        -0.437008 -0.324803 0.000000,
        -0.594488 -0.324803 0.000000,
        -0.421723 -0.440901 0.000000,
        -0.407480 -0.435002 0.000000,
        -0.395250 -0.425617 0.000000,
        -0.385865 -0.413386 0.000000,
        -0.379965 -0.399143 0.000000,
        -0.377953 -0.383858 0.000000,
        -0.379965 -0.368574 0.000000,
        -0.385865 -0.354331 0.000000,
        -0.395250 -0.342100 0.000000,
        -0.407480 -0.332715 0.000000,
        -0.421723 -0.326815 0.000000,
        0.594488 0.324803 0.078740,
        0.594488 0.442913 0.078740,
        0.594488 0.442913 0.000000,
        0.594488 0.324803 0.000000,
        0.437008 0.442913 0.000000,
        0.421723 0.440901 0.000000,
        0.407480 0.435002 0.000000,
        0.395250 0.425617 0.000000,
        0.385865 0.413386 0.000000,
        0.379965 0.399143 0.000000,
        0.377953 0.383858 0.000000,
        0.379965 0.368574 0.000000,
        0.385865 0.354331 0.000000,
        0.395250 0.342100 0.000000,
        0.407480 0.332715 0.000000,
        0.421723 0.326815 0.000000,
        0.437008 0.324803 0.000000,
        0.594488 0.068898 0.078740,
        0.594488 0.187008 0.078740,
        0.594488 0.187008 0.000000,
        0.594488 0.068898 0.000000,
        0.437008 0.187008 0.000000,
        0.421723 0.184996 0.000000,
        0.407480 0.179096 0.000000,
        0.395250 0.169711 0.000000,
        0.385865 0.157480 0.000000,
        0.379965 0.143237 0.000000,
        0.377953 0.127953 0.000000,
        0.379965 0.112668 0.000000,
        0.385865 0.098425 0.000000,
        0.395250 0.086194 0.000000,
        0.407480 0.076809 0.000000,
        0.421723 0.070910 0.000000,
        0.437008 0.068898 0.000000,
        0.594488 -0.187008 0.078740,
        0.594488 -0.068898 0.078740,
        0.594488 -0.068898 0.000000,
        0.594488 -0.187008 0.000000,
        0.437008 -0.068898 0.000000,
        0.421723 -0.070910 0.000000,
        0.407480 -0.076809 0.000000,
        0.395250 -0.086194 0.000000,
        0.385865 -0.098425 0.000000,
        0.379965 -0.112668 0.000000,
        0.377953 -0.127953 0.000000,
        0.379965 -0.143237 0.000000,
        0.385865 -0.157480 0.000000,
        0.395250 -0.169711 0.000000,
        0.407480 -0.179096 0.000000,
        0.421723 -0.184996 0.000000,
        0.437008 -0.187008 0.000000,
        0.594488 -0.442913 0.078740,
        0.594488 -0.324803 0.078740,
        0.594488 -0.324803 0.000000,
        0.594488 -0.442913 0.000000,
        0.437008 -0.324803 0.000000,
        0.421723 -0.326815 0.000000,
        0.407480 -0.332715 0.000000,
        0.395250 -0.342100 0.000000,
        0.385865 -0.354331 0.000000,
        0.379965 -0.368574 0.000000,
        0.377953 -0.383858 0.000000,
        0.379965 -0.399143 0.000000,
        0.385865 -0.413386 0.000000,
        0.395250 -0.425617 0.000000,
        0.407480 -0.435002 0.000000,
        0.421723 -0.440901 0.000000,
        0.437008 -0.442913 0.000000,
      ]
    }
    coordIndex [
      174, 175, 158, -1,
      158, 175, 159, -1,
      159, 175, 93, -1,
      93, 175, 176, -1,
      93, 176, 95, -1,
      95, 176, 177, -1,
      32, 178, 33, -1,
      33, 178, 179, -1,
      33, 179, 158, -1,
      158, 179, 174, -1,
      175, 174, 176, -1,
      176, 174, 179, -1,
      95, 177, 180, -1,
      95, 180, 96, -1,
      96, 180, 181, -1,
      96, 181, 38, -1,
      38, 181, 182, -1,
      38, 182, 39, -1,
      39, 182, 183, -1,
      39, 183, 132, -1,
      132, 183, 184, -1,
      132, 184, 133, -1,
      133, 184, 185, -1,
      133, 185, 134, -1,
      134, 185, 186, -1,
      134, 186, 58, -1,
      58, 186, 187, -1,
      58, 187, 48, -1,
      48, 187, 188, -1,
      48, 188, 49, -1,
      49, 188, 189, -1,
      49, 189, 30, -1,
      30, 189, 190, -1,
      30, 190, 31, -1,
      31, 190, 178, -1,
      31, 178, 32, -1,
      177, 176, 179, -1,
      180, 177, 186, -1,
      179, 178, 177, -1,
      177, 178, 190, -1,
      177, 190, 189, -1,
      189, 188, 177, -1,
      177, 188, 187, -1,
      177, 187, 186, -1,
      180, 186, 181, -1,
      181, 186, 185, -1,
      181, 185, 182, -1,
      182, 185, 184, -1,
      182, 184, 183, -1,
      191, 192, 163, -1,
      163, 192, 160, -1,
      160, 192, 142, -1,
      142, 192, 193, -1,
      142, 193, 144, -1,
      144, 193, 194, -1,
      94, 195, 92, -1,
      92, 195, 196, -1,
      92, 196, 163, -1,
      163, 196, 191, -1,
      192, 191, 193, -1,
      193, 191, 196, -1,
      144, 194, 197, -1,
      144, 197, 145, -1,
      145, 197, 198, -1,
      145, 198, 120, -1,
      120, 198, 199, -1,
      120, 199, 121, -1,
      121, 199, 200, -1,
      121, 200, 138, -1,
      138, 200, 201, -1,
      138, 201, 139, -1,
      139, 201, 202, -1,
      139, 202, 140, -1,
      140, 202, 203, -1,
      140, 203, 66, -1,
      66, 203, 204, -1,
      66, 204, 67, -1,
      67, 204, 205, -1,
      67, 205, 126, -1,
      126, 205, 206, -1,
      126, 206, 127, -1,
      127, 206, 207, -1,
      127, 207, 40, -1,
      40, 207, 195, -1,
      40, 195, 94, -1,
      193, 196, 194, -1,
      194, 196, 195, -1,
      195, 207, 194, -1,
      194, 207, 206, -1,
      194, 206, 205, -1,
      205, 204, 194, -1,
      194, 204, 203, -1,
      194, 203, 202, -1,
      200, 199, 201, -1,
      201, 199, 198, -1,
      201, 198, 202, -1,
      202, 198, 197, -1,
      202, 197, 194, -1,
      208, 209, 161, -1,
      161, 209, 162, -1,
      162, 209, 103, -1,
      103, 209, 210, -1,
      103, 210, 105, -1,
      105, 210, 211, -1,
      143, 212, 141, -1,
      141, 212, 213, -1,
      141, 213, 161, -1,
      161, 213, 208, -1,
      209, 208, 210, -1,
      210, 208, 213, -1,
      105, 211, 214, -1,
      105, 214, 106, -1,
      106, 214, 215, -1,
      106, 215, 68, -1,
      68, 215, 216, -1,
      68, 216, 69, -1,
      69, 216, 217, -1,
      69, 217, 137, -1,
      137, 217, 218, -1,
      137, 218, 116, -1,
      116, 218, 219, -1,
      116, 219, 117, -1,
      117, 219, 220, -1,
      117, 220, 118, -1,
      118, 220, 221, -1,
      118, 221, 119, -1,
      119, 221, 222, -1,
      119, 222, 128, -1,
      128, 222, 223, -1,
      128, 223, 129, -1,
      129, 223, 224, -1,
      129, 224, 122, -1,
      122, 224, 212, -1,
      122, 212, 143, -1,
      210, 213, 211, -1,
      211, 213, 212, -1,
      211, 212, 214, -1,
      223, 222, 221, -1,
      219, 218, 212, -1,
      212, 218, 217, -1,
      212, 224, 219, -1,
      219, 224, 223, -1,
      219, 223, 220, -1,
      220, 223, 221, -1,
      217, 216, 212, -1,
      212, 216, 215, -1,
      212, 215, 214, -1,
      225, 226, 165, -1,
      165, 226, 164, -1,
      164, 226, 62, -1,
      62, 226, 227, -1,
      62, 227, 63, -1,
      63, 227, 228, -1,
      104, 229, 102, -1,
      102, 229, 230, -1,
      102, 230, 165, -1,
      165, 230, 225, -1,
      226, 225, 227, -1,
      227, 225, 230, -1,
      63, 228, 231, -1,
      63, 231, 64, -1,
      64, 231, 232, -1,
      64, 232, 65, -1,
      65, 232, 233, -1,
      65, 233, 99, -1,
      99, 233, 234, -1,
      99, 234, 100, -1,
      100, 234, 235, -1,
      100, 235, 101, -1,
      101, 235, 236, -1,
      101, 236, 113, -1,
      113, 236, 237, -1,
      113, 237, 114, -1,
      114, 237, 238, -1,
      114, 238, 115, -1,
      115, 238, 239, -1,
      115, 239, 135, -1,
      135, 239, 240, -1,
      135, 240, 136, -1,
      136, 240, 241, -1,
      136, 241, 70, -1,
      70, 241, 229, -1,
      70, 229, 104, -1,
      229, 233, 232, -1,
      227, 230, 228, -1,
      228, 230, 229, -1,
      228, 229, 231, -1,
      231, 229, 232, -1,
      240, 239, 238, -1,
      238, 237, 240, -1,
      240, 237, 236, -1,
      240, 236, 235, -1,
      229, 241, 233, -1,
      233, 241, 240, -1,
      233, 240, 234, -1,
      234, 240, 235, -1,
      242, 243, 173, -1,
      173, 243, 172, -1,
      243, 242, 244, -1,
      244, 242, 245, -1,
      172, 243, 28, -1,
      28, 243, 244, -1,
      28, 244, 29, -1,
      29, 244, 246, -1,
      29, 246, 247, -1,
      29, 247, 25, -1,
      25, 247, 248, -1,
      25, 248, 26, -1,
      26, 248, 249, -1,
      26, 249, 41, -1,
      41, 249, 250, -1,
      41, 250, 42, -1,
      42, 250, 251, -1,
      42, 251, 43, -1,
      43, 251, 252, -1,
      43, 252, 44, -1,
      44, 252, 253, -1,
      44, 253, 45, -1,
      45, 253, 254, -1,
      45, 254, 46, -1,
      46, 254, 255, -1,
      46, 255, 47, -1,
      47, 255, 256, -1,
      47, 256, 54, -1,
      54, 256, 257, -1,
      54, 257, 82, -1,
      82, 257, 258, -1,
      82, 258, 71, -1,
      71, 258, 72, -1,
      72, 258, 245, -1,
      72, 245, 173, -1,
      173, 245, 242, -1,
      244, 245, 246, -1,
      246, 245, 258, -1,
      246, 258, 247, -1,
      247, 258, 248, -1,
      248, 258, 249, -1,
      249, 258, 257, -1,
      249, 257, 256, -1,
      251, 254, 252, -1,
      252, 254, 253, -1,
      256, 255, 249, -1,
      249, 255, 254, -1,
      249, 254, 250, -1,
      250, 254, 251, -1,
      259, 260, 167, -1,
      167, 260, 168, -1,
      260, 259, 261, -1,
      261, 259, 262, -1,
      168, 260, 73, -1,
      73, 260, 261, -1,
      73, 261, 83, -1,
      83, 261, 263, -1,
      83, 263, 264, -1,
      83, 264, 55, -1,
      55, 264, 265, -1,
      55, 265, 56, -1,
      56, 265, 266, -1,
      56, 266, 57, -1,
      57, 266, 267, -1,
      57, 267, 151, -1,
      151, 267, 268, -1,
      151, 268, 150, -1,
      150, 268, 269, -1,
      150, 269, 149, -1,
      149, 269, 270, -1,
      149, 270, 153, -1,
      153, 270, 271, -1,
      153, 271, 88, -1,
      88, 271, 272, -1,
      88, 272, 86, -1,
      86, 272, 273, -1,
      86, 273, 154, -1,
      154, 273, 274, -1,
      154, 274, 155, -1,
      155, 274, 275, -1,
      155, 275, 146, -1,
      146, 275, 147, -1,
      147, 275, 262, -1,
      147, 262, 167, -1,
      167, 262, 259, -1,
      261, 262, 263, -1,
      263, 262, 275, -1,
      263, 275, 264, -1,
      264, 275, 265, -1,
      265, 275, 266, -1,
      266, 275, 274, -1,
      266, 274, 273, -1,
      268, 271, 269, -1,
      269, 271, 270, -1,
      268, 267, 271, -1,
      271, 267, 266, -1,
      271, 266, 272, -1,
      272, 266, 273, -1,
      276, 277, 171, -1,
      171, 277, 166, -1,
      277, 276, 278, -1,
      278, 276, 279, -1,
      166, 277, 148, -1,
      148, 277, 278, -1,
      148, 278, 157, -1,
      157, 278, 280, -1,
      157, 280, 281, -1,
      157, 281, 156, -1,
      156, 281, 282, -1,
      156, 282, 84, -1,
      84, 282, 283, -1,
      84, 283, 85, -1,
      85, 283, 284, -1,
      85, 284, 87, -1,
      87, 284, 285, -1,
      87, 285, 152, -1,
      152, 285, 286, -1,
      152, 286, 108, -1,
      108, 286, 287, -1,
      108, 287, 74, -1,
      74, 287, 288, -1,
      74, 288, 75, -1,
      75, 288, 289, -1,
      75, 289, 77, -1,
      77, 289, 290, -1,
      77, 290, 78, -1,
      78, 290, 291, -1,
      78, 291, 130, -1,
      130, 291, 292, -1,
      130, 292, 123, -1,
      123, 292, 124, -1,
      124, 292, 279, -1,
      124, 279, 171, -1,
      171, 279, 276, -1,
      278, 279, 280, -1,
      280, 279, 292, -1,
      280, 292, 281, -1,
      281, 292, 282, -1,
      282, 292, 283, -1,
      283, 292, 291, -1,
      283, 291, 290, -1,
      285, 288, 286, -1,
      286, 288, 287, -1,
      285, 284, 288, -1,
      288, 284, 283, -1,
      288, 283, 289, -1,
      289, 283, 290, -1,
      293, 294, 169, -1,
      169, 294, 170, -1,
      294, 293, 295, -1,
      295, 293, 296, -1,
      170, 294, 125, -1,
      125, 294, 295, -1,
      125, 295, 131, -1,
      131, 295, 297, -1,
      131, 297, 298, -1,
      131, 298, 76, -1,
      76, 298, 299, -1,
      76, 299, 110, -1,
      110, 299, 300, -1,
      110, 300, 109, -1,
      109, 300, 301, -1,
      109, 301, 107, -1,
      107, 301, 302, -1,
      107, 302, 89, -1,
      89, 302, 303, -1,
      89, 303, 90, -1,
      90, 303, 304, -1,
      90, 304, 91, -1,
      91, 304, 305, -1,
      91, 305, 34, -1,
      34, 305, 306, -1,
      34, 306, 35, -1,
      35, 306, 307, -1,
      35, 307, 36, -1,
      36, 307, 308, -1,
      36, 308, 37, -1,
      37, 308, 309, -1,
      37, 309, 23, -1,
      23, 309, 24, -1,
      24, 309, 296, -1,
      24, 296, 169, -1,
      169, 296, 293, -1,
      295, 296, 297, -1,
      297, 296, 309, -1,
      297, 309, 308, -1,
      308, 307, 297, -1,
      297, 307, 306, -1,
      297, 306, 305, -1,
      299, 303, 300, -1,
      300, 303, 302, -1,
      300, 302, 301, -1,
      305, 304, 297, -1,
      297, 304, 303, -1,
      297, 303, 298, -1,
      298, 303, 299, -1,
      17, 22, 18, -1,
      18, 22, 21, -1,
      18, 21, 19, -1,
      20, 27, 14, -1,
      14, 27, 22, -1,
      14, 22, 17, -1,
      11, 50, 3, -1,
      3, 50, 27, -1,
      3, 27, 20, -1,
      11, 13, 50, -1,
      50, 13, 52, -1,
      52, 13, 53, -1,
      53, 13, 12, -1,
      53, 12, 59, -1,
      59, 12, 10, -1,
      59, 10, 60, -1,
      60, 10, 9, -1,
      60, 9, 61, -1,
      61, 9, 5, -1,
      61, 5, 79, -1,
      79, 5, 4, -1,
      79, 4, 80, -1,
      80, 4, 8, -1,
      80, 8, 97, -1,
      97, 8, 7, -1,
      97, 7, 98, -1,
      98, 7, 6, -1,
      98, 6, 111, -1,
      111, 6, 1, -1,
      111, 1, 112, -1,
      112, 1, 0, -1,
      112, 0, 81, -1,
      81, 0, 2, -1,
      81, 2, 51, -1,
      51, 2, 16, -1,
      19, 21, 15, -1,
      15, 21, 51, -1,
      15, 51, 16, -1,
    ]
  }
}

Shape {
  appearance Appearance {
    material Material {
      diffuseColor 0.2510 0.2510 0.2510
      specularColor 0.1255 0.1255 0.1255
      ambientIntensity 0.2
      transparency 0.0000
      shininess 0.5
    }
  }
  geometry IndexedFaceSet {
    ccw TRUE
    solid FALSE
    coord DEF co Coordinate {
      point [
        -0.037154 -0.074273 0.000000,
        -0.036673 -0.113282 0.000000,
        -0.036673 -0.153613 0.000000,
        0.034385 -0.066426 0.000000,
        -0.024731 -0.049397 0.000000,
        0.033142 -0.056855 0.000000,
        -0.023950 -0.047986 0.000000,
        0.029344 -0.047986 0.000000,
        0.021341 -0.102406 0.000000,
        0.028707 -0.097789 0.000000,
        0.042067 -0.143050 0.000000,
        0.039906 -0.047986 0.000000,
        -0.032592 -0.047986 0.000000,
        -0.036039 -0.056379 0.000000,
        -0.016078 -0.103496 0.000000,
        -0.028031 -0.113282 0.000000,
        -0.023593 -0.099335 0.000000,
        -0.029854 -0.093443 0.000000,
        0.033516 -0.074178 0.000000,
        0.031397 -0.080041 0.000000,
        0.027657 -0.085620 0.000000,
        0.022382 -0.090353 0.000000,
        0.016292 -0.093566 0.000000,
        0.007767 -0.095649 0.000000,
        0.001857 -0.095998 0.000000,
        -0.006661 -0.095202 0.000000,
        -0.013434 -0.093065 0.000000,
        -0.028991 -0.068196 0.000000,
        -0.022766 -0.086130 0.000000,
        -0.028176 -0.075503 0.000000,
        -0.026048 -0.081294 0.000000,
        -0.018903 -0.089791 0.000000,
        -0.027831 -0.057744 0.000000,
        -0.036625 -0.079356 0.000000,
        -0.033986 -0.087027 0.000000,
        -0.028031 -0.143050 0.000000,
        0.035336 -0.090944 0.000000,
        0.039661 -0.083591 0.000000,
        0.042286 -0.074956 0.000000,
        -0.007726 -0.105831 0.000000,
        0.001211 -0.106561 0.000000,
        0.012389 -0.105432 0.000000,
        0.043027 -0.066515 0.000000,
        0.042377 -0.057089 0.000000,
        -0.037154 -0.064335 0.000000,
        -0.037596 -0.067498 0.000000,
        -0.037633 -0.069651 0.000000,
        0.042067 -0.153613 0.000000,
        -0.036673 0.153666 0.000000,
        -0.014587 0.145699 0.000000,
        -0.014587 0.113170 0.000000,
        0.042067 -0.032622 0.000000,
        -0.036673 -0.032622 0.000000,
        -0.036673 0.009629 0.000000,
        0.040851 0.058589 0.000000,
        0.037617 0.067806 0.000000,
        0.042067 0.123898 0.000000,
        0.033425 -0.022059 0.000000,
        0.007498 -0.022059 0.000000,
        0.033425 0.007709 0.000000,
        0.007498 0.005788 0.000000,
        -0.001144 0.005788 0.000000,
        -0.001144 -0.022059 0.000000,
        -0.028031 -0.022059 0.000000,
        -0.036673 0.105654 0.000000,
        -0.036673 0.094131 0.000000,
        0.023430 0.083449 0.000000,
        0.015748 0.086746 0.000000,
        0.042067 0.007709 0.000000,
        0.042067 0.024993 0.000000,
        0.042067 0.047214 0.000000,
        -0.028031 0.009629 0.000000,
        -0.036673 0.024993 0.000000,
        0.032542 0.075605 0.000000,
        0.029699 0.078670 0.000000,
        -0.015092 0.084437 0.000000,
        -0.022135 0.079922 0.000000,
        -0.028341 0.073441 0.000000,
        -0.033119 0.065219 0.000000,
        -0.036673 0.165189 0.000000,
        0.042067 0.134461 0.000000,
        -0.036673 0.046404 0.000000,
        -0.035823 0.056146 0.000000,
        0.007544 0.088221 0.000000,
        0.003687 0.088369 0.000000,
        -0.006851 0.087264 0.000000,
        0.042067 0.134461 0.007874,
        -0.036673 0.165189 0.007874,
        0.042067 0.123898 0.007874,
        -0.036673 0.094131 0.007874,
        -0.036673 0.105654 0.007874,
        -0.014587 0.113170 0.007874,
        -0.014587 0.145699 0.007874,
        -0.036673 0.153666 0.007874,
        -0.005945 0.115826 0.000000,
        -0.005945 0.115826 0.007874,
        -0.005945 0.142158 0.000000,
        -0.005945 0.142158 0.007874,
        0.026943 0.130305 0.000000,
        0.026943 0.130305 0.007874,
        0.029682 0.129604 0.007874,
        0.029682 0.129604 0.000000,
        0.032465 0.129090 0.007874,
        0.032465 0.129090 0.000000,
        0.032465 0.128835 0.000000,
        0.032465 0.128835 0.007874,
        0.029674 0.128332 0.007874,
        0.029674 0.128332 0.000000,
        0.026943 0.127574 0.007874,
        0.026943 0.127574 0.000000,
        -0.036673 0.046404 0.007874,
        -0.036673 0.024993 0.007874,
        0.003687 0.088369 0.007874,
        -0.006851 0.087264 0.007874,
        -0.015092 0.084437 0.007874,
        -0.022135 0.079922 0.007874,
        -0.028341 0.073441 0.007874,
        -0.033119 0.065219 0.007874,
        -0.035823 0.056146 0.007874,
        0.042067 0.047214 0.007874,
        0.040851 0.058589 0.007874,
        0.037617 0.067806 0.007874,
        0.032542 0.075605 0.007874,
        0.029699 0.078670 0.007874,
        0.023430 0.083449 0.007874,
        0.015748 0.086746 0.007874,
        0.007544 0.088221 0.007874,
        0.042067 0.024993 0.007874,
        0.033425 0.047169 0.000000,
        0.033425 0.047169 0.007874,
        0.033425 0.035556 0.000000,
        0.033425 0.035556 0.007874,
        -0.028031 0.035556 0.000000,
        -0.028031 0.035556 0.007874,
        -0.028031 0.046733 0.000000,
        -0.028031 0.046733 0.007874,
        -0.027260 0.055028 0.007874,
        -0.027260 0.055028 -0.000000,
        -0.025189 0.061668 0.007874,
        -0.025189 0.061668 -0.000000,
        -0.022052 0.066971 0.007874,
        -0.022052 0.066971 -0.000000,
        -0.017717 0.071378 0.007874,
        -0.017717 0.071378 0.000000,
        -0.012273 0.074745 0.007874,
        -0.012273 0.074745 -0.000000,
        -0.006088 0.076817 0.007874,
        -0.006088 0.076817 0.000000,
        0.003462 0.077807 0.007874,
        0.003462 0.077807 -0.000000,
        0.011298 0.077138 0.007874,
        0.011298 0.077138 -0.000000,
        0.017515 0.075300 0.007874,
        0.017515 0.075300 -0.000000,
        0.022348 0.072589 0.007874,
        0.022348 0.072589 0.000000,
        0.026418 0.068770 0.007874,
        0.026418 0.068770 -0.000000,
        0.030141 0.063027 0.007874,
        0.030141 0.063027 0.000000,
        0.032423 0.056535 0.007874,
        0.032423 0.056535 -0.000000,
        -0.028031 0.009629 0.007874,
        -0.036673 0.009629 0.007874,
        -0.028031 -0.022059 0.007874,
        -0.001144 -0.022059 0.007874,
        -0.001144 0.005788 0.007874,
        0.007498 0.005788 0.007874,
        0.007498 -0.022059 0.007874,
        0.033425 -0.022059 0.007874,
        0.033425 0.007709 0.007874,
        0.042067 0.007709 0.007874,
        0.042067 -0.032622 0.007874,
        -0.036673 -0.032622 0.007874,
        -0.023950 -0.047986 0.007874,
        -0.032592 -0.047986 0.007874,
        -0.028991 -0.068196 0.007874,
        -0.027831 -0.057744 0.007874,
        -0.024731 -0.049397 0.007874,
        0.001857 -0.095998 0.007874,
        -0.006661 -0.095202 0.007874,
        -0.013434 -0.093065 0.007874,
        -0.018903 -0.089791 0.007874,
        -0.022766 -0.086130 0.007874,
        -0.026048 -0.081294 0.007874,
        -0.028176 -0.075503 0.007874,
        0.034385 -0.066426 0.007874,
        0.033516 -0.074178 0.007874,
        0.031397 -0.080041 0.007874,
        0.027657 -0.085620 0.007874,
        0.022382 -0.090353 0.007874,
        0.016292 -0.093566 0.007874,
        0.007767 -0.095649 0.007874,
        0.029344 -0.047986 0.007874,
        0.033142 -0.056855 0.007874,
        0.039906 -0.047986 0.007874,
        0.043027 -0.066515 0.007874,
        0.042377 -0.057089 0.007874,
        0.001211 -0.106561 0.007874,
        0.012389 -0.105432 0.007874,
        0.021341 -0.102406 0.007874,
        0.028707 -0.097789 0.007874,
        0.035336 -0.090944 0.007874,
        0.039661 -0.083591 0.007874,
        0.042286 -0.074956 0.007874,
        -0.037633 -0.069651 0.007874,
        -0.036625 -0.079356 0.007874,
        -0.033986 -0.087027 0.007874,
        -0.029854 -0.093443 0.007874,
        -0.023593 -0.099335 0.007874,
        -0.016078 -0.103496 0.007874,
        -0.007726 -0.105831 0.007874,
        -0.036039 -0.056379 0.007874,
        -0.037596 -0.067498 0.007874,
        -0.028031 -0.113282 0.007874,
        -0.036673 -0.113282 0.007874,
        -0.028031 -0.143050 0.007874,
        0.042067 -0.143050 0.007874,
        0.042067 -0.153613 0.007874,
        -0.036673 -0.153613 0.007874,
      ]
    }
    coordIndex [
      80, 86, 79, -1,
      79, 86, 87, -1,
      56, 88, 80, -1,
      80, 88, 86, -1,
      65, 89, 56, -1,
      56, 89, 88, -1,
      64, 90, 65, -1,
      65, 90, 89, -1,
      50, 91, 64, -1,
      64, 91, 90, -1,
      49, 92, 50, -1,
      50, 92, 91, -1,
      48, 93, 49, -1,
      49, 93, 92, -1,
      79, 87, 48, -1,
      48, 87, 93, -1,
      94, 95, 96, -1,
      96, 95, 97, -1,
      96, 97, 98, -1,
      98, 97, 99, -1,
      98, 99, 100, -1,
      98, 100, 101, -1,
      101, 100, 102, -1,
      101, 102, 103, -1,
      103, 102, 104, -1,
      104, 102, 105, -1,
      104, 105, 106, -1,
      104, 106, 107, -1,
      107, 106, 108, -1,
      107, 108, 109, -1,
      109, 108, 94, -1,
      94, 108, 95, -1,
      95, 108, 88, -1,
      89, 90, 91, -1,
      108, 106, 88, -1,
      88, 106, 105, -1,
      88, 105, 86, -1,
      86, 105, 102, -1,
      86, 102, 100, -1,
      88, 89, 95, -1,
      95, 89, 91, -1,
      95, 91, 97, -1,
      97, 91, 92, -1,
      100, 99, 86, -1,
      86, 99, 97, -1,
      86, 97, 87, -1,
      87, 97, 92, -1,
      87, 92, 93, -1,
      81, 110, 72, -1,
      72, 110, 111, -1,
      84, 112, 113, -1,
      84, 113, 85, -1,
      85, 113, 114, -1,
      85, 114, 75, -1,
      75, 114, 115, -1,
      75, 115, 76, -1,
      76, 115, 116, -1,
      76, 116, 77, -1,
      77, 116, 117, -1,
      77, 117, 78, -1,
      78, 117, 118, -1,
      78, 118, 82, -1,
      82, 118, 110, -1,
      82, 110, 81, -1,
      70, 119, 120, -1,
      70, 120, 54, -1,
      54, 120, 121, -1,
      54, 121, 55, -1,
      55, 121, 122, -1,
      55, 122, 73, -1,
      73, 122, 123, -1,
      73, 123, 74, -1,
      74, 123, 124, -1,
      74, 124, 66, -1,
      66, 124, 125, -1,
      66, 125, 67, -1,
      67, 125, 126, -1,
      67, 126, 83, -1,
      83, 126, 112, -1,
      83, 112, 84, -1,
      69, 127, 70, -1,
      70, 127, 119, -1,
      72, 111, 69, -1,
      69, 111, 127, -1,
      128, 129, 130, -1,
      130, 129, 131, -1,
      130, 131, 132, -1,
      132, 131, 133, -1,
      132, 133, 134, -1,
      134, 133, 135, -1,
      134, 135, 136, -1,
      134, 136, 137, -1,
      137, 136, 138, -1,
      137, 138, 139, -1,
      139, 138, 140, -1,
      139, 140, 141, -1,
      141, 140, 142, -1,
      141, 142, 143, -1,
      143, 142, 144, -1,
      143, 144, 145, -1,
      145, 144, 146, -1,
      145, 146, 147, -1,
      147, 146, 148, -1,
      147, 148, 149, -1,
      149, 148, 150, -1,
      149, 150, 151, -1,
      151, 150, 152, -1,
      151, 152, 153, -1,
      153, 152, 154, -1,
      153, 154, 155, -1,
      155, 154, 156, -1,
      155, 156, 157, -1,
      157, 156, 158, -1,
      157, 158, 159, -1,
      159, 158, 160, -1,
      159, 160, 161, -1,
      161, 160, 129, -1,
      161, 129, 128, -1,
      113, 112, 148, -1,
      148, 112, 126, -1,
      148, 126, 150, -1,
      150, 126, 125, -1,
      150, 125, 152, -1,
      152, 125, 124, -1,
      152, 124, 154, -1,
      154, 124, 123, -1,
      154, 123, 156, -1,
      156, 123, 122, -1,
      156, 122, 158, -1,
      158, 122, 121, -1,
      158, 121, 160, -1,
      160, 121, 120, -1,
      160, 120, 129, -1,
      129, 120, 119, -1,
      129, 119, 131, -1,
      131, 119, 127, -1,
      131, 127, 133, -1,
      133, 127, 111, -1,
      133, 111, 135, -1,
      135, 111, 110, -1,
      135, 110, 136, -1,
      136, 110, 118, -1,
      136, 118, 138, -1,
      138, 118, 117, -1,
      138, 117, 140, -1,
      140, 117, 116, -1,
      140, 116, 142, -1,
      142, 116, 115, -1,
      142, 115, 144, -1,
      144, 115, 114, -1,
      144, 114, 146, -1,
      146, 114, 113, -1,
      146, 113, 148, -1,
      71, 162, 53, -1,
      53, 162, 163, -1,
      63, 164, 71, -1,
      71, 164, 162, -1,
      62, 165, 63, -1,
      63, 165, 164, -1,
      61, 166, 62, -1,
      62, 166, 165, -1,
      60, 167, 61, -1,
      61, 167, 166, -1,
      58, 168, 60, -1,
      60, 168, 167, -1,
      57, 169, 58, -1,
      58, 169, 168, -1,
      59, 170, 57, -1,
      57, 170, 169, -1,
      68, 171, 59, -1,
      59, 171, 170, -1,
      51, 172, 68, -1,
      68, 172, 171, -1,
      52, 173, 51, -1,
      51, 173, 172, -1,
      53, 163, 52, -1,
      52, 163, 173, -1,
      173, 163, 162, -1,
      162, 164, 173, -1,
      173, 164, 165, -1,
      173, 165, 172, -1,
      170, 171, 169, -1,
      169, 171, 172, -1,
      169, 172, 168, -1,
      168, 172, 165, -1,
      168, 165, 167, -1,
      167, 165, 166, -1,
      6, 174, 12, -1,
      12, 174, 175, -1,
      27, 176, 177, -1,
      27, 177, 32, -1,
      32, 177, 178, -1,
      32, 178, 4, -1,
      4, 178, 174, -1,
      4, 174, 6, -1,
      24, 179, 180, -1,
      24, 180, 25, -1,
      25, 180, 181, -1,
      25, 181, 26, -1,
      26, 181, 182, -1,
      26, 182, 31, -1,
      31, 182, 183, -1,
      31, 183, 28, -1,
      28, 183, 184, -1,
      28, 184, 30, -1,
      30, 184, 185, -1,
      30, 185, 29, -1,
      29, 185, 176, -1,
      29, 176, 27, -1,
      3, 186, 187, -1,
      3, 187, 18, -1,
      18, 187, 188, -1,
      18, 188, 19, -1,
      19, 188, 189, -1,
      19, 189, 20, -1,
      20, 189, 190, -1,
      20, 190, 21, -1,
      21, 190, 191, -1,
      21, 191, 22, -1,
      22, 191, 192, -1,
      22, 192, 23, -1,
      23, 192, 179, -1,
      23, 179, 24, -1,
      7, 193, 194, -1,
      7, 194, 5, -1,
      5, 194, 186, -1,
      5, 186, 3, -1,
      11, 195, 7, -1,
      7, 195, 193, -1,
      42, 196, 197, -1,
      42, 197, 43, -1,
      43, 197, 195, -1,
      43, 195, 11, -1,
      40, 198, 199, -1,
      40, 199, 41, -1,
      41, 199, 200, -1,
      41, 200, 8, -1,
      8, 200, 201, -1,
      8, 201, 9, -1,
      9, 201, 202, -1,
      9, 202, 36, -1,
      36, 202, 203, -1,
      36, 203, 37, -1,
      37, 203, 204, -1,
      37, 204, 38, -1,
      38, 204, 196, -1,
      38, 196, 42, -1,
      0, 46, 205, -1,
      0, 205, 33, -1,
      205, 206, 33, -1,
      33, 206, 207, -1,
      33, 207, 34, -1,
      34, 207, 208, -1,
      34, 208, 17, -1,
      17, 208, 209, -1,
      17, 209, 16, -1,
      16, 209, 210, -1,
      16, 210, 14, -1,
      14, 210, 211, -1,
      14, 211, 39, -1,
      39, 211, 198, -1,
      39, 198, 40, -1,
      13, 12, 212, -1,
      212, 12, 175, -1,
      13, 212, 44, -1,
      44, 212, 213, -1,
      44, 213, 45, -1,
      45, 213, 205, -1,
      45, 205, 46, -1,
      185, 205, 176, -1,
      176, 205, 213, -1,
      176, 213, 177, -1,
      177, 213, 212, -1,
      177, 212, 178, -1,
      178, 212, 175, -1,
      178, 175, 174, -1,
      193, 195, 194, -1,
      194, 195, 197, -1,
      194, 197, 186, -1,
      186, 197, 196, -1,
      186, 196, 187, -1,
      187, 196, 204, -1,
      187, 204, 188, -1,
      188, 204, 203, -1,
      188, 203, 189, -1,
      189, 203, 202, -1,
      189, 202, 190, -1,
      190, 202, 201, -1,
      190, 201, 191, -1,
      191, 201, 200, -1,
      191, 200, 192, -1,
      192, 200, 199, -1,
      192, 199, 179, -1,
      179, 199, 198, -1,
      179, 198, 180, -1,
      180, 198, 211, -1,
      180, 211, 181, -1,
      181, 211, 210, -1,
      181, 210, 182, -1,
      182, 210, 209, -1,
      182, 209, 183, -1,
      183, 209, 208, -1,
      183, 208, 184, -1,
      184, 208, 207, -1,
      184, 207, 185, -1,
      185, 207, 206, -1,
      185, 206, 205, -1,
      15, 214, 1, -1,
      1, 214, 215, -1,
      35, 216, 15, -1,
      15, 216, 214, -1,
      10, 217, 35, -1,
      35, 217, 216, -1,
      47, 218, 10, -1,
      10, 218, 217, -1,
      2, 219, 47, -1,
      47, 219, 218, -1,
      1, 215, 2, -1,
      2, 215, 219, -1,
      217, 218, 216, -1,
      216, 218, 219, -1,
      216, 219, 214, -1,
      214, 219, 215, -1,
    ]
  }
}

Shape {
  appearance Appearance {
    material Material {
      diffuseColor 1.0000 1.0000 1.0000
      specularColor 0.8784 0.8784 0.8784
      ambientIntensity 0.2
      transparency 0.0000
      shininess 0.5
    }
  }
  geometry IndexedFaceSet {
    ccw TRUE
    solid FALSE
    coord DEF co Coordinate {
      point [
        -0.005945 0.115826 0.000000,
        -0.005945 0.142158 0.000000,
        0.026943 0.130305 0.000000,
        0.029682 0.129604 0.000000,
        0.032465 0.129090 0.000000,
        0.032465 0.128835 0.000000,
        0.029674 0.128332 0.000000,
        0.026943 0.127574 0.000000,
        0.033425 0.047169 0.000000,
        0.033425 0.035556 0.000000,
        -0.028031 0.035556 0.000000,
        -0.028031 0.046733 0.000000,
        -0.027260 0.055028 -0.000000,
        -0.025189 0.061668 -0.000000,
        -0.022052 0.066971 -0.000000,
        -0.017717 0.071378 0.000000,
        -0.012273 0.074745 -0.000000,
        -0.006088 0.076817 0.000000,
        0.003462 0.077807 -0.000000,
        0.011298 0.077138 -0.000000,
        0.017515 0.075300 -0.000000,
        0.022348 0.072589 0.000000,
        0.026418 0.068770 -0.000000,
        0.030141 0.063027 0.000000,
        0.032423 0.056535 -0.000000,
      ]
    }
    coordIndex [
      0, 1, 7, -1,
      7, 1, 2, -1,
      7, 2, 6, -1,
      6, 2, 3, -1,
      6, 3, 5, -1,
      5, 3, 4, -1,
      8, 9, 10, -1,
      17, 18, 8, -1,
      17, 8, 16, -1,
      18, 19, 8, -1,
      8, 19, 20, -1,
      8, 20, 24, -1,
      10, 11, 8, -1,
      8, 11, 12, -1,
      8, 12, 13, -1,
      21, 22, 20, -1,
      20, 22, 23, -1,
      20, 23, 24, -1,
      13, 14, 8, -1,
      8, 14, 15, -1,
      8, 15, 16, -1,
    ]
  }
}
