#VRML V2.0 utf8

Shape {
  appearance Appearance {
    material Material {
      diffuseColor 0.5020 0.5020 0.5020
      specularColor 0.2510 0.2510 0.2510
      ambientIntensity 0.2
      transparency 0.0000
      shininess 0.5
    }
  }
  geometry IndexedFaceSet {
    ccw TRUE
    solid FALSE
    coord DEF co Coordinate {
      point [
        0.295276 0.393030 0.014590,
        0.295276 0.393701 0.019685,
        0.295276 0.374016 0.000000,
        0.295276 0.374016 0.590551,
        0.295276 -0.374016 0.000000,
        0.295276 -0.374016 0.590551,
        0.295276 -0.379111 0.589880,
        0.295276 -0.383858 0.587914,
        0.295276 -0.387935 0.584785,
        0.295276 -0.391063 0.580709,
        0.295276 0.379111 0.000671,
        0.295276 0.383858 0.002637,
        0.295276 0.387935 0.005766,
        0.295276 -0.393030 0.014590,
        0.295276 -0.391063 0.009843,
        0.295276 -0.387935 0.005766,
        0.295276 -0.383858 0.002637,
        0.295276 -0.379111 0.000671,
        0.295276 0.391063 0.009843,
        0.295276 -0.393030 0.575961,
        0.295276 -0.393701 0.570866,
        0.295276 -0.393701 0.019685,
        0.295276 0.383858 0.587914,
        0.295276 0.393030 0.575961,
        0.295276 0.387935 0.584785,
        0.295276 0.391063 0.580709,
        0.295276 0.393701 0.570866,
        0.295276 0.379111 0.589880,
        -0.295276 0.393701 0.019685,
        -0.295276 0.393701 0.570866,
        -0.295276 -0.374016 0.000000,
        -0.295276 -0.374016 0.590551,
        -0.295276 0.374016 0.000000,
        -0.295276 0.374016 0.590551,
        -0.295276 -0.379111 0.000671,
        -0.295276 -0.383858 0.002637,
        -0.295276 -0.387935 0.005766,
        -0.295276 -0.391063 0.009843,
        -0.295276 -0.393030 0.575961,
        -0.295276 -0.391063 0.580709,
        -0.295276 -0.387935 0.584785,
        -0.295276 -0.383858 0.587914,
        -0.295276 -0.379111 0.589880,
        -0.295276 -0.393030 0.014590,
        -0.295276 -0.393701 0.019685,
        -0.295276 -0.393701 0.570866,
        -0.295276 0.379111 0.589880,
        -0.295276 0.393030 0.575961,
        -0.295276 0.393030 0.014590,
        -0.295276 0.383858 0.587914,
        -0.295276 0.387935 0.584785,
        -0.295276 0.391063 0.580709,
        -0.295276 0.391063 0.009843,
        -0.295276 0.387935 0.005766,
        -0.295276 0.379111 0.000671,
        -0.295276 0.383858 0.002637,
      ]
    }
    coordIndex [
      0, 1, 2, -1,
      2, 1, 3, -1,
      2, 3, 4, -1,
      4, 3, 5, -1,
      6, 7, 5, -1,
      5, 7, 8, -1,
      5, 8, 9, -1,
      10, 11, 12, -1,
      13, 14, 4, -1,
      14, 15, 4, -1,
      4, 15, 16, -1,
      4, 16, 17, -1,
      10, 12, 2, -1,
      2, 12, 18, -1,
      2, 18, 0, -1,
      9, 19, 5, -1,
      5, 19, 20, -1,
      5, 20, 4, -1,
      4, 20, 21, -1,
      4, 21, 13, -1,
      22, 23, 24, -1,
      24, 23, 25, -1,
      1, 26, 3, -1,
      3, 26, 23, -1,
      3, 23, 27, -1,
      27, 23, 22, -1,
      28, 29, 1, -1,
      1, 29, 26, -1,
      30, 31, 32, -1,
      32, 31, 33, -1,
      34, 35, 30, -1,
      30, 35, 36, -1,
      30, 36, 37, -1,
      38, 39, 31, -1,
      39, 40, 31, -1,
      31, 40, 41, -1,
      31, 41, 42, -1,
      37, 43, 30, -1,
      30, 43, 44, -1,
      30, 44, 31, -1,
      31, 44, 45, -1,
      31, 45, 38, -1,
      46, 47, 33, -1,
      33, 47, 29, -1,
      33, 29, 32, -1,
      32, 29, 28, -1,
      32, 28, 48, -1,
      46, 49, 47, -1,
      47, 49, 50, -1,
      47, 50, 51, -1,
      48, 52, 32, -1,
      32, 52, 53, -1,
      32, 53, 54, -1,
      54, 53, 55, -1,
      45, 44, 20, -1,
      20, 44, 21, -1,
      5, 3, 31, -1,
      31, 3, 33, -1,
      30, 32, 4, -1,
      4, 32, 2, -1,
      5, 31, 42, -1,
      5, 42, 6, -1,
      6, 42, 41, -1,
      6, 41, 7, -1,
      7, 41, 40, -1,
      7, 40, 8, -1,
      8, 40, 39, -1,
      8, 39, 9, -1,
      9, 39, 38, -1,
      9, 38, 19, -1,
      19, 38, 45, -1,
      19, 45, 20, -1,
      30, 4, 17, -1,
      30, 17, 34, -1,
      34, 17, 16, -1,
      34, 16, 35, -1,
      35, 16, 15, -1,
      35, 15, 36, -1,
      36, 15, 14, -1,
      36, 14, 37, -1,
      37, 14, 13, -1,
      37, 13, 43, -1,
      43, 13, 21, -1,
      43, 21, 44, -1,
      2, 32, 54, -1,
      2, 54, 10, -1,
      10, 54, 55, -1,
      10, 55, 11, -1,
      11, 55, 53, -1,
      11, 53, 12, -1,
      12, 53, 52, -1,
      12, 52, 18, -1,
      18, 52, 48, -1,
      18, 48, 0, -1,
      0, 48, 28, -1,
      0, 28, 1, -1,
      33, 3, 27, -1,
      33, 27, 46, -1,
      46, 27, 22, -1,
      46, 22, 49, -1,
      49, 22, 24, -1,
      49, 24, 50, -1,
      50, 24, 25, -1,
      50, 25, 51, -1,
      51, 25, 23, -1,
      51, 23, 47, -1,
      47, 23, 26, -1,
      47, 26, 29, -1,
    ]
  }
}

Shape {
  appearance Appearance {
    material Material {
      diffuseColor 1.0000 1.0000 1.0000
      specularColor 0.5020 0.5020 0.5020
      ambientIntensity 0.2
      transparency 0.0000
      shininess 0.5
    }
  }
  geometry IndexedFaceSet {
    ccw TRUE
    solid FALSE
    coord DEF co Coordinate {
      point [
        0.295276 0.393030 0.014590,
        0.295276 0.393701 0.019685,
        0.295276 0.374016 0.000000,
        0.295276 0.374016 0.590551,
        0.295276 -0.374016 0.000000,
        0.295276 -0.374016 0.590551,
        0.295276 -0.379111 0.589880,
        0.295276 -0.383858 0.587914,
        0.295276 -0.387935 0.584785,
        0.295276 -0.391063 0.580709,
        0.295276 0.379111 0.000671,
        0.295276 0.383858 0.002637,
        0.295276 0.387935 0.005766,
        0.295276 -0.393030 0.014590,
        0.295276 -0.391063 0.009843,
        0.295276 -0.387935 0.005766,
        0.295276 -0.383858 0.002637,
        0.295276 -0.379111 0.000671,
        0.295276 0.391063 0.009843,
        0.295276 -0.393030 0.575961,
        0.295276 -0.393701 0.570866,
        0.295276 -0.393701 0.019685,
        0.295276 0.383858 0.587914,
        0.295276 0.393030 0.575961,
        0.295276 0.387935 0.584785,
        0.295276 0.391063 0.580709,
        0.295276 0.393701 0.570866,
        0.295276 0.379111 0.589880,
        -0.295276 0.393701 0.019685,
        -0.295276 0.393701 0.570866,
        -0.295276 -0.374016 0.000000,
        -0.295276 -0.374016 0.590551,
        -0.295276 0.374016 0.000000,
        -0.295276 0.374016 0.590551,
        -0.295276 -0.379111 0.000671,
        -0.295276 -0.383858 0.002637,
        -0.295276 -0.387935 0.005766,
        -0.295276 -0.391063 0.009843,
        -0.295276 -0.393030 0.575961,
        -0.295276 -0.391063 0.580709,
        -0.295276 -0.387935 0.584785,
        -0.295276 -0.383858 0.587914,
        -0.295276 -0.379111 0.589880,
        -0.295276 -0.393030 0.014590,
        -0.295276 -0.393701 0.019685,
        -0.295276 -0.393701 0.570866,
        -0.295276 0.379111 0.589880,
        -0.295276 0.393030 0.575961,
        -0.295276 0.393030 0.014590,
        -0.295276 0.383858 0.587914,
        -0.295276 0.387935 0.584785,
        -0.295276 0.391063 0.580709,
        -0.295276 0.391063 0.009843,
        -0.295276 0.387935 0.005766,
        -0.295276 0.379111 0.000671,
        -0.295276 0.383858 0.002637,
        -0.472441 0.393701 0.570866,
        -0.472441 0.393701 0.019685,
        -0.472441 0.374016 0.000000,
        -0.472441 -0.374016 0.000000,
        -0.472441 -0.393701 0.019685,
        -0.472441 -0.393701 0.570866,
        -0.472441 -0.374016 0.590551,
        -0.472441 0.374016 0.590551,
        -0.492126 -0.374016 0.570866,
        -0.492126 0.374016 0.570866,
        -0.492126 -0.374016 0.019685,
        -0.492126 0.374016 0.019685,
        -0.472441 0.379111 0.589880,
        -0.472441 0.383858 0.587914,
        -0.472441 0.387935 0.584785,
        -0.472441 0.391063 0.580709,
        -0.472441 0.393030 0.575961,
        -0.472441 0.393030 0.014590,
        -0.472441 0.391063 0.009843,
        -0.472441 0.387935 0.005766,
        -0.472441 0.383858 0.002637,
        -0.472441 0.379111 0.000671,
        -0.472441 -0.393030 0.575961,
        -0.472441 -0.391063 0.580709,
        -0.472441 -0.387935 0.584785,
        -0.472441 -0.383858 0.587914,
        -0.472441 -0.379111 0.589880,
        -0.472441 -0.379111 0.000671,
        -0.472441 -0.383858 0.002637,
        -0.472441 -0.387935 0.005766,
        -0.472441 -0.391063 0.009843,
        -0.472441 -0.393030 0.014590,
        -0.491551 0.374016 0.015315,
        -0.491455 0.375334 0.014764,
        -0.476811 0.374016 0.000575,
        -0.477536 0.378937 0.001319,
        -0.477536 0.374016 0.000671,
        -0.480930 0.374016 0.002076,
        -0.482283 0.378428 0.003218,
        -0.482283 0.374016 0.002637,
        -0.484614 0.374016 0.004426,
        -0.486360 0.377619 0.006240,
        -0.486360 0.374016 0.005766,
        -0.487700 0.374016 0.007512,
        -0.489489 0.376563 0.010178,
        -0.477536 0.392382 0.014764,
        -0.477536 0.390483 0.010178,
        -0.482283 0.390483 0.015273,
        -0.482283 0.388780 0.011161,
        -0.486360 0.387461 0.016082,
        -0.486360 0.386070 0.012725,
        -0.489489 0.383523 0.017138,
        -0.489489 0.382540 0.014764,
        -0.491455 0.378937 0.018367,
        -0.491455 0.378428 0.017138,
        -0.477536 0.387461 0.006240,
        -0.482283 0.386070 0.007630,
        -0.486360 0.383858 0.009843,
        -0.489489 0.380976 0.012725,
        -0.491455 0.377619 0.016082,
        -0.477536 0.393030 0.019685,
        -0.482283 0.391063 0.019685,
        -0.486360 0.387935 0.019685,
        -0.489489 0.383858 0.019685,
        -0.491455 0.379111 0.019685,
        -0.477536 0.383523 0.003218,
        -0.482283 0.382540 0.004921,
        -0.486360 0.380976 0.007630,
        -0.489489 0.378937 0.011161,
        -0.491455 0.376563 0.015273,
        -0.489489 0.374016 0.009843,
        -0.490050 0.374016 0.011196,
        -0.491455 0.374016 0.014590,
        -0.476811 -0.374016 0.000575,
        -0.477536 -0.374016 0.000671,
        -0.480930 -0.374016 0.002076,
        -0.482283 -0.374016 0.002637,
        -0.484614 -0.374016 0.004426,
        -0.486360 -0.374016 0.005766,
        -0.487700 -0.374016 0.007512,
        -0.489489 -0.374016 0.009843,
        -0.490050 -0.374016 0.011196,
        -0.491455 -0.374016 0.014590,
        -0.491551 -0.374016 0.015315,
        -0.477536 0.393030 0.570866,
        -0.482283 0.391063 0.570866,
        -0.486360 0.387935 0.570866,
        -0.489489 0.383858 0.570866,
        -0.491455 0.379111 0.570866,
        -0.491455 -0.377619 0.016082,
        -0.491455 -0.378428 0.017138,
        -0.489489 -0.376563 0.010178,
        -0.486360 -0.377619 0.006240,
        -0.477536 -0.392382 0.014764,
        -0.477536 -0.387461 0.006240,
        -0.477536 -0.378937 0.001319,
        -0.477536 -0.383523 0.003218,
        -0.482283 -0.382540 0.004921,
        -0.482283 -0.378428 0.003218,
        -0.482283 -0.391063 0.019685,
        -0.486360 -0.387935 0.019685,
        -0.486360 -0.387461 0.016082,
        -0.486360 -0.380976 0.007630,
        -0.482283 -0.386070 0.007630,
        -0.477536 -0.390483 0.010178,
        -0.489489 -0.383523 0.017138,
        -0.489489 -0.382540 0.014764,
        -0.482283 -0.388780 0.011161,
        -0.486360 -0.383858 0.009843,
        -0.489489 -0.378937 0.011161,
        -0.491455 -0.375334 0.014764,
        -0.491455 -0.378937 0.018367,
        -0.489489 -0.383858 0.019685,
        -0.491455 -0.379111 0.019685,
        -0.477536 -0.393030 0.019685,
        -0.482283 -0.390483 0.015273,
        -0.486360 -0.386070 0.012725,
        -0.489489 -0.380976 0.012725,
        -0.491455 -0.376563 0.015273,
        -0.477536 0.378937 0.589233,
        -0.477536 0.383523 0.587333,
        -0.482283 0.378428 0.587333,
        -0.482283 0.382540 0.585630,
        -0.486360 0.377619 0.584311,
        -0.486360 0.380976 0.582921,
        -0.489489 0.376563 0.580373,
        -0.489489 0.378937 0.579390,
        -0.491455 0.375334 0.575787,
        -0.491455 0.376563 0.575278,
        -0.477536 0.387461 0.584311,
        -0.482283 0.386070 0.582921,
        -0.486360 0.383858 0.580709,
        -0.489489 0.380976 0.577826,
        -0.491455 0.377619 0.574469,
        -0.477536 0.374016 0.589880,
        -0.482283 0.374016 0.587914,
        -0.486360 0.374016 0.584785,
        -0.489489 0.374016 0.580709,
        -0.491455 0.374016 0.575961,
        -0.477536 0.390483 0.580373,
        -0.477536 0.392382 0.575787,
        -0.482283 0.388780 0.579390,
        -0.482283 0.390483 0.575278,
        -0.486360 0.386070 0.577826,
        -0.486360 0.387461 0.574469,
        -0.489489 0.382540 0.575787,
        -0.489489 0.383523 0.573413,
        -0.491455 0.378428 0.573413,
        -0.491455 0.378937 0.572185,
        -0.477536 -0.393030 0.570866,
        -0.482283 -0.391063 0.570866,
        -0.486360 -0.387935 0.570866,
        -0.489489 -0.383858 0.570866,
        -0.491455 -0.379111 0.570866,
        -0.477536 -0.374016 0.589880,
        -0.482283 -0.374016 0.587914,
        -0.486360 -0.374016 0.584785,
        -0.489489 -0.374016 0.580709,
        -0.491455 -0.374016 0.575961,
        -0.477536 -0.392382 0.575787,
        -0.477536 -0.390483 0.580373,
        -0.482283 -0.390483 0.575278,
        -0.482283 -0.388780 0.579390,
        -0.486360 -0.387461 0.574469,
        -0.486360 -0.386070 0.577826,
        -0.489489 -0.383523 0.573413,
        -0.489489 -0.382540 0.575787,
        -0.491455 -0.378937 0.572185,
        -0.491455 -0.378428 0.573413,
        -0.477536 -0.387461 0.584311,
        -0.482283 -0.386070 0.582921,
        -0.486360 -0.383858 0.580709,
        -0.489489 -0.380976 0.577826,
        -0.491455 -0.377619 0.574469,
        -0.477536 -0.383523 0.587333,
        -0.477536 -0.378937 0.589233,
        -0.482283 -0.382540 0.585630,
        -0.482283 -0.378428 0.587333,
        -0.486360 -0.380976 0.582921,
        -0.486360 -0.377619 0.584311,
        -0.489489 -0.378937 0.579390,
        -0.489489 -0.376563 0.580373,
        -0.491455 -0.376563 0.575278,
        -0.491455 -0.375334 0.575787,
        0.472441 -0.393701 0.570866,
        0.472441 -0.393701 0.019685,
        0.472441 -0.374016 0.000000,
        0.472441 0.374016 0.000000,
        0.472441 0.393701 0.019685,
        0.472441 0.393701 0.570866,
        0.472441 0.374016 0.590551,
        0.472441 -0.374016 0.590551,
        0.492126 -0.374016 0.019685,
        0.492126 0.374016 0.019685,
        0.492126 -0.374016 0.570866,
        0.492126 0.374016 0.570866,
        0.472441 0.379111 0.000671,
        0.472441 0.383858 0.002637,
        0.472441 0.387935 0.005766,
        0.472441 0.391063 0.009843,
        0.472441 0.393030 0.014590,
        0.472441 0.393030 0.575961,
        0.472441 0.391063 0.580709,
        0.472441 0.387935 0.584785,
        0.472441 0.383858 0.587914,
        0.472441 0.379111 0.589880,
        0.472441 -0.379111 0.589880,
        0.472441 -0.383858 0.587914,
        0.472441 -0.387935 0.584785,
        0.472441 -0.391063 0.580709,
        0.472441 -0.393030 0.575961,
        0.472441 -0.393030 0.014590,
        0.472441 -0.391063 0.009843,
        0.472441 -0.387935 0.005766,
        0.472441 -0.383858 0.002637,
        0.472441 -0.379111 0.000671,
        0.477536 0.392382 0.575787,
        0.477536 0.390483 0.580373,
        0.482283 0.390483 0.575278,
        0.482283 0.388780 0.579390,
        0.486360 0.387461 0.574469,
        0.486360 0.386070 0.577826,
        0.489489 0.383523 0.573413,
        0.489489 0.382540 0.575787,
        0.491455 0.378937 0.572185,
        0.491455 0.378428 0.573413,
        0.477536 0.387461 0.584311,
        0.482283 0.386070 0.582921,
        0.486360 0.383858 0.580709,
        0.489489 0.380976 0.577826,
        0.491455 0.377619 0.574469,
        0.477536 0.393030 0.570866,
        0.482283 0.391063 0.570866,
        0.486360 0.387935 0.570866,
        0.489489 0.383858 0.570866,
        0.491455 0.379111 0.570866,
        0.477536 0.383523 0.587333,
        0.477536 0.378937 0.589233,
        0.482283 0.382540 0.585630,
        0.482283 0.378428 0.587333,
        0.486360 0.380976 0.582921,
        0.486360 0.377619 0.584311,
        0.489489 0.378937 0.579390,
        0.489489 0.376563 0.580373,
        0.491455 0.376563 0.575278,
        0.491455 0.375334 0.575787,
        0.477536 0.374016 0.589880,
        0.482283 0.374016 0.587914,
        0.486360 0.374016 0.584785,
        0.489489 0.374016 0.580709,
        0.491455 0.374016 0.575961,
        0.477536 -0.374016 0.589880,
        0.482283 -0.374016 0.587914,
        0.486360 -0.374016 0.584785,
        0.489489 -0.374016 0.580709,
        0.491455 -0.374016 0.575961,
        0.477536 0.393030 0.019685,
        0.482283 0.391063 0.019685,
        0.486360 0.387935 0.019685,
        0.489489 0.383858 0.019685,
        0.491455 0.379111 0.019685,
        0.477536 -0.378937 0.589233,
        0.477536 -0.383523 0.587333,
        0.482283 -0.378428 0.587333,
        0.482283 -0.382540 0.585630,
        0.486360 -0.377619 0.584311,
        0.486360 -0.380976 0.582921,
        0.489489 -0.376563 0.580373,
        0.489489 -0.378937 0.579390,
        0.491455 -0.375334 0.575787,
        0.491455 -0.376563 0.575278,
        0.477536 -0.387461 0.584311,
        0.482283 -0.386070 0.582921,
        0.486360 -0.383858 0.580709,
        0.489489 -0.380976 0.577826,
        0.491455 -0.377619 0.574469,
        0.477536 -0.390483 0.580373,
        0.477536 -0.392382 0.575787,
        0.482283 -0.388780 0.579390,
        0.482283 -0.390483 0.575278,
        0.486360 -0.386070 0.577826,
        0.486360 -0.387461 0.574469,
        0.489489 -0.382540 0.575787,
        0.489489 -0.383523 0.573413,
        0.491455 -0.378428 0.573413,
        0.491455 -0.378937 0.572185,
        0.477536 -0.393030 0.570866,
        0.482283 -0.391063 0.570866,
        0.486360 -0.387935 0.570866,
        0.489489 -0.383858 0.570866,
        0.491455 -0.379111 0.570866,
        0.477536 0.378937 0.001319,
        0.477536 0.383523 0.003218,
        0.482283 0.378428 0.003218,
        0.482283 0.382540 0.004921,
        0.486360 0.377619 0.006240,
        0.486360 0.380976 0.007630,
        0.489489 0.376563 0.010178,
        0.489489 0.378937 0.011161,
        0.491455 0.375334 0.014764,
        0.491455 0.376563 0.015273,
        0.477536 0.387461 0.006240,
        0.482283 0.386070 0.007630,
        0.486360 0.383858 0.009843,
        0.489489 0.380976 0.012725,
        0.491455 0.377619 0.016082,
        0.477536 0.374016 0.000671,
        0.482283 0.374016 0.002637,
        0.486360 0.374016 0.005766,
        0.489489 0.374016 0.009843,
        0.491455 0.374016 0.014590,
        0.477536 0.390483 0.010178,
        0.477536 0.392382 0.014764,
        0.482283 0.388780 0.011161,
        0.482283 0.390483 0.015273,
        0.486360 0.386070 0.012725,
        0.486360 0.387461 0.016082,
        0.489489 0.382540 0.014764,
        0.489489 0.383523 0.017138,
        0.491455 0.378428 0.017138,
        0.491455 0.378937 0.018367,
        0.477536 -0.393030 0.019685,
        0.482283 -0.391063 0.019685,
        0.486360 -0.387935 0.019685,
        0.489489 -0.383858 0.019685,
        0.491455 -0.379111 0.019685,
        0.477536 -0.374016 0.000671,
        0.482283 -0.374016 0.002637,
        0.486360 -0.374016 0.005766,
        0.489489 -0.374016 0.009843,
        0.491455 -0.374016 0.014590,
        0.477536 -0.392382 0.014764,
        0.477536 -0.390483 0.010178,
        0.482283 -0.390483 0.015273,
        0.482283 -0.388780 0.011161,
        0.486360 -0.387461 0.016082,
        0.486360 -0.386070 0.012725,
        0.489489 -0.383523 0.017138,
        0.489489 -0.382540 0.014764,
        0.491455 -0.378937 0.018367,
        0.491455 -0.378428 0.017138,
        0.477536 -0.387461 0.006240,
        0.482283 -0.386070 0.007630,
        0.486360 -0.383858 0.009843,
        0.489489 -0.380976 0.012725,
        0.491455 -0.377619 0.016082,
        0.477536 -0.383523 0.003218,
        0.477536 -0.378937 0.001319,
        0.482283 -0.382540 0.004921,
        0.482283 -0.378428 0.003218,
        0.486360 -0.380976 0.007630,
        0.486360 -0.377619 0.006240,
        0.489489 -0.378937 0.011161,
        0.489489 -0.376563 0.010178,
        0.491455 -0.376563 0.015273,
        0.491455 -0.375334 0.014764,
      ]
    }
    coordIndex [
      56, 29, 57, -1,
      57, 29, 28, -1,
      58, 32, 59, -1,
      59, 32, 30, -1,
      60, 44, 61, -1,
      61, 44, 45, -1,
      62, 31, 63, -1,
      63, 31, 33, -1,
      64, 65, 66, -1,
      66, 65, 67, -1,
      44, 28, 45, -1,
      45, 28, 29, -1,
      44, 30, 28, -1,
      28, 30, 32, -1,
      28, 32, 48, -1,
      37, 36, 43, -1,
      43, 36, 35, -1,
      43, 35, 44, -1,
      44, 35, 34, -1,
      44, 34, 30, -1,
      54, 55, 53, -1,
      29, 47, 49, -1,
      49, 47, 51, -1,
      49, 51, 50, -1,
      54, 53, 32, -1,
      32, 53, 52, -1,
      32, 52, 48, -1,
      49, 46, 29, -1,
      29, 46, 33, -1,
      29, 33, 45, -1,
      45, 33, 31, -1,
      45, 31, 38, -1,
      38, 31, 42, -1,
      42, 41, 38, -1,
      38, 41, 40, -1,
      38, 40, 39, -1,
      63, 33, 46, -1,
      63, 46, 68, -1,
      68, 46, 49, -1,
      68, 49, 69, -1,
      69, 49, 50, -1,
      69, 50, 70, -1,
      70, 50, 51, -1,
      70, 51, 71, -1,
      71, 51, 47, -1,
      71, 47, 72, -1,
      72, 47, 29, -1,
      72, 29, 56, -1,
      57, 28, 48, -1,
      57, 48, 73, -1,
      73, 48, 52, -1,
      73, 52, 74, -1,
      74, 52, 53, -1,
      74, 53, 75, -1,
      75, 53, 55, -1,
      75, 55, 76, -1,
      76, 55, 54, -1,
      76, 54, 77, -1,
      77, 54, 32, -1,
      77, 32, 58, -1,
      61, 45, 38, -1,
      61, 38, 78, -1,
      78, 38, 39, -1,
      78, 39, 79, -1,
      79, 39, 40, -1,
      79, 40, 80, -1,
      80, 40, 41, -1,
      80, 41, 81, -1,
      81, 41, 42, -1,
      81, 42, 82, -1,
      82, 42, 31, -1,
      82, 31, 62, -1,
      59, 30, 34, -1,
      59, 34, 83, -1,
      83, 34, 35, -1,
      83, 35, 84, -1,
      84, 35, 36, -1,
      84, 36, 85, -1,
      85, 36, 37, -1,
      85, 37, 86, -1,
      86, 37, 43, -1,
      86, 43, 87, -1,
      87, 43, 44, -1,
      87, 44, 60, -1,
      88, 67, 89, -1,
      58, 90, 77, -1,
      77, 90, 91, -1,
      90, 92, 91, -1,
      91, 92, 93, -1,
      91, 93, 94, -1,
      93, 95, 94, -1,
      94, 95, 96, -1,
      94, 96, 97, -1,
      96, 98, 97, -1,
      97, 98, 99, -1,
      97, 99, 100, -1,
      73, 74, 101, -1,
      101, 74, 102, -1,
      101, 102, 103, -1,
      103, 102, 104, -1,
      103, 104, 105, -1,
      105, 104, 106, -1,
      105, 106, 107, -1,
      107, 106, 108, -1,
      107, 108, 109, -1,
      109, 108, 110, -1,
      109, 110, 67, -1,
      74, 75, 102, -1,
      102, 75, 111, -1,
      102, 111, 104, -1,
      104, 111, 112, -1,
      104, 112, 106, -1,
      106, 112, 113, -1,
      106, 113, 108, -1,
      108, 113, 114, -1,
      108, 114, 110, -1,
      110, 114, 115, -1,
      110, 115, 67, -1,
      57, 73, 116, -1,
      116, 73, 101, -1,
      116, 101, 117, -1,
      117, 101, 103, -1,
      117, 103, 118, -1,
      118, 103, 105, -1,
      118, 105, 119, -1,
      119, 105, 107, -1,
      119, 107, 120, -1,
      120, 107, 109, -1,
      120, 109, 67, -1,
      76, 77, 121, -1,
      121, 77, 91, -1,
      121, 91, 122, -1,
      122, 91, 94, -1,
      122, 94, 123, -1,
      123, 94, 97, -1,
      123, 97, 124, -1,
      124, 97, 100, -1,
      124, 100, 125, -1,
      125, 100, 89, -1,
      125, 89, 67, -1,
      99, 126, 100, -1,
      100, 126, 127, -1,
      100, 127, 89, -1,
      89, 127, 128, -1,
      89, 128, 88, -1,
      75, 76, 111, -1,
      111, 76, 121, -1,
      111, 121, 112, -1,
      112, 121, 122, -1,
      112, 122, 113, -1,
      113, 122, 123, -1,
      113, 123, 114, -1,
      114, 123, 124, -1,
      114, 124, 115, -1,
      115, 124, 125, -1,
      115, 125, 67, -1,
      59, 129, 58, -1,
      58, 129, 90, -1,
      90, 129, 92, -1,
      92, 129, 130, -1,
      92, 130, 93, -1,
      93, 130, 131, -1,
      93, 131, 95, -1,
      95, 131, 132, -1,
      95, 132, 96, -1,
      96, 132, 133, -1,
      96, 133, 98, -1,
      98, 133, 134, -1,
      98, 134, 99, -1,
      99, 134, 135, -1,
      99, 135, 126, -1,
      126, 135, 136, -1,
      126, 136, 127, -1,
      127, 136, 137, -1,
      127, 137, 128, -1,
      128, 137, 138, -1,
      128, 138, 88, -1,
      138, 139, 88, -1,
      88, 139, 66, -1,
      88, 66, 67, -1,
      56, 57, 116, -1,
      56, 116, 140, -1,
      140, 116, 117, -1,
      140, 117, 141, -1,
      141, 117, 118, -1,
      141, 118, 142, -1,
      142, 118, 119, -1,
      142, 119, 143, -1,
      143, 119, 120, -1,
      143, 120, 144, -1,
      144, 120, 67, -1,
      144, 67, 65, -1,
      145, 146, 66, -1,
      137, 136, 147, -1,
      135, 134, 148, -1,
      149, 87, 60, -1,
      150, 85, 86, -1,
      59, 83, 129, -1,
      129, 83, 151, -1,
      129, 151, 130, -1,
      84, 85, 152, -1,
      152, 85, 150, -1,
      152, 150, 153, -1,
      130, 151, 131, -1,
      131, 151, 154, -1,
      131, 154, 132, -1,
      83, 84, 151, -1,
      151, 84, 152, -1,
      151, 152, 154, -1,
      154, 152, 153, -1,
      154, 153, 148, -1,
      148, 134, 154, -1,
      154, 134, 133, -1,
      154, 133, 132, -1,
      155, 156, 157, -1,
      136, 135, 147, -1,
      147, 135, 148, -1,
      147, 148, 158, -1,
      158, 148, 153, -1,
      158, 153, 159, -1,
      159, 153, 150, -1,
      159, 150, 160, -1,
      160, 150, 86, -1,
      160, 86, 87, -1,
      157, 161, 162, -1,
      87, 149, 160, -1,
      160, 149, 163, -1,
      160, 163, 159, -1,
      159, 163, 164, -1,
      159, 164, 158, -1,
      158, 164, 165, -1,
      158, 165, 147, -1,
      147, 165, 166, -1,
      147, 166, 137, -1,
      146, 145, 162, -1,
      162, 161, 146, -1,
      146, 161, 167, -1,
      146, 167, 66, -1,
      157, 156, 161, -1,
      161, 156, 168, -1,
      161, 168, 167, -1,
      167, 168, 169, -1,
      167, 169, 66, -1,
      66, 139, 166, -1,
      166, 139, 138, -1,
      166, 138, 137, -1,
      60, 170, 149, -1,
      149, 170, 171, -1,
      149, 171, 163, -1,
      163, 171, 172, -1,
      163, 172, 164, -1,
      164, 172, 173, -1,
      164, 173, 165, -1,
      165, 173, 174, -1,
      165, 174, 166, -1,
      166, 174, 66, -1,
      170, 155, 171, -1,
      171, 155, 157, -1,
      171, 157, 172, -1,
      172, 157, 162, -1,
      172, 162, 173, -1,
      173, 162, 145, -1,
      173, 145, 174, -1,
      174, 145, 66, -1,
      68, 69, 175, -1,
      175, 69, 176, -1,
      175, 176, 177, -1,
      177, 176, 178, -1,
      177, 178, 179, -1,
      179, 178, 180, -1,
      179, 180, 181, -1,
      181, 180, 182, -1,
      181, 182, 183, -1,
      183, 182, 184, -1,
      183, 184, 65, -1,
      69, 70, 176, -1,
      176, 70, 185, -1,
      176, 185, 178, -1,
      178, 185, 186, -1,
      178, 186, 180, -1,
      180, 186, 187, -1,
      180, 187, 182, -1,
      182, 187, 188, -1,
      182, 188, 184, -1,
      184, 188, 189, -1,
      184, 189, 65, -1,
      63, 68, 190, -1,
      190, 68, 175, -1,
      190, 175, 191, -1,
      191, 175, 177, -1,
      191, 177, 192, -1,
      192, 177, 179, -1,
      192, 179, 193, -1,
      193, 179, 181, -1,
      193, 181, 194, -1,
      194, 181, 183, -1,
      194, 183, 65, -1,
      71, 72, 195, -1,
      195, 72, 196, -1,
      195, 196, 197, -1,
      197, 196, 198, -1,
      197, 198, 199, -1,
      199, 198, 200, -1,
      199, 200, 201, -1,
      201, 200, 202, -1,
      201, 202, 203, -1,
      203, 202, 204, -1,
      203, 204, 65, -1,
      72, 56, 196, -1,
      196, 56, 140, -1,
      196, 140, 198, -1,
      198, 140, 141, -1,
      198, 141, 200, -1,
      200, 141, 142, -1,
      200, 142, 202, -1,
      202, 142, 143, -1,
      202, 143, 204, -1,
      204, 143, 144, -1,
      204, 144, 65, -1,
      70, 71, 185, -1,
      185, 71, 195, -1,
      185, 195, 186, -1,
      186, 195, 197, -1,
      186, 197, 187, -1,
      187, 197, 199, -1,
      187, 199, 188, -1,
      188, 199, 201, -1,
      188, 201, 189, -1,
      189, 201, 203, -1,
      189, 203, 65, -1,
      60, 61, 205, -1,
      60, 205, 170, -1,
      170, 205, 206, -1,
      170, 206, 155, -1,
      155, 206, 207, -1,
      155, 207, 156, -1,
      156, 207, 208, -1,
      156, 208, 168, -1,
      168, 208, 209, -1,
      168, 209, 169, -1,
      169, 209, 64, -1,
      169, 64, 66, -1,
      62, 63, 190, -1,
      62, 190, 210, -1,
      210, 190, 191, -1,
      210, 191, 211, -1,
      211, 191, 192, -1,
      211, 192, 212, -1,
      212, 192, 193, -1,
      212, 193, 213, -1,
      213, 193, 194, -1,
      213, 194, 214, -1,
      214, 194, 65, -1,
      214, 65, 64, -1,
      78, 79, 215, -1,
      215, 79, 216, -1,
      215, 216, 217, -1,
      217, 216, 218, -1,
      217, 218, 219, -1,
      219, 218, 220, -1,
      219, 220, 221, -1,
      221, 220, 222, -1,
      221, 222, 223, -1,
      223, 222, 224, -1,
      223, 224, 64, -1,
      79, 80, 216, -1,
      216, 80, 225, -1,
      216, 225, 218, -1,
      218, 225, 226, -1,
      218, 226, 220, -1,
      220, 226, 227, -1,
      220, 227, 222, -1,
      222, 227, 228, -1,
      222, 228, 224, -1,
      224, 228, 229, -1,
      224, 229, 64, -1,
      61, 78, 205, -1,
      205, 78, 215, -1,
      205, 215, 206, -1,
      206, 215, 217, -1,
      206, 217, 207, -1,
      207, 217, 219, -1,
      207, 219, 208, -1,
      208, 219, 221, -1,
      208, 221, 209, -1,
      209, 221, 223, -1,
      209, 223, 64, -1,
      81, 82, 230, -1,
      230, 82, 231, -1,
      230, 231, 232, -1,
      232, 231, 233, -1,
      232, 233, 234, -1,
      234, 233, 235, -1,
      234, 235, 236, -1,
      236, 235, 237, -1,
      236, 237, 238, -1,
      238, 237, 239, -1,
      238, 239, 64, -1,
      82, 62, 231, -1,
      231, 62, 210, -1,
      231, 210, 233, -1,
      233, 210, 211, -1,
      233, 211, 235, -1,
      235, 211, 212, -1,
      235, 212, 237, -1,
      237, 212, 213, -1,
      237, 213, 239, -1,
      239, 213, 214, -1,
      239, 214, 64, -1,
      80, 81, 225, -1,
      225, 81, 230, -1,
      225, 230, 226, -1,
      226, 230, 232, -1,
      226, 232, 227, -1,
      227, 232, 234, -1,
      227, 234, 228, -1,
      228, 234, 236, -1,
      228, 236, 229, -1,
      229, 236, 238, -1,
      229, 238, 64, -1,
      240, 20, 241, -1,
      241, 20, 21, -1,
      242, 4, 243, -1,
      243, 4, 2, -1,
      244, 1, 245, -1,
      245, 1, 26, -1,
      246, 3, 247, -1,
      247, 3, 5, -1,
      248, 249, 250, -1,
      250, 249, 251, -1,
      16, 15, 14, -1,
      13, 21, 4, -1,
      4, 21, 5, -1,
      4, 5, 2, -1,
      2, 5, 3, -1,
      2, 3, 26, -1,
      13, 4, 14, -1,
      14, 4, 17, -1,
      14, 17, 16, -1,
      22, 24, 25, -1,
      7, 19, 8, -1,
      8, 19, 9, -1,
      21, 20, 5, -1,
      5, 20, 19, -1,
      5, 19, 6, -1,
      6, 19, 7, -1,
      3, 27, 26, -1,
      26, 27, 22, -1,
      26, 22, 23, -1,
      23, 22, 25, -1,
      26, 1, 2, -1,
      2, 1, 0, -1,
      2, 0, 18, -1,
      18, 12, 2, -1,
      2, 12, 11, -1,
      2, 11, 10, -1,
      243, 2, 10, -1,
      243, 10, 252, -1,
      252, 10, 11, -1,
      252, 11, 253, -1,
      253, 11, 12, -1,
      253, 12, 254, -1,
      254, 12, 18, -1,
      254, 18, 255, -1,
      255, 18, 0, -1,
      255, 0, 256, -1,
      256, 0, 1, -1,
      256, 1, 244, -1,
      245, 26, 23, -1,
      245, 23, 257, -1,
      257, 23, 25, -1,
      257, 25, 258, -1,
      258, 25, 24, -1,
      258, 24, 259, -1,
      259, 24, 22, -1,
      259, 22, 260, -1,
      260, 22, 27, -1,
      260, 27, 261, -1,
      261, 27, 3, -1,
      261, 3, 246, -1,
      247, 5, 6, -1,
      247, 6, 262, -1,
      262, 6, 7, -1,
      262, 7, 263, -1,
      263, 7, 8, -1,
      263, 8, 264, -1,
      264, 8, 9, -1,
      264, 9, 265, -1,
      265, 9, 19, -1,
      265, 19, 266, -1,
      266, 19, 20, -1,
      266, 20, 240, -1,
      241, 21, 13, -1,
      241, 13, 267, -1,
      267, 13, 14, -1,
      267, 14, 268, -1,
      268, 14, 15, -1,
      268, 15, 269, -1,
      269, 15, 16, -1,
      269, 16, 270, -1,
      270, 16, 17, -1,
      270, 17, 271, -1,
      271, 17, 4, -1,
      271, 4, 242, -1,
      257, 258, 272, -1,
      272, 258, 273, -1,
      272, 273, 274, -1,
      274, 273, 275, -1,
      274, 275, 276, -1,
      276, 275, 277, -1,
      276, 277, 278, -1,
      278, 277, 279, -1,
      278, 279, 280, -1,
      280, 279, 281, -1,
      280, 281, 251, -1,
      258, 259, 273, -1,
      273, 259, 282, -1,
      273, 282, 275, -1,
      275, 282, 283, -1,
      275, 283, 277, -1,
      277, 283, 284, -1,
      277, 284, 279, -1,
      279, 284, 285, -1,
      279, 285, 281, -1,
      281, 285, 286, -1,
      281, 286, 251, -1,
      245, 257, 287, -1,
      287, 257, 272, -1,
      287, 272, 288, -1,
      288, 272, 274, -1,
      288, 274, 289, -1,
      289, 274, 276, -1,
      289, 276, 290, -1,
      290, 276, 278, -1,
      290, 278, 291, -1,
      291, 278, 280, -1,
      291, 280, 251, -1,
      260, 261, 292, -1,
      292, 261, 293, -1,
      292, 293, 294, -1,
      294, 293, 295, -1,
      294, 295, 296, -1,
      296, 295, 297, -1,
      296, 297, 298, -1,
      298, 297, 299, -1,
      298, 299, 300, -1,
      300, 299, 301, -1,
      300, 301, 251, -1,
      261, 246, 293, -1,
      293, 246, 302, -1,
      293, 302, 295, -1,
      295, 302, 303, -1,
      295, 303, 297, -1,
      297, 303, 304, -1,
      297, 304, 299, -1,
      299, 304, 305, -1,
      299, 305, 301, -1,
      301, 305, 306, -1,
      301, 306, 251, -1,
      259, 260, 282, -1,
      282, 260, 292, -1,
      282, 292, 283, -1,
      283, 292, 294, -1,
      283, 294, 284, -1,
      284, 294, 296, -1,
      284, 296, 285, -1,
      285, 296, 298, -1,
      285, 298, 286, -1,
      286, 298, 300, -1,
      286, 300, 251, -1,
      246, 247, 307, -1,
      246, 307, 302, -1,
      302, 307, 308, -1,
      302, 308, 303, -1,
      303, 308, 309, -1,
      303, 309, 304, -1,
      304, 309, 310, -1,
      304, 310, 305, -1,
      305, 310, 311, -1,
      305, 311, 306, -1,
      306, 311, 250, -1,
      306, 250, 251, -1,
      244, 245, 287, -1,
      244, 287, 312, -1,
      312, 287, 288, -1,
      312, 288, 313, -1,
      313, 288, 289, -1,
      313, 289, 314, -1,
      314, 289, 290, -1,
      314, 290, 315, -1,
      315, 290, 291, -1,
      315, 291, 316, -1,
      316, 291, 251, -1,
      316, 251, 249, -1,
      262, 263, 317, -1,
      317, 263, 318, -1,
      317, 318, 319, -1,
      319, 318, 320, -1,
      319, 320, 321, -1,
      321, 320, 322, -1,
      321, 322, 323, -1,
      323, 322, 324, -1,
      323, 324, 325, -1,
      325, 324, 326, -1,
      325, 326, 250, -1,
      263, 264, 318, -1,
      318, 264, 327, -1,
      318, 327, 320, -1,
      320, 327, 328, -1,
      320, 328, 322, -1,
      322, 328, 329, -1,
      322, 329, 324, -1,
      324, 329, 330, -1,
      324, 330, 326, -1,
      326, 330, 331, -1,
      326, 331, 250, -1,
      247, 262, 307, -1,
      307, 262, 317, -1,
      307, 317, 308, -1,
      308, 317, 319, -1,
      308, 319, 309, -1,
      309, 319, 321, -1,
      309, 321, 310, -1,
      310, 321, 323, -1,
      310, 323, 311, -1,
      311, 323, 325, -1,
      311, 325, 250, -1,
      265, 266, 332, -1,
      332, 266, 333, -1,
      332, 333, 334, -1,
      334, 333, 335, -1,
      334, 335, 336, -1,
      336, 335, 337, -1,
      336, 337, 338, -1,
      338, 337, 339, -1,
      338, 339, 340, -1,
      340, 339, 341, -1,
      340, 341, 250, -1,
      266, 240, 333, -1,
      333, 240, 342, -1,
      333, 342, 335, -1,
      335, 342, 343, -1,
      335, 343, 337, -1,
      337, 343, 344, -1,
      337, 344, 339, -1,
      339, 344, 345, -1,
      339, 345, 341, -1,
      341, 345, 346, -1,
      341, 346, 250, -1,
      264, 265, 327, -1,
      327, 265, 332, -1,
      327, 332, 328, -1,
      328, 332, 334, -1,
      328, 334, 329, -1,
      329, 334, 336, -1,
      329, 336, 330, -1,
      330, 336, 338, -1,
      330, 338, 331, -1,
      331, 338, 340, -1,
      331, 340, 250, -1,
      252, 253, 347, -1,
      347, 253, 348, -1,
      347, 348, 349, -1,
      349, 348, 350, -1,
      349, 350, 351, -1,
      351, 350, 352, -1,
      351, 352, 353, -1,
      353, 352, 354, -1,
      353, 354, 355, -1,
      355, 354, 356, -1,
      355, 356, 249, -1,
      253, 254, 348, -1,
      348, 254, 357, -1,
      348, 357, 350, -1,
      350, 357, 358, -1,
      350, 358, 352, -1,
      352, 358, 359, -1,
      352, 359, 354, -1,
      354, 359, 360, -1,
      354, 360, 356, -1,
      356, 360, 361, -1,
      356, 361, 249, -1,
      243, 252, 362, -1,
      362, 252, 347, -1,
      362, 347, 363, -1,
      363, 347, 349, -1,
      363, 349, 364, -1,
      364, 349, 351, -1,
      364, 351, 365, -1,
      365, 351, 353, -1,
      365, 353, 366, -1,
      366, 353, 355, -1,
      366, 355, 249, -1,
      255, 256, 367, -1,
      367, 256, 368, -1,
      367, 368, 369, -1,
      369, 368, 370, -1,
      369, 370, 371, -1,
      371, 370, 372, -1,
      371, 372, 373, -1,
      373, 372, 374, -1,
      373, 374, 375, -1,
      375, 374, 376, -1,
      375, 376, 249, -1,
      256, 244, 368, -1,
      368, 244, 312, -1,
      368, 312, 370, -1,
      370, 312, 313, -1,
      370, 313, 372, -1,
      372, 313, 314, -1,
      372, 314, 374, -1,
      374, 314, 315, -1,
      374, 315, 376, -1,
      376, 315, 316, -1,
      376, 316, 249, -1,
      254, 255, 357, -1,
      357, 255, 367, -1,
      357, 367, 358, -1,
      358, 367, 369, -1,
      358, 369, 359, -1,
      359, 369, 371, -1,
      359, 371, 360, -1,
      360, 371, 373, -1,
      360, 373, 361, -1,
      361, 373, 375, -1,
      361, 375, 249, -1,
      240, 241, 377, -1,
      240, 377, 342, -1,
      342, 377, 378, -1,
      342, 378, 343, -1,
      343, 378, 379, -1,
      343, 379, 344, -1,
      344, 379, 380, -1,
      344, 380, 345, -1,
      345, 380, 381, -1,
      345, 381, 346, -1,
      346, 381, 248, -1,
      346, 248, 250, -1,
      242, 243, 362, -1,
      242, 362, 382, -1,
      382, 362, 363, -1,
      382, 363, 383, -1,
      383, 363, 364, -1,
      383, 364, 384, -1,
      384, 364, 365, -1,
      384, 365, 385, -1,
      385, 365, 366, -1,
      385, 366, 386, -1,
      386, 366, 249, -1,
      386, 249, 248, -1,
      267, 268, 387, -1,
      387, 268, 388, -1,
      387, 388, 389, -1,
      389, 388, 390, -1,
      389, 390, 391, -1,
      391, 390, 392, -1,
      391, 392, 393, -1,
      393, 392, 394, -1,
      393, 394, 395, -1,
      395, 394, 396, -1,
      395, 396, 248, -1,
      268, 269, 388, -1,
      388, 269, 397, -1,
      388, 397, 390, -1,
      390, 397, 398, -1,
      390, 398, 392, -1,
      392, 398, 399, -1,
      392, 399, 394, -1,
      394, 399, 400, -1,
      394, 400, 396, -1,
      396, 400, 401, -1,
      396, 401, 248, -1,
      241, 267, 377, -1,
      377, 267, 387, -1,
      377, 387, 378, -1,
      378, 387, 389, -1,
      378, 389, 379, -1,
      379, 389, 391, -1,
      379, 391, 380, -1,
      380, 391, 393, -1,
      380, 393, 381, -1,
      381, 393, 395, -1,
      381, 395, 248, -1,
      270, 271, 402, -1,
      402, 271, 403, -1,
      402, 403, 404, -1,
      404, 403, 405, -1,
      404, 405, 406, -1,
      406, 405, 407, -1,
      406, 407, 408, -1,
      408, 407, 409, -1,
      408, 409, 410, -1,
      410, 409, 411, -1,
      410, 411, 248, -1,
      271, 242, 403, -1,
      403, 242, 382, -1,
      403, 382, 405, -1,
      405, 382, 383, -1,
      405, 383, 407, -1,
      407, 383, 384, -1,
      407, 384, 409, -1,
      409, 384, 385, -1,
      409, 385, 411, -1,
      411, 385, 386, -1,
      411, 386, 248, -1,
      269, 270, 397, -1,
      397, 270, 402, -1,
      397, 402, 398, -1,
      398, 402, 404, -1,
      398, 404, 399, -1,
      399, 404, 406, -1,
      399, 406, 400, -1,
      400, 406, 408, -1,
      400, 408, 401, -1,
      401, 408, 410, -1,
      401, 410, 248, -1,
    ]
  }
}
