#VRML V2.0 utf8

Shape {
  appearance Appearance {
    material Material {
      diffuseColor 0.1490 0.1490 0.1490
      specularColor 0.0745 0.0745 0.0745
      ambientIntensity 0.2
      transparency 0.0000
      shininess 0.5
    }
  }
  geometry IndexedFaceSet {
    ccw TRUE
    solid FALSE
    coord DEF co Coordinate {
      point [
        0.659499 -0.209469 0.000000,
        0.644366 -0.240911 0.000000,
        0.631398 -0.227781 0.000000,
        0.642412 -0.273217 0.000000,
        0.645123 -0.288794 0.000000,
        0.512956 -0.306651 0.000000,
        0.659499 -0.277172 0.000000,
        0.658767 -0.270950 0.000000,
        0.654550 -0.258341 0.000000,
        0.538361 -0.237987 0.000000,
        0.528991 -0.225621 0.000000,
        0.628584 -0.225621 0.000000,
        0.633361 -0.359225 0.000000,
        0.647735 -0.342822 0.000000,
        0.657480 -0.457803 0.000000,
        0.196850 -0.209469 0.000000,
        0.645367 -0.295213 0.000000,
        0.643076 -0.313833 0.000000,
        0.636846 -0.329908 0.000000,
        0.617858 -0.370035 0.000000,
        0.498775 -0.318716 0.000000,
        0.506021 -0.337561 0.000000,
        0.500000 -0.397234 0.000000,
        0.196850 -0.492126 0.000000,
        0.500000 -0.471936 0.000000,
        0.659499 -0.492126 0.000000,
        0.657480 -0.471936 0.000000,
        0.619120 -0.237987 0.000000,
        0.631622 -0.251001 0.000000,
        0.529561 -0.246704 0.000000,
        0.639608 -0.265128 0.000000,
        0.520022 -0.260631 0.000000,
        0.514293 -0.275792 0.000000,
        0.626660 -0.344404 0.000000,
        0.615317 -0.354156 0.000000,
        0.601331 -0.361186 0.000000,
        0.561229 -0.362849 0.000000,
        0.548133 -0.357867 0.000000,
        0.578582 -0.364930 0.000000,
        0.535915 -0.349471 0.000000,
        0.525342 -0.337910 0.000000,
        0.512114 -0.294235 0.000000,
        0.586209 -0.364549 0.000000,
        0.517057 -0.322656 0.000000,
        0.516152 -0.457803 0.000000,
        0.579655 -0.379063 0.000000,
        0.601166 -0.376460 0.000000,
        0.516945 -0.352782 0.000000,
        0.523502 -0.359094 0.000000,
        0.516152 -0.397234 0.000000,
        0.540744 -0.370522 0.000000,
        0.558854 -0.376848 0.000000,
        0.514399 -0.239559 0.000000,
        0.503905 -0.256393 0.000000,
        0.498466 -0.271950 0.000000,
        0.495996 -0.291761 0.000000,
        0.495962 -0.294140 0.000000,
        0.660767 -0.306913 0.000000,
        0.661518 -0.294329 0.000000,
        0.803150 -0.209469 0.000000,
        0.659499 -0.312253 0.000000,
        0.656204 -0.326138 0.000000,
        0.803150 -0.492126 0.000000,
        0.500000 -0.104482 0.000000,
        0.500000 -0.193317 0.000000,
        0.657480 -0.193317 0.000000,
        0.657480 -0.104482 0.000000,
        0.521935 0.033849 0.000000,
        0.511890 0.022612 0.000000,
        0.500000 0.073188 0.000000,
        0.505165 0.009408 0.000000,
        0.500000 0.207229 0.000000,
        0.196850 0.492126 0.000000,
        0.500000 0.222593 0.000000,
        0.659499 0.492126 0.000000,
        0.550474 0.183948 0.000000,
        0.550474 0.112558 0.000000,
        0.500000 0.088614 0.000000,
        0.576753 0.052998 0.000000,
        0.555655 0.050773 0.000000,
        0.538110 0.044606 0.000000,
        0.641328 -0.179184 0.000000,
        0.592873 -0.179184 0.000000,
        0.641328 -0.104482 0.000000,
        0.592873 -0.104482 0.000000,
        0.576721 -0.104482 0.000000,
        0.500000 -0.076217 0.000000,
        0.657480 -0.076217 0.000000,
        0.657480 0.147890 0.000000,
        0.657480 0.149909 0.000000,
        0.500858 -0.010520 0.000000,
        0.500000 -0.027414 0.000000,
        0.516152 -0.104482 0.000000,
        0.516152 -0.179184 0.000000,
        0.576721 -0.179184 0.000000,
        0.656517 -0.019191 0.000000,
        0.651802 0.005552 0.000000,
        0.643752 0.021483 0.000000,
        0.633578 0.033156 0.000000,
        0.657480 -0.044418 0.000000,
        0.619189 0.043221 0.000000,
        0.602578 0.049761 0.000000,
        0.583402 0.052813 0.000000,
        0.803150 0.492126 0.000000,
        0.955709 -0.492126 0.183071,
        3.625984 -0.492126 0.366142,
        3.374016 -0.492126 0.366142,
        3.044291 -0.492126 0.183071,
        2.625984 -0.492126 0.366142,
        2.374016 -0.492126 0.366142,
        2.044291 -0.492126 0.183071,
        1.625984 -0.492126 0.366142,
        1.374016 -0.492126 0.366142,
        1.044291 -0.492126 0.183071,
        0.625984 -0.492126 0.366142,
        0.374016 -0.492126 0.366142,
        0.044291 -0.492126 0.183071,
        -4.000000 -0.492126 0.236220,
        -3.955709 -0.492126 0.183071,
        -3.812992 -0.492126 0.183071,
        -3.812992 -0.492126 0.011811,
        -0.374016 -0.492126 0.366142,
        -0.625984 -0.492126 0.366142,
        -0.955709 -0.492126 0.183071,
        -0.196850 -0.492126 0.000000,
        -0.044291 -0.492126 0.183071,
        -0.803150 -0.492126 0.000000,
        -1.000000 -0.492126 0.236220,
        -0.625984 -0.492126 0.618110,
        -1.000000 -0.492126 0.748031,
        -0.000000 -0.492126 0.236220,
        -0.374016 -0.492126 0.618110,
        -1.625984 -0.492126 0.618110,
        -2.000000 -0.492126 0.236220,
        -1.625984 -0.492126 0.366142,
        -1.955709 -0.492126 0.183071,
        -1.374016 -0.492126 0.366142,
        -1.374016 -0.492126 0.618110,
        -1.196850 -0.492126 0.984252,
        -1.044291 -0.492126 0.183071,
        -1.803150 -0.492126 0.000000,
        -1.196850 -0.492126 0.000000,
        -2.625984 -0.492126 0.618110,
        -3.000000 -0.492126 0.236220,
        -2.625984 -0.492126 0.366142,
        -2.955709 -0.492126 0.183071,
        -2.374016 -0.492126 0.366142,
        -2.374016 -0.492126 0.618110,
        -2.196850 -0.492126 0.984252,
        -2.000000 -0.492126 0.748031,
        -2.044291 -0.492126 0.183071,
        -1.803150 -0.492126 0.984252,
        -2.803150 -0.492126 0.000000,
        -2.196850 -0.492126 0.000000,
        -3.000000 -0.492126 0.748031,
        -3.196851 -0.492126 0.984252,
        -3.374016 -0.492126 0.618110,
        -3.803150 -0.492126 0.984252,
        -3.625984 -0.492126 0.618110,
        -3.812992 -0.492126 0.972441,
        -3.625984 -0.492126 0.366142,
        -3.374016 -0.492126 0.366142,
        -3.044291 -0.492126 0.183071,
        -2.803150 -0.492126 0.984252,
        -3.803150 -0.492126 0.000000,
        -3.196851 -0.492126 0.000000,
        -4.000000 -0.492126 0.748031,
        0.374016 -0.492126 0.618110,
        -0.000000 -0.492126 0.748031,
        -0.196850 -0.492126 0.984252,
        -0.803150 -0.492126 0.984252,
        1.000000 -0.492126 0.236220,
        0.625984 -0.492126 0.618110,
        1.374016 -0.492126 0.618110,
        1.000000 -0.492126 0.748031,
        0.803150 -0.492126 0.984252,
        0.196850 -0.492126 0.984252,
        1.955709 -0.492126 0.183071,
        2.000000 -0.492126 0.236220,
        1.625984 -0.492126 0.618110,
        2.374016 -0.492126 0.618110,
        2.000000 -0.492126 0.748031,
        1.803150 -0.492126 0.984252,
        1.196850 -0.492126 0.984252,
        2.955709 -0.492126 0.183071,
        3.000000 -0.492126 0.236220,
        2.625984 -0.492126 0.618110,
        3.374016 -0.492126 0.618110,
        3.196851 -0.492126 0.984252,
        3.000000 -0.492126 0.748031,
        2.803150 -0.492126 0.984252,
        2.196850 -0.492126 0.984252,
        3.803150 -0.492126 0.984252,
        3.625984 -0.492126 0.618110,
        4.000000 -0.492126 0.748031,
        4.000000 -0.492126 0.236220,
        3.955709 -0.492126 0.183071,
        3.196851 -0.492126 0.000000,
        3.803150 -0.492126 0.000000,
        2.196850 -0.492126 0.000000,
        2.803150 -0.492126 0.000000,
        1.196850 -0.492126 0.000000,
        1.803150 -0.492126 0.000000,
        -0.374016 0.295276 0.618110,
        -0.625984 0.295276 0.618110,
        -1.000000 0.295276 0.742126,
        0.374016 0.295276 0.366142,
        -0.000000 0.295276 0.236220,
        0.374016 0.295276 0.618110,
        -0.000000 0.295276 0.742126,
        0.625984 0.295276 0.618110,
        1.374016 0.295276 0.366142,
        1.000000 0.295276 0.236220,
        1.374016 0.295276 0.618110,
        1.000000 0.295276 0.742126,
        1.625984 0.295276 0.618110,
        2.374016 0.295276 0.366142,
        2.000000 0.295276 0.236220,
        2.374016 0.295276 0.618110,
        2.000000 0.295276 0.742126,
        2.625984 0.295276 0.618110,
        3.625984 0.295276 0.618110,
        4.000000 0.295276 0.236220,
        3.625984 0.295276 0.366142,
        3.901575 0.295276 0.118110,
        3.374016 0.295276 0.366142,
        3.098425 0.295276 0.118110,
        3.000000 0.295276 0.236220,
        3.374016 0.295276 0.618110,
        3.000000 0.295276 0.742126,
        4.000000 0.295276 0.742126,
        3.098425 0.295276 0.866142,
        3.901575 0.295276 0.866142,
        3.000000 0.295276 0.748031,
        4.000000 0.295276 0.748031,
        2.098425 0.295276 0.866142,
        2.901575 0.295276 0.866142,
        2.000000 0.295276 0.748031,
        1.098425 0.295276 0.866142,
        1.901575 0.295276 0.866142,
        1.000000 0.295276 0.748031,
        2.625984 0.295276 0.366142,
        2.901575 0.295276 0.118110,
        2.098425 0.295276 0.118110,
        0.098425 0.295276 0.866142,
        0.901575 0.295276 0.866142,
        -0.000000 0.295276 0.748031,
        1.625984 0.295276 0.366142,
        1.901575 0.295276 0.118110,
        1.098425 0.295276 0.118110,
        -0.901575 0.295276 0.866142,
        -0.098425 0.295276 0.866142,
        -1.000000 0.295276 0.748031,
        0.625984 0.295276 0.366142,
        0.901575 0.295276 0.118110,
        0.098425 0.295276 0.118110,
        -1.901575 0.295276 0.866142,
        -1.098425 0.295276 0.866142,
        -2.000000 0.295276 0.748031,
        -2.901575 0.295276 0.866142,
        -2.098425 0.295276 0.866142,
        -3.000000 0.295276 0.748031,
        -3.901575 0.295276 0.866142,
        -3.812992 0.295276 0.866142,
        -4.000000 0.295276 0.748031,
        -3.812992 0.295276 0.742126,
        -4.000000 0.295276 0.742126,
        -3.812992 0.295276 0.118110,
        -3.901575 0.295276 0.118110,
        -4.000000 0.295276 0.236220,
        -3.374016 0.295276 0.618110,
        -3.000000 0.295276 0.236220,
        -3.374016 0.295276 0.366142,
        -3.098425 0.295276 0.118110,
        -3.625984 0.295276 0.366142,
        -3.625984 0.295276 0.618110,
        -3.000000 0.295276 0.742126,
        -2.374016 0.295276 0.618110,
        -2.000000 0.295276 0.236220,
        -2.374016 0.295276 0.366142,
        -2.098425 0.295276 0.118110,
        -2.625984 0.295276 0.366142,
        -2.901575 0.295276 0.118110,
        -2.625984 0.295276 0.618110,
        -2.000000 0.295276 0.742126,
        -1.374016 0.295276 0.618110,
        -1.000000 0.295276 0.236220,
        -1.374016 0.295276 0.366142,
        -1.098425 0.295276 0.118110,
        -1.625984 0.295276 0.366142,
        -1.901575 0.295276 0.118110,
        -1.625984 0.295276 0.618110,
        -0.625984 0.295276 0.366142,
        -3.098425 0.295276 0.866142,
        -0.374016 0.295276 0.366142,
        -0.098425 0.295276 0.118110,
        -0.901575 0.295276 0.118110,
        -0.196850 0.492126 0.000000,
        -0.803150 0.492126 0.000000,
        -0.098425 0.492126 0.118110,
        -0.901575 0.492126 0.118110,
        0.098425 0.492126 0.118110,
        0.901575 0.492126 0.118110,
        -2.901575 0.492126 0.118110,
        -2.098425 0.492126 0.118110,
        -2.803150 0.492126 0.000000,
        -2.196850 0.492126 0.000000,
        -1.901575 0.492126 0.118110,
        -1.098425 0.492126 0.118110,
        -1.803150 0.492126 0.000000,
        -1.196850 0.492126 0.000000,
        1.098425 0.492126 0.118110,
        1.901575 0.492126 0.118110,
        1.196850 0.492126 0.000000,
        1.803150 0.492126 0.000000,
        2.098425 0.492126 0.118110,
        2.901575 0.492126 0.118110,
        2.196850 0.492126 0.000000,
        2.803150 0.492126 0.000000,
        -0.098425 0.492126 0.866142,
        -0.901575 0.492126 0.866142,
        -0.196850 0.492126 0.984252,
        -0.803150 0.492126 0.984252,
        0.196850 0.492126 0.984252,
        0.803150 0.492126 0.984252,
        0.098425 0.492126 0.866142,
        0.901575 0.492126 0.866142,
        -2.098425 0.492126 0.866142,
        -2.901575 0.492126 0.866142,
        -2.196850 0.492126 0.984252,
        -2.803150 0.492126 0.984252,
        -1.803150 0.492126 0.984252,
        -1.196850 0.492126 0.984252,
        -1.901575 0.492126 0.866142,
        -1.098425 0.492126 0.866142,
        1.196850 0.492126 0.984252,
        1.803150 0.492126 0.984252,
        1.098425 0.492126 0.866142,
        1.901575 0.492126 0.866142,
        2.196850 0.492126 0.984252,
        2.803150 0.492126 0.984252,
        2.098425 0.492126 0.866142,
        2.901575 0.492126 0.866142,
        -3.098425 0.492126 0.118110,
        -3.196851 0.492126 0.000000,
        -3.901575 0.492126 0.118110,
        -3.803150 0.492126 0.000000,
        3.803150 0.492126 0.000000,
        3.196851 0.492126 0.000000,
        3.901575 0.492126 0.118110,
        3.098425 0.492126 0.118110,
        3.901575 0.492126 0.866142,
        3.098425 0.492126 0.866142,
        3.803150 0.492126 0.984252,
        3.196851 0.492126 0.984252,
        -3.196851 0.492126 0.984252,
        -3.803150 0.492126 0.984252,
        -3.901575 0.492126 0.866142,
        -3.098425 0.492126 0.866142,
      ]
    }
    coordIndex [
      0, 1, 2, -1,
      3, 4, 5, -1,
      6, 7, 0, -1,
      0, 7, 8, -1,
      0, 8, 1, -1,
      9, 10, 11, -1,
      12, 13, 14, -1,
      2, 11, 0, -1,
      0, 11, 10, -1,
      0, 10, 15, -1,
      4, 16, 5, -1,
      5, 16, 17, -1,
      5, 17, 18, -1,
      12, 14, 19, -1,
      20, 21, 15, -1,
      15, 21, 22, -1,
      15, 22, 23, -1,
      23, 22, 24, -1,
      23, 24, 25, -1,
      25, 24, 26, -1,
      25, 26, 14, -1,
      11, 27, 9, -1,
      9, 27, 28, -1,
      9, 28, 29, -1,
      29, 28, 30, -1,
      29, 30, 31, -1,
      31, 30, 32, -1,
      18, 33, 5, -1,
      5, 33, 34, -1,
      5, 34, 35, -1,
      36, 37, 38, -1,
      38, 37, 39, -1,
      38, 39, 40, -1,
      3, 5, 30, -1,
      30, 5, 41, -1,
      30, 41, 32, -1,
      35, 42, 5, -1,
      5, 42, 38, -1,
      5, 38, 43, -1,
      43, 38, 40, -1,
      44, 45, 14, -1,
      14, 45, 46, -1,
      14, 46, 19, -1,
      21, 47, 22, -1,
      22, 47, 48, -1,
      22, 48, 49, -1,
      49, 48, 50, -1,
      49, 50, 44, -1,
      44, 50, 51, -1,
      44, 51, 45, -1,
      10, 52, 15, -1,
      15, 52, 53, -1,
      15, 53, 54, -1,
      54, 55, 15, -1,
      15, 55, 56, -1,
      15, 56, 20, -1,
      57, 58, 59, -1,
      57, 59, 60, -1,
      13, 61, 14, -1,
      14, 61, 60, -1,
      14, 60, 25, -1,
      25, 60, 59, -1,
      25, 59, 62, -1,
      63, 64, 15, -1,
      15, 64, 0, -1,
      0, 64, 65, -1,
      0, 65, 66, -1,
      67, 68, 69, -1,
      69, 68, 70, -1,
      71, 72, 73, -1,
      73, 72, 74, -1,
      75, 76, 71, -1,
      71, 76, 77, -1,
      71, 77, 72, -1,
      72, 77, 69, -1,
      78, 79, 69, -1,
      69, 79, 80, -1,
      69, 80, 67, -1,
      81, 82, 83, -1,
      83, 82, 84, -1,
      85, 86, 84, -1,
      84, 86, 87, -1,
      84, 87, 83, -1,
      0, 88, 74, -1,
      74, 88, 89, -1,
      74, 89, 73, -1,
      70, 90, 69, -1,
      69, 90, 91, -1,
      69, 91, 72, -1,
      72, 91, 86, -1,
      15, 72, 63, -1,
      63, 72, 86, -1,
      63, 86, 92, -1,
      92, 86, 85, -1,
      92, 85, 93, -1,
      93, 85, 94, -1,
      95, 96, 88, -1,
      88, 96, 97, -1,
      88, 97, 98, -1,
      95, 88, 99, -1,
      99, 88, 0, -1,
      99, 0, 87, -1,
      87, 0, 66, -1,
      87, 66, 83, -1,
      98, 100, 88, -1,
      88, 100, 101, -1,
      88, 101, 69, -1,
      69, 101, 102, -1,
      69, 102, 78, -1,
      74, 103, 0, -1,
      0, 103, 59, -1,
      0, 59, 6, -1,
      6, 59, 58, -1,
      25, 62, 104, -1,
      105, 106, 107, -1,
      108, 109, 110, -1,
      111, 112, 113, -1,
      114, 115, 116, -1,
      117, 118, 119, -1,
      119, 118, 120, -1,
      121, 122, 123, -1,
      124, 125, 126, -1,
      126, 125, 123, -1,
      123, 122, 127, -1,
      127, 122, 128, -1,
      127, 128, 129, -1,
      123, 125, 121, -1,
      121, 125, 130, -1,
      121, 130, 131, -1,
      132, 133, 134, -1,
      134, 133, 135, -1,
      134, 135, 136, -1,
      132, 137, 138, -1,
      138, 137, 129, -1,
      129, 137, 127, -1,
      127, 137, 136, -1,
      127, 136, 139, -1,
      136, 135, 139, -1,
      139, 135, 140, -1,
      139, 140, 141, -1,
      142, 143, 144, -1,
      144, 143, 145, -1,
      144, 145, 146, -1,
      142, 147, 148, -1,
      148, 147, 149, -1,
      146, 150, 133, -1,
      138, 151, 132, -1,
      132, 151, 149, -1,
      132, 149, 133, -1,
      133, 149, 147, -1,
      133, 147, 146, -1,
      146, 145, 150, -1,
      150, 145, 152, -1,
      150, 152, 153, -1,
      154, 155, 156, -1,
      156, 155, 157, -1,
      156, 157, 158, -1,
      158, 157, 159, -1,
      158, 159, 160, -1,
      161, 162, 143, -1,
      148, 163, 142, -1,
      142, 163, 154, -1,
      142, 154, 143, -1,
      143, 154, 156, -1,
      143, 156, 161, -1,
      164, 165, 120, -1,
      120, 165, 162, -1,
      120, 162, 119, -1,
      119, 162, 161, -1,
      119, 161, 160, -1,
      160, 159, 119, -1,
      119, 159, 166, -1,
      119, 166, 117, -1,
      116, 115, 130, -1,
      115, 167, 130, -1,
      130, 167, 168, -1,
      130, 168, 131, -1,
      131, 168, 169, -1,
      131, 169, 128, -1,
      128, 169, 170, -1,
      128, 170, 129, -1,
      114, 104, 171, -1,
      114, 171, 172, -1,
      113, 112, 171, -1,
      112, 173, 171, -1,
      171, 173, 174, -1,
      171, 174, 172, -1,
      172, 174, 175, -1,
      172, 175, 167, -1,
      167, 175, 176, -1,
      167, 176, 168, -1,
      111, 177, 178, -1,
      111, 178, 179, -1,
      110, 109, 178, -1,
      109, 180, 178, -1,
      178, 180, 181, -1,
      178, 181, 179, -1,
      179, 181, 182, -1,
      179, 182, 173, -1,
      173, 182, 183, -1,
      173, 183, 174, -1,
      108, 184, 185, -1,
      108, 185, 186, -1,
      187, 188, 189, -1,
      107, 106, 185, -1,
      106, 187, 185, -1,
      185, 187, 189, -1,
      185, 189, 186, -1,
      186, 189, 190, -1,
      186, 190, 180, -1,
      180, 190, 191, -1,
      180, 191, 181, -1,
      188, 187, 192, -1,
      192, 187, 193, -1,
      192, 193, 194, -1,
      194, 193, 195, -1,
      195, 193, 105, -1,
      195, 105, 196, -1,
      105, 107, 196, -1,
      196, 107, 197, -1,
      196, 197, 198, -1,
      108, 110, 184, -1,
      184, 110, 199, -1,
      184, 199, 200, -1,
      111, 113, 177, -1,
      177, 113, 201, -1,
      177, 201, 202, -1,
      114, 116, 104, -1,
      104, 116, 23, -1,
      104, 23, 25, -1,
      203, 204, 205, -1,
      206, 207, 208, -1,
      208, 207, 209, -1,
      208, 209, 210, -1,
      211, 212, 213, -1,
      213, 212, 214, -1,
      213, 214, 215, -1,
      216, 217, 218, -1,
      218, 217, 219, -1,
      218, 219, 220, -1,
      221, 222, 223, -1,
      223, 222, 224, -1,
      223, 224, 225, -1,
      224, 226, 225, -1,
      225, 226, 227, -1,
      225, 227, 228, -1,
      228, 227, 229, -1,
      228, 229, 221, -1,
      221, 229, 230, -1,
      221, 230, 222, -1,
      231, 232, 233, -1,
      233, 232, 234, -1,
      235, 236, 237, -1,
      237, 236, 233, -1,
      237, 233, 229, -1,
      229, 233, 234, -1,
      229, 234, 230, -1,
      238, 239, 240, -1,
      240, 239, 237, -1,
      240, 237, 219, -1,
      219, 237, 229, -1,
      219, 229, 220, -1,
      220, 229, 227, -1,
      220, 227, 241, -1,
      241, 227, 242, -1,
      241, 242, 216, -1,
      216, 242, 243, -1,
      216, 243, 217, -1,
      244, 245, 246, -1,
      246, 245, 240, -1,
      246, 240, 214, -1,
      214, 240, 219, -1,
      214, 219, 215, -1,
      215, 219, 217, -1,
      215, 217, 247, -1,
      247, 217, 248, -1,
      247, 248, 211, -1,
      211, 248, 249, -1,
      211, 249, 212, -1,
      250, 251, 252, -1,
      252, 251, 246, -1,
      252, 246, 209, -1,
      209, 246, 214, -1,
      209, 214, 210, -1,
      210, 214, 212, -1,
      210, 212, 253, -1,
      253, 212, 254, -1,
      253, 254, 206, -1,
      206, 254, 255, -1,
      206, 255, 207, -1,
      256, 257, 258, -1,
      258, 257, 252, -1,
      259, 260, 261, -1,
      261, 260, 258, -1,
      262, 263, 264, -1,
      264, 263, 265, -1,
      264, 265, 266, -1,
      267, 268, 265, -1,
      265, 268, 269, -1,
      265, 269, 266, -1,
      270, 271, 272, -1,
      272, 271, 273, -1,
      272, 273, 274, -1,
      274, 273, 267, -1,
      274, 267, 275, -1,
      275, 267, 265, -1,
      275, 265, 270, -1,
      270, 265, 276, -1,
      270, 276, 271, -1,
      277, 278, 279, -1,
      279, 278, 280, -1,
      279, 280, 281, -1,
      280, 282, 281, -1,
      281, 282, 271, -1,
      281, 271, 283, -1,
      283, 271, 276, -1,
      283, 276, 277, -1,
      277, 276, 284, -1,
      277, 284, 278, -1,
      285, 286, 287, -1,
      287, 286, 288, -1,
      287, 288, 289, -1,
      288, 290, 289, -1,
      289, 290, 278, -1,
      289, 278, 291, -1,
      291, 278, 284, -1,
      291, 284, 285, -1,
      285, 284, 205, -1,
      285, 205, 286, -1,
      286, 205, 204, -1,
      286, 204, 292, -1,
      263, 293, 265, -1,
      265, 293, 261, -1,
      265, 261, 276, -1,
      276, 261, 258, -1,
      276, 258, 284, -1,
      284, 258, 252, -1,
      284, 252, 205, -1,
      205, 252, 209, -1,
      205, 209, 203, -1,
      203, 209, 207, -1,
      203, 207, 294, -1,
      294, 207, 295, -1,
      294, 295, 292, -1,
      292, 295, 296, -1,
      292, 296, 286, -1,
      297, 298, 299, -1,
      299, 298, 300, -1,
      72, 301, 74, -1,
      74, 301, 302, -1,
      74, 302, 103, -1,
      303, 304, 305, -1,
      305, 304, 306, -1,
      307, 308, 309, -1,
      309, 308, 310, -1,
      311, 312, 313, -1,
      313, 312, 314, -1,
      315, 316, 317, -1,
      317, 316, 318, -1,
      319, 320, 321, -1,
      321, 320, 322, -1,
      323, 324, 325, -1,
      325, 324, 326, -1,
      327, 328, 329, -1,
      329, 328, 330, -1,
      331, 332, 333, -1,
      333, 332, 334, -1,
      335, 336, 337, -1,
      337, 336, 338, -1,
      339, 340, 341, -1,
      341, 340, 342, -1,
      126, 298, 124, -1,
      124, 298, 297, -1,
      306, 153, 305, -1,
      305, 153, 152, -1,
      310, 141, 309, -1,
      309, 141, 140, -1,
      314, 202, 313, -1,
      313, 202, 201, -1,
      318, 200, 317, -1,
      317, 200, 199, -1,
      321, 322, 169, -1,
      169, 322, 170, -1,
      176, 175, 323, -1,
      323, 175, 324, -1,
      329, 330, 148, -1,
      148, 330, 163, -1,
      151, 138, 331, -1,
      331, 138, 332, -1,
      183, 182, 335, -1,
      335, 182, 336, -1,
      191, 190, 339, -1,
      339, 190, 340, -1,
      299, 300, 295, -1,
      295, 300, 296, -1,
      255, 254, 301, -1,
      301, 254, 302, -1,
      282, 280, 303, -1,
      303, 280, 304, -1,
      290, 288, 307, -1,
      307, 288, 308, -1,
      249, 248, 311, -1,
      311, 248, 312, -1,
      243, 242, 315, -1,
      315, 242, 316, -1,
      251, 250, 319, -1,
      319, 250, 320, -1,
      325, 326, 244, -1,
      244, 326, 245, -1,
      260, 259, 327, -1,
      327, 259, 328, -1,
      333, 334, 256, -1,
      256, 334, 257, -1,
      337, 338, 238, -1,
      238, 338, 239, -1,
      341, 342, 235, -1,
      235, 342, 236, -1,
      343, 344, 345, -1,
      345, 344, 346, -1,
      347, 348, 349, -1,
      349, 348, 350, -1,
      351, 352, 353, -1,
      353, 352, 354, -1,
      355, 356, 155, -1,
      155, 356, 157, -1,
      197, 348, 198, -1,
      198, 348, 347, -1,
      234, 194, 230, -1,
      230, 194, 195, -1,
      230, 195, 222, -1,
      357, 356, 358, -1,
      358, 356, 355, -1,
      269, 117, 264, -1,
      264, 117, 166, -1,
      353, 354, 192, -1,
      192, 354, 188, -1,
      344, 165, 346, -1,
      346, 165, 164, -1,
      165, 344, 273, -1,
      273, 344, 343, -1,
      165, 273, 162, -1,
      162, 273, 271, -1,
      162, 271, 143, -1,
      345, 346, 268, -1,
      268, 346, 164, -1,
      268, 164, 269, -1,
      269, 164, 117, -1,
      356, 357, 262, -1,
      264, 166, 262, -1,
      262, 166, 157, -1,
      262, 157, 356, -1,
      358, 355, 293, -1,
      293, 355, 155, -1,
      293, 155, 261, -1,
      261, 155, 154, -1,
      349, 350, 224, -1,
      224, 350, 226, -1,
      268, 273, 345, -1,
      345, 273, 343, -1,
      293, 262, 358, -1,
      358, 262, 357, -1,
      232, 231, 351, -1,
      351, 231, 352, -1,
    ]
  }
}

Shape {
  appearance Appearance {
    material Material {
      diffuseColor 0.7529 0.7529 0.7529
      specularColor 0.3765 0.3765 0.3765
      ambientIntensity 0.2
      transparency 0.0000
      shininess 0.5
    }
  }
  geometry IndexedFaceSet {
    ccw TRUE
    solid FALSE
    coord DEF co Coordinate {
      point [
        -3.374016 -0.492126 0.618110,
        -3.625984 -0.492126 0.618110,
        -3.625984 -0.492126 0.366142,
        -3.374016 -0.492126 0.366142,
        -3.374016 0.295276 0.618110,
        -3.374016 0.295276 0.366142,
        -3.625984 0.295276 0.366142,
        -3.625984 0.295276 0.618110,
        -3.625984 1.161417 0.618110,
        -3.374016 1.161417 0.618110,
        -3.374016 1.191550 0.612117,
        -3.625984 1.191550 0.612117,
        -3.374016 1.217095 0.595048,
        -3.625984 1.217095 0.595048,
        -3.374016 1.234164 0.569503,
        -3.625984 1.234164 0.569503,
        -3.374016 1.240157 0.539370,
        -3.625984 1.240157 0.539370,
        -3.625984 1.240157 -1.102362,
        -3.374016 1.240157 -1.102362,
        -3.625984 1.161417 -1.181102,
        -3.374016 1.161417 -1.181102,
        -3.625984 1.066929 -1.181102,
        -3.374016 1.066929 -1.181102,
        -3.625984 0.988189 -1.102362,
        -3.374016 0.988189 -1.102362,
        -3.625984 0.988189 0.287402,
        -3.374016 0.988189 0.287402,
        -3.625984 0.982195 0.317534,
        -3.374016 0.982195 0.317534,
        -3.625984 0.965126 0.343079,
        -3.374016 0.965126 0.343079,
        -3.625984 0.939581 0.360148,
        -3.374016 0.939581 0.360148,
        -3.625984 0.909449 0.366142,
        -3.374016 0.909449 0.366142,
        -3.374016 -2.775591 0.366142,
        -3.625984 -2.775591 0.366142,
        -3.625984 -2.775591 0.618110,
        -3.374016 -2.775591 0.618110,
        -3.625984 -2.854331 0.539370,
        -3.625984 -2.854331 0.444882,
        -3.374016 -2.854331 0.444882,
        -3.374016 -2.854331 0.539370,
      ]
    }
    coordIndex [
      8, 9, 10, -1,
      8, 10, 11, -1,
      11, 10, 12, -1,
      11, 12, 13, -1,
      13, 12, 14, -1,
      13, 14, 15, -1,
      15, 14, 16, -1,
      15, 16, 17, -1,
      18, 17, 19, -1,
      19, 17, 16, -1,
      20, 18, 21, -1,
      21, 18, 19, -1,
      22, 20, 23, -1,
      23, 20, 21, -1,
      24, 22, 25, -1,
      25, 22, 23, -1,
      26, 24, 27, -1,
      27, 24, 25, -1,
      26, 27, 28, -1,
      28, 27, 29, -1,
      28, 29, 30, -1,
      30, 29, 31, -1,
      30, 31, 32, -1,
      32, 31, 33, -1,
      32, 33, 34, -1,
      34, 33, 35, -1,
      9, 4, 5, -1,
      5, 35, 9, -1,
      9, 35, 33, -1,
      9, 33, 10, -1,
      10, 33, 31, -1,
      23, 21, 25, -1,
      25, 21, 19, -1,
      25, 19, 27, -1,
      27, 19, 16, -1,
      27, 16, 29, -1,
      29, 16, 14, -1,
      29, 14, 31, -1,
      31, 14, 12, -1,
      31, 12, 10, -1,
      6, 7, 34, -1,
      34, 7, 8, -1,
      34, 8, 32, -1,
      32, 8, 11, -1,
      32, 11, 30, -1,
      18, 20, 22, -1,
      11, 13, 30, -1,
      30, 13, 15, -1,
      30, 15, 28, -1,
      28, 15, 17, -1,
      28, 17, 26, -1,
      26, 17, 18, -1,
      26, 18, 24, -1,
      24, 18, 22, -1,
      4, 9, 7, -1,
      7, 9, 8, -1,
      6, 34, 5, -1,
      5, 34, 35, -1,
      3, 36, 2, -1,
      2, 36, 37, -1,
      1, 38, 0, -1,
      0, 38, 39, -1,
      40, 38, 41, -1,
      41, 38, 1, -1,
      41, 1, 37, -1,
      37, 1, 2, -1,
      42, 36, 43, -1,
      43, 36, 3, -1,
      43, 3, 39, -1,
      39, 3, 0, -1,
      41, 37, 42, -1,
      42, 37, 36, -1,
      40, 41, 43, -1,
      43, 41, 42, -1,
      38, 40, 39, -1,
      39, 40, 43, -1,
    ]
  }
}

Shape {
  appearance Appearance {
    material Material {
      diffuseColor 0.1490 0.1490 0.1490
      specularColor 0.0745 0.0745 0.0745
      ambientIntensity 0.2
      transparency 0.0000
      shininess 0.5
    }
  }
  geometry IndexedFaceSet {
    ccw TRUE
    solid FALSE
    coord DEF co Coordinate {
      point [
        0.196850 -0.209469 0.000000,
        0.196850 -0.492126 0.000000,
        0.803150 -0.209469 0.000000,
        0.803150 -0.492126 0.000000,
        0.196850 0.492126 0.000000,
        0.803150 0.492126 0.000000,
        0.955709 -0.492126 0.183071,
        3.044291 -0.492126 0.183071,
        2.044291 -0.492126 0.183071,
        1.044291 -0.492126 0.183071,
        0.044291 -0.492126 0.183071,
        -0.955709 -0.492126 0.183071,
        -0.196850 -0.492126 0.000000,
        -0.044291 -0.492126 0.183071,
        -0.803150 -0.492126 0.000000,
        -1.000000 -0.492126 0.236220,
        -1.000000 -0.492126 0.748031,
        -0.000000 -0.492126 0.236220,
        -2.000000 -0.492126 0.236220,
        -1.955709 -0.492126 0.183071,
        -1.196850 -0.492126 0.984252,
        -1.044291 -0.492126 0.183071,
        -1.803150 -0.492126 0.000000,
        -1.196850 -0.492126 0.000000,
        -3.000000 -0.492126 0.236220,
        -2.955709 -0.492126 0.183071,
        -2.196850 -0.492126 0.984252,
        -2.000000 -0.492126 0.748031,
        -2.044291 -0.492126 0.183071,
        -1.803150 -0.492126 0.984252,
        -2.803150 -0.492126 0.000000,
        -2.196850 -0.492126 0.000000,
        -3.000000 -0.492126 0.748031,
        -2.803150 -0.492126 0.984252,
        -0.000000 -0.492126 0.748031,
        -0.196850 -0.492126 0.984252,
        -0.803150 -0.492126 0.984252,
        1.000000 -0.492126 0.236220,
        1.000000 -0.492126 0.748031,
        0.803150 -0.492126 0.984252,
        0.196850 -0.492126 0.984252,
        1.955709 -0.492126 0.183071,
        2.000000 -0.492126 0.236220,
        2.000000 -0.492126 0.748031,
        1.803150 -0.492126 0.984252,
        1.196850 -0.492126 0.984252,
        2.955709 -0.492126 0.183071,
        3.000000 -0.492126 0.236220,
        3.196851 -0.492126 0.984252,
        3.000000 -0.492126 0.748031,
        2.803150 -0.492126 0.984252,
        2.196850 -0.492126 0.984252,
        3.803150 -0.492126 0.984252,
        4.000000 -0.492126 0.748031,
        4.000000 -0.492126 0.236220,
        3.955709 -0.492126 0.183071,
        3.196851 -0.492126 0.000000,
        3.803150 -0.492126 0.000000,
        2.196850 -0.492126 0.000000,
        2.803150 -0.492126 0.000000,
        1.196850 -0.492126 0.000000,
        1.803150 -0.492126 0.000000,
        -0.000000 0.295276 0.236220,
        1.000000 0.295276 0.236220,
        2.000000 0.295276 0.236220,
        4.000000 0.295276 0.236220,
        3.901575 0.295276 0.118110,
        3.098425 0.295276 0.118110,
        3.000000 0.295276 0.236220,
        3.098425 0.295276 0.866142,
        3.901575 0.295276 0.866142,
        3.000000 0.295276 0.748031,
        4.000000 0.295276 0.748031,
        2.098425 0.295276 0.866142,
        2.901575 0.295276 0.866142,
        2.000000 0.295276 0.748031,
        1.098425 0.295276 0.866142,
        1.901575 0.295276 0.866142,
        1.000000 0.295276 0.748031,
        2.901575 0.295276 0.118110,
        2.098425 0.295276 0.118110,
        0.098425 0.295276 0.866142,
        0.901575 0.295276 0.866142,
        -0.000000 0.295276 0.748031,
        1.901575 0.295276 0.118110,
        1.098425 0.295276 0.118110,
        -0.901575 0.295276 0.866142,
        -0.098425 0.295276 0.866142,
        -1.000000 0.295276 0.748031,
        0.901575 0.295276 0.118110,
        0.098425 0.295276 0.118110,
        -1.901575 0.295276 0.866142,
        -1.098425 0.295276 0.866142,
        -2.000000 0.295276 0.748031,
        -2.901575 0.295276 0.866142,
        -2.098425 0.295276 0.866142,
        -3.000000 0.295276 0.748031,
        -3.000000 0.295276 0.236220,
        -2.000000 0.295276 0.236220,
        -2.098425 0.295276 0.118110,
        -2.901575 0.295276 0.118110,
        -1.000000 0.295276 0.236220,
        -1.098425 0.295276 0.118110,
        -1.901575 0.295276 0.118110,
        -0.098425 0.295276 0.118110,
        -0.901575 0.295276 0.118110,
        -0.196850 0.492126 0.000000,
        -0.803150 0.492126 0.000000,
        -0.098425 0.492126 0.118110,
        -0.901575 0.492126 0.118110,
        0.098425 0.492126 0.118110,
        0.901575 0.492126 0.118110,
        -2.901575 0.492126 0.118110,
        -2.098425 0.492126 0.118110,
        -2.803150 0.492126 0.000000,
        -2.196850 0.492126 0.000000,
        -1.901575 0.492126 0.118110,
        -1.098425 0.492126 0.118110,
        -1.803150 0.492126 0.000000,
        -1.196850 0.492126 0.000000,
        1.098425 0.492126 0.118110,
        1.901575 0.492126 0.118110,
        1.196850 0.492126 0.000000,
        1.803150 0.492126 0.000000,
        2.098425 0.492126 0.118110,
        2.901575 0.492126 0.118110,
        2.196850 0.492126 0.000000,
        2.803150 0.492126 0.000000,
        -0.098425 0.492126 0.866142,
        -0.901575 0.492126 0.866142,
        -0.196850 0.492126 0.984252,
        -0.803150 0.492126 0.984252,
        0.196850 0.492126 0.984252,
        0.803150 0.492126 0.984252,
        0.098425 0.492126 0.866142,
        0.901575 0.492126 0.866142,
        -2.098425 0.492126 0.866142,
        -2.901575 0.492126 0.866142,
        -2.196850 0.492126 0.984252,
        -2.803150 0.492126 0.984252,
        -1.803150 0.492126 0.984252,
        -1.196850 0.492126 0.984252,
        -1.901575 0.492126 0.866142,
        -1.098425 0.492126 0.866142,
        1.196850 0.492126 0.984252,
        1.803150 0.492126 0.984252,
        1.098425 0.492126 0.866142,
        1.901575 0.492126 0.866142,
        2.196850 0.492126 0.984252,
        2.803150 0.492126 0.984252,
        2.098425 0.492126 0.866142,
        2.901575 0.492126 0.866142,
        3.803150 0.492126 0.000000,
        3.196851 0.492126 0.000000,
        3.901575 0.492126 0.118110,
        3.098425 0.492126 0.118110,
        3.901575 0.492126 0.866142,
        3.098425 0.492126 0.866142,
        3.803150 0.492126 0.984252,
        3.196851 0.492126 0.984252,
      ]
    }
    coordIndex [
      139, 137, 94, -1,
      96, 32, 94, -1,
      94, 32, 33, -1,
      94, 33, 139, -1,
      151, 149, 74, -1,
      74, 149, 50, -1,
      74, 50, 71, -1,
      71, 50, 49, -1,
      159, 157, 69, -1,
      71, 49, 69, -1,
      69, 49, 48, -1,
      69, 48, 159, -1,
      147, 145, 77, -1,
      77, 145, 44, -1,
      77, 44, 75, -1,
      75, 44, 43, -1,
      148, 150, 73, -1,
      75, 43, 73, -1,
      73, 43, 51, -1,
      73, 51, 148, -1,
      156, 158, 70, -1,
      70, 158, 52, -1,
      70, 52, 72, -1,
      72, 52, 53, -1,
      143, 141, 92, -1,
      92, 141, 20, -1,
      92, 20, 88, -1,
      88, 20, 16, -1,
      131, 129, 86, -1,
      88, 16, 86, -1,
      86, 16, 36, -1,
      86, 36, 131, -1,
      136, 138, 95, -1,
      95, 138, 26, -1,
      95, 26, 93, -1,
      93, 26, 27, -1,
      140, 142, 91, -1,
      93, 27, 91, -1,
      91, 27, 29, -1,
      91, 29, 140, -1,
      135, 133, 82, -1,
      82, 133, 39, -1,
      82, 39, 78, -1,
      78, 39, 38, -1,
      144, 146, 76, -1,
      78, 38, 76, -1,
      76, 38, 45, -1,
      76, 45, 144, -1,
      128, 130, 87, -1,
      87, 130, 35, -1,
      87, 35, 83, -1,
      83, 35, 34, -1,
      132, 134, 81, -1,
      83, 34, 81, -1,
      81, 34, 40, -1,
      81, 40, 132, -1,
      59, 127, 79, -1,
      79, 127, 125, -1,
      59, 79, 46, -1,
      46, 79, 68, -1,
      46, 68, 47, -1,
      67, 155, 153, -1,
      47, 68, 7, -1,
      7, 68, 67, -1,
      7, 67, 56, -1,
      56, 67, 153, -1,
      61, 123, 84, -1,
      84, 123, 121, -1,
      61, 84, 41, -1,
      41, 84, 64, -1,
      41, 64, 42, -1,
      80, 124, 126, -1,
      42, 64, 8, -1,
      8, 64, 80, -1,
      8, 80, 58, -1,
      58, 80, 126, -1,
      57, 152, 66, -1,
      66, 152, 154, -1,
      57, 66, 55, -1,
      55, 66, 65, -1,
      55, 65, 54, -1,
      23, 119, 102, -1,
      102, 119, 117, -1,
      23, 102, 21, -1,
      21, 102, 101, -1,
      21, 101, 15, -1,
      105, 109, 107, -1,
      15, 101, 11, -1,
      11, 101, 105, -1,
      11, 105, 14, -1,
      14, 105, 107, -1,
      31, 115, 99, -1,
      99, 115, 113, -1,
      31, 99, 28, -1,
      28, 99, 98, -1,
      28, 98, 18, -1,
      103, 116, 118, -1,
      18, 98, 19, -1,
      19, 98, 103, -1,
      19, 103, 22, -1,
      22, 103, 118, -1,
      100, 112, 114, -1,
      24, 97, 25, -1,
      25, 97, 100, -1,
      25, 100, 30, -1,
      30, 100, 114, -1,
      6, 3, 2, -1,
      37, 6, 63, -1,
      63, 6, 2, -1,
      63, 2, 89, -1,
      89, 2, 5, -1,
      89, 5, 111, -1,
      85, 120, 122, -1,
      37, 63, 9, -1,
      9, 63, 85, -1,
      9, 85, 60, -1,
      60, 85, 122, -1,
      12, 106, 104, -1,
      104, 106, 108, -1,
      12, 104, 13, -1,
      13, 104, 62, -1,
      13, 62, 17, -1,
      90, 110, 4, -1,
      0, 1, 10, -1,
      4, 0, 90, -1,
      90, 0, 10, -1,
      90, 10, 62, -1,
      62, 10, 17, -1,
    ]
  }
}

Shape {
  appearance Appearance {
    material Material {
      diffuseColor 0.7529 0.7529 0.7529
      specularColor 0.3765 0.3765 0.3765
      ambientIntensity 0.2
      transparency 0.0000
      shininess 0.5
    }
  }
  geometry IndexedFaceSet {
    ccw TRUE
    solid FALSE
    coord DEF co Coordinate {
      point [
        0.500000 0.207229 0.000000,
        0.500000 0.222593 0.000000,
        0.657480 0.147890 0.000000,
        0.657480 0.149909 0.000000,
        3.625984 -0.492126 0.366142,
        3.374016 -0.492126 0.366142,
        2.625984 -0.492126 0.366142,
        2.374016 -0.492126 0.366142,
        1.625984 -0.492126 0.366142,
        1.374016 -0.492126 0.366142,
        0.625984 -0.492126 0.366142,
        0.374016 -0.492126 0.366142,
        -0.374016 -0.492126 0.366142,
        -0.625984 -0.492126 0.366142,
        -0.625984 -0.492126 0.618110,
        -0.374016 -0.492126 0.618110,
        -1.625984 -0.492126 0.618110,
        -1.625984 -0.492126 0.366142,
        -1.374016 -0.492126 0.366142,
        -1.374016 -0.492126 0.618110,
        -2.625984 -0.492126 0.618110,
        -2.625984 -0.492126 0.366142,
        -2.374016 -0.492126 0.366142,
        -2.374016 -0.492126 0.618110,
        0.374016 -0.492126 0.618110,
        0.625984 -0.492126 0.618110,
        1.374016 -0.492126 0.618110,
        1.625984 -0.492126 0.618110,
        2.374016 -0.492126 0.618110,
        2.625984 -0.492126 0.618110,
        3.374016 -0.492126 0.618110,
        3.625984 -0.492126 0.618110,
        -0.374016 0.295276 0.618110,
        -0.625984 0.295276 0.618110,
        0.374016 0.295276 0.366142,
        0.374016 0.295276 0.618110,
        0.625984 0.295276 0.618110,
        1.374016 0.295276 0.366142,
        1.374016 0.295276 0.618110,
        1.625984 0.295276 0.618110,
        2.374016 0.295276 0.366142,
        2.374016 0.295276 0.618110,
        2.625984 0.295276 0.618110,
        3.625984 0.295276 0.618110,
        3.625984 0.295276 0.366142,
        3.374016 0.295276 0.366142,
        3.374016 0.295276 0.618110,
        2.625984 0.295276 0.366142,
        1.625984 0.295276 0.366142,
        0.625984 0.295276 0.366142,
        -2.374016 0.295276 0.618110,
        -2.374016 0.295276 0.366142,
        -2.625984 0.295276 0.366142,
        -2.625984 0.295276 0.618110,
        -1.374016 0.295276 0.618110,
        -1.374016 0.295276 0.366142,
        -1.625984 0.295276 0.366142,
        -1.625984 0.295276 0.618110,
        -0.625984 0.295276 0.366142,
        -0.374016 0.295276 0.366142,
        -2.625984 1.161417 0.618110,
        -2.374016 1.161417 0.618110,
        -2.374016 1.178939 0.616136,
        -2.625984 1.178939 0.616136,
        -2.374016 1.195581 0.610313,
        -2.625984 1.195581 0.610313,
        -2.374016 1.210511 0.600931,
        -2.625984 1.210511 0.600931,
        -2.374016 1.222979 0.588464,
        -2.625984 1.222979 0.588464,
        -2.374016 1.232360 0.573534,
        -2.625984 1.232360 0.573534,
        -2.374016 1.238183 0.556891,
        -2.625984 1.238183 0.556891,
        -2.374016 1.240157 0.539370,
        -2.625984 1.240157 0.539370,
        -2.625984 1.240157 -1.102362,
        -2.374016 1.240157 -1.102362,
        -2.625984 1.161417 -1.181102,
        -2.374016 1.161417 -1.181102,
        -2.625984 1.066929 -1.181102,
        -2.374016 1.066929 -1.181102,
        -2.625984 0.988189 -1.102362,
        -2.374016 0.988189 -1.102362,
        -2.625984 0.988189 0.287402,
        -2.374016 0.988189 0.287402,
        -2.625984 0.986215 0.304923,
        -2.374016 0.986215 0.304923,
        -2.625984 0.980391 0.321566,
        -2.374016 0.980391 0.321566,
        -2.625984 0.971010 0.336495,
        -2.374016 0.971010 0.336495,
        -2.625984 0.958543 0.348963,
        -2.374016 0.958543 0.348963,
        -2.625984 0.943613 0.358344,
        -2.374016 0.943613 0.358344,
        -2.625984 0.926970 0.364168,
        -2.374016 0.926970 0.364168,
        -2.625984 0.909449 0.366142,
        -2.374016 0.909449 0.366142,
        -2.374016 -2.775591 0.366142,
        -2.625984 -2.775591 0.366142,
        -2.625984 -2.775591 0.618110,
        -2.374016 -2.775591 0.618110,
        -2.625984 -2.854331 0.539370,
        -2.625984 -2.854331 0.444882,
        -2.374016 -2.854331 0.444882,
        -2.374016 -2.854331 0.539370,
        -1.625984 1.161417 0.618110,
        -1.374016 1.161417 0.618110,
        -1.374016 1.178939 0.616136,
        -1.625984 1.178939 0.616136,
        -1.374016 1.195581 0.610313,
        -1.625984 1.195581 0.610313,
        -1.374016 1.210511 0.600931,
        -1.625984 1.210511 0.600931,
        -1.374016 1.222979 0.588464,
        -1.625984 1.222979 0.588464,
        -1.374016 1.232360 0.573534,
        -1.625984 1.232360 0.573534,
        -1.374016 1.238183 0.556891,
        -1.625984 1.238183 0.556891,
        -1.374016 1.240157 0.539370,
        -1.625984 1.240157 0.539370,
        -1.625984 1.240157 -1.102362,
        -1.374016 1.240157 -1.102362,
        -1.625984 1.161417 -1.181102,
        -1.374016 1.161417 -1.181102,
        -1.625984 1.066929 -1.181102,
        -1.374016 1.066929 -1.181102,
        -1.625984 0.988189 -1.102362,
        -1.374016 0.988189 -1.102362,
        -1.625984 0.988189 0.287402,
        -1.374016 0.988189 0.287402,
        -1.625984 0.986215 0.304923,
        -1.374016 0.986215 0.304923,
        -1.625984 0.980391 0.321566,
        -1.374016 0.980391 0.321566,
        -1.625984 0.971010 0.336495,
        -1.374016 0.971010 0.336495,
        -1.625984 0.958543 0.348963,
        -1.374016 0.958543 0.348963,
        -1.625984 0.943613 0.358344,
        -1.374016 0.943613 0.358344,
        -1.625984 0.926970 0.364168,
        -1.374016 0.926970 0.364168,
        -1.625984 0.909449 0.366142,
        -1.374016 0.909449 0.366142,
        -1.374016 -2.775591 0.366142,
        -1.625984 -2.775591 0.366142,
        -1.625984 -2.775591 0.618110,
        -1.374016 -2.775591 0.618110,
        -1.625984 -2.854331 0.539370,
        -1.625984 -2.854331 0.444882,
        -1.374016 -2.854331 0.444882,
        -1.374016 -2.854331 0.539370,
        -0.625984 1.161417 0.618110,
        -0.374016 1.161417 0.618110,
        -0.374016 1.178939 0.616136,
        -0.625984 1.178939 0.616136,
        -0.374016 1.195581 0.610313,
        -0.625984 1.195581 0.610313,
        -0.374016 1.210511 0.600931,
        -0.625984 1.210511 0.600931,
        -0.374016 1.222979 0.588464,
        -0.625984 1.222979 0.588464,
        -0.374016 1.232360 0.573534,
        -0.625984 1.232360 0.573534,
        -0.374016 1.238183 0.556891,
        -0.625984 1.238183 0.556891,
        -0.374016 1.240157 0.539370,
        -0.625984 1.240157 0.539370,
        -0.625984 1.240157 -1.102362,
        -0.374016 1.240157 -1.102362,
        -0.625984 1.161417 -1.181102,
        -0.374016 1.161417 -1.181102,
        -0.625984 1.066929 -1.181102,
        -0.374016 1.066929 -1.181102,
        -0.625984 0.988189 -1.102362,
        -0.374016 0.988189 -1.102362,
        -0.625984 0.988189 0.287402,
        -0.374016 0.988189 0.287402,
        -0.625984 0.986215 0.304923,
        -0.374016 0.986215 0.304923,
        -0.625984 0.980391 0.321566,
        -0.374016 0.980391 0.321566,
        -0.625984 0.971010 0.336495,
        -0.374016 0.971010 0.336495,
        -0.625984 0.958543 0.348963,
        -0.374016 0.958543 0.348963,
        -0.625984 0.943613 0.358344,
        -0.374016 0.943613 0.358344,
        -0.625984 0.926970 0.364168,
        -0.374016 0.926970 0.364168,
        -0.625984 0.909449 0.366142,
        -0.374016 0.909449 0.366142,
        -0.374016 -2.775591 0.366142,
        -0.625984 -2.775591 0.366142,
        -0.625984 -2.775591 0.618110,
        -0.374016 -2.775591 0.618110,
        -0.625984 -2.854331 0.539370,
        -0.625984 -2.854331 0.444882,
        -0.374016 -2.854331 0.444882,
        -0.374016 -2.854331 0.539370,
        0.374016 1.161417 0.618110,
        0.625984 1.161417 0.618110,
        0.625984 1.178939 0.616136,
        0.374016 1.178939 0.616136,
        0.625984 1.195581 0.610313,
        0.374016 1.195581 0.610313,
        0.625984 1.210511 0.600931,
        0.374016 1.210511 0.600931,
        0.625984 1.222979 0.588464,
        0.374016 1.222979 0.588464,
        0.625984 1.232360 0.573534,
        0.374016 1.232360 0.573534,
        0.625984 1.238183 0.556891,
        0.374016 1.238183 0.556891,
        0.625984 1.240157 0.539370,
        0.374016 1.240157 0.539370,
        0.374016 1.240157 -1.102362,
        0.625984 1.240157 -1.102362,
        0.374016 1.161417 -1.181102,
        0.625984 1.161417 -1.181102,
        0.374016 1.066929 -1.181102,
        0.625984 1.066929 -1.181102,
        0.374016 0.988189 -1.102362,
        0.625984 0.988189 -1.102362,
        0.374016 0.988189 0.287402,
        0.625984 0.988189 0.287402,
        0.374016 0.986215 0.304923,
        0.625984 0.986215 0.304923,
        0.374016 0.980391 0.321566,
        0.625984 0.980391 0.321566,
        0.374016 0.971010 0.336495,
        0.625984 0.971010 0.336495,
        0.374016 0.958543 0.348963,
        0.625984 0.958543 0.348963,
        0.374016 0.943613 0.358344,
        0.625984 0.943613 0.358344,
        0.374016 0.926970 0.364168,
        0.625984 0.926970 0.364168,
        0.374016 0.909449 0.366142,
        0.625984 0.909449 0.366142,
        0.625984 -2.775591 0.366142,
        0.374016 -2.775591 0.366142,
        0.374016 -2.775591 0.618110,
        0.625984 -2.775591 0.618110,
        0.374016 -2.854331 0.539370,
        0.374016 -2.854331 0.444882,
        0.625984 -2.854331 0.444882,
        0.625984 -2.854331 0.539370,
        1.374016 1.161417 0.618110,
        1.625984 1.161417 0.618110,
        1.625984 1.178939 0.616136,
        1.374016 1.178939 0.616136,
        1.625984 1.195581 0.610313,
        1.374016 1.195581 0.610313,
        1.625984 1.210511 0.600931,
        1.374016 1.210511 0.600931,
        1.625984 1.222979 0.588464,
        1.374016 1.222979 0.588464,
        1.625984 1.232360 0.573534,
        1.374016 1.232360 0.573534,
        1.625984 1.238183 0.556891,
        1.374016 1.238183 0.556891,
        1.625984 1.240157 0.539370,
        1.374016 1.240157 0.539370,
        1.374016 1.240157 -1.102362,
        1.625984 1.240157 -1.102362,
        1.374016 1.161417 -1.181102,
        1.625984 1.161417 -1.181102,
        1.374016 1.066929 -1.181102,
        1.625984 1.066929 -1.181102,
        1.374016 0.988189 -1.102362,
        1.625984 0.988189 -1.102362,
        1.374016 0.988189 0.287402,
        1.625984 0.988189 0.287402,
        1.374016 0.986215 0.304923,
        1.625984 0.986215 0.304923,
        1.374016 0.980391 0.321566,
        1.625984 0.980391 0.321566,
        1.374016 0.971010 0.336495,
        1.625984 0.971010 0.336495,
        1.374016 0.958543 0.348963,
        1.625984 0.958543 0.348963,
        1.374016 0.943613 0.358344,
        1.625984 0.943613 0.358344,
        1.374016 0.926970 0.364168,
        1.625984 0.926970 0.364168,
        1.374016 0.909449 0.366142,
        1.625984 0.909449 0.366142,
        1.625984 -2.775591 0.366142,
        1.374016 -2.775591 0.366142,
        1.374016 -2.775591 0.618110,
        1.625984 -2.775591 0.618110,
        1.374016 -2.854331 0.539370,
        1.374016 -2.854331 0.444882,
        1.625984 -2.854331 0.444882,
        1.625984 -2.854331 0.539370,
        2.374016 1.161417 0.618110,
        2.625984 1.161417 0.618110,
        2.625984 1.178939 0.616136,
        2.374016 1.178939 0.616136,
        2.625984 1.195581 0.610313,
        2.374016 1.195581 0.610313,
        2.625984 1.210511 0.600931,
        2.374016 1.210511 0.600931,
        2.625984 1.222979 0.588464,
        2.374016 1.222979 0.588464,
        2.625984 1.232360 0.573534,
        2.374016 1.232360 0.573534,
        2.625984 1.238183 0.556891,
        2.374016 1.238183 0.556891,
        2.625984 1.240157 0.539370,
        2.374016 1.240157 0.539370,
        2.374016 1.240157 -1.102362,
        2.625984 1.240157 -1.102362,
        2.374016 1.161417 -1.181102,
        2.625984 1.161417 -1.181102,
        2.374016 1.066929 -1.181102,
        2.625984 1.066929 -1.181102,
        2.374016 0.988189 -1.102362,
        2.625984 0.988189 -1.102362,
        2.374016 0.988189 0.287402,
        2.625984 0.988189 0.287402,
        2.374016 0.986215 0.304923,
        2.625984 0.986215 0.304923,
        2.374016 0.980391 0.321566,
        2.625984 0.980391 0.321566,
        2.374016 0.971010 0.336495,
        2.625984 0.971010 0.336495,
        2.374016 0.958543 0.348963,
        2.625984 0.958543 0.348963,
        2.374016 0.943613 0.358344,
        2.625984 0.943613 0.358344,
        2.374016 0.926970 0.364168,
        2.625984 0.926970 0.364168,
        2.374016 0.909449 0.366142,
        2.625984 0.909449 0.366142,
        2.625984 -2.775591 0.366142,
        2.374016 -2.775591 0.366142,
        2.374016 -2.775591 0.618110,
        2.625984 -2.775591 0.618110,
        2.374016 -2.854331 0.539370,
        2.374016 -2.854331 0.444882,
        2.625984 -2.854331 0.444882,
        2.625984 -2.854331 0.539370,
        3.374016 1.161417 0.618110,
        3.625984 1.161417 0.618110,
        3.625984 1.178939 0.616136,
        3.374016 1.178939 0.616136,
        3.625984 1.195581 0.610313,
        3.374016 1.195581 0.610313,
        3.625984 1.210511 0.600931,
        3.374016 1.210511 0.600931,
        3.625984 1.222979 0.588464,
        3.374016 1.222979 0.588464,
        3.625984 1.232360 0.573534,
        3.374016 1.232360 0.573534,
        3.625984 1.238183 0.556891,
        3.374016 1.238183 0.556891,
        3.625984 1.240157 0.539370,
        3.374016 1.240157 0.539370,
        3.374016 1.240157 -1.102362,
        3.625984 1.240157 -1.102362,
        3.374016 1.161417 -1.181102,
        3.625984 1.161417 -1.181102,
        3.374016 1.066929 -1.181102,
        3.625984 1.066929 -1.181102,
        3.374016 0.988189 -1.102362,
        3.625984 0.988189 -1.102362,
        3.374016 0.988189 0.287402,
        3.625984 0.988189 0.287402,
        3.374016 0.986215 0.304923,
        3.625984 0.986215 0.304923,
        3.374016 0.980391 0.321566,
        3.625984 0.980391 0.321566,
        3.374016 0.971010 0.336495,
        3.625984 0.971010 0.336495,
        3.374016 0.958543 0.348963,
        3.625984 0.958543 0.348963,
        3.374016 0.943613 0.358344,
        3.625984 0.943613 0.358344,
        3.374016 0.926970 0.364168,
        3.625984 0.926970 0.364168,
        3.374016 0.909449 0.366142,
        3.625984 0.909449 0.366142,
        3.625984 -2.775591 0.366142,
        3.374016 -2.775591 0.366142,
        3.374016 -2.775591 0.618110,
        3.625984 -2.775591 0.618110,
        3.374016 -2.854331 0.539370,
        3.374016 -2.854331 0.444882,
        3.625984 -2.854331 0.444882,
        3.625984 -2.854331 0.539370,
        0.657480 0.147890 0.039370,
        0.657480 0.149909 0.039370,
        0.500000 0.222593 0.039370,
        0.500000 0.207229 0.039370,
      ]
    }
    coordIndex [
      60, 61, 62, -1,
      60, 62, 63, -1,
      63, 62, 64, -1,
      63, 64, 65, -1,
      65, 64, 66, -1,
      65, 66, 67, -1,
      67, 66, 68, -1,
      67, 68, 69, -1,
      69, 68, 70, -1,
      69, 70, 71, -1,
      71, 70, 72, -1,
      71, 72, 73, -1,
      73, 72, 74, -1,
      73, 74, 75, -1,
      76, 75, 77, -1,
      77, 75, 74, -1,
      78, 76, 79, -1,
      79, 76, 77, -1,
      80, 78, 81, -1,
      81, 78, 79, -1,
      82, 80, 83, -1,
      83, 80, 81, -1,
      84, 82, 85, -1,
      85, 82, 83, -1,
      84, 85, 86, -1,
      86, 85, 87, -1,
      86, 87, 88, -1,
      88, 87, 89, -1,
      88, 89, 90, -1,
      90, 89, 91, -1,
      90, 91, 92, -1,
      92, 91, 93, -1,
      92, 93, 94, -1,
      94, 93, 95, -1,
      94, 95, 96, -1,
      96, 95, 97, -1,
      96, 97, 98, -1,
      98, 97, 99, -1,
      50, 51, 61, -1,
      61, 51, 99, -1,
      68, 66, 93, -1,
      89, 74, 91, -1,
      91, 74, 72, -1,
      91, 72, 93, -1,
      93, 72, 70, -1,
      93, 70, 68, -1,
      99, 97, 61, -1,
      61, 97, 95, -1,
      61, 95, 62, -1,
      62, 95, 93, -1,
      62, 93, 64, -1,
      64, 93, 66, -1,
      81, 79, 83, -1,
      83, 79, 77, -1,
      83, 77, 85, -1,
      85, 77, 74, -1,
      85, 74, 87, -1,
      87, 74, 89, -1,
      84, 75, 76, -1,
      65, 67, 92, -1,
      52, 53, 98, -1,
      98, 53, 60, -1,
      98, 60, 96, -1,
      96, 60, 94, -1,
      78, 80, 76, -1,
      76, 80, 82, -1,
      76, 82, 84, -1,
      94, 60, 92, -1,
      92, 60, 63, -1,
      92, 63, 65, -1,
      84, 86, 75, -1,
      75, 86, 88, -1,
      75, 88, 73, -1,
      73, 88, 90, -1,
      73, 90, 71, -1,
      71, 90, 92, -1,
      71, 92, 69, -1,
      69, 92, 67, -1,
      50, 61, 53, -1,
      53, 61, 60, -1,
      52, 98, 51, -1,
      51, 98, 99, -1,
      22, 100, 21, -1,
      21, 100, 101, -1,
      20, 102, 23, -1,
      23, 102, 103, -1,
      104, 102, 105, -1,
      105, 102, 20, -1,
      105, 20, 101, -1,
      101, 20, 21, -1,
      106, 100, 107, -1,
      107, 100, 22, -1,
      107, 22, 103, -1,
      103, 22, 23, -1,
      105, 101, 106, -1,
      106, 101, 100, -1,
      104, 105, 107, -1,
      107, 105, 106, -1,
      102, 104, 103, -1,
      103, 104, 107, -1,
      108, 109, 110, -1,
      108, 110, 111, -1,
      111, 110, 112, -1,
      111, 112, 113, -1,
      113, 112, 114, -1,
      113, 114, 115, -1,
      115, 114, 116, -1,
      115, 116, 117, -1,
      117, 116, 118, -1,
      117, 118, 119, -1,
      119, 118, 120, -1,
      119, 120, 121, -1,
      121, 120, 122, -1,
      121, 122, 123, -1,
      124, 123, 125, -1,
      125, 123, 122, -1,
      126, 124, 127, -1,
      127, 124, 125, -1,
      128, 126, 129, -1,
      129, 126, 127, -1,
      130, 128, 131, -1,
      131, 128, 129, -1,
      132, 130, 133, -1,
      133, 130, 131, -1,
      132, 133, 134, -1,
      134, 133, 135, -1,
      134, 135, 136, -1,
      136, 135, 137, -1,
      136, 137, 138, -1,
      138, 137, 139, -1,
      138, 139, 140, -1,
      140, 139, 141, -1,
      140, 141, 142, -1,
      142, 141, 143, -1,
      142, 143, 144, -1,
      144, 143, 145, -1,
      144, 145, 146, -1,
      146, 145, 147, -1,
      54, 55, 109, -1,
      109, 55, 147, -1,
      116, 114, 141, -1,
      137, 122, 139, -1,
      139, 122, 120, -1,
      139, 120, 141, -1,
      141, 120, 118, -1,
      141, 118, 116, -1,
      147, 145, 109, -1,
      109, 145, 143, -1,
      109, 143, 110, -1,
      110, 143, 141, -1,
      110, 141, 112, -1,
      112, 141, 114, -1,
      129, 127, 131, -1,
      131, 127, 125, -1,
      131, 125, 133, -1,
      133, 125, 122, -1,
      133, 122, 135, -1,
      135, 122, 137, -1,
      132, 123, 124, -1,
      113, 115, 140, -1,
      56, 57, 146, -1,
      146, 57, 108, -1,
      146, 108, 144, -1,
      144, 108, 142, -1,
      126, 128, 124, -1,
      124, 128, 130, -1,
      124, 130, 132, -1,
      142, 108, 140, -1,
      140, 108, 111, -1,
      140, 111, 113, -1,
      132, 134, 123, -1,
      123, 134, 136, -1,
      123, 136, 121, -1,
      121, 136, 138, -1,
      121, 138, 119, -1,
      119, 138, 140, -1,
      119, 140, 117, -1,
      117, 140, 115, -1,
      54, 109, 57, -1,
      57, 109, 108, -1,
      56, 146, 55, -1,
      55, 146, 147, -1,
      18, 148, 17, -1,
      17, 148, 149, -1,
      16, 150, 19, -1,
      19, 150, 151, -1,
      152, 150, 153, -1,
      153, 150, 16, -1,
      153, 16, 149, -1,
      149, 16, 17, -1,
      154, 148, 155, -1,
      155, 148, 18, -1,
      155, 18, 151, -1,
      151, 18, 19, -1,
      153, 149, 154, -1,
      154, 149, 148, -1,
      152, 153, 155, -1,
      155, 153, 154, -1,
      150, 152, 151, -1,
      151, 152, 155, -1,
      156, 157, 158, -1,
      156, 158, 159, -1,
      159, 158, 160, -1,
      159, 160, 161, -1,
      161, 160, 162, -1,
      161, 162, 163, -1,
      163, 162, 164, -1,
      163, 164, 165, -1,
      165, 164, 166, -1,
      165, 166, 167, -1,
      167, 166, 168, -1,
      167, 168, 169, -1,
      169, 168, 170, -1,
      169, 170, 171, -1,
      172, 171, 173, -1,
      173, 171, 170, -1,
      174, 172, 175, -1,
      175, 172, 173, -1,
      176, 174, 177, -1,
      177, 174, 175, -1,
      178, 176, 179, -1,
      179, 176, 177, -1,
      180, 178, 181, -1,
      181, 178, 179, -1,
      180, 181, 182, -1,
      182, 181, 183, -1,
      182, 183, 184, -1,
      184, 183, 185, -1,
      184, 185, 186, -1,
      186, 185, 187, -1,
      186, 187, 188, -1,
      188, 187, 189, -1,
      188, 189, 190, -1,
      190, 189, 191, -1,
      190, 191, 192, -1,
      192, 191, 193, -1,
      192, 193, 194, -1,
      194, 193, 195, -1,
      32, 59, 157, -1,
      157, 59, 195, -1,
      164, 162, 189, -1,
      185, 170, 187, -1,
      187, 170, 168, -1,
      187, 168, 189, -1,
      189, 168, 166, -1,
      189, 166, 164, -1,
      195, 193, 157, -1,
      157, 193, 191, -1,
      157, 191, 158, -1,
      158, 191, 189, -1,
      158, 189, 160, -1,
      160, 189, 162, -1,
      177, 175, 179, -1,
      179, 175, 173, -1,
      179, 173, 181, -1,
      181, 173, 170, -1,
      181, 170, 183, -1,
      183, 170, 185, -1,
      180, 171, 172, -1,
      161, 163, 188, -1,
      58, 33, 194, -1,
      194, 33, 156, -1,
      194, 156, 192, -1,
      192, 156, 190, -1,
      174, 176, 172, -1,
      172, 176, 178, -1,
      172, 178, 180, -1,
      190, 156, 188, -1,
      188, 156, 159, -1,
      188, 159, 161, -1,
      180, 182, 171, -1,
      171, 182, 184, -1,
      171, 184, 169, -1,
      169, 184, 186, -1,
      169, 186, 167, -1,
      167, 186, 188, -1,
      167, 188, 165, -1,
      165, 188, 163, -1,
      32, 157, 33, -1,
      33, 157, 156, -1,
      58, 194, 59, -1,
      59, 194, 195, -1,
      12, 196, 13, -1,
      13, 196, 197, -1,
      14, 198, 15, -1,
      15, 198, 199, -1,
      200, 198, 201, -1,
      201, 198, 14, -1,
      201, 14, 197, -1,
      197, 14, 13, -1,
      202, 196, 203, -1,
      203, 196, 12, -1,
      203, 12, 199, -1,
      199, 12, 15, -1,
      201, 197, 202, -1,
      202, 197, 196, -1,
      200, 201, 203, -1,
      203, 201, 202, -1,
      198, 200, 199, -1,
      199, 200, 203, -1,
      204, 205, 206, -1,
      204, 206, 207, -1,
      207, 206, 208, -1,
      207, 208, 209, -1,
      209, 208, 210, -1,
      209, 210, 211, -1,
      211, 210, 212, -1,
      211, 212, 213, -1,
      213, 212, 214, -1,
      213, 214, 215, -1,
      215, 214, 216, -1,
      215, 216, 217, -1,
      217, 216, 218, -1,
      217, 218, 219, -1,
      220, 219, 221, -1,
      221, 219, 218, -1,
      222, 220, 223, -1,
      223, 220, 221, -1,
      224, 222, 225, -1,
      225, 222, 223, -1,
      226, 224, 227, -1,
      227, 224, 225, -1,
      228, 226, 229, -1,
      229, 226, 227, -1,
      228, 229, 230, -1,
      230, 229, 231, -1,
      230, 231, 232, -1,
      232, 231, 233, -1,
      232, 233, 234, -1,
      234, 233, 235, -1,
      234, 235, 236, -1,
      236, 235, 237, -1,
      236, 237, 238, -1,
      238, 237, 239, -1,
      238, 239, 240, -1,
      240, 239, 241, -1,
      240, 241, 242, -1,
      242, 241, 243, -1,
      36, 49, 205, -1,
      205, 49, 243, -1,
      212, 210, 237, -1,
      233, 218, 235, -1,
      235, 218, 216, -1,
      235, 216, 237, -1,
      237, 216, 214, -1,
      237, 214, 212, -1,
      243, 241, 205, -1,
      205, 241, 239, -1,
      205, 239, 206, -1,
      206, 239, 237, -1,
      206, 237, 208, -1,
      208, 237, 210, -1,
      225, 223, 227, -1,
      227, 223, 221, -1,
      227, 221, 229, -1,
      229, 221, 218, -1,
      229, 218, 231, -1,
      231, 218, 233, -1,
      228, 219, 220, -1,
      209, 211, 236, -1,
      34, 35, 242, -1,
      242, 35, 204, -1,
      242, 204, 240, -1,
      240, 204, 238, -1,
      222, 224, 220, -1,
      220, 224, 226, -1,
      220, 226, 228, -1,
      238, 204, 236, -1,
      236, 204, 207, -1,
      236, 207, 209, -1,
      228, 230, 219, -1,
      219, 230, 232, -1,
      219, 232, 217, -1,
      217, 232, 234, -1,
      217, 234, 215, -1,
      215, 234, 236, -1,
      215, 236, 213, -1,
      213, 236, 211, -1,
      36, 205, 35, -1,
      35, 205, 204, -1,
      34, 242, 49, -1,
      49, 242, 243, -1,
      10, 244, 11, -1,
      11, 244, 245, -1,
      24, 246, 25, -1,
      25, 246, 247, -1,
      248, 246, 249, -1,
      249, 246, 24, -1,
      249, 24, 245, -1,
      245, 24, 11, -1,
      250, 244, 251, -1,
      251, 244, 10, -1,
      251, 10, 247, -1,
      247, 10, 25, -1,
      249, 245, 250, -1,
      250, 245, 244, -1,
      248, 249, 251, -1,
      251, 249, 250, -1,
      246, 248, 247, -1,
      247, 248, 251, -1,
      252, 253, 254, -1,
      252, 254, 255, -1,
      255, 254, 256, -1,
      255, 256, 257, -1,
      257, 256, 258, -1,
      257, 258, 259, -1,
      259, 258, 260, -1,
      259, 260, 261, -1,
      261, 260, 262, -1,
      261, 262, 263, -1,
      263, 262, 264, -1,
      263, 264, 265, -1,
      265, 264, 266, -1,
      265, 266, 267, -1,
      268, 267, 269, -1,
      269, 267, 266, -1,
      270, 268, 271, -1,
      271, 268, 269, -1,
      272, 270, 273, -1,
      273, 270, 271, -1,
      274, 272, 275, -1,
      275, 272, 273, -1,
      276, 274, 277, -1,
      277, 274, 275, -1,
      276, 277, 278, -1,
      278, 277, 279, -1,
      278, 279, 280, -1,
      280, 279, 281, -1,
      280, 281, 282, -1,
      282, 281, 283, -1,
      282, 283, 284, -1,
      284, 283, 285, -1,
      284, 285, 286, -1,
      286, 285, 287, -1,
      286, 287, 288, -1,
      288, 287, 289, -1,
      288, 289, 290, -1,
      290, 289, 291, -1,
      39, 48, 253, -1,
      253, 48, 291, -1,
      260, 258, 285, -1,
      281, 266, 283, -1,
      283, 266, 264, -1,
      283, 264, 285, -1,
      285, 264, 262, -1,
      285, 262, 260, -1,
      291, 289, 253, -1,
      253, 289, 287, -1,
      253, 287, 254, -1,
      254, 287, 285, -1,
      254, 285, 256, -1,
      256, 285, 258, -1,
      273, 271, 275, -1,
      275, 271, 269, -1,
      275, 269, 277, -1,
      277, 269, 266, -1,
      277, 266, 279, -1,
      279, 266, 281, -1,
      276, 267, 268, -1,
      257, 259, 284, -1,
      37, 38, 290, -1,
      290, 38, 252, -1,
      290, 252, 288, -1,
      288, 252, 286, -1,
      270, 272, 268, -1,
      268, 272, 274, -1,
      268, 274, 276, -1,
      286, 252, 284, -1,
      284, 252, 255, -1,
      284, 255, 257, -1,
      276, 278, 267, -1,
      267, 278, 280, -1,
      267, 280, 265, -1,
      265, 280, 282, -1,
      265, 282, 263, -1,
      263, 282, 284, -1,
      263, 284, 261, -1,
      261, 284, 259, -1,
      39, 253, 38, -1,
      38, 253, 252, -1,
      37, 290, 48, -1,
      48, 290, 291, -1,
      8, 292, 9, -1,
      9, 292, 293, -1,
      26, 294, 27, -1,
      27, 294, 295, -1,
      296, 294, 297, -1,
      297, 294, 26, -1,
      297, 26, 293, -1,
      293, 26, 9, -1,
      298, 292, 299, -1,
      299, 292, 8, -1,
      299, 8, 295, -1,
      295, 8, 27, -1,
      297, 293, 298, -1,
      298, 293, 292, -1,
      296, 297, 299, -1,
      299, 297, 298, -1,
      294, 296, 295, -1,
      295, 296, 299, -1,
      300, 301, 302, -1,
      300, 302, 303, -1,
      303, 302, 304, -1,
      303, 304, 305, -1,
      305, 304, 306, -1,
      305, 306, 307, -1,
      307, 306, 308, -1,
      307, 308, 309, -1,
      309, 308, 310, -1,
      309, 310, 311, -1,
      311, 310, 312, -1,
      311, 312, 313, -1,
      313, 312, 314, -1,
      313, 314, 315, -1,
      316, 315, 317, -1,
      317, 315, 314, -1,
      318, 316, 319, -1,
      319, 316, 317, -1,
      320, 318, 321, -1,
      321, 318, 319, -1,
      322, 320, 323, -1,
      323, 320, 321, -1,
      324, 322, 325, -1,
      325, 322, 323, -1,
      324, 325, 326, -1,
      326, 325, 327, -1,
      326, 327, 328, -1,
      328, 327, 329, -1,
      328, 329, 330, -1,
      330, 329, 331, -1,
      330, 331, 332, -1,
      332, 331, 333, -1,
      332, 333, 334, -1,
      334, 333, 335, -1,
      334, 335, 336, -1,
      336, 335, 337, -1,
      336, 337, 338, -1,
      338, 337, 339, -1,
      42, 47, 301, -1,
      301, 47, 339, -1,
      308, 306, 333, -1,
      329, 314, 331, -1,
      331, 314, 312, -1,
      331, 312, 333, -1,
      333, 312, 310, -1,
      333, 310, 308, -1,
      339, 337, 301, -1,
      301, 337, 335, -1,
      301, 335, 302, -1,
      302, 335, 333, -1,
      302, 333, 304, -1,
      304, 333, 306, -1,
      321, 319, 323, -1,
      323, 319, 317, -1,
      323, 317, 325, -1,
      325, 317, 314, -1,
      325, 314, 327, -1,
      327, 314, 329, -1,
      324, 315, 316, -1,
      305, 307, 332, -1,
      40, 41, 338, -1,
      338, 41, 300, -1,
      338, 300, 336, -1,
      336, 300, 334, -1,
      318, 320, 316, -1,
      316, 320, 322, -1,
      316, 322, 324, -1,
      334, 300, 332, -1,
      332, 300, 303, -1,
      332, 303, 305, -1,
      324, 326, 315, -1,
      315, 326, 328, -1,
      315, 328, 313, -1,
      313, 328, 330, -1,
      313, 330, 311, -1,
      311, 330, 332, -1,
      311, 332, 309, -1,
      309, 332, 307, -1,
      42, 301, 41, -1,
      41, 301, 300, -1,
      40, 338, 47, -1,
      47, 338, 339, -1,
      6, 340, 7, -1,
      7, 340, 341, -1,
      28, 342, 29, -1,
      29, 342, 343, -1,
      344, 342, 345, -1,
      345, 342, 28, -1,
      345, 28, 341, -1,
      341, 28, 7, -1,
      346, 340, 347, -1,
      347, 340, 6, -1,
      347, 6, 343, -1,
      343, 6, 29, -1,
      345, 341, 346, -1,
      346, 341, 340, -1,
      344, 345, 347, -1,
      347, 345, 346, -1,
      342, 344, 343, -1,
      343, 344, 347, -1,
      348, 349, 350, -1,
      348, 350, 351, -1,
      351, 350, 352, -1,
      351, 352, 353, -1,
      353, 352, 354, -1,
      353, 354, 355, -1,
      355, 354, 356, -1,
      355, 356, 357, -1,
      357, 356, 358, -1,
      357, 358, 359, -1,
      359, 358, 360, -1,
      359, 360, 361, -1,
      361, 360, 362, -1,
      361, 362, 363, -1,
      364, 363, 365, -1,
      365, 363, 362, -1,
      366, 364, 367, -1,
      367, 364, 365, -1,
      368, 366, 369, -1,
      369, 366, 367, -1,
      370, 368, 371, -1,
      371, 368, 369, -1,
      372, 370, 373, -1,
      373, 370, 371, -1,
      372, 373, 374, -1,
      374, 373, 375, -1,
      374, 375, 376, -1,
      376, 375, 377, -1,
      376, 377, 378, -1,
      378, 377, 379, -1,
      378, 379, 380, -1,
      380, 379, 381, -1,
      380, 381, 382, -1,
      382, 381, 383, -1,
      382, 383, 384, -1,
      384, 383, 385, -1,
      384, 385, 386, -1,
      386, 385, 387, -1,
      43, 44, 349, -1,
      349, 44, 387, -1,
      356, 354, 381, -1,
      377, 362, 379, -1,
      379, 362, 360, -1,
      379, 360, 381, -1,
      381, 360, 358, -1,
      381, 358, 356, -1,
      387, 385, 349, -1,
      349, 385, 383, -1,
      349, 383, 350, -1,
      350, 383, 381, -1,
      350, 381, 352, -1,
      352, 381, 354, -1,
      369, 367, 371, -1,
      371, 367, 365, -1,
      371, 365, 373, -1,
      373, 365, 362, -1,
      373, 362, 375, -1,
      375, 362, 377, -1,
      372, 363, 364, -1,
      353, 355, 380, -1,
      45, 46, 386, -1,
      386, 46, 348, -1,
      386, 348, 384, -1,
      384, 348, 382, -1,
      366, 368, 364, -1,
      364, 368, 370, -1,
      364, 370, 372, -1,
      382, 348, 380, -1,
      380, 348, 351, -1,
      380, 351, 353, -1,
      372, 374, 363, -1,
      363, 374, 376, -1,
      363, 376, 361, -1,
      361, 376, 378, -1,
      361, 378, 359, -1,
      359, 378, 380, -1,
      359, 380, 357, -1,
      357, 380, 355, -1,
      43, 349, 46, -1,
      46, 349, 348, -1,
      45, 386, 44, -1,
      44, 386, 387, -1,
      4, 388, 5, -1,
      5, 388, 389, -1,
      30, 390, 31, -1,
      31, 390, 391, -1,
      392, 390, 393, -1,
      393, 390, 30, -1,
      393, 30, 389, -1,
      389, 30, 5, -1,
      394, 388, 395, -1,
      395, 388, 4, -1,
      395, 4, 391, -1,
      391, 4, 31, -1,
      393, 389, 394, -1,
      394, 389, 388, -1,
      392, 393, 395, -1,
      395, 393, 394, -1,
      390, 392, 391, -1,
      391, 392, 395, -1,
      396, 397, 2, -1,
      2, 397, 3, -1,
      397, 398, 3, -1,
      3, 398, 1, -1,
      398, 399, 1, -1,
      1, 399, 0, -1,
    ]
  }
}

Shape {
  appearance Appearance {
    material Material {
      diffuseColor 0.1490 0.1490 0.1490
      specularColor 0.0745 0.0745 0.0745
      ambientIntensity 0.2
      transparency 0.0000
      shininess 0.5
    }
  }
  geometry IndexedFaceSet {
    ccw TRUE
    solid FALSE
    coord DEF co Coordinate {
      point [
        0.500000 0.207229 0.000000,
        0.550474 0.183948 0.000000,
        0.500000 0.207229 0.039370,
        0.550474 0.183948 0.039370,
      ]
    }
    coordIndex [
      2, 3, 0, -1,
      0, 3, 1, -1,
    ]
  }
}

Shape {
  appearance Appearance {
    material Material {
      diffuseColor 0.7529 0.7529 0.7529
      specularColor 0.3765 0.3765 0.3765
      ambientIntensity 0.2
      transparency 0.0000
      shininess 0.5
    }
  }
  geometry IndexedFaceSet {
    ccw TRUE
    solid FALSE
    coord DEF co Coordinate {
      point [
        0.500000 0.073188 0.000000,
        0.550474 0.183948 0.000000,
        0.550474 0.112558 0.000000,
        0.500000 0.088614 0.000000,
        0.550474 0.183948 0.039370,
        0.550474 0.112558 0.039370,
        0.500000 0.088614 0.039370,
        0.500000 0.073188 0.039370,
      ]
    }
    coordIndex [
      4, 5, 1, -1,
      1, 5, 2, -1,
      5, 6, 2, -1,
      2, 6, 3, -1,
      6, 7, 3, -1,
      3, 7, 0, -1,
    ]
  }
}

Shape {
  appearance Appearance {
    material Material {
      diffuseColor 0.1490 0.1490 0.1490
      specularColor 0.0745 0.0745 0.0745
      ambientIntensity 0.2
      transparency 0.0000
      shininess 0.5
    }
  }
  geometry IndexedFaceSet {
    ccw TRUE
    solid FALSE
    coord DEF co Coordinate {
      point [
        0.500000 0.073188 0.000000,
        0.657480 0.147890 0.000000,
        0.657480 0.147890 0.039370,
        0.500000 0.073188 0.039370,
      ]
    }
    coordIndex [
      3, 2, 0, -1,
      0, 2, 1, -1,
    ]
  }
}

Shape {
  appearance Appearance {
    material Material {
      diffuseColor 0.7529 0.7529 0.7529
      specularColor 0.3765 0.3765 0.3765
      ambientIntensity 0.2
      transparency 0.0000
      shininess 0.5
    }
  }
  geometry IndexedFaceSet {
    ccw TRUE
    solid FALSE
    coord DEF co Coordinate {
      point [
        0.657480 0.147890 0.039370,
        0.657480 0.149909 0.039370,
        0.500000 0.222593 0.039370,
        0.500000 0.207229 0.039370,
        0.550474 0.183948 0.039370,
        0.550474 0.112558 0.039370,
        0.500000 0.088614 0.039370,
        0.500000 0.073188 0.039370,
        0.566626 0.120224 0.039370,
        0.626785 0.148742 0.039370,
        0.566626 0.176503 0.039370,
      ]
    }
    coordIndex [
      1, 0, 8, -1,
      8, 9, 1, -1,
      1, 9, 10, -1,
      1, 10, 2, -1,
      7, 6, 5, -1,
      3, 2, 4, -1,
      4, 2, 10, -1,
      4, 10, 5, -1,
      5, 10, 8, -1,
      5, 8, 7, -1,
      7, 8, 0, -1,
    ]
  }
}

Shape {
  appearance Appearance {
    material Material {
      diffuseColor 0.1490 0.1490 0.1490
      specularColor 0.0745 0.0745 0.0745
      ambientIntensity 0.2
      transparency 0.0000
      shininess 0.5
    }
  }
  geometry IndexedFaceSet {
    ccw TRUE
    solid FALSE
    coord DEF co Coordinate {
      point [
        0.626785 0.148742 0.039370,
        0.566626 0.176503 0.039370,
        0.566626 0.176503 0.000000,
        0.626785 0.148742 0.000000,
      ]
    }
    coordIndex [
      1, 0, 2, -1,
      2, 0, 3, -1,
    ]
  }
}

Shape {
  appearance Appearance {
    material Material {
      diffuseColor 0.7529 0.7529 0.7529
      specularColor 0.3765 0.3765 0.3765
      ambientIntensity 0.2
      transparency 0.0000
      shininess 0.5
    }
  }
  geometry IndexedFaceSet {
    ccw TRUE
    solid FALSE
    coord DEF co Coordinate {
      point [
        0.500000 -0.076217 0.000000,
        0.500000 -0.027414 0.000000,
        0.566626 0.120224 0.039370,
        0.626785 0.148742 0.039370,
        0.566626 0.176503 0.039370,
        0.566626 0.176503 0.000000,
        0.626785 0.148742 0.000000,
        0.566626 0.120224 0.000000,
        0.500000 -0.027414 0.039370,
        0.500000 -0.076217 0.039370,
      ]
    }
    coordIndex [
      2, 4, 7, -1,
      7, 4, 5, -1,
      3, 2, 6, -1,
      6, 2, 7, -1,
      8, 9, 1, -1,
      1, 9, 0, -1,
    ]
  }
}

Shape {
  appearance Appearance {
    material Material {
      diffuseColor 0.1490 0.1490 0.1490
      specularColor 0.0745 0.0745 0.0745
      ambientIntensity 0.2
      transparency 0.0000
      shininess 0.5
    }
  }
  geometry IndexedFaceSet {
    ccw TRUE
    solid FALSE
    coord DEF co Coordinate {
      point [
        0.500000 -0.076217 0.000000,
        0.657480 -0.076217 0.000000,
        0.500000 -0.076217 0.039370,
        0.657480 -0.076217 0.039370,
      ]
    }
    coordIndex [
      2, 3, 0, -1,
      0, 3, 1, -1,
    ]
  }
}

Shape {
  appearance Appearance {
    material Material {
      diffuseColor 0.7529 0.7529 0.7529
      specularColor 0.3765 0.3765 0.3765
      ambientIntensity 0.2
      transparency 0.0000
      shininess 0.5
    }
  }
  geometry IndexedFaceSet {
    ccw TRUE
    solid FALSE
    coord DEF co Coordinate {
      point [
        0.657480 -0.076217 0.000000,
        0.657480 -0.044418 0.000000,
        0.657480 -0.076217 0.039370,
        0.657480 -0.044418 0.039370,
      ]
    }
    coordIndex [
      2, 3, 0, -1,
      0, 3, 1, -1,
    ]
  }
}

Shape {
  appearance Appearance {
    material Material {
      diffuseColor 0.1490 0.1490 0.1490
      specularColor 0.0745 0.0745 0.0745
      ambientIntensity 0.2
      transparency 0.0000
      shininess 0.5
    }
  }
  geometry IndexedFaceSet {
    ccw TRUE
    solid FALSE
    coord DEF co Coordinate {
      point [
        0.521935 0.033849 0.000000,
        0.511890 0.022612 0.000000,
        0.505165 0.009408 0.000000,
        0.576753 0.052998 0.000000,
        0.555655 0.050773 0.000000,
        0.538110 0.044606 0.000000,
        0.500858 -0.010520 0.000000,
        0.500000 -0.027414 0.000000,
        0.656517 -0.019191 0.000000,
        0.651802 0.005552 0.000000,
        0.643752 0.021483 0.000000,
        0.633578 0.033156 0.000000,
        0.657480 -0.044418 0.000000,
        0.619189 0.043221 0.000000,
        0.602578 0.049761 0.000000,
        0.583402 0.052813 0.000000,
        0.500000 -0.027414 0.039370,
        0.657480 -0.044418 0.039370,
        0.651802 0.005552 0.039370,
        0.656517 -0.019191 0.039370,
        0.576753 0.052998 0.039370,
        0.583402 0.052813 0.039370,
        0.602578 0.049761 0.039370,
        0.619189 0.043221 0.039370,
        0.633578 0.033156 0.039370,
        0.643752 0.021483 0.039370,
        0.500858 -0.010520 0.039370,
        0.505165 0.009408 0.039370,
        0.511890 0.022612 0.039370,
        0.521935 0.033849 0.039370,
        0.538110 0.044606 0.039370,
        0.555655 0.050773 0.039370,
      ]
    }
    coordIndex [
      18, 9, 8, -1,
      18, 8, 19, -1,
      19, 8, 12, -1,
      19, 12, 17, -1,
      20, 3, 15, -1,
      20, 15, 21, -1,
      21, 15, 14, -1,
      21, 14, 22, -1,
      22, 14, 13, -1,
      22, 13, 23, -1,
      23, 13, 11, -1,
      23, 11, 24, -1,
      24, 11, 10, -1,
      24, 10, 25, -1,
      25, 10, 9, -1,
      25, 9, 18, -1,
      16, 7, 6, -1,
      16, 6, 26, -1,
      26, 6, 2, -1,
      26, 2, 27, -1,
      27, 2, 1, -1,
      27, 1, 28, -1,
      28, 1, 0, -1,
      28, 0, 29, -1,
      29, 0, 5, -1,
      29, 5, 30, -1,
      30, 5, 4, -1,
      30, 4, 31, -1,
      31, 4, 3, -1,
      31, 3, 20, -1,
    ]
  }
}

Shape {
  appearance Appearance {
    material Material {
      diffuseColor 0.7529 0.7529 0.7529
      specularColor 0.3765 0.3765 0.3765
      ambientIntensity 0.2
      transparency 0.0000
      shininess 0.5
    }
  }
  geometry IndexedFaceSet {
    ccw TRUE
    solid FALSE
    coord DEF co Coordinate {
      point [
        0.500000 -0.027414 0.039370,
        0.500000 -0.076217 0.039370,
        0.657480 -0.076217 0.039370,
        0.657480 -0.044418 0.039370,
        0.651802 0.005552 0.039370,
        0.656517 -0.019191 0.039370,
        0.576753 0.052998 0.039370,
        0.583402 0.052813 0.039370,
        0.602578 0.049761 0.039370,
        0.619189 0.043221 0.039370,
        0.633578 0.033156 0.039370,
        0.643752 0.021483 0.039370,
        0.500858 -0.010520 0.039370,
        0.505165 0.009408 0.039370,
        0.511890 0.022612 0.039370,
        0.521935 0.033849 0.039370,
        0.538110 0.044606 0.039370,
        0.555655 0.050773 0.039370,
        0.640587 -0.026661 0.039370,
        0.636912 -0.002619 0.039370,
        0.634341 0.004448 0.039370,
        0.627460 0.016213 0.039370,
        0.618564 0.025315 0.039370,
        0.607043 0.032546 0.039370,
        0.593483 0.037151 0.039370,
        0.576784 0.038865 0.039370,
        0.572793 0.038767 0.039370,
        0.556187 0.036089 0.039370,
        0.544082 0.030913 0.039370,
        0.533564 0.022972 0.039370,
        0.525981 0.013621 0.039370,
        0.520158 0.001009 0.039370,
        0.516789 -0.021355 0.039370,
        0.516152 -0.044007 0.039370,
        0.516152 -0.062083 0.039370,
        0.641328 -0.062083 0.039370,
        0.641328 -0.051011 0.039370,
        0.641328 -0.062083 0.000000,
        0.516152 -0.062083 0.000000,
        0.641328 -0.051011 0.000000,
      ]
    }
    coordIndex [
      18, 19, 4, -1,
      4, 19, 20, -1,
      4, 20, 11, -1,
      11, 20, 21, -1,
      11, 21, 10, -1,
      10, 21, 22, -1,
      10, 22, 9, -1,
      9, 22, 23, -1,
      9, 23, 8, -1,
      8, 23, 24, -1,
      8, 24, 7, -1,
      7, 24, 25, -1,
      7, 25, 6, -1,
      6, 25, 26, -1,
      6, 26, 17, -1,
      17, 26, 27, -1,
      17, 27, 16, -1,
      16, 27, 28, -1,
      16, 28, 15, -1,
      15, 28, 29, -1,
      15, 29, 14, -1,
      14, 29, 30, -1,
      14, 30, 13, -1,
      13, 30, 31, -1,
      13, 31, 12, -1,
      12, 31, 32, -1,
      12, 32, 0, -1,
      0, 32, 33, -1,
      0, 33, 1, -1,
      1, 33, 34, -1,
      1, 34, 2, -1,
      2, 34, 35, -1,
      2, 35, 3, -1,
      3, 35, 36, -1,
      3, 36, 5, -1,
      5, 36, 18, -1,
      5, 18, 4, -1,
      35, 34, 37, -1,
      37, 34, 38, -1,
      36, 35, 39, -1,
      39, 35, 37, -1,
    ]
  }
}

Shape {
  appearance Appearance {
    material Material {
      diffuseColor 0.1490 0.1490 0.1490
      specularColor 0.0745 0.0745 0.0745
      ambientIntensity 0.2
      transparency 0.0000
      shininess 0.5
    }
  }
  geometry IndexedFaceSet {
    ccw TRUE
    solid FALSE
    coord DEF co Coordinate {
      point [
        0.640587 -0.026661 0.039370,
        0.636912 -0.002619 0.039370,
        0.634341 0.004448 0.039370,
        0.627460 0.016213 0.039370,
        0.618564 0.025315 0.039370,
        0.607043 0.032546 0.039370,
        0.593483 0.037151 0.039370,
        0.576784 0.038865 0.039370,
        0.572793 0.038767 0.039370,
        0.556187 0.036089 0.039370,
        0.544082 0.030913 0.039370,
        0.533564 0.022972 0.039370,
        0.525981 0.013621 0.039370,
        0.520158 0.001009 0.039370,
        0.516789 -0.021355 0.039370,
        0.516152 -0.044007 0.039370,
        0.641328 -0.051011 0.039370,
        0.641328 -0.051011 0.000000,
        0.640587 -0.026661 0.000000,
        0.636912 -0.002619 0.000000,
        0.634341 0.004448 0.000000,
        0.627460 0.016213 0.000000,
        0.618564 0.025315 0.000000,
        0.607043 0.032546 -0.000000,
        0.593483 0.037151 -0.000000,
        0.576784 0.038865 0.000000,
        0.572793 0.038767 0.000000,
        0.556187 0.036089 0.000000,
        0.544082 0.030913 0.000000,
        0.533564 0.022972 0.000000,
        0.525981 0.013621 0.000000,
        0.520158 0.001009 0.000000,
        0.516789 -0.021355 0.000000,
        0.516152 -0.044007 0.000000,
      ]
    }
    coordIndex [
      16, 17, 18, -1,
      16, 18, 0, -1,
      0, 18, 19, -1,
      0, 19, 1, -1,
      1, 19, 20, -1,
      1, 20, 2, -1,
      2, 20, 21, -1,
      2, 21, 3, -1,
      3, 21, 22, -1,
      3, 22, 4, -1,
      4, 22, 23, -1,
      4, 23, 5, -1,
      5, 23, 24, -1,
      5, 24, 6, -1,
      6, 24, 25, -1,
      6, 25, 7, -1,
      7, 25, 26, -1,
      7, 26, 8, -1,
      8, 26, 27, -1,
      8, 27, 9, -1,
      9, 27, 28, -1,
      9, 28, 10, -1,
      10, 28, 29, -1,
      10, 29, 11, -1,
      11, 29, 30, -1,
      11, 30, 12, -1,
      12, 30, 31, -1,
      12, 31, 13, -1,
      13, 31, 32, -1,
      13, 32, 14, -1,
      14, 32, 33, -1,
      14, 33, 15, -1,
    ]
  }
}

Shape {
  appearance Appearance {
    material Material {
      diffuseColor 0.7529 0.7529 0.7529
      specularColor 0.3765 0.3765 0.3765
      ambientIntensity 0.2
      transparency 0.0000
      shininess 0.5
    }
  }
  geometry IndexedFaceSet {
    ccw TRUE
    solid FALSE
    coord DEF co Coordinate {
      point [
        0.516152 -0.044007 0.039370,
        0.516152 -0.062083 0.039370,
        0.516152 -0.062083 0.000000,
        0.516152 -0.044007 0.000000,
      ]
    }
    coordIndex [
      1, 0, 2, -1,
      2, 0, 3, -1,
    ]
  }
}

Shape {
  appearance Appearance {
    material Material {
      diffuseColor 0.1490 0.1490 0.1490
      specularColor 0.0745 0.0745 0.0745
      ambientIntensity 0.2
      transparency 0.0000
      shininess 0.5
    }
  }
  geometry IndexedFaceSet {
    ccw TRUE
    solid FALSE
    coord DEF co Coordinate {
      point [
        0.500000 -0.193317 0.000000,
        0.657480 -0.193317 0.000000,
        0.500000 -0.193317 0.039370,
        0.657480 -0.193317 0.039370,
      ]
    }
    coordIndex [
      2, 3, 0, -1,
      0, 3, 1, -1,
    ]
  }
}

Shape {
  appearance Appearance {
    material Material {
      diffuseColor 0.7529 0.7529 0.7529
      specularColor 0.3765 0.3765 0.3765
      ambientIntensity 0.2
      transparency 0.0000
      shininess 0.5
    }
  }
  geometry IndexedFaceSet {
    ccw TRUE
    solid FALSE
    coord DEF co Coordinate {
      point [
        0.500000 -0.104482 0.000000,
        0.500000 -0.193317 0.000000,
        0.657480 -0.193317 0.000000,
        0.657480 -0.104482 0.000000,
        0.641328 -0.179184 0.000000,
        0.592873 -0.179184 0.000000,
        0.641328 -0.104482 0.000000,
        0.592873 -0.104482 0.000000,
        0.576721 -0.104482 0.000000,
        0.516152 -0.104482 0.000000,
        0.516152 -0.179184 0.000000,
        0.576721 -0.179184 0.000000,
        0.500000 -0.193317 0.039370,
        0.657480 -0.193317 0.039370,
        0.657480 -0.104482 0.039370,
        0.641328 -0.104482 0.039370,
        0.641328 -0.179184 0.039370,
        0.592873 -0.179184 0.039370,
        0.592873 -0.104482 0.039370,
        0.576721 -0.104482 0.039370,
        0.576721 -0.179184 0.039370,
        0.516152 -0.179184 0.039370,
        0.516152 -0.104482 0.039370,
        0.500000 -0.104482 0.039370,
      ]
    }
    coordIndex [
      13, 14, 2, -1,
      2, 14, 3, -1,
      14, 15, 3, -1,
      3, 15, 6, -1,
      15, 16, 6, -1,
      6, 16, 4, -1,
      16, 17, 4, -1,
      4, 17, 5, -1,
      17, 18, 5, -1,
      5, 18, 7, -1,
      18, 19, 7, -1,
      7, 19, 8, -1,
      19, 20, 8, -1,
      8, 20, 11, -1,
      20, 21, 11, -1,
      11, 21, 10, -1,
      21, 22, 10, -1,
      10, 22, 9, -1,
      22, 23, 9, -1,
      9, 23, 0, -1,
      23, 12, 0, -1,
      0, 12, 1, -1,
      12, 23, 22, -1,
      22, 21, 12, -1,
      12, 21, 20, -1,
      12, 20, 13, -1,
      15, 14, 16, -1,
      16, 14, 13, -1,
      16, 13, 17, -1,
      17, 13, 20, -1,
      17, 20, 18, -1,
      18, 20, 19, -1,
    ]
  }
}

Shape {
  appearance Appearance {
    material Material {
      diffuseColor 0.1490 0.1490 0.1490
      specularColor 0.0745 0.0745 0.0745
      ambientIntensity 0.2
      transparency 0.0000
      shininess 0.5
    }
  }
  geometry IndexedFaceSet {
    ccw TRUE
    solid FALSE
    coord DEF co Coordinate {
      point [
        0.644366 -0.240911 0.000000,
        0.631398 -0.227781 0.000000,
        0.642412 -0.273217 0.000000,
        0.645123 -0.288794 0.000000,
        0.512956 -0.306651 0.000000,
        0.659499 -0.277172 0.000000,
        0.658767 -0.270950 0.000000,
        0.654550 -0.258341 0.000000,
        0.538361 -0.237987 0.000000,
        0.528991 -0.225621 0.000000,
        0.628584 -0.225621 0.000000,
        0.633361 -0.359225 0.000000,
        0.647735 -0.342822 0.000000,
        0.645367 -0.295213 0.000000,
        0.643076 -0.313833 0.000000,
        0.636846 -0.329908 0.000000,
        0.617858 -0.370035 0.000000,
        0.498775 -0.318716 0.000000,
        0.506021 -0.337561 0.000000,
        0.619120 -0.237987 0.000000,
        0.631622 -0.251001 0.000000,
        0.529561 -0.246704 0.000000,
        0.639608 -0.265128 0.000000,
        0.520022 -0.260631 0.000000,
        0.514293 -0.275792 0.000000,
        0.626660 -0.344404 0.000000,
        0.615317 -0.354156 0.000000,
        0.601331 -0.361186 0.000000,
        0.561229 -0.362849 0.000000,
        0.548133 -0.357867 0.000000,
        0.578582 -0.364930 0.000000,
        0.535915 -0.349471 0.000000,
        0.525342 -0.337910 0.000000,
        0.512114 -0.294235 0.000000,
        0.586209 -0.364549 0.000000,
        0.517057 -0.322656 0.000000,
        0.579655 -0.379063 0.000000,
        0.601166 -0.376460 0.000000,
        0.516945 -0.352782 0.000000,
        0.523502 -0.359094 0.000000,
        0.540744 -0.370522 0.000000,
        0.558854 -0.376848 0.000000,
        0.514399 -0.239559 0.000000,
        0.503905 -0.256393 0.000000,
        0.498466 -0.271950 0.000000,
        0.495996 -0.291761 0.000000,
        0.495962 -0.294140 0.000000,
        0.660767 -0.306913 0.000000,
        0.661518 -0.294329 0.000000,
        0.659499 -0.312253 0.000000,
        0.656204 -0.326138 0.000000,
        0.661518 -0.294329 0.039370,
        0.658767 -0.270950 0.039370,
        0.654550 -0.258341 0.039370,
        0.644366 -0.240911 0.039370,
        0.631398 -0.227781 0.039370,
        0.628584 -0.225621 0.039370,
        0.619120 -0.237987 0.039370,
        0.645367 -0.295213 0.039370,
        0.645123 -0.288794 0.039370,
        0.642412 -0.273217 0.039370,
        0.639608 -0.265128 0.039370,
        0.631622 -0.251001 0.039370,
        0.578582 -0.364930 0.039370,
        0.586209 -0.364549 0.039370,
        0.601331 -0.361186 0.039370,
        0.615317 -0.354156 0.039370,
        0.626660 -0.344404 0.039370,
        0.636846 -0.329908 0.039370,
        0.643076 -0.313833 0.039370,
        0.512114 -0.294235 0.039370,
        0.512956 -0.306651 0.039370,
        0.517057 -0.322656 0.039370,
        0.525342 -0.337910 0.039370,
        0.535915 -0.349471 0.039370,
        0.548133 -0.357867 0.039370,
        0.561229 -0.362849 0.039370,
        0.538361 -0.237987 0.039370,
        0.529561 -0.246704 0.039370,
        0.520022 -0.260631 0.039370,
        0.514293 -0.275792 0.039370,
        0.528991 -0.225621 0.039370,
        0.495962 -0.294140 0.039370,
        0.495996 -0.291761 0.039370,
        0.498466 -0.271950 0.039370,
        0.503905 -0.256393 0.039370,
        0.514399 -0.239559 0.039370,
        0.523502 -0.359094 0.039370,
        0.516945 -0.352782 0.039370,
        0.506021 -0.337561 0.039370,
        0.498775 -0.318716 0.039370,
        0.579655 -0.379063 0.039370,
        0.558854 -0.376848 0.039370,
        0.540744 -0.370522 0.039370,
        0.660767 -0.306913 0.039370,
        0.656204 -0.326138 0.039370,
        0.647735 -0.342822 0.039370,
        0.633361 -0.359225 0.039370,
        0.617858 -0.370035 0.039370,
        0.601166 -0.376460 0.039370,
      ]
    }
    coordIndex [
      48, 51, 5, -1,
      5, 51, 52, -1,
      5, 52, 6, -1,
      6, 52, 53, -1,
      6, 53, 7, -1,
      7, 53, 54, -1,
      7, 54, 0, -1,
      0, 54, 55, -1,
      0, 55, 1, -1,
      1, 55, 56, -1,
      1, 56, 10, -1,
      56, 57, 10, -1,
      10, 57, 19, -1,
      58, 13, 3, -1,
      58, 3, 59, -1,
      59, 3, 2, -1,
      59, 2, 60, -1,
      60, 2, 22, -1,
      60, 22, 61, -1,
      61, 22, 20, -1,
      61, 20, 62, -1,
      62, 20, 19, -1,
      62, 19, 57, -1,
      63, 30, 34, -1,
      63, 34, 64, -1,
      64, 34, 27, -1,
      64, 27, 65, -1,
      65, 27, 26, -1,
      65, 26, 66, -1,
      66, 26, 25, -1,
      66, 25, 67, -1,
      67, 25, 15, -1,
      67, 15, 68, -1,
      68, 15, 14, -1,
      68, 14, 69, -1,
      69, 14, 13, -1,
      69, 13, 58, -1,
      70, 33, 4, -1,
      70, 4, 71, -1,
      71, 4, 35, -1,
      71, 35, 72, -1,
      72, 35, 32, -1,
      72, 32, 73, -1,
      73, 32, 31, -1,
      73, 31, 74, -1,
      74, 31, 29, -1,
      74, 29, 75, -1,
      75, 29, 28, -1,
      75, 28, 76, -1,
      76, 28, 30, -1,
      76, 30, 63, -1,
      77, 8, 21, -1,
      77, 21, 78, -1,
      78, 21, 23, -1,
      78, 23, 79, -1,
      79, 23, 24, -1,
      79, 24, 80, -1,
      80, 24, 33, -1,
      80, 33, 70, -1,
      77, 81, 8, -1,
      8, 81, 9, -1,
      82, 46, 45, -1,
      82, 45, 83, -1,
      83, 45, 44, -1,
      83, 44, 84, -1,
      84, 44, 43, -1,
      84, 43, 85, -1,
      85, 43, 42, -1,
      85, 42, 86, -1,
      86, 42, 9, -1,
      86, 9, 81, -1,
      87, 39, 38, -1,
      87, 38, 88, -1,
      88, 38, 18, -1,
      88, 18, 89, -1,
      89, 18, 17, -1,
      89, 17, 90, -1,
      90, 17, 46, -1,
      90, 46, 82, -1,
      91, 36, 41, -1,
      91, 41, 92, -1,
      92, 41, 40, -1,
      92, 40, 93, -1,
      93, 40, 39, -1,
      93, 39, 87, -1,
      51, 48, 47, -1,
      51, 47, 94, -1,
      94, 47, 49, -1,
      94, 49, 95, -1,
      49, 50, 95, -1,
      95, 50, 12, -1,
      95, 12, 96, -1,
      96, 12, 11, -1,
      96, 11, 97, -1,
      97, 11, 16, -1,
      97, 16, 98, -1,
      98, 16, 37, -1,
      98, 37, 99, -1,
      99, 37, 36, -1,
      99, 36, 91, -1,
    ]
  }
}

Shape {
  appearance Appearance {
    material Material {
      diffuseColor 0.7529 0.7529 0.7529
      specularColor 0.3765 0.3765 0.3765
      ambientIntensity 0.2
      transparency 0.0000
      shininess 0.5
    }
  }
  geometry IndexedFaceSet {
    ccw TRUE
    solid FALSE
    coord DEF co Coordinate {
      point [
        0.661518 -0.294329 0.039370,
        0.658767 -0.270950 0.039370,
        0.654550 -0.258341 0.039370,
        0.644366 -0.240911 0.039370,
        0.631398 -0.227781 0.039370,
        0.628584 -0.225621 0.039370,
        0.619120 -0.237987 0.039370,
        0.645367 -0.295213 0.039370,
        0.645123 -0.288794 0.039370,
        0.642412 -0.273217 0.039370,
        0.639608 -0.265128 0.039370,
        0.631622 -0.251001 0.039370,
        0.578582 -0.364930 0.039370,
        0.586209 -0.364549 0.039370,
        0.601331 -0.361186 0.039370,
        0.615317 -0.354156 0.039370,
        0.626660 -0.344404 0.039370,
        0.636846 -0.329908 0.039370,
        0.643076 -0.313833 0.039370,
        0.512114 -0.294235 0.039370,
        0.512956 -0.306651 0.039370,
        0.517057 -0.322656 0.039370,
        0.525342 -0.337910 0.039370,
        0.535915 -0.349471 0.039370,
        0.548133 -0.357867 0.039370,
        0.561229 -0.362849 0.039370,
        0.538361 -0.237987 0.039370,
        0.529561 -0.246704 0.039370,
        0.520022 -0.260631 0.039370,
        0.514293 -0.275792 0.039370,
        0.528991 -0.225621 0.039370,
        0.495962 -0.294140 0.039370,
        0.495996 -0.291761 0.039370,
        0.498466 -0.271950 0.039370,
        0.503905 -0.256393 0.039370,
        0.514399 -0.239559 0.039370,
        0.523502 -0.359094 0.039370,
        0.516945 -0.352782 0.039370,
        0.506021 -0.337561 0.039370,
        0.498775 -0.318716 0.039370,
        0.579655 -0.379063 0.039370,
        0.558854 -0.376848 0.039370,
        0.540744 -0.370522 0.039370,
        0.660767 -0.306913 0.039370,
        0.656204 -0.326138 0.039370,
        0.647735 -0.342822 0.039370,
        0.633361 -0.359225 0.039370,
        0.617858 -0.370035 0.039370,
        0.601166 -0.376460 0.039370,
      ]
    }
    coordIndex [
      6, 5, 4, -1,
      30, 26, 35, -1,
      35, 26, 27, -1,
      35, 27, 34, -1,
      34, 27, 28, -1,
      34, 28, 33, -1,
      33, 28, 29, -1,
      33, 29, 32, -1,
      32, 29, 19, -1,
      6, 4, 11, -1,
      11, 4, 3, -1,
      11, 3, 10, -1,
      10, 3, 2, -1,
      10, 2, 9, -1,
      9, 2, 1, -1,
      9, 1, 8, -1,
      8, 1, 0, -1,
      8, 0, 7, -1,
      7, 0, 43, -1,
      7, 43, 18, -1,
      18, 43, 44, -1,
      18, 44, 17, -1,
      17, 44, 45, -1,
      17, 45, 16, -1,
      16, 45, 46, -1,
      16, 46, 15, -1,
      15, 46, 47, -1,
      15, 47, 14, -1,
      14, 47, 48, -1,
      14, 48, 13, -1,
      13, 48, 40, -1,
      13, 40, 12, -1,
      12, 40, 25, -1,
      25, 40, 41, -1,
      25, 41, 24, -1,
      24, 41, 42, -1,
      24, 42, 23, -1,
      23, 42, 36, -1,
      23, 36, 22, -1,
      22, 36, 37, -1,
      22, 37, 21, -1,
      21, 37, 38, -1,
      21, 38, 20, -1,
      20, 38, 39, -1,
      20, 39, 19, -1,
      19, 39, 31, -1,
      19, 31, 32, -1,
    ]
  }
}

Shape {
  appearance Appearance {
    material Material {
      diffuseColor 0.1490 0.1490 0.1490
      specularColor 0.0745 0.0745 0.0745
      ambientIntensity 0.2
      transparency 0.0000
      shininess 0.5
    }
  }
  geometry IndexedFaceSet {
    ccw TRUE
    solid FALSE
    coord DEF co Coordinate {
      point [
        0.500000 -0.471936 0.000000,
        0.657480 -0.471936 0.000000,
        0.500000 -0.471936 0.039370,
        0.657480 -0.471936 0.039370,
      ]
    }
    coordIndex [
      2, 3, 0, -1,
      0, 3, 1, -1,
    ]
  }
}

Shape {
  appearance Appearance {
    material Material {
      diffuseColor 0.7529 0.7529 0.7529
      specularColor 0.3765 0.3765 0.3765
      ambientIntensity 0.2
      transparency 0.0000
      shininess 0.5
    }
  }
  geometry IndexedFaceSet {
    ccw TRUE
    solid FALSE
    coord DEF co Coordinate {
      point [
        0.657480 -0.457803 0.000000,
        0.500000 -0.397234 0.000000,
        0.500000 -0.471936 0.000000,
        0.657480 -0.471936 0.000000,
        0.516152 -0.457803 0.000000,
        0.516152 -0.397234 0.000000,
        0.500000 -0.471936 0.039370,
        0.657480 -0.471936 0.039370,
        0.657480 -0.457803 0.039370,
        0.516152 -0.457803 0.039370,
        0.516152 -0.397234 0.039370,
        0.500000 -0.397234 0.039370,
      ]
    }
    coordIndex [
      7, 8, 3, -1,
      3, 8, 0, -1,
      8, 9, 0, -1,
      0, 9, 4, -1,
      9, 10, 4, -1,
      4, 10, 5, -1,
      10, 11, 5, -1,
      5, 11, 1, -1,
      11, 6, 1, -1,
      1, 6, 2, -1,
      8, 7, 9, -1,
      9, 7, 6, -1,
      9, 6, 10, -1,
      10, 6, 11, -1,
    ]
  }
}

Shape {
  appearance Appearance {
    material Material {
      diffuseColor 0.1490 0.1490 0.1490
      specularColor 0.0745 0.0745 0.0745
      ambientIntensity 0.2
      transparency 0.0000
      shininess 0.5
    }
  }
  geometry IndexedFaceSet {
    ccw TRUE
    solid FALSE
    coord DEF co Coordinate {
      point [
        0.566626 0.176503 0.000000,
        0.626785 0.148742 0.000000,
        0.566626 0.120224 0.000000,
        0.641328 -0.062083 0.000000,
        0.516152 -0.062083 0.000000,
        0.641328 -0.051011 0.000000,
        0.640587 -0.026661 0.000000,
        0.636912 -0.002619 0.000000,
        0.634341 0.004448 0.000000,
        0.627460 0.016213 0.000000,
        0.618564 0.025315 0.000000,
        0.607043 0.032546 -0.000000,
        0.593483 0.037151 -0.000000,
        0.576784 0.038865 0.000000,
        0.572793 0.038767 0.000000,
        0.556187 0.036089 0.000000,
        0.544082 0.030913 0.000000,
        0.533564 0.022972 0.000000,
        0.525981 0.013621 0.000000,
        0.520158 0.001009 0.000000,
        0.516789 -0.021355 0.000000,
        0.516152 -0.044007 0.000000,
      ]
    }
    coordIndex [
      0, 1, 2, -1,
      3, 4, 5, -1,
      5, 4, 21, -1,
      5, 21, 6, -1,
      6, 21, 20, -1,
      6, 20, 7, -1,
      16, 15, 20, -1,
      20, 15, 14, -1,
      20, 14, 13, -1,
      19, 18, 20, -1,
      20, 18, 17, -1,
      20, 17, 16, -1,
      13, 12, 20, -1,
      20, 12, 11, -1,
      20, 11, 10, -1,
      10, 9, 20, -1,
      20, 9, 8, -1,
      20, 8, 7, -1,
    ]
  }
}
