#VRML V2.0 utf8

Shape {
  appearance Appearance {
    material Material {
      diffuseColor 0.8549 0.8549 0.8549
      specularColor 0.4275 0.4275 0.4275
      ambientIntensity 0.2
      transparency 0.0000
      shininess 0.5
    }
  }
  geometry IndexedFaceSet {
    ccw TRUE
    solid FALSE
    coord DEF co Coordinate {
      point [
        -0.590551 0.153543 0.078740,
        -0.590551 0.240157 0.078740,
        -0.590551 0.153543 0.000000,
        -0.590551 0.240157 0.000000,
        -0.436530 0.153543 0.078740,
        -0.436530 0.153543 0.000000,
        -0.436530 0.240157 0.078740,
        -0.436530 0.240157 0.000000,
        -0.154700 -0.236220 0.000000,
        -0.295276 -0.236220 0.000000,
        -0.295276 -0.030148 0.000000,
        0.051111 0.023506 0.000000,
        0.056926 0.022853 0.000000,
        0.038339 -0.020831 0.000000,
        0.095645 0.318898 0.000000,
        0.154700 0.318898 0.000000,
        0.095645 0.236220 0.000000,
        0.154700 0.236220 0.000000,
        0.116501 0.029268 0.000000,
        0.295276 -0.030148 0.000000,
        0.116501 -0.029787 0.000000,
        0.057003 -0.030148 0.000000,
        0.086253 -0.029787 0.000000,
        0.060807 -0.029753 0.000000,
        0.066531 -0.027783 0.000000,
        0.108579 0.029268 0.000000,
        0.031519 0.236220 0.000000,
        0.295276 0.236220 0.000000,
        0.061346 0.021258 0.000000,
        0.065433 0.018523 0.000000,
        0.069000 0.014586 0.000000,
        0.073290 -0.000890 0.000000,
        0.072692 -0.007283 0.000000,
        0.071087 -0.012363 0.000000,
        0.057946 -0.023408 0.000000,
        0.052438 -0.024026 0.000000,
        0.062250 -0.021824 0.000000,
        0.065874 -0.019381 0.000000,
        0.068645 -0.016458 0.000000,
        0.044599 -0.023156 0.000000,
        0.043933 0.022574 0.000000,
        0.037281 -0.020245 0.000000,
        0.037281 0.019725 0.000000,
        0.037281 0.027647 0.000000,
        0.071434 0.010027 0.000000,
        0.073008 0.003705 0.000000,
        0.071282 -0.024750 0.000000,
        0.075718 -0.020080 0.000000,
        0.086253 -0.023306 0.000000,
        0.078863 -0.014464 0.000000,
        0.108579 -0.023306 0.000000,
        0.078095 0.013713 0.000000,
        0.074634 0.019235 0.000000,
        0.069302 0.024362 0.000000,
        0.063693 0.027591 0.000000,
        0.057109 0.029504 0.000000,
        0.080641 -0.008213 0.000000,
        0.081212 -0.001374 0.000000,
        0.080363 0.007022 0.000000,
        0.051178 0.029988 0.000000,
        0.044108 0.029500 0.000000,
        0.051915 -0.030480 0.000000,
        0.154700 -0.236220 0.000000,
        0.049543 -0.030148 0.000000,
        0.031519 -0.030148 0.000000,
        0.043576 -0.029311 0.000000,
        0.037281 -0.026727 0.000000,
        0.295276 -0.236220 0.000000,
        0.053530 -0.030508 0.000000,
        -0.095645 -0.236220 0.000000,
        -0.095645 -0.318898 0.000000,
        -0.154700 -0.318898 0.000000,
        0.031519 -0.236220 0.000000,
        0.095645 -0.236220 0.000000,
        0.095645 -0.318898 0.000000,
        0.154700 -0.318898 0.000000,
        0.025758 -0.029787 0.000000,
        0.025758 0.029268 0.000000,
        -0.069307 -0.029787 0.000000,
        -0.062037 -0.013602 0.000000,
        -0.058650 -0.018884 0.000000,
        -0.154700 0.318898 0.000000,
        -0.095645 0.318898 0.000000,
        -0.154700 0.236220 0.000000,
        -0.095645 0.236220 0.000000,
        -0.004490 0.022786 0.000000,
        0.017836 0.022786 0.000000,
        0.017836 0.003341 0.000000,
        -0.004490 0.029268 0.000000,
        -0.017453 0.029268 0.000000,
        -0.003050 0.003341 0.000000,
        -0.017453 -0.029787 0.000000,
        -0.003050 -0.003141 0.000000,
        -0.053789 -0.023538 0.000000,
        -0.047623 -0.027122 0.000000,
        -0.040818 -0.029150 0.000000,
        0.017836 -0.003141 0.000000,
        0.017836 -0.023306 0.000000,
        -0.005930 -0.023306 0.000000,
        -0.005930 -0.029787 0.000000,
        -0.034119 0.029268 0.000000,
        -0.042651 0.028356 0.000000,
        -0.091632 0.029268 0.000000,
        -0.060226 0.016937 0.000000,
        -0.062970 0.011858 0.000000,
        -0.033511 -0.029787 0.000000,
        -0.064556 0.006039 0.000000,
        -0.064985 0.000483 0.000000,
        -0.064157 -0.007420 0.000000,
        -0.113958 -0.029787 0.000000,
        -0.122600 -0.029787 0.000000,
        -0.099554 0.029268 0.000000,
        -0.295276 0.236220 0.000000,
        -0.049560 0.025929 0.000000,
        -0.055988 0.021622 0.000000,
        -0.056050 0.021567 0.000000,
        -0.107983 -0.013223 0.000000,
        -0.083587 -0.013223 0.000000,
        -0.077949 -0.029787 0.000000,
      ]
    }
    coordIndex [
      0, 1, 2, -1,
      2, 1, 3, -1,
      4, 0, 5, -1,
      5, 0, 2, -1,
      6, 4, 7, -1,
      7, 4, 5, -1,
      1, 6, 3, -1,
      3, 6, 7, -1,
      4, 6, 0, -1,
      0, 6, 1, -1,
      7, 5, 3, -1,
      3, 5, 2, -1,
      8, 9, 10, -1,
      11, 12, 13, -1,
      14, 15, 16, -1,
      16, 15, 17, -1,
      18, 19, 20, -1,
      20, 19, 21, -1,
      20, 21, 22, -1,
      22, 21, 23, -1,
      22, 23, 24, -1,
      25, 26, 18, -1,
      18, 26, 16, -1,
      18, 16, 19, -1,
      19, 16, 17, -1,
      19, 17, 27, -1,
      12, 28, 13, -1,
      13, 28, 29, -1,
      13, 29, 30, -1,
      31, 32, 13, -1,
      13, 32, 33, -1,
      34, 35, 36, -1,
      36, 35, 37, -1,
      33, 38, 13, -1,
      13, 38, 37, -1,
      13, 37, 39, -1,
      39, 37, 35, -1,
      11, 13, 40, -1,
      40, 13, 41, -1,
      40, 41, 42, -1,
      42, 41, 26, -1,
      42, 26, 43, -1,
      30, 44, 13, -1,
      13, 44, 45, -1,
      13, 45, 31, -1,
      24, 46, 22, -1,
      22, 46, 47, -1,
      22, 47, 48, -1,
      48, 47, 49, -1,
      48, 49, 50, -1,
      51, 52, 25, -1,
      25, 52, 53, -1,
      25, 53, 26, -1,
      26, 53, 54, -1,
      26, 54, 55, -1,
      49, 56, 50, -1,
      50, 56, 57, -1,
      50, 57, 25, -1,
      25, 57, 58, -1,
      25, 58, 51, -1,
      55, 59, 26, -1,
      26, 59, 60, -1,
      26, 60, 43, -1,
      61, 62, 63, -1,
      63, 62, 64, -1,
      63, 64, 65, -1,
      65, 64, 66, -1,
      19, 67, 21, -1,
      21, 67, 62, -1,
      21, 62, 68, -1,
      68, 62, 61, -1,
      69, 70, 71, -1,
      71, 8, 69, -1,
      69, 8, 10, -1,
      69, 10, 72, -1,
      72, 10, 64, -1,
      72, 64, 73, -1,
      73, 64, 62, -1,
      73, 62, 74, -1,
      74, 62, 75, -1,
      64, 76, 77, -1,
      78, 79, 80, -1,
      81, 82, 83, -1,
      83, 82, 84, -1,
      85, 86, 87, -1,
      85, 83, 88, -1,
      88, 83, 84, -1,
      88, 84, 77, -1,
      77, 84, 26, -1,
      77, 26, 64, -1,
      64, 26, 41, -1,
      64, 41, 66, -1,
      89, 90, 91, -1,
      91, 90, 92, -1,
      80, 93, 78, -1,
      78, 93, 94, -1,
      78, 94, 95, -1,
      96, 97, 92, -1,
      92, 97, 98, -1,
      92, 98, 91, -1,
      91, 98, 99, -1,
      87, 90, 85, -1,
      85, 90, 89, -1,
      85, 89, 83, -1,
      83, 89, 100, -1,
      83, 100, 101, -1,
      102, 103, 104, -1,
      105, 91, 64, -1,
      64, 91, 99, -1,
      64, 99, 76, -1,
      104, 106, 102, -1,
      102, 106, 107, -1,
      102, 107, 78, -1,
      78, 107, 108, -1,
      78, 108, 79, -1,
      109, 64, 110, -1,
      110, 64, 10, -1,
      110, 10, 111, -1,
      111, 10, 112, -1,
      111, 112, 102, -1,
      102, 112, 83, -1,
      101, 113, 83, -1,
      83, 113, 114, -1,
      83, 114, 102, -1,
      102, 114, 115, -1,
      102, 115, 103, -1,
      116, 117, 109, -1,
      109, 117, 118, -1,
      109, 118, 64, -1,
      64, 118, 78, -1,
      64, 78, 105, -1,
      105, 78, 95, -1,
    ]
  }
}

Shape {
  appearance Appearance {
    material Material {
      diffuseColor 1.0000 1.0000 1.0000
      specularColor 0.5020 0.5020 0.5020
      ambientIntensity 0.2
      transparency 0.0000
      shininess 0.5
    }
  }
  geometry IndexedFaceSet {
    ccw TRUE
    solid FALSE
    coord DEF co Coordinate {
      point [
        -0.095645 -0.236220 0.007874,
        0.095645 -0.236220 0.007874,
        -0.095645 -0.314961 0.007874,
        0.095645 -0.314961 0.007874,
        0.295276 0.236220 0.007874,
        0.154700 0.236220 0.007874,
        0.154700 0.314961 0.007874,
        0.154700 -0.314961 0.007874,
        0.154700 -0.236220 0.007874,
        0.511811 -0.314961 0.007874,
        0.295276 -0.236220 0.007874,
        0.511811 0.314961 0.007874,
        0.511811 0.240157 0.007874,
        0.436530 0.240157 0.007874,
        0.436530 0.153543 0.007874,
        0.511811 0.153543 0.007874,
        0.511811 0.043307 0.007874,
        0.436530 0.043307 0.007874,
        0.436530 -0.043307 0.007874,
        0.511811 -0.240157 0.007874,
        0.436530 -0.240157 0.007874,
        0.436530 -0.153543 0.007874,
        0.511811 -0.153543 0.007874,
        0.511811 -0.043307 0.007874,
        0.095645 0.236220 0.007874,
        -0.095645 0.236220 0.007874,
        0.095645 0.314961 0.007874,
        -0.095645 0.314961 0.007874,
        -0.154700 -0.236220 0.007874,
        -0.154700 -0.314961 0.007874,
        -0.295276 -0.236220 0.007874,
        -0.511811 -0.314961 0.007874,
        -0.295276 0.236220 0.007874,
        -0.511811 0.314961 0.007874,
        -0.154700 0.236220 0.007874,
        -0.154700 0.314961 0.007874,
        -0.154700 0.314961 0.078740,
        -0.511811 0.314961 0.086614,
        -0.095645 0.314961 0.078740,
        0.511811 0.314961 0.086614,
        0.154700 0.314961 0.078740,
        0.095645 0.314961 0.078740,
        0.154700 -0.314961 0.078740,
        0.511811 -0.314961 0.086614,
        0.095645 -0.314961 0.078740,
        -0.511811 -0.314961 0.086614,
        -0.154700 -0.314961 0.078740,
        -0.095645 -0.314961 0.078740,
        0.511811 -0.153543 0.078740,
        0.511811 -0.043307 0.078740,
        0.511811 -0.240157 0.078740,
        0.511811 0.043307 0.078740,
        0.511811 0.240157 0.078740,
        0.511811 0.153543 0.078740,
        0.329125 -0.258915 0.322835,
        0.455765 -0.258915 0.322835,
        0.455765 -0.032889 0.322835,
        0.188021 -0.031230 0.322835,
        0.182676 -0.032889 0.322835,
        0.329125 -0.032889 0.322835,
        -0.001179 -0.032889 0.322835,
        -0.038537 -0.032889 0.322835,
        -0.038537 -0.258915 0.322835,
        0.048365 -0.258915 0.322835,
        0.008160 -0.032889 0.322835,
        0.003354 -0.033369 0.322835,
        0.021581 0.043601 0.322835,
        0.048365 0.046811 0.322835,
        0.014137 0.046250 0.322835,
        0.009011 0.046811 0.322835,
        0.037255 -0.012537 0.322835,
        0.032887 -0.019854 0.322835,
        0.048365 -0.032889 0.322835,
        0.026974 -0.025857 0.322835,
        0.020446 -0.029887 0.322835,
        0.012845 -0.032421 0.322835,
        0.028428 0.038996 0.322835,
        0.034269 0.032420 0.322835,
        0.038374 0.024557 0.322835,
        0.040606 0.015779 0.322835,
        0.041163 0.007891 0.322835,
        0.040105 -0.003498 0.322835,
        0.004629 0.047291 0.322835,
        0.048365 0.258915 0.322835,
        -0.000924 0.046811 0.322835,
        -0.038537 0.258915 0.322835,
        -0.025270 0.033900 0.322835,
        -0.019182 0.039956 0.322835,
        -0.038537 0.046811 0.322835,
        -0.011914 0.044214 0.322835,
        -0.003943 0.046550 0.322835,
        -0.006289 -0.032348 0.322835,
        -0.013688 -0.029803 0.322835,
        -0.020129 -0.025701 0.322835,
        -0.033736 0.006031 0.322835,
        -0.032659 0.017409 0.322835,
        -0.029749 0.026524 0.322835,
        -0.025785 -0.019845 0.322835,
        -0.030147 -0.012494 0.322835,
        -0.032809 -0.003985 0.322835,
        0.197683 0.044170 0.322835,
        0.197683 0.035528 0.322835,
        0.195800 0.045211 0.322835,
        0.329125 0.046811 0.322835,
        0.191285 0.046662 0.322835,
        0.189659 0.046811 0.322835,
        0.185738 0.016897 0.322835,
        0.190428 0.015268 0.322835,
        0.194761 0.012365 0.322835,
        0.198155 0.008561 0.322835,
        0.200667 0.003813 0.322835,
        0.202223 -0.002517 0.322835,
        0.199736 -0.019737 0.322835,
        0.196587 -0.024607 0.322835,
        0.192553 -0.028512 0.322835,
        0.161539 0.006301 0.322835,
        0.161794 0.006301 0.322835,
        0.162145 0.014670 0.322835,
        0.164676 0.010768 0.322835,
        0.164530 0.023730 0.322835,
        0.167856 0.013844 0.322835,
        0.167695 0.029628 0.322835,
        0.171619 0.016004 0.322835,
        0.171521 0.033921 0.322835,
        0.175736 0.017183 0.322835,
        0.175411 0.036563 0.322835,
        0.179829 0.017524 0.322835,
        0.191333 0.037859 0.322835,
        0.184615 0.038649 0.322835,
        0.179540 0.038076 0.322835,
        0.202485 -0.006902 0.322835,
        0.201737 -0.014022 0.322835,
        0.173490 -0.032889 0.322835,
        0.170613 -0.032533 0.322835,
        0.144870 -0.032889 0.322835,
        0.165937 -0.030697 0.322835,
        0.144870 0.046811 0.322835,
        0.171250 0.044324 0.322835,
        0.177804 0.046616 0.322835,
        0.161655 -0.027655 0.322835,
        0.158153 -0.023673 0.322835,
        0.154785 -0.017381 0.322835,
        0.156052 0.027132 0.322835,
        0.160696 0.035220 0.322835,
        0.165808 0.040714 0.322835,
        0.152232 -0.007398 0.322835,
        0.151592 0.002295 0.322835,
        0.152818 0.016336 0.322835,
        -0.088827 -0.030494 0.322835,
        -0.091350 -0.029288 0.322835,
        -0.095191 -0.032889 0.322835,
        -0.091350 -0.017765 0.322835,
        -0.095191 0.046811 0.322835,
        -0.089106 0.035376 0.322835,
        -0.086631 0.038794 0.322835,
        -0.083464 0.010657 0.322835,
        -0.087161 0.014120 0.322835,
        -0.089443 0.017663 0.322835,
        -0.090875 0.021751 0.322835,
        -0.091350 0.026166 0.322835,
        -0.090645 0.031607 0.322835,
        -0.083250 0.041728 0.322835,
        -0.078822 0.044272 0.322835,
        -0.072208 0.046443 0.322835,
        -0.072100 0.003825 0.322835,
        -0.085594 -0.021302 0.322835,
        -0.061399 -0.001854 0.322835,
        -0.076274 -0.024168 0.322835,
        -0.060302 -0.002554 0.322835,
        -0.070360 -0.024727 0.322835,
        -0.064643 -0.024287 0.322835,
        -0.060646 -0.023206 0.322835,
        -0.057822 -0.021647 0.322835,
        -0.056183 -0.020102 0.322835,
        -0.055141 -0.018541 0.322835,
        -0.054234 -0.016085 0.322835,
        -0.053901 -0.012979 0.322835,
        -0.054243 -0.010185 0.322835,
        -0.055135 -0.007944 0.322835,
        -0.057061 -0.005304 0.322835,
        -0.064948 -0.032889 0.322835,
        -0.071530 -0.033369 0.322835,
        -0.095191 -0.258915 0.322835,
        -0.076190 -0.032889 0.322835,
        -0.081665 -0.032325 0.322835,
        -0.054253 0.046811 0.322835,
        -0.046219 0.045131 0.322835,
        -0.043958 -0.017641 0.322835,
        -0.045418 -0.021630 0.322835,
        -0.046219 0.033608 0.322835,
        -0.052473 0.004455 0.322835,
        -0.047931 0.000223 0.322835,
        -0.047962 -0.025323 0.322835,
        -0.051255 -0.028198 0.322835,
        -0.055705 -0.030633 0.322835,
        -0.063390 -0.032776 0.322835,
        -0.045314 -0.003714 0.322835,
        -0.043853 -0.007661 0.322835,
        -0.043338 -0.012109 0.322835,
        -0.064059 0.011222 0.322835,
        -0.052172 0.036699 0.322835,
        -0.071377 0.015100 0.322835,
        -0.058903 0.038308 0.322835,
        -0.064344 0.038649 0.322835,
        -0.079613 0.022026 0.322835,
        -0.080442 0.024197 0.322835,
        -0.080788 0.027201 0.322835,
        -0.078282 0.020072 0.322835,
        -0.075867 0.017955 0.322835,
        -0.078697 0.033399 0.322835,
        -0.079844 0.031613 0.322835,
        -0.080541 0.029587 0.322835,
        -0.069856 0.038150 0.322835,
        -0.074036 0.036813 0.322835,
        -0.076903 0.035124 0.322835,
        -0.054762 0.046918 0.322835,
        -0.063504 0.047291 0.322835,
        -0.095191 0.258915 0.322835,
        -0.068427 0.046811 0.322835,
        0.177368 -0.033369 0.322835,
        0.144870 -0.258915 0.322835,
        0.102139 -0.258915 0.322835,
        0.102139 -0.032889 0.322835,
        0.182641 -0.032900 0.322835,
        -0.127414 -0.017107 0.322835,
        -0.126880 -0.020886 0.322835,
        -0.126307 -0.017003 0.322835,
        -0.121118 -0.032409 0.322835,
        -0.132641 -0.032409 0.322835,
        -0.128245 -0.013384 0.322835,
        -0.125379 -0.013189 0.322835,
        -0.145124 0.046331 0.322835,
        -0.191216 0.046331 0.322835,
        -0.175192 -0.012844 0.322835,
        -0.173259 -0.016825 0.322835,
        -0.174354 -0.016833 0.322835,
        -0.173931 -0.020886 0.322835,
        -0.149926 0.032888 0.322835,
        -0.150886 0.032888 0.322835,
        -0.149514 0.028756 0.322835,
        -0.151370 0.028806 0.322835,
        -0.148650 0.024696 0.322835,
        -0.152296 0.024801 0.322835,
        -0.168170 -0.032409 0.322835,
        -0.179693 -0.032409 0.322835,
        -0.099033 0.046331 0.322835,
        -0.109595 0.046331 0.322835,
        -0.202739 0.046331 0.322835,
        -0.455765 0.046811 0.322835,
        -0.455765 -0.032889 0.322835,
        -0.455765 -0.258915 0.322835,
        -0.172206 -0.012844 0.322835,
        -0.154727 0.046331 0.322835,
        0.095897 0.037689 0.322835,
        0.066130 0.037689 0.322835,
        0.066130 0.010802 0.322835,
        0.093977 0.010802 0.322835,
        0.093977 0.002160 0.322835,
        0.066130 0.002160 0.322835,
        0.066130 -0.032409 0.322835,
        0.055567 -0.032409 0.322835,
        0.055567 0.046331 0.322835,
        0.102139 0.046811 0.322835,
        0.095897 0.046331 0.322835,
        0.108381 0.002160 0.322835,
        0.138148 0.002160 0.322835,
        0.138148 -0.005522 0.322835,
        0.108381 -0.005522 0.322835,
        0.455765 0.046811 0.322835,
        -0.455765 0.258915 0.322835,
        0.179716 0.046811 0.322835,
        0.144870 0.258915 0.322835,
        0.102139 0.258915 0.322835,
        0.455765 0.258915 0.322835,
        0.329125 0.258915 0.322835,
        0.184420 0.047291 0.322835,
        0.475182 0.278332 0.306386,
        -0.475182 0.278332 0.306386,
        -0.475182 -0.278332 0.306386,
        0.475182 -0.278332 0.306386,
        0.460335 -0.263484 0.322297,
        -0.460335 -0.263484 0.322297,
        -0.473901 -0.277050 0.310805,
        0.472882 -0.276031 0.312872,
        -0.472882 -0.276031 0.312872,
        0.471628 -0.274778 0.314806,
        -0.471628 -0.274778 0.314806,
        0.468489 -0.271639 0.318170,
        -0.468489 -0.271639 0.318170,
        0.464655 -0.267804 0.320713,
        -0.464655 -0.267804 0.320713,
        -0.474671 -0.277821 0.308633,
        0.474671 -0.277821 0.308633,
        0.473901 -0.277050 0.310805,
        0.460335 0.263484 0.322297,
        0.464655 0.267804 0.320713,
        0.468489 0.271639 0.318170,
        0.471628 0.274778 0.314806,
        0.472882 0.276031 0.312872,
        0.473901 0.277050 0.310805,
        0.474671 0.277821 0.308633,
        -0.460335 0.263484 0.322297,
        -0.474671 0.277821 0.308633,
        -0.473901 0.277050 0.310805,
        -0.472882 0.276031 0.312872,
        -0.471628 0.274778 0.314806,
        -0.468489 0.271639 0.318170,
        -0.464655 0.267804 0.320713,
      ]
    }
    coordIndex [
      0, 1, 2, -1,
      2, 1, 3, -1,
      4, 5, 6, -1,
      7, 8, 9, -1,
      9, 8, 10, -1,
      11, 12, 13, -1,
      14, 15, 16, -1,
      17, 18, 10, -1,
      16, 17, 14, -1,
      14, 17, 10, -1,
      14, 10, 13, -1,
      13, 10, 4, -1,
      13, 4, 11, -1,
      11, 4, 6, -1,
      19, 9, 20, -1,
      20, 9, 10, -1,
      20, 10, 21, -1,
      21, 10, 18, -1,
      21, 18, 22, -1,
      22, 18, 23, -1,
      24, 25, 26, -1,
      26, 25, 27, -1,
      28, 29, 30, -1,
      30, 29, 31, -1,
      30, 31, 32, -1,
      32, 31, 33, -1,
      32, 33, 34, -1,
      34, 33, 35, -1,
      35, 33, 36, -1,
      36, 33, 37, -1,
      36, 37, 38, -1,
      11, 6, 39, -1,
      39, 6, 40, -1,
      39, 40, 41, -1,
      26, 27, 41, -1,
      41, 27, 38, -1,
      41, 38, 39, -1,
      39, 38, 37, -1,
      7, 9, 42, -1,
      42, 9, 43, -1,
      42, 43, 44, -1,
      31, 29, 45, -1,
      45, 29, 46, -1,
      45, 46, 47, -1,
      2, 3, 47, -1,
      47, 3, 44, -1,
      47, 44, 45, -1,
      45, 44, 43, -1,
      43, 9, 19, -1,
      22, 23, 48, -1,
      48, 23, 49, -1,
      19, 50, 43, -1,
      43, 50, 48, -1,
      43, 48, 39, -1,
      39, 48, 49, -1,
      39, 49, 51, -1,
      12, 11, 52, -1,
      52, 11, 39, -1,
      52, 39, 53, -1,
      53, 39, 51, -1,
      53, 51, 15, -1,
      15, 51, 16, -1,
      54, 55, 56, -1,
      57, 58, 59, -1,
      60, 61, 62, -1,
      63, 64, 62, -1,
      62, 64, 65, -1,
      62, 65, 60, -1,
      66, 67, 68, -1,
      68, 67, 69, -1,
      70, 71, 72, -1,
      71, 73, 72, -1,
      72, 73, 74, -1,
      72, 74, 75, -1,
      66, 76, 67, -1,
      67, 76, 77, -1,
      67, 77, 78, -1,
      78, 79, 67, -1,
      67, 79, 80, -1,
      67, 80, 72, -1,
      72, 80, 81, -1,
      72, 81, 70, -1,
      82, 83, 84, -1,
      84, 83, 85, -1,
      86, 87, 88, -1,
      88, 87, 89, -1,
      88, 89, 90, -1,
      60, 91, 61, -1,
      61, 91, 92, -1,
      61, 92, 93, -1,
      94, 95, 88, -1,
      88, 95, 96, -1,
      88, 96, 86, -1,
      93, 97, 61, -1,
      61, 97, 98, -1,
      61, 98, 99, -1,
      100, 101, 59, -1,
      102, 103, 104, -1,
      104, 103, 105, -1,
      106, 107, 101, -1,
      101, 107, 108, -1,
      101, 108, 59, -1,
      108, 109, 59, -1,
      59, 109, 110, -1,
      59, 110, 111, -1,
      112, 113, 59, -1,
      59, 113, 114, -1,
      59, 114, 57, -1,
      115, 116, 117, -1,
      117, 116, 118, -1,
      117, 118, 119, -1,
      119, 118, 120, -1,
      119, 120, 121, -1,
      121, 120, 122, -1,
      121, 122, 123, -1,
      123, 122, 124, -1,
      123, 124, 125, -1,
      125, 124, 126, -1,
      101, 127, 106, -1,
      106, 127, 128, -1,
      106, 128, 126, -1,
      126, 128, 129, -1,
      126, 129, 125, -1,
      111, 130, 59, -1,
      59, 130, 131, -1,
      59, 131, 112, -1,
      132, 133, 134, -1,
      134, 133, 135, -1,
      136, 137, 138, -1,
      135, 139, 134, -1,
      134, 139, 140, -1,
      134, 140, 141, -1,
      142, 143, 136, -1,
      136, 143, 144, -1,
      136, 144, 137, -1,
      141, 145, 134, -1,
      134, 145, 146, -1,
      134, 146, 136, -1,
      136, 146, 147, -1,
      136, 147, 142, -1,
      148, 149, 150, -1,
      150, 149, 151, -1,
      150, 151, 152, -1,
      152, 153, 154, -1,
      155, 156, 151, -1,
      151, 156, 157, -1,
      157, 158, 151, -1,
      151, 158, 159, -1,
      151, 159, 152, -1,
      152, 159, 160, -1,
      152, 160, 153, -1,
      154, 161, 152, -1,
      152, 161, 162, -1,
      152, 162, 163, -1,
      155, 151, 164, -1,
      164, 151, 165, -1,
      164, 165, 166, -1,
      166, 165, 167, -1,
      166, 167, 168, -1,
      168, 167, 169, -1,
      168, 169, 170, -1,
      170, 171, 168, -1,
      168, 171, 172, -1,
      168, 172, 173, -1,
      173, 174, 168, -1,
      168, 174, 175, -1,
      168, 175, 176, -1,
      177, 178, 176, -1,
      176, 178, 179, -1,
      176, 179, 168, -1,
      180, 181, 182, -1,
      182, 181, 183, -1,
      182, 183, 150, -1,
      150, 183, 184, -1,
      150, 184, 148, -1,
      88, 185, 186, -1,
      187, 188, 61, -1,
      99, 94, 61, -1,
      61, 94, 88, -1,
      61, 88, 189, -1,
      189, 88, 186, -1,
      190, 191, 189, -1,
      188, 192, 61, -1,
      61, 192, 193, -1,
      61, 193, 194, -1,
      182, 62, 180, -1,
      180, 62, 61, -1,
      180, 61, 195, -1,
      195, 61, 194, -1,
      191, 196, 189, -1,
      189, 196, 197, -1,
      189, 197, 61, -1,
      61, 197, 198, -1,
      61, 198, 187, -1,
      190, 189, 199, -1,
      199, 189, 200, -1,
      199, 200, 201, -1,
      201, 200, 202, -1,
      201, 202, 203, -1,
      204, 203, 205, -1,
      205, 203, 206, -1,
      204, 207, 203, -1,
      203, 207, 208, -1,
      203, 208, 201, -1,
      209, 210, 211, -1,
      203, 212, 206, -1,
      206, 212, 213, -1,
      206, 213, 211, -1,
      211, 213, 214, -1,
      211, 214, 209, -1,
      90, 84, 88, -1,
      88, 84, 85, -1,
      88, 85, 185, -1,
      185, 85, 215, -1,
      215, 85, 216, -1,
      216, 85, 217, -1,
      216, 217, 218, -1,
      219, 132, 220, -1,
      220, 132, 134, -1,
      220, 134, 221, -1,
      221, 134, 222, -1,
      221, 222, 63, -1,
      63, 222, 72, -1,
      63, 72, 64, -1,
      64, 72, 75, -1,
      56, 59, 54, -1,
      54, 59, 58, -1,
      54, 58, 220, -1,
      220, 58, 223, -1,
      220, 223, 219, -1,
      224, 225, 226, -1,
      150, 227, 228, -1,
      224, 226, 229, -1,
      229, 226, 230, -1,
      229, 230, 231, -1,
      232, 233, 234, -1,
      234, 233, 235, -1,
      234, 235, 236, -1,
      237, 238, 239, -1,
      239, 238, 240, -1,
      239, 240, 241, -1,
      241, 240, 242, -1,
      241, 242, 228, -1,
      228, 242, 243, -1,
      228, 243, 150, -1,
      150, 243, 244, -1,
      227, 150, 245, -1,
      245, 150, 152, -1,
      245, 152, 246, -1,
      232, 152, 247, -1,
      247, 152, 248, -1,
      247, 248, 244, -1,
      244, 248, 249, -1,
      244, 249, 150, -1,
      150, 249, 250, -1,
      150, 250, 182, -1,
      234, 251, 232, -1,
      232, 251, 252, -1,
      232, 252, 152, -1,
      152, 252, 231, -1,
      152, 231, 246, -1,
      246, 231, 230, -1,
      253, 254, 255, -1,
      222, 256, 257, -1,
      257, 258, 222, -1,
      222, 258, 259, -1,
      222, 259, 72, -1,
      72, 259, 260, -1,
      72, 260, 67, -1,
      67, 260, 261, -1,
      67, 261, 262, -1,
      262, 261, 263, -1,
      262, 263, 253, -1,
      255, 256, 253, -1,
      253, 256, 222, -1,
      253, 222, 262, -1,
      262, 222, 264, -1,
      262, 264, 136, -1,
      136, 264, 265, -1,
      136, 265, 134, -1,
      134, 265, 266, -1,
      134, 266, 222, -1,
      222, 266, 267, -1,
      222, 267, 264, -1,
      56, 268, 59, -1,
      59, 268, 103, -1,
      59, 103, 100, -1,
      100, 103, 102, -1,
      163, 218, 152, -1,
      152, 218, 217, -1,
      152, 217, 248, -1,
      248, 217, 269, -1,
      138, 270, 136, -1,
      136, 270, 271, -1,
      136, 271, 262, -1,
      262, 271, 272, -1,
      262, 272, 67, -1,
      67, 272, 83, -1,
      67, 83, 69, -1,
      69, 83, 82, -1,
      268, 273, 103, -1,
      103, 273, 274, -1,
      103, 274, 105, -1,
      105, 274, 271, -1,
      105, 271, 275, -1,
      275, 271, 270, -1,
      37, 33, 45, -1,
      45, 33, 31, -1,
      276, 39, 277, -1,
      277, 39, 37, -1,
      277, 37, 278, -1,
      278, 37, 45, -1,
      279, 43, 276, -1,
      276, 43, 39, -1,
      278, 45, 279, -1,
      279, 45, 43, -1,
      55, 54, 280, -1,
      280, 54, 220, -1,
      280, 220, 221, -1,
      63, 62, 281, -1,
      281, 62, 182, -1,
      281, 182, 250, -1,
      282, 283, 284, -1,
      284, 283, 285, -1,
      284, 285, 286, -1,
      286, 285, 287, -1,
      286, 287, 288, -1,
      288, 287, 289, -1,
      288, 289, 290, -1,
      290, 289, 280, -1,
      290, 280, 281, -1,
      281, 280, 221, -1,
      281, 221, 63, -1,
      278, 279, 291, -1,
      291, 279, 292, -1,
      291, 292, 282, -1,
      282, 292, 293, -1,
      282, 293, 283, -1,
      56, 55, 280, -1,
      273, 268, 294, -1,
      294, 268, 56, -1,
      56, 280, 294, -1,
      294, 280, 289, -1,
      294, 289, 295, -1,
      295, 289, 287, -1,
      295, 287, 296, -1,
      296, 287, 285, -1,
      296, 285, 297, -1,
      297, 285, 298, -1,
      298, 285, 283, -1,
      298, 283, 299, -1,
      283, 293, 299, -1,
      299, 293, 292, -1,
      299, 292, 300, -1,
      300, 292, 279, -1,
      300, 279, 276, -1,
      248, 269, 301, -1,
      277, 278, 302, -1,
      302, 278, 291, -1,
      302, 291, 303, -1,
      281, 250, 249, -1,
      291, 282, 303, -1,
      303, 282, 284, -1,
      303, 284, 304, -1,
      304, 284, 286, -1,
      304, 286, 305, -1,
      305, 286, 288, -1,
      305, 288, 306, -1,
      306, 288, 290, -1,
      306, 290, 307, -1,
      307, 290, 281, -1,
      307, 281, 301, -1,
      301, 281, 249, -1,
      301, 249, 248, -1,
      269, 217, 301, -1,
      301, 217, 85, -1,
      294, 83, 272, -1,
      272, 271, 294, -1,
      294, 271, 274, -1,
      294, 274, 273, -1,
      297, 306, 296, -1,
      296, 306, 307, -1,
      296, 307, 295, -1,
      295, 307, 301, -1,
      295, 301, 294, -1,
      294, 301, 85, -1,
      294, 85, 83, -1,
      276, 277, 300, -1,
      300, 277, 302, -1,
      300, 302, 299, -1,
      299, 302, 303, -1,
      299, 303, 298, -1,
      298, 303, 304, -1,
      298, 304, 297, -1,
      297, 304, 305, -1,
      297, 305, 306, -1,
    ]
  }
}

Shape {
  appearance Appearance {
    material Material {
      diffuseColor 0.6667 0.6667 0.6667
      specularColor 0.3333 0.3333 0.3333
      ambientIntensity 0.2
      transparency 0.0000
      shininess 0.5
    }
  }
  geometry IndexedFaceSet {
    ccw TRUE
    solid FALSE
    coord DEF co Coordinate {
      point [
        0.188021 -0.031230 0.322835,
        0.182676 -0.032889 0.322835,
        -0.001179 -0.032889 0.322835,
        0.008160 -0.032889 0.322835,
        0.003354 -0.033369 0.322835,
        0.021581 0.043601 0.322835,
        0.014137 0.046250 0.322835,
        0.009011 0.046811 0.322835,
        0.037255 -0.012537 0.322835,
        0.032887 -0.019854 0.322835,
        0.026974 -0.025857 0.322835,
        0.020446 -0.029887 0.322835,
        0.012845 -0.032421 0.322835,
        0.028428 0.038996 0.322835,
        0.034269 0.032420 0.322835,
        0.038374 0.024557 0.322835,
        0.040606 0.015779 0.322835,
        0.041163 0.007891 0.322835,
        0.040105 -0.003498 0.322835,
        0.004629 0.047291 0.322835,
        -0.000924 0.046811 0.322835,
        -0.025270 0.033900 0.322835,
        -0.019182 0.039956 0.322835,
        -0.011914 0.044214 0.322835,
        -0.003943 0.046550 0.322835,
        -0.006289 -0.032348 0.322835,
        -0.013688 -0.029803 0.322835,
        -0.020129 -0.025701 0.322835,
        -0.033736 0.006031 0.322835,
        -0.032659 0.017409 0.322835,
        -0.029749 0.026524 0.322835,
        -0.025785 -0.019845 0.322835,
        -0.030147 -0.012494 0.322835,
        -0.032809 -0.003985 0.322835,
        0.197683 0.044170 0.322835,
        0.197683 0.035528 0.322835,
        0.195800 0.045211 0.322835,
        0.191285 0.046662 0.322835,
        0.189659 0.046811 0.322835,
        0.185738 0.016897 0.322835,
        0.190428 0.015268 0.322835,
        0.194761 0.012365 0.322835,
        0.198155 0.008561 0.322835,
        0.200667 0.003813 0.322835,
        0.202223 -0.002517 0.322835,
        0.199736 -0.019737 0.322835,
        0.196587 -0.024607 0.322835,
        0.192553 -0.028512 0.322835,
        0.161539 0.006301 0.322835,
        0.161794 0.006301 0.322835,
        0.162145 0.014670 0.322835,
        0.164676 0.010768 0.322835,
        0.164530 0.023730 0.322835,
        0.167856 0.013844 0.322835,
        0.167695 0.029628 0.322835,
        0.171619 0.016004 0.322835,
        0.171521 0.033921 0.322835,
        0.175736 0.017183 0.322835,
        0.175411 0.036563 0.322835,
        0.179829 0.017524 0.322835,
        0.191333 0.037859 0.322835,
        0.184615 0.038649 0.322835,
        0.179540 0.038076 0.322835,
        0.202485 -0.006902 0.322835,
        0.201737 -0.014022 0.322835,
        0.173490 -0.032889 0.322835,
        0.170613 -0.032533 0.322835,
        0.165937 -0.030697 0.322835,
        0.171250 0.044324 0.322835,
        0.177804 0.046616 0.322835,
        0.161655 -0.027655 0.322835,
        0.158153 -0.023673 0.322835,
        0.154785 -0.017381 0.322835,
        0.156052 0.027132 0.322835,
        0.160696 0.035220 0.322835,
        0.165808 0.040714 0.322835,
        0.152232 -0.007398 0.322835,
        0.151592 0.002295 0.322835,
        0.152818 0.016336 0.322835,
        -0.088827 -0.030494 0.322835,
        -0.091350 -0.029288 0.322835,
        -0.091350 -0.017765 0.322835,
        -0.089106 0.035376 0.322835,
        -0.086631 0.038794 0.322835,
        -0.083464 0.010657 0.322835,
        -0.087161 0.014120 0.322835,
        -0.089443 0.017663 0.322835,
        -0.090875 0.021751 0.322835,
        -0.091350 0.026166 0.322835,
        -0.090645 0.031607 0.322835,
        -0.083250 0.041728 0.322835,
        -0.078822 0.044272 0.322835,
        -0.072208 0.046443 0.322835,
        -0.072100 0.003825 0.322835,
        -0.085594 -0.021302 0.322835,
        -0.061399 -0.001854 0.322835,
        -0.076274 -0.024168 0.322835,
        -0.060302 -0.002554 0.322835,
        -0.070360 -0.024727 0.322835,
        -0.064643 -0.024287 0.322835,
        -0.060646 -0.023206 0.322835,
        -0.057822 -0.021647 0.322835,
        -0.056183 -0.020102 0.322835,
        -0.055141 -0.018541 0.322835,
        -0.054234 -0.016085 0.322835,
        -0.053901 -0.012979 0.322835,
        -0.054243 -0.010185 0.322835,
        -0.055135 -0.007944 0.322835,
        -0.057061 -0.005304 0.322835,
        -0.064948 -0.032889 0.322835,
        -0.071530 -0.033369 0.322835,
        -0.076190 -0.032889 0.322835,
        -0.081665 -0.032325 0.322835,
        -0.054253 0.046811 0.322835,
        -0.046219 0.045131 0.322835,
        -0.043958 -0.017641 0.322835,
        -0.045418 -0.021630 0.322835,
        -0.046219 0.033608 0.322835,
        -0.052473 0.004455 0.322835,
        -0.047931 0.000223 0.322835,
        -0.047962 -0.025323 0.322835,
        -0.051255 -0.028198 0.322835,
        -0.055705 -0.030633 0.322835,
        -0.063390 -0.032776 0.322835,
        -0.045314 -0.003714 0.322835,
        -0.043853 -0.007661 0.322835,
        -0.043338 -0.012109 0.322835,
        -0.064059 0.011222 0.322835,
        -0.052172 0.036699 0.322835,
        -0.071377 0.015100 0.322835,
        -0.058903 0.038308 0.322835,
        -0.064344 0.038649 0.322835,
        -0.079613 0.022026 0.322835,
        -0.080442 0.024197 0.322835,
        -0.080788 0.027201 0.322835,
        -0.078282 0.020072 0.322835,
        -0.075867 0.017955 0.322835,
        -0.078697 0.033399 0.322835,
        -0.079844 0.031613 0.322835,
        -0.080541 0.029587 0.322835,
        -0.069856 0.038150 0.322835,
        -0.074036 0.036813 0.322835,
        -0.076903 0.035124 0.322835,
        -0.054762 0.046918 0.322835,
        -0.063504 0.047291 0.322835,
        -0.068427 0.046811 0.322835,
        0.177368 -0.033369 0.322835,
        0.182641 -0.032900 0.322835,
        -0.127414 -0.017107 0.322835,
        -0.126880 -0.020886 0.322835,
        -0.126307 -0.017003 0.322835,
        -0.121118 -0.032409 0.322835,
        -0.132641 -0.032409 0.322835,
        -0.128245 -0.013384 0.322835,
        -0.125379 -0.013189 0.322835,
        -0.145124 0.046331 0.322835,
        -0.191216 0.046331 0.322835,
        -0.175192 -0.012844 0.322835,
        -0.173259 -0.016825 0.322835,
        -0.174354 -0.016833 0.322835,
        -0.173931 -0.020886 0.322835,
        -0.149926 0.032888 0.322835,
        -0.150886 0.032888 0.322835,
        -0.149514 0.028756 0.322835,
        -0.151370 0.028806 0.322835,
        -0.148650 0.024696 0.322835,
        -0.152296 0.024801 0.322835,
        -0.168170 -0.032409 0.322835,
        -0.179693 -0.032409 0.322835,
        -0.099033 0.046331 0.322835,
        -0.109595 0.046331 0.322835,
        -0.202739 0.046331 0.322835,
        -0.172206 -0.012844 0.322835,
        -0.154727 0.046331 0.322835,
        0.095897 0.037689 0.322835,
        0.066130 0.037689 0.322835,
        0.066130 0.010802 0.322835,
        0.093977 0.010802 0.322835,
        0.093977 0.002160 0.322835,
        0.066130 0.002160 0.322835,
        0.066130 -0.032409 0.322835,
        0.055567 -0.032409 0.322835,
        0.055567 0.046331 0.322835,
        0.095897 0.046331 0.322835,
        0.108381 0.002160 0.322835,
        0.138148 0.002160 0.322835,
        0.138148 -0.005522 0.322835,
        0.108381 -0.005522 0.322835,
        0.179716 0.046811 0.322835,
        0.184420 0.047291 0.322835,
        0.197683 0.044170 0.318898,
        0.197683 0.035528 0.318898,
        0.184615 0.038649 0.318898,
        0.191333 0.037859 0.318898,
        0.161539 0.006301 0.318898,
        0.162145 0.014670 0.318898,
        0.164530 0.023730 0.318898,
        0.167695 0.029628 0.318898,
        0.171521 0.033921 0.318898,
        0.175411 0.036563 0.318898,
        0.179540 0.038076 0.318898,
        0.161794 0.006301 0.318898,
        0.179829 0.017524 0.318898,
        0.175736 0.017183 0.318898,
        0.171619 0.016004 0.318898,
        0.167856 0.013844 0.318898,
        0.164676 0.010768 0.318898,
        0.202485 -0.006902 0.318898,
        0.202223 -0.002517 0.318898,
        0.200667 0.003813 0.318898,
        0.198155 0.008561 0.318898,
        0.194761 0.012365 0.318898,
        0.190428 0.015268 0.318898,
        0.185738 0.016897 0.318898,
        0.177368 -0.033369 0.318898,
        0.182641 -0.032900 0.318898,
        0.188021 -0.031230 0.318898,
        0.192553 -0.028512 0.318898,
        0.196587 -0.024607 0.318898,
        0.199736 -0.019737 0.318898,
        0.201737 -0.014022 0.318898,
        0.170613 -0.032533 0.318898,
        0.165937 -0.030697 0.318898,
        0.161655 -0.027655 0.318898,
        0.158153 -0.023673 0.318898,
        0.154785 -0.017381 0.318898,
        0.152232 -0.007398 0.318898,
        0.151592 0.002295 0.318898,
        0.184420 0.047291 0.318898,
        0.177804 0.046616 0.318898,
        0.171250 0.044324 0.318898,
        0.165808 0.040714 0.318898,
        0.160696 0.035220 0.318898,
        0.156052 0.027132 0.318898,
        0.152818 0.016336 0.318898,
        0.191285 0.046662 0.318898,
        0.195800 0.045211 0.318898,
        0.162241 -0.004419 0.318898,
        0.163058 -0.000849 0.318898,
        0.169116 -0.022141 0.318898,
        0.166844 -0.019977 0.318898,
        0.164320 -0.016109 0.318898,
        0.162738 -0.011638 0.318898,
        0.162154 -0.006227 0.318898,
        0.164825 0.002556 0.318898,
        0.167400 0.005454 0.318898,
        0.170238 0.007359 0.318898,
        0.173270 0.008446 0.318898,
        0.177188 0.008881 0.318898,
        0.179661 0.008737 0.318898,
        0.182785 0.008017 0.318898,
        0.185345 0.006799 0.318898,
        0.187481 0.005085 0.318898,
        0.188728 0.003628 0.318898,
        0.190394 0.000680 0.318898,
        0.191507 -0.003111 0.318898,
        0.191922 -0.007968 0.318898,
        0.191575 -0.012053 0.318898,
        0.190510 -0.015724 0.318898,
        0.188778 -0.018884 0.318898,
        0.186399 -0.021503 0.318898,
        0.183843 -0.023243 0.318898,
        0.181087 -0.024270 0.318898,
        0.177293 -0.024727 0.318898,
        0.174509 -0.024477 0.318898,
        0.171622 -0.023599 0.318898,
        0.162154 -0.006227 0.322835,
        0.162241 -0.004419 0.322835,
        0.163058 -0.000849 0.322835,
        0.164825 0.002556 0.322835,
        0.167400 0.005454 0.322835,
        0.170238 0.007359 0.322835,
        0.173270 0.008446 0.322835,
        0.177188 0.008881 0.322835,
        0.179661 0.008737 0.322835,
        0.182785 0.008017 0.322835,
        0.185345 0.006799 0.322835,
        0.187481 0.005085 0.322835,
        0.188728 0.003628 0.322835,
        0.190394 0.000680 0.322835,
        0.191507 -0.003111 0.322835,
        0.191922 -0.007968 0.322835,
        0.191575 -0.012053 0.322835,
        0.190510 -0.015724 0.322835,
        0.188778 -0.018884 0.322835,
        0.186399 -0.021503 0.322835,
        0.183843 -0.023243 0.322835,
        0.181087 -0.024270 0.322835,
        0.177293 -0.024727 0.322835,
        0.174509 -0.024477 0.322835,
        0.171622 -0.023599 0.322835,
        0.169116 -0.022141 0.322835,
        0.166844 -0.019977 0.322835,
        0.164320 -0.016109 0.322835,
        0.162738 -0.011638 0.322835,
        0.138148 0.002160 0.318898,
        0.138148 -0.005522 0.318898,
        0.108381 -0.005522 0.318898,
        0.108381 0.002160 0.318898,
        0.095897 0.046331 0.318898,
        0.095897 0.037689 0.318898,
        0.066130 0.037689 0.318898,
        0.066130 0.010802 0.318898,
        0.093977 0.010802 0.318898,
        0.093977 0.002160 0.318898,
        0.066130 0.002160 0.318898,
        0.066130 -0.032409 0.318898,
        0.055567 -0.032409 0.318898,
        0.055567 0.046331 0.318898,
        -0.033736 0.006031 0.318898,
        -0.032809 -0.003985 0.318898,
        -0.030147 -0.012494 0.318898,
        -0.025785 -0.019845 0.318898,
        -0.020129 -0.025701 0.318898,
        -0.013688 -0.029803 0.318898,
        -0.006289 -0.032348 0.318898,
        0.003354 -0.033369 0.318898,
        0.004629 0.047291 0.318898,
        -0.003943 0.046550 0.318898,
        -0.011914 0.044214 0.318898,
        -0.019182 0.039956 0.318898,
        -0.025270 0.033900 0.318898,
        -0.029749 0.026524 0.318898,
        -0.032659 0.017409 0.318898,
        0.041163 0.007891 0.318898,
        0.040606 0.015779 0.318898,
        0.038374 0.024557 0.318898,
        0.034269 0.032420 0.318898,
        0.028428 0.038996 0.318898,
        0.021581 0.043601 0.318898,
        0.014137 0.046250 0.318898,
        0.012845 -0.032421 0.318898,
        0.020446 -0.029887 0.318898,
        0.026974 -0.025857 0.318898,
        0.032887 -0.019854 0.318898,
        0.037255 -0.012537 0.318898,
        0.040105 -0.003498 0.318898,
        -0.023173 0.006886 0.318898,
        -0.022327 -0.002175 0.318898,
        -0.020069 -0.009350 0.318898,
        -0.016720 -0.014974 0.318898,
        -0.012457 -0.019395 0.318898,
        -0.007824 -0.022337 0.318898,
        -0.002384 -0.024161 0.318898,
        0.003384 -0.024727 0.318898,
        0.010458 -0.023987 0.318898,
        0.015917 -0.022124 0.318898,
        0.020502 -0.019197 0.318898,
        0.024142 -0.015474 0.318898,
        0.027240 -0.010476 0.318898,
        0.029692 -0.002988 0.318898,
        0.030601 0.006736 0.318898,
        0.029822 0.016042 0.318898,
        0.027814 0.023148 0.318898,
        0.024528 0.029051 0.318898,
        0.020672 0.033148 0.318898,
        0.016291 0.036024 0.318898,
        0.011090 0.037873 0.318898,
        0.004044 0.038649 0.318898,
        -0.002996 0.037815 0.318898,
        -0.008283 0.035807 0.318898,
        -0.013004 0.032557 0.318898,
        -0.017543 0.027402 0.318898,
        -0.020756 0.021242 0.318898,
        -0.022859 0.012512 0.318898,
        -0.023173 0.006886 0.322835,
        -0.022859 0.012512 0.322835,
        -0.020756 0.021242 0.322835,
        -0.017543 0.027402 0.322835,
        -0.013004 0.032557 0.322835,
        -0.008283 0.035807 0.322835,
        -0.002996 0.037815 0.322835,
        0.004044 0.038649 0.322835,
        0.011090 0.037873 0.322835,
        0.016291 0.036024 0.322835,
        0.020672 0.033148 0.322835,
        0.024528 0.029051 0.322835,
        0.027814 0.023148 0.322835,
        0.029822 0.016042 0.322835,
        0.030601 0.006736 0.322835,
        0.029692 -0.002988 0.322835,
        0.027240 -0.010476 0.322835,
        0.024142 -0.015474 0.322835,
        0.020502 -0.019197 0.322835,
        0.015917 -0.022124 0.322835,
        0.010458 -0.023987 0.322835,
        0.003384 -0.024727 0.322835,
        -0.002384 -0.024161 0.322835,
        -0.007824 -0.022337 0.322835,
        -0.012457 -0.019395 0.322835,
        -0.016720 -0.014974 0.322835,
        -0.020069 -0.009350 0.322835,
        -0.022327 -0.002175 0.322835,
        -0.091350 -0.029288 0.318898,
        -0.091350 -0.017765 0.318898,
        -0.070360 -0.024727 0.318898,
        -0.076274 -0.024168 0.318898,
        -0.085594 -0.021302 0.318898,
        -0.053901 -0.012979 0.318898,
        -0.054234 -0.016085 0.318898,
        -0.055141 -0.018541 0.318898,
        -0.056183 -0.020102 0.318898,
        -0.057822 -0.021647 0.318898,
        -0.060646 -0.023206 0.318898,
        -0.064643 -0.024287 0.318898,
        -0.072100 0.003825 0.318898,
        -0.061399 -0.001854 0.318898,
        -0.060302 -0.002554 0.318898,
        -0.057061 -0.005304 0.318898,
        -0.055135 -0.007944 0.318898,
        -0.054243 -0.010185 0.318898,
        -0.091350 0.026166 0.318898,
        -0.090875 0.021751 0.318898,
        -0.089443 0.017663 0.318898,
        -0.087161 0.014120 0.318898,
        -0.083464 0.010657 0.318898,
        -0.063504 0.047291 0.318898,
        -0.072208 0.046443 0.318898,
        -0.078822 0.044272 0.318898,
        -0.083250 0.041728 0.318898,
        -0.086631 0.038794 0.318898,
        -0.089106 0.035376 0.318898,
        -0.090645 0.031607 0.318898,
        -0.054762 0.046918 0.318898,
        -0.046219 0.045131 0.318898,
        -0.046219 0.033608 0.318898,
        -0.064344 0.038649 0.318898,
        -0.058903 0.038308 0.318898,
        -0.052172 0.036699 0.318898,
        -0.080788 0.027201 0.318898,
        -0.080541 0.029587 0.318898,
        -0.079844 0.031613 0.318898,
        -0.078697 0.033399 0.318898,
        -0.076903 0.035124 0.318898,
        -0.074036 0.036813 0.318898,
        -0.069856 0.038150 0.318898,
        -0.064059 0.011222 0.318898,
        -0.071377 0.015100 0.318898,
        -0.075867 0.017955 0.318898,
        -0.078282 0.020072 0.318898,
        -0.079613 0.022026 0.318898,
        -0.080442 0.024197 0.318898,
        -0.043338 -0.012109 0.318898,
        -0.043853 -0.007661 0.318898,
        -0.045314 -0.003714 0.318898,
        -0.047931 0.000223 0.318898,
        -0.052473 0.004455 0.318898,
        -0.071530 -0.033369 0.318898,
        -0.063390 -0.032776 0.318898,
        -0.055705 -0.030633 0.318898,
        -0.051255 -0.028198 0.318898,
        -0.047962 -0.025323 0.318898,
        -0.045418 -0.021630 0.318898,
        -0.043958 -0.017641 0.318898,
        -0.088827 -0.030494 0.318898,
        -0.081665 -0.032325 0.318898,
        -0.109595 0.046331 0.318898,
        -0.099033 0.046331 0.318898,
        -0.121118 -0.032409 0.318898,
        -0.132641 -0.032409 0.318898,
        -0.148650 0.024696 0.318898,
        -0.149926 0.032888 0.318898,
        -0.149514 0.028756 0.318898,
        -0.150886 0.032888 0.318898,
        -0.152296 0.024801 0.318898,
        -0.151370 0.028806 0.318898,
        -0.168170 -0.032409 0.318898,
        -0.179693 -0.032409 0.318898,
        -0.202739 0.046331 0.318898,
        -0.191216 0.046331 0.318898,
        -0.175192 -0.012844 0.318898,
        -0.173931 -0.020886 0.318898,
        -0.174354 -0.016833 0.318898,
        -0.172206 -0.012844 0.318898,
        -0.173259 -0.016825 0.318898,
        -0.154727 0.046331 0.318898,
        -0.145124 0.046331 0.318898,
        -0.128245 -0.013384 0.318898,
        -0.126880 -0.020886 0.318898,
        -0.127414 -0.017107 0.318898,
        -0.125379 -0.013189 0.318898,
        -0.126307 -0.017003 0.318898,
      ]
    }
    coordIndex [
      190, 191, 34, -1,
      34, 191, 35, -1,
      192, 61, 60, -1,
      192, 60, 193, -1,
      193, 60, 35, -1,
      193, 35, 191, -1,
      194, 48, 50, -1,
      194, 50, 195, -1,
      195, 50, 52, -1,
      195, 52, 196, -1,
      196, 52, 54, -1,
      196, 54, 197, -1,
      197, 54, 56, -1,
      197, 56, 198, -1,
      198, 56, 58, -1,
      198, 58, 199, -1,
      199, 58, 62, -1,
      199, 62, 200, -1,
      200, 62, 61, -1,
      200, 61, 192, -1,
      194, 201, 48, -1,
      48, 201, 49, -1,
      202, 59, 57, -1,
      202, 57, 203, -1,
      203, 57, 55, -1,
      203, 55, 204, -1,
      204, 55, 53, -1,
      204, 53, 205, -1,
      205, 53, 51, -1,
      205, 51, 206, -1,
      206, 51, 49, -1,
      206, 49, 201, -1,
      207, 63, 44, -1,
      207, 44, 208, -1,
      208, 44, 43, -1,
      208, 43, 209, -1,
      209, 43, 42, -1,
      209, 42, 210, -1,
      210, 42, 41, -1,
      210, 41, 211, -1,
      211, 41, 40, -1,
      211, 40, 212, -1,
      212, 40, 39, -1,
      212, 39, 213, -1,
      213, 39, 59, -1,
      213, 59, 202, -1,
      214, 146, 147, -1,
      214, 147, 215, -1,
      215, 147, 1, -1,
      215, 1, 216, -1,
      1, 0, 216, -1,
      216, 0, 47, -1,
      216, 47, 217, -1,
      217, 47, 46, -1,
      217, 46, 218, -1,
      218, 46, 45, -1,
      218, 45, 219, -1,
      219, 45, 64, -1,
      219, 64, 220, -1,
      220, 64, 63, -1,
      220, 63, 207, -1,
      146, 214, 65, -1,
      65, 214, 221, -1,
      65, 221, 66, -1,
      66, 221, 222, -1,
      66, 222, 67, -1,
      67, 222, 223, -1,
      67, 223, 70, -1,
      70, 223, 224, -1,
      70, 224, 71, -1,
      71, 224, 225, -1,
      71, 225, 72, -1,
      72, 225, 226, -1,
      72, 226, 76, -1,
      76, 226, 227, -1,
      76, 227, 77, -1,
      189, 188, 228, -1,
      228, 188, 229, -1,
      188, 69, 229, -1,
      229, 69, 68, -1,
      229, 68, 230, -1,
      230, 68, 75, -1,
      230, 75, 231, -1,
      231, 75, 74, -1,
      231, 74, 232, -1,
      232, 74, 73, -1,
      232, 73, 233, -1,
      233, 73, 78, -1,
      233, 78, 234, -1,
      234, 78, 77, -1,
      234, 77, 227, -1,
      189, 228, 38, -1,
      38, 228, 235, -1,
      38, 235, 37, -1,
      37, 235, 236, -1,
      37, 236, 36, -1,
      36, 236, 190, -1,
      36, 190, 34, -1,
      237, 238, 226, -1,
      227, 194, 195, -1,
      191, 190, 236, -1,
      191, 236, 193, -1,
      193, 236, 235, -1,
      193, 235, 192, -1,
      192, 235, 228, -1,
      192, 228, 200, -1,
      200, 228, 229, -1,
      200, 229, 199, -1,
      199, 229, 230, -1,
      199, 230, 198, -1,
      198, 230, 231, -1,
      198, 231, 197, -1,
      197, 231, 232, -1,
      197, 232, 196, -1,
      196, 232, 233, -1,
      196, 233, 195, -1,
      195, 233, 234, -1,
      195, 234, 227, -1,
      222, 239, 223, -1,
      223, 239, 240, -1,
      223, 240, 224, -1,
      224, 240, 241, -1,
      224, 241, 225, -1,
      225, 241, 242, -1,
      225, 242, 226, -1,
      226, 242, 243, -1,
      226, 243, 237, -1,
      227, 226, 194, -1,
      194, 226, 238, -1,
      194, 238, 201, -1,
      201, 238, 244, -1,
      201, 244, 206, -1,
      206, 244, 245, -1,
      206, 245, 205, -1,
      205, 245, 246, -1,
      205, 246, 204, -1,
      204, 246, 247, -1,
      204, 247, 203, -1,
      203, 247, 248, -1,
      203, 248, 202, -1,
      202, 248, 249, -1,
      202, 249, 213, -1,
      213, 249, 250, -1,
      213, 250, 212, -1,
      212, 250, 251, -1,
      212, 251, 211, -1,
      211, 251, 252, -1,
      211, 252, 210, -1,
      210, 252, 253, -1,
      210, 253, 209, -1,
      209, 253, 254, -1,
      209, 254, 208, -1,
      208, 254, 255, -1,
      208, 255, 207, -1,
      207, 255, 256, -1,
      207, 256, 220, -1,
      220, 256, 257, -1,
      220, 257, 219, -1,
      219, 257, 258, -1,
      219, 258, 218, -1,
      218, 258, 259, -1,
      218, 259, 217, -1,
      217, 259, 260, -1,
      217, 260, 216, -1,
      216, 260, 261, -1,
      216, 261, 215, -1,
      215, 261, 262, -1,
      215, 262, 214, -1,
      214, 262, 263, -1,
      214, 263, 221, -1,
      221, 263, 264, -1,
      221, 264, 222, -1,
      222, 264, 265, -1,
      222, 265, 239, -1,
      243, 266, 267, -1,
      243, 267, 237, -1,
      237, 267, 268, -1,
      237, 268, 238, -1,
      238, 268, 269, -1,
      238, 269, 244, -1,
      244, 269, 270, -1,
      244, 270, 245, -1,
      245, 270, 271, -1,
      245, 271, 246, -1,
      246, 271, 272, -1,
      246, 272, 247, -1,
      247, 272, 273, -1,
      247, 273, 248, -1,
      248, 273, 274, -1,
      248, 274, 249, -1,
      249, 274, 275, -1,
      249, 275, 250, -1,
      250, 275, 276, -1,
      250, 276, 251, -1,
      251, 276, 277, -1,
      251, 277, 252, -1,
      252, 277, 278, -1,
      252, 278, 253, -1,
      253, 278, 279, -1,
      253, 279, 254, -1,
      254, 279, 280, -1,
      254, 280, 255, -1,
      255, 280, 281, -1,
      255, 281, 256, -1,
      256, 281, 282, -1,
      256, 282, 257, -1,
      257, 282, 283, -1,
      257, 283, 258, -1,
      258, 283, 284, -1,
      258, 284, 259, -1,
      259, 284, 285, -1,
      259, 285, 260, -1,
      260, 285, 286, -1,
      260, 286, 261, -1,
      261, 286, 287, -1,
      261, 287, 262, -1,
      262, 287, 288, -1,
      262, 288, 263, -1,
      263, 288, 289, -1,
      263, 289, 264, -1,
      264, 289, 290, -1,
      264, 290, 265, -1,
      265, 290, 291, -1,
      265, 291, 239, -1,
      239, 291, 292, -1,
      239, 292, 240, -1,
      240, 292, 293, -1,
      240, 293, 241, -1,
      241, 293, 294, -1,
      241, 294, 242, -1,
      242, 294, 266, -1,
      242, 266, 243, -1,
      295, 296, 185, -1,
      185, 296, 186, -1,
      296, 297, 186, -1,
      186, 297, 187, -1,
      297, 298, 187, -1,
      187, 298, 184, -1,
      298, 295, 184, -1,
      184, 295, 185, -1,
      298, 297, 295, -1,
      295, 297, 296, -1,
      299, 300, 183, -1,
      183, 300, 174, -1,
      300, 301, 174, -1,
      174, 301, 175, -1,
      301, 302, 175, -1,
      175, 302, 176, -1,
      302, 303, 176, -1,
      176, 303, 177, -1,
      303, 304, 177, -1,
      177, 304, 178, -1,
      304, 305, 178, -1,
      178, 305, 179, -1,
      305, 306, 179, -1,
      179, 306, 180, -1,
      306, 307, 180, -1,
      180, 307, 181, -1,
      307, 308, 181, -1,
      181, 308, 182, -1,
      308, 299, 182, -1,
      182, 299, 183, -1,
      308, 307, 305, -1,
      305, 307, 306, -1,
      300, 299, 301, -1,
      301, 299, 308, -1,
      301, 308, 302, -1,
      302, 308, 305, -1,
      302, 305, 303, -1,
      303, 305, 304, -1,
      309, 28, 33, -1,
      309, 33, 310, -1,
      310, 33, 32, -1,
      310, 32, 311, -1,
      311, 32, 31, -1,
      311, 31, 312, -1,
      312, 31, 27, -1,
      312, 27, 313, -1,
      313, 27, 26, -1,
      313, 26, 314, -1,
      314, 26, 25, -1,
      314, 25, 315, -1,
      315, 25, 316, -1,
      316, 25, 2, -1,
      316, 2, 4, -1,
      317, 19, 318, -1,
      318, 19, 20, -1,
      20, 24, 318, -1,
      318, 24, 23, -1,
      318, 23, 319, -1,
      319, 23, 22, -1,
      319, 22, 320, -1,
      320, 22, 21, -1,
      320, 21, 321, -1,
      321, 21, 30, -1,
      321, 30, 322, -1,
      322, 30, 29, -1,
      322, 29, 323, -1,
      323, 29, 28, -1,
      323, 28, 309, -1,
      324, 17, 16, -1,
      324, 16, 325, -1,
      325, 16, 15, -1,
      325, 15, 326, -1,
      326, 15, 14, -1,
      326, 14, 327, -1,
      327, 14, 13, -1,
      327, 13, 328, -1,
      328, 13, 5, -1,
      328, 5, 329, -1,
      329, 5, 6, -1,
      329, 6, 330, -1,
      330, 6, 317, -1,
      317, 6, 7, -1,
      317, 7, 19, -1,
      316, 4, 331, -1,
      331, 4, 3, -1,
      3, 12, 331, -1,
      331, 12, 11, -1,
      331, 11, 332, -1,
      332, 11, 10, -1,
      332, 10, 333, -1,
      333, 10, 9, -1,
      333, 9, 334, -1,
      334, 9, 8, -1,
      334, 8, 335, -1,
      335, 8, 18, -1,
      335, 18, 336, -1,
      336, 18, 17, -1,
      336, 17, 324, -1,
      337, 309, 338, -1,
      338, 309, 310, -1,
      338, 310, 339, -1,
      339, 310, 311, -1,
      339, 311, 340, -1,
      340, 311, 312, -1,
      340, 312, 341, -1,
      341, 312, 313, -1,
      341, 313, 342, -1,
      342, 313, 314, -1,
      342, 314, 343, -1,
      343, 314, 315, -1,
      343, 315, 344, -1,
      344, 315, 316, -1,
      344, 316, 345, -1,
      345, 316, 331, -1,
      345, 331, 346, -1,
      346, 331, 332, -1,
      346, 332, 347, -1,
      347, 332, 333, -1,
      347, 333, 348, -1,
      348, 333, 334, -1,
      348, 334, 349, -1,
      349, 334, 335, -1,
      349, 335, 350, -1,
      350, 335, 336, -1,
      350, 336, 351, -1,
      351, 336, 324, -1,
      351, 324, 352, -1,
      352, 324, 325, -1,
      352, 325, 353, -1,
      353, 325, 326, -1,
      353, 326, 354, -1,
      354, 326, 327, -1,
      354, 327, 355, -1,
      355, 327, 328, -1,
      355, 328, 356, -1,
      356, 328, 329, -1,
      356, 329, 357, -1,
      357, 329, 330, -1,
      357, 330, 358, -1,
      358, 330, 317, -1,
      358, 317, 359, -1,
      359, 317, 318, -1,
      359, 318, 360, -1,
      360, 318, 319, -1,
      360, 319, 361, -1,
      361, 319, 320, -1,
      361, 320, 362, -1,
      362, 320, 321, -1,
      362, 321, 363, -1,
      363, 321, 322, -1,
      363, 322, 364, -1,
      364, 322, 323, -1,
      364, 323, 337, -1,
      337, 323, 309, -1,
      337, 365, 366, -1,
      337, 366, 364, -1,
      364, 366, 367, -1,
      364, 367, 363, -1,
      363, 367, 368, -1,
      363, 368, 362, -1,
      362, 368, 369, -1,
      362, 369, 361, -1,
      361, 369, 370, -1,
      361, 370, 360, -1,
      360, 370, 371, -1,
      360, 371, 359, -1,
      359, 371, 372, -1,
      359, 372, 358, -1,
      358, 372, 373, -1,
      358, 373, 357, -1,
      357, 373, 374, -1,
      357, 374, 356, -1,
      356, 374, 375, -1,
      356, 375, 355, -1,
      355, 375, 376, -1,
      355, 376, 354, -1,
      354, 376, 377, -1,
      354, 377, 353, -1,
      353, 377, 378, -1,
      353, 378, 352, -1,
      352, 378, 379, -1,
      352, 379, 351, -1,
      351, 379, 380, -1,
      351, 380, 350, -1,
      350, 380, 381, -1,
      350, 381, 349, -1,
      349, 381, 382, -1,
      349, 382, 348, -1,
      348, 382, 383, -1,
      348, 383, 347, -1,
      347, 383, 384, -1,
      347, 384, 346, -1,
      346, 384, 385, -1,
      346, 385, 345, -1,
      345, 385, 386, -1,
      345, 386, 344, -1,
      344, 386, 387, -1,
      344, 387, 343, -1,
      343, 387, 388, -1,
      343, 388, 342, -1,
      342, 388, 389, -1,
      342, 389, 341, -1,
      341, 389, 390, -1,
      341, 390, 340, -1,
      340, 390, 391, -1,
      340, 391, 339, -1,
      339, 391, 392, -1,
      339, 392, 338, -1,
      338, 392, 365, -1,
      338, 365, 337, -1,
      393, 394, 80, -1,
      80, 394, 81, -1,
      395, 98, 96, -1,
      395, 96, 396, -1,
      396, 96, 94, -1,
      396, 94, 397, -1,
      397, 94, 81, -1,
      397, 81, 394, -1,
      398, 105, 104, -1,
      398, 104, 399, -1,
      399, 104, 103, -1,
      399, 103, 400, -1,
      400, 103, 102, -1,
      400, 102, 401, -1,
      401, 102, 101, -1,
      401, 101, 402, -1,
      402, 101, 100, -1,
      402, 100, 403, -1,
      403, 100, 99, -1,
      403, 99, 404, -1,
      404, 99, 98, -1,
      404, 98, 395, -1,
      405, 93, 95, -1,
      405, 95, 406, -1,
      406, 95, 97, -1,
      406, 97, 407, -1,
      407, 97, 108, -1,
      407, 108, 408, -1,
      408, 108, 107, -1,
      408, 107, 409, -1,
      409, 107, 106, -1,
      409, 106, 410, -1,
      410, 106, 105, -1,
      410, 105, 398, -1,
      411, 88, 87, -1,
      411, 87, 412, -1,
      412, 87, 86, -1,
      412, 86, 413, -1,
      413, 86, 85, -1,
      413, 85, 414, -1,
      414, 85, 84, -1,
      414, 84, 415, -1,
      415, 84, 93, -1,
      415, 93, 405, -1,
      416, 144, 417, -1,
      417, 144, 145, -1,
      145, 92, 417, -1,
      417, 92, 91, -1,
      417, 91, 418, -1,
      418, 91, 90, -1,
      418, 90, 419, -1,
      419, 90, 83, -1,
      419, 83, 420, -1,
      420, 83, 82, -1,
      420, 82, 421, -1,
      421, 82, 89, -1,
      421, 89, 422, -1,
      422, 89, 88, -1,
      422, 88, 411, -1,
      144, 416, 423, -1,
      424, 114, 113, -1,
      424, 113, 423, -1,
      423, 113, 143, -1,
      423, 143, 144, -1,
      424, 425, 114, -1,
      114, 425, 117, -1,
      426, 131, 130, -1,
      426, 130, 427, -1,
      427, 130, 128, -1,
      427, 128, 428, -1,
      428, 128, 117, -1,
      428, 117, 425, -1,
      429, 134, 139, -1,
      429, 139, 430, -1,
      430, 139, 138, -1,
      430, 138, 431, -1,
      431, 138, 137, -1,
      431, 137, 432, -1,
      432, 137, 142, -1,
      432, 142, 433, -1,
      433, 142, 141, -1,
      433, 141, 434, -1,
      434, 141, 140, -1,
      434, 140, 435, -1,
      435, 140, 131, -1,
      435, 131, 426, -1,
      436, 127, 129, -1,
      436, 129, 437, -1,
      437, 129, 136, -1,
      437, 136, 438, -1,
      438, 136, 135, -1,
      438, 135, 439, -1,
      439, 135, 132, -1,
      439, 132, 440, -1,
      440, 132, 133, -1,
      440, 133, 441, -1,
      441, 133, 134, -1,
      441, 134, 429, -1,
      442, 126, 125, -1,
      442, 125, 443, -1,
      443, 125, 124, -1,
      443, 124, 444, -1,
      444, 124, 119, -1,
      444, 119, 445, -1,
      445, 119, 118, -1,
      445, 118, 446, -1,
      446, 118, 127, -1,
      446, 127, 436, -1,
      110, 109, 447, -1,
      447, 109, 448, -1,
      109, 123, 448, -1,
      448, 123, 122, -1,
      448, 122, 449, -1,
      449, 122, 121, -1,
      449, 121, 450, -1,
      450, 121, 120, -1,
      450, 120, 451, -1,
      451, 120, 116, -1,
      451, 116, 452, -1,
      452, 116, 115, -1,
      452, 115, 453, -1,
      453, 115, 126, -1,
      453, 126, 442, -1,
      393, 80, 79, -1,
      393, 79, 454, -1,
      454, 79, 112, -1,
      454, 112, 455, -1,
      455, 112, 447, -1,
      447, 112, 111, -1,
      447, 111, 110, -1,
      394, 393, 397, -1,
      397, 393, 454, -1,
      397, 454, 396, -1,
      396, 454, 455, -1,
      396, 455, 395, -1,
      395, 455, 447, -1,
      395, 447, 404, -1,
      404, 447, 448, -1,
      404, 448, 403, -1,
      403, 448, 449, -1,
      403, 449, 402, -1,
      402, 449, 450, -1,
      402, 450, 401, -1,
      401, 450, 451, -1,
      401, 451, 400, -1,
      400, 451, 452, -1,
      400, 452, 399, -1,
      399, 452, 453, -1,
      399, 453, 398, -1,
      398, 453, 442, -1,
      398, 442, 410, -1,
      410, 442, 443, -1,
      410, 443, 409, -1,
      409, 443, 444, -1,
      409, 444, 408, -1,
      408, 444, 445, -1,
      408, 445, 407, -1,
      407, 445, 446, -1,
      407, 446, 406, -1,
      406, 446, 436, -1,
      406, 436, 405, -1,
      405, 436, 437, -1,
      405, 437, 415, -1,
      415, 437, 438, -1,
      415, 438, 414, -1,
      414, 438, 439, -1,
      414, 439, 413, -1,
      413, 439, 440, -1,
      413, 440, 412, -1,
      412, 440, 441, -1,
      412, 441, 411, -1,
      411, 441, 429, -1,
      411, 429, 422, -1,
      422, 429, 430, -1,
      422, 430, 421, -1,
      421, 430, 431, -1,
      421, 431, 420, -1,
      420, 431, 432, -1,
      420, 432, 419, -1,
      419, 432, 433, -1,
      419, 433, 418, -1,
      418, 433, 434, -1,
      418, 434, 417, -1,
      417, 434, 435, -1,
      417, 435, 416, -1,
      416, 435, 426, -1,
      416, 426, 423, -1,
      423, 426, 427, -1,
      423, 427, 424, -1,
      424, 427, 428, -1,
      424, 428, 425, -1,
      456, 457, 170, -1,
      170, 457, 169, -1,
      457, 458, 169, -1,
      169, 458, 151, -1,
      458, 459, 151, -1,
      151, 459, 152, -1,
      459, 460, 152, -1,
      152, 460, 165, -1,
      461, 161, 163, -1,
      461, 163, 462, -1,
      462, 163, 165, -1,
      462, 165, 460, -1,
      461, 463, 161, -1,
      161, 463, 162, -1,
      464, 166, 164, -1,
      464, 164, 465, -1,
      465, 164, 162, -1,
      465, 162, 463, -1,
      464, 466, 166, -1,
      166, 466, 167, -1,
      466, 467, 167, -1,
      167, 467, 168, -1,
      467, 468, 168, -1,
      168, 468, 171, -1,
      468, 469, 171, -1,
      171, 469, 156, -1,
      469, 470, 156, -1,
      156, 470, 157, -1,
      471, 160, 159, -1,
      471, 159, 472, -1,
      472, 159, 157, -1,
      472, 157, 470, -1,
      473, 172, 158, -1,
      473, 158, 474, -1,
      474, 158, 160, -1,
      474, 160, 471, -1,
      473, 475, 172, -1,
      172, 475, 173, -1,
      475, 476, 173, -1,
      173, 476, 155, -1,
      476, 477, 155, -1,
      155, 477, 153, -1,
      478, 149, 148, -1,
      478, 148, 479, -1,
      479, 148, 153, -1,
      479, 153, 477, -1,
      480, 154, 150, -1,
      480, 150, 481, -1,
      481, 150, 149, -1,
      481, 149, 478, -1,
      480, 456, 154, -1,
      154, 456, 170, -1,
      469, 468, 470, -1,
      470, 468, 467, -1,
      470, 467, 472, -1,
      457, 456, 458, -1,
      458, 456, 480, -1,
      480, 481, 458, -1,
      458, 481, 478, -1,
      458, 478, 459, -1,
      472, 467, 471, -1,
      471, 467, 466, -1,
      471, 466, 474, -1,
      478, 479, 459, -1,
      459, 479, 477, -1,
      459, 477, 460, -1,
      460, 477, 476, -1,
      460, 476, 462, -1,
      464, 475, 466, -1,
      466, 475, 473, -1,
      466, 473, 474, -1,
      464, 465, 475, -1,
      475, 465, 463, -1,
      475, 463, 476, -1,
      476, 463, 461, -1,
      476, 461, 462, -1,
    ]
  }
}

Shape {
  appearance Appearance {
    material Material {
      diffuseColor 1.0000 1.0000 1.0000
      specularColor 0.5020 0.5020 0.5020
      ambientIntensity 0.2
      transparency 0.0000
      shininess 0.5
    }
  }
  geometry IndexedFaceSet {
    ccw TRUE
    solid FALSE
    coord DEF co Coordinate {
      point [
        0.162154 -0.006227 0.322835,
        0.162241 -0.004419 0.322835,
        0.163058 -0.000849 0.322835,
        0.164825 0.002556 0.322835,
        0.167400 0.005454 0.322835,
        0.170238 0.007359 0.322835,
        0.173270 0.008446 0.322835,
        0.177188 0.008881 0.322835,
        0.179661 0.008737 0.322835,
        0.182785 0.008017 0.322835,
        0.185345 0.006799 0.322835,
        0.187481 0.005085 0.322835,
        0.188728 0.003628 0.322835,
        0.190394 0.000680 0.322835,
        0.191507 -0.003111 0.322835,
        0.191922 -0.007968 0.322835,
        0.191575 -0.012053 0.322835,
        0.190510 -0.015724 0.322835,
        0.188778 -0.018884 0.322835,
        0.186399 -0.021503 0.322835,
        0.183843 -0.023243 0.322835,
        0.181087 -0.024270 0.322835,
        0.177293 -0.024727 0.322835,
        0.174509 -0.024477 0.322835,
        0.171622 -0.023599 0.322835,
        0.169116 -0.022141 0.322835,
        0.166844 -0.019977 0.322835,
        0.164320 -0.016109 0.322835,
        0.162738 -0.011638 0.322835,
        -0.023173 0.006886 0.322835,
        -0.022859 0.012512 0.322835,
        -0.020756 0.021242 0.322835,
        -0.017543 0.027402 0.322835,
        -0.013004 0.032557 0.322835,
        -0.008283 0.035807 0.322835,
        -0.002996 0.037815 0.322835,
        0.004044 0.038649 0.322835,
        0.011090 0.037873 0.322835,
        0.016291 0.036024 0.322835,
        0.020672 0.033148 0.322835,
        0.024528 0.029051 0.322835,
        0.027814 0.023148 0.322835,
        0.029822 0.016042 0.322835,
        0.030601 0.006736 0.322835,
        0.029692 -0.002988 0.322835,
        0.027240 -0.010476 0.322835,
        0.024142 -0.015474 0.322835,
        0.020502 -0.019197 0.322835,
        0.015917 -0.022124 0.322835,
        0.010458 -0.023987 0.322835,
        0.003384 -0.024727 0.322835,
        -0.002384 -0.024161 0.322835,
        -0.007824 -0.022337 0.322835,
        -0.012457 -0.019395 0.322835,
        -0.016720 -0.014974 0.322835,
        -0.020069 -0.009350 0.322835,
        -0.022327 -0.002175 0.322835,
      ]
    }
    coordIndex [
      15, 14, 0, -1,
      0, 14, 13, -1,
      0, 13, 12, -1,
      12, 11, 0, -1,
      0, 11, 10, -1,
      0, 10, 9, -1,
      27, 26, 16, -1,
      17, 16, 22, -1,
      22, 16, 23, -1,
      9, 8, 0, -1,
      0, 8, 7, -1,
      0, 7, 1, -1,
      1, 7, 6, -1,
      1, 6, 5, -1,
      15, 0, 16, -1,
      16, 0, 28, -1,
      16, 28, 27, -1,
      26, 25, 16, -1,
      16, 25, 24, -1,
      16, 24, 23, -1,
      21, 20, 19, -1,
      5, 4, 1, -1,
      1, 4, 3, -1,
      1, 3, 2, -1,
      21, 19, 22, -1,
      22, 19, 18, -1,
      22, 18, 17, -1,
      29, 43, 30, -1,
      30, 43, 42, -1,
      47, 46, 29, -1,
      47, 29, 48, -1,
      46, 45, 29, -1,
      29, 45, 44, -1,
      29, 44, 43, -1,
      34, 30, 35, -1,
      35, 30, 36, -1,
      55, 54, 51, -1,
      51, 54, 53, -1,
      51, 53, 52, -1,
      55, 51, 56, -1,
      56, 51, 50, -1,
      56, 50, 29, -1,
      29, 50, 49, -1,
      29, 49, 48, -1,
      34, 33, 30, -1,
      30, 33, 32, -1,
      30, 32, 31, -1,
      42, 41, 30, -1,
      30, 41, 40, -1,
      30, 40, 39, -1,
      39, 38, 30, -1,
      30, 38, 37, -1,
      30, 37, 36, -1,
    ]
  }
}

Shape {
  appearance Appearance {
    material Material {
      diffuseColor 0.8549 0.8549 0.8549
      specularColor 0.4275 0.4275 0.4275
      ambientIntensity 0.2
      transparency 0.0000
      shininess 0.5
    }
  }
  geometry IndexedFaceSet {
    ccw TRUE
    solid FALSE
    coord DEF co Coordinate {
      point [
        -0.154700 -0.236220 0.000000,
        -0.295276 -0.236220 0.000000,
        -0.295276 -0.030148 0.000000,
        0.095645 0.318898 0.000000,
        0.154700 0.318898 0.000000,
        0.095645 0.236220 0.000000,
        0.154700 0.236220 0.000000,
        0.295276 -0.030148 0.000000,
        0.031519 0.236220 0.000000,
        0.295276 0.236220 0.000000,
        0.154700 -0.236220 0.000000,
        0.295276 -0.236220 0.000000,
        -0.095645 -0.236220 0.000000,
        -0.095645 -0.318898 0.000000,
        -0.154700 -0.318898 0.000000,
        0.031519 -0.236220 0.000000,
        0.095645 -0.236220 0.000000,
        0.095645 -0.318898 0.000000,
        0.154700 -0.318898 0.000000,
        -0.154700 0.318898 0.000000,
        -0.095645 0.318898 0.000000,
        -0.154700 0.236220 0.000000,
        -0.095645 0.236220 0.000000,
        -0.295276 0.236220 0.000000,
        -0.095645 -0.236220 0.007874,
        0.095645 -0.236220 0.007874,
        -0.095645 -0.314961 0.007874,
        0.095645 -0.314961 0.007874,
        0.295276 0.236220 0.007874,
        0.154700 0.236220 0.007874,
        0.154700 0.314961 0.007874,
        0.154700 -0.314961 0.007874,
        0.154700 -0.236220 0.007874,
        0.295276 -0.236220 0.007874,
        0.511811 0.240157 0.007874,
        0.436530 0.240157 0.007874,
        0.436530 0.153543 0.007874,
        0.511811 0.153543 0.007874,
        0.511811 0.043307 0.007874,
        0.436530 0.043307 0.007874,
        0.436530 -0.043307 0.007874,
        0.511811 -0.240157 0.007874,
        0.436530 -0.240157 0.007874,
        0.436530 -0.153543 0.007874,
        0.511811 -0.153543 0.007874,
        0.511811 -0.043307 0.007874,
        0.095645 0.236220 0.007874,
        -0.095645 0.236220 0.007874,
        0.095645 0.314961 0.007874,
        -0.095645 0.314961 0.007874,
        -0.154700 -0.236220 0.007874,
        -0.154700 -0.314961 0.007874,
        -0.295276 -0.236220 0.007874,
        -0.295276 0.236220 0.007874,
        -0.154700 0.236220 0.007874,
        -0.154700 0.314961 0.007874,
        -0.154700 0.314961 0.078740,
        -0.095645 0.314961 0.078740,
        0.154700 0.314961 0.078740,
        0.095645 0.314961 0.078740,
        0.154700 -0.314961 0.078740,
        0.095645 -0.314961 0.078740,
        -0.154700 -0.314961 0.078740,
        -0.095645 -0.314961 0.078740,
        0.511811 -0.153543 0.078740,
        0.511811 -0.043307 0.078740,
        0.511811 -0.240157 0.078740,
        0.511811 0.043307 0.078740,
        0.511811 0.240157 0.078740,
        0.511811 0.153543 0.078740,
        0.590551 0.153543 0.078740,
        0.590551 0.240157 0.078740,
        0.436530 0.153543 0.000000,
        0.590551 0.153543 0.000000,
        0.436530 0.240157 0.000000,
        0.590551 0.240157 0.000000,
        0.590551 -0.043307 0.078740,
        0.590551 0.043307 0.078740,
        0.436530 -0.043307 0.000000,
        0.590551 -0.043307 0.000000,
        0.436530 0.043307 0.000000,
        0.590551 0.043307 0.000000,
        0.590551 -0.240157 0.078740,
        0.590551 -0.153543 0.078740,
        0.436530 -0.240157 0.000000,
        0.590551 -0.240157 0.000000,
        0.436530 -0.153543 0.000000,
        0.590551 -0.153543 0.000000,
        -0.095645 0.318898 0.078740,
        -0.154700 0.318898 0.078740,
        0.154700 0.318898 0.078740,
        0.095645 0.318898 0.078740,
        0.095645 -0.318898 0.078740,
        0.154700 -0.318898 0.078740,
        -0.154700 -0.318898 0.078740,
        -0.095645 -0.318898 0.078740,
      ]
    }
    coordIndex [
      70, 71, 69, -1,
      69, 71, 68, -1,
      36, 72, 37, -1,
      37, 72, 73, -1,
      37, 73, 69, -1,
      69, 73, 70, -1,
      74, 35, 34, -1,
      68, 71, 34, -1,
      34, 71, 75, -1,
      34, 75, 74, -1,
      71, 70, 75, -1,
      75, 70, 73, -1,
      74, 72, 35, -1,
      35, 72, 36, -1,
      72, 74, 73, -1,
      73, 74, 75, -1,
      76, 77, 65, -1,
      65, 77, 67, -1,
      40, 78, 45, -1,
      45, 78, 79, -1,
      45, 79, 65, -1,
      65, 79, 76, -1,
      80, 39, 38, -1,
      67, 77, 38, -1,
      38, 77, 81, -1,
      38, 81, 80, -1,
      77, 76, 81, -1,
      81, 76, 79, -1,
      80, 78, 39, -1,
      39, 78, 40, -1,
      78, 80, 79, -1,
      79, 80, 81, -1,
      82, 83, 66, -1,
      66, 83, 64, -1,
      42, 84, 41, -1,
      41, 84, 85, -1,
      41, 85, 66, -1,
      66, 85, 82, -1,
      86, 43, 44, -1,
      64, 83, 44, -1,
      44, 83, 87, -1,
      44, 87, 86, -1,
      83, 82, 87, -1,
      87, 82, 85, -1,
      86, 84, 43, -1,
      43, 84, 42, -1,
      84, 86, 85, -1,
      85, 86, 87, -1,
      57, 88, 56, -1,
      56, 88, 89, -1,
      58, 90, 59, -1,
      59, 90, 91, -1,
      61, 92, 60, -1,
      60, 92, 93, -1,
      62, 94, 63, -1,
      63, 94, 95, -1,
      21, 23, 54, -1,
      54, 23, 53, -1,
      1, 52, 2, -1,
      2, 52, 53, -1,
      2, 53, 23, -1,
      1, 0, 52, -1,
      52, 0, 50, -1,
      50, 0, 51, -1,
      51, 0, 14, -1,
      51, 14, 62, -1,
      62, 14, 94, -1,
      95, 94, 13, -1,
      13, 94, 14, -1,
      63, 95, 26, -1,
      26, 95, 13, -1,
      26, 13, 24, -1,
      24, 13, 12, -1,
      16, 25, 15, -1,
      15, 25, 24, -1,
      15, 24, 12, -1,
      25, 16, 27, -1,
      27, 16, 17, -1,
      27, 17, 61, -1,
      61, 17, 92, -1,
      93, 92, 18, -1,
      18, 92, 17, -1,
      60, 93, 31, -1,
      31, 93, 18, -1,
      31, 18, 32, -1,
      32, 18, 10, -1,
      10, 11, 32, -1,
      32, 11, 33, -1,
      9, 28, 7, -1,
      7, 28, 33, -1,
      7, 33, 11, -1,
      9, 6, 28, -1,
      28, 6, 29, -1,
      29, 6, 30, -1,
      30, 6, 4, -1,
      30, 4, 58, -1,
      58, 4, 90, -1,
      91, 90, 3, -1,
      3, 90, 4, -1,
      59, 91, 48, -1,
      48, 91, 3, -1,
      48, 3, 46, -1,
      46, 3, 5, -1,
      22, 47, 8, -1,
      8, 47, 46, -1,
      8, 46, 5, -1,
      47, 22, 49, -1,
      49, 22, 20, -1,
      49, 20, 57, -1,
      57, 20, 88, -1,
      89, 88, 19, -1,
      19, 88, 20, -1,
      56, 89, 55, -1,
      55, 89, 19, -1,
      55, 19, 54, -1,
      54, 19, 21, -1,
    ]
  }
}

Shape {
  appearance Appearance {
    material Material {
      diffuseColor 0.2510 0.2510 0.2510
      specularColor 0.1255 0.1255 0.1255
      ambientIntensity 0.2
      transparency 0.0000
      shininess 0.5
    }
  }
  geometry IndexedFaceSet {
    ccw TRUE
    solid FALSE
    coord DEF co Coordinate {
      point [
        0.051111 0.023506 0.000000,
        0.056926 0.022853 0.000000,
        0.038339 -0.020831 0.000000,
        0.116501 0.029268 0.000000,
        0.116501 -0.029787 0.000000,
        0.057003 -0.030148 0.000000,
        0.086253 -0.029787 0.000000,
        0.060807 -0.029753 0.000000,
        0.066531 -0.027783 0.000000,
        0.108579 0.029268 0.000000,
        0.061346 0.021258 0.000000,
        0.065433 0.018523 0.000000,
        0.069000 0.014586 0.000000,
        0.073290 -0.000890 0.000000,
        0.072692 -0.007283 0.000000,
        0.071087 -0.012363 0.000000,
        0.057946 -0.023408 0.000000,
        0.052438 -0.024026 0.000000,
        0.062250 -0.021824 0.000000,
        0.065874 -0.019381 0.000000,
        0.068645 -0.016458 0.000000,
        0.044599 -0.023156 0.000000,
        0.043933 0.022574 0.000000,
        0.037281 -0.020245 0.000000,
        0.037281 0.019725 0.000000,
        0.037281 0.027647 0.000000,
        0.071434 0.010027 0.000000,
        0.073008 0.003705 0.000000,
        0.071282 -0.024750 0.000000,
        0.075718 -0.020080 0.000000,
        0.086253 -0.023306 0.000000,
        0.078863 -0.014464 0.000000,
        0.108579 -0.023306 0.000000,
        0.078095 0.013713 0.000000,
        0.074634 0.019235 0.000000,
        0.069302 0.024362 0.000000,
        0.063693 0.027591 0.000000,
        0.057109 0.029504 0.000000,
        0.080641 -0.008213 0.000000,
        0.081212 -0.001374 0.000000,
        0.080363 0.007022 0.000000,
        0.051178 0.029988 0.000000,
        0.044108 0.029500 0.000000,
        0.051915 -0.030480 0.000000,
        0.049543 -0.030148 0.000000,
        0.043576 -0.029311 0.000000,
        0.037281 -0.026727 0.000000,
        0.053530 -0.030508 0.000000,
        0.025758 -0.029787 0.000000,
        0.025758 0.029268 0.000000,
        -0.069307 -0.029787 0.000000,
        -0.062037 -0.013602 0.000000,
        -0.058650 -0.018884 0.000000,
        -0.004490 0.022786 0.000000,
        0.017836 0.022786 0.000000,
        0.017836 0.003341 0.000000,
        -0.004490 0.029268 0.000000,
        -0.017453 0.029268 0.000000,
        -0.003050 0.003341 0.000000,
        -0.017453 -0.029787 0.000000,
        -0.003050 -0.003141 0.000000,
        -0.053789 -0.023538 0.000000,
        -0.047623 -0.027122 0.000000,
        -0.040818 -0.029150 0.000000,
        0.017836 -0.003141 0.000000,
        0.017836 -0.023306 0.000000,
        -0.005930 -0.023306 0.000000,
        -0.005930 -0.029787 0.000000,
        -0.034119 0.029268 0.000000,
        -0.042651 0.028356 0.000000,
        -0.091632 0.029268 0.000000,
        -0.060226 0.016937 0.000000,
        -0.062970 0.011858 0.000000,
        -0.033511 -0.029787 0.000000,
        -0.064556 0.006039 0.000000,
        -0.064985 0.000483 0.000000,
        -0.064157 -0.007420 0.000000,
        -0.113958 -0.029787 0.000000,
        -0.122600 -0.029787 0.000000,
        -0.099554 0.029268 0.000000,
        -0.049560 0.025929 0.000000,
        -0.055988 0.021622 0.000000,
        -0.056050 0.021567 0.000000,
        -0.107983 -0.013223 0.000000,
        -0.083587 -0.013223 0.000000,
        -0.077949 -0.029787 0.000000,
        -0.099554 0.029268 0.003937,
        -0.122600 -0.029787 0.003937,
        -0.113958 -0.029787 0.003937,
        -0.107983 -0.013223 0.003937,
        -0.083587 -0.013223 0.003937,
        -0.077949 -0.029787 0.003937,
        -0.069307 -0.029787 0.003937,
        -0.091632 0.029268 0.003937,
        -0.085578 -0.006742 0.003937,
        -0.105327 -0.006742 0.003937,
        -0.094389 0.017925 0.003937,
        -0.094957 0.019973 0.003937,
        -0.095335 0.022066 0.003937,
        -0.095526 0.022066 0.003937,
        -0.095911 0.019979 0.003937,
        -0.096437 0.017925 0.003937,
        -0.085578 -0.006742 0.000000,
        -0.105327 -0.006742 0.000000,
        -0.094389 0.017925 0.000000,
        -0.094957 0.019973 0.000000,
        -0.095335 0.022066 0.000000,
        -0.095526 0.022066 0.000000,
        -0.095911 0.019979 0.000000,
        -0.096437 0.017925 0.000000,
        -0.033511 -0.029787 0.003937,
        -0.017453 -0.029787 0.003937,
        -0.017453 0.029268 0.003937,
        -0.034119 0.029268 0.003937,
        -0.064985 0.000483 0.003937,
        -0.064556 0.006039 0.003937,
        -0.062970 0.011858 0.003937,
        -0.060226 0.016937 0.003937,
        -0.056050 0.021567 0.003937,
        -0.055988 0.021622 0.003937,
        -0.049560 0.025929 0.003937,
        -0.042651 0.028356 0.003937,
        -0.040818 -0.029150 0.003937,
        -0.047623 -0.027122 0.003937,
        -0.053789 -0.023538 0.003937,
        -0.058650 -0.018884 0.003937,
        -0.062037 -0.013602 0.003937,
        -0.064157 -0.007420 0.003937,
        -0.053131 0.014505 0.003937,
        -0.050263 0.017550 0.003937,
        -0.045949 0.020337 0.003937,
        -0.041075 0.022043 0.003937,
        -0.034085 0.022786 0.003937,
        -0.025375 0.022786 0.003937,
        -0.025375 -0.023306 0.003937,
        -0.033759 -0.023306 0.003937,
        -0.039989 -0.022726 0.003937,
        -0.044959 -0.021175 0.003937,
        -0.048986 -0.018783 0.003937,
        -0.052298 -0.015512 0.003937,
        -0.054789 -0.011440 0.003937,
        -0.056521 -0.005889 0.003937,
        -0.057063 0.000314 0.003937,
        -0.056562 0.006191 0.003937,
        -0.055183 0.010862 0.003937,
        -0.034085 0.022786 0.000000,
        -0.025375 0.022786 0.000000,
        -0.041075 0.022043 0.000000,
        -0.045949 0.020337 0.000000,
        -0.050263 0.017550 0.000000,
        -0.053131 0.014505 0.000000,
        -0.055183 0.010862 0.000000,
        -0.056562 0.006191 0.000000,
        -0.057063 0.000314 0.000000,
        -0.056521 -0.005889 0.000000,
        -0.054789 -0.011440 0.000000,
        -0.052298 -0.015512 0.000000,
        -0.048986 -0.018783 0.000000,
        -0.044959 -0.021175 0.000000,
        -0.039989 -0.022726 0.000000,
        -0.033759 -0.023306 0.000000,
        -0.025375 -0.023306 0.000000,
        -0.005930 -0.023306 0.003937,
        -0.005930 -0.029787 0.003937,
        0.025758 -0.029787 0.003937,
        0.025758 0.029268 0.003937,
        -0.004490 0.029268 0.003937,
        -0.004490 0.022786 0.003937,
        0.017836 0.022786 0.003937,
        0.017836 0.003341 0.003937,
        -0.003050 0.003341 0.003937,
        -0.003050 -0.003141 0.003937,
        0.017836 -0.003141 0.003937,
        0.017836 -0.023306 0.003937,
        0.037281 -0.020245 0.003937,
        0.037281 -0.026727 0.003937,
        0.043576 -0.029311 0.003937,
        0.053530 -0.030508 0.003937,
        0.051915 -0.030480 0.003937,
        0.081212 -0.001374 0.003937,
        0.080641 -0.008213 0.003937,
        0.078863 -0.014464 0.003937,
        0.075718 -0.020080 0.003937,
        0.071282 -0.024750 0.003937,
        0.066531 -0.027783 0.003937,
        0.060807 -0.029753 0.003937,
        0.051178 0.029988 0.003937,
        0.057109 0.029504 0.003937,
        0.063693 0.027591 0.003937,
        0.069302 0.024362 0.003937,
        0.074634 0.019235 0.003937,
        0.078095 0.013713 0.003937,
        0.080363 0.007022 0.003937,
        0.037281 0.027647 0.003937,
        0.044108 0.029500 0.003937,
        0.037281 0.019725 0.003937,
        0.051111 0.023506 0.003937,
        0.043933 0.022574 0.003937,
        0.073290 -0.000890 0.003937,
        0.073008 0.003705 0.003937,
        0.071434 0.010027 0.003937,
        0.069000 0.014586 0.003937,
        0.065433 0.018523 0.003937,
        0.061346 0.021258 0.003937,
        0.056926 0.022853 0.003937,
        0.052438 -0.024026 0.003937,
        0.057946 -0.023408 0.003937,
        0.062250 -0.021824 0.003937,
        0.065874 -0.019381 0.003937,
        0.068645 -0.016458 0.003937,
        0.071087 -0.012363 0.003937,
        0.072692 -0.007283 0.003937,
        0.038339 -0.020831 0.003937,
        0.044599 -0.023156 0.003937,
        0.086253 -0.023306 0.003937,
        0.086253 -0.029787 0.003937,
        0.116501 -0.029787 0.003937,
        0.116501 0.029268 0.003937,
        0.108579 0.029268 0.003937,
        0.108579 -0.023306 0.003937,
      ]
    }
    coordIndex [
      86, 87, 79, -1,
      79, 87, 78, -1,
      87, 88, 78, -1,
      78, 88, 77, -1,
      88, 89, 77, -1,
      77, 89, 83, -1,
      89, 90, 83, -1,
      83, 90, 84, -1,
      90, 91, 84, -1,
      84, 91, 85, -1,
      91, 92, 85, -1,
      85, 92, 50, -1,
      92, 93, 50, -1,
      50, 93, 70, -1,
      93, 86, 70, -1,
      70, 86, 79, -1,
      94, 90, 95, -1,
      95, 90, 89, -1,
      96, 93, 94, -1,
      94, 93, 92, -1,
      94, 92, 90, -1,
      90, 92, 91, -1,
      96, 97, 93, -1,
      93, 97, 98, -1,
      93, 98, 86, -1,
      86, 98, 99, -1,
      86, 99, 100, -1,
      100, 101, 86, -1,
      86, 101, 95, -1,
      86, 95, 87, -1,
      87, 95, 89, -1,
      87, 89, 88, -1,
      94, 95, 102, -1,
      102, 95, 103, -1,
      96, 94, 104, -1,
      104, 94, 102, -1,
      96, 104, 105, -1,
      96, 105, 97, -1,
      97, 105, 106, -1,
      97, 106, 98, -1,
      99, 98, 107, -1,
      107, 98, 106, -1,
      99, 107, 108, -1,
      99, 108, 100, -1,
      100, 108, 109, -1,
      100, 109, 101, -1,
      95, 101, 103, -1,
      103, 101, 109, -1,
      110, 111, 73, -1,
      73, 111, 59, -1,
      111, 112, 59, -1,
      59, 112, 57, -1,
      112, 113, 57, -1,
      57, 113, 68, -1,
      114, 75, 74, -1,
      114, 74, 115, -1,
      115, 74, 72, -1,
      115, 72, 116, -1,
      116, 72, 71, -1,
      116, 71, 117, -1,
      117, 71, 82, -1,
      117, 82, 118, -1,
      118, 82, 81, -1,
      118, 81, 119, -1,
      119, 81, 80, -1,
      119, 80, 120, -1,
      120, 80, 69, -1,
      120, 69, 121, -1,
      121, 69, 68, -1,
      121, 68, 113, -1,
      110, 73, 63, -1,
      110, 63, 122, -1,
      122, 63, 62, -1,
      122, 62, 123, -1,
      123, 62, 61, -1,
      123, 61, 124, -1,
      124, 61, 52, -1,
      124, 52, 125, -1,
      125, 52, 51, -1,
      125, 51, 126, -1,
      126, 51, 76, -1,
      126, 76, 127, -1,
      127, 76, 75, -1,
      127, 75, 114, -1,
      116, 117, 128, -1,
      128, 117, 118, -1,
      128, 118, 129, -1,
      129, 118, 119, -1,
      129, 119, 130, -1,
      130, 119, 120, -1,
      130, 120, 131, -1,
      131, 120, 121, -1,
      131, 121, 132, -1,
      132, 121, 113, -1,
      132, 113, 133, -1,
      133, 113, 112, -1,
      133, 112, 134, -1,
      134, 112, 111, -1,
      134, 111, 135, -1,
      135, 111, 110, -1,
      135, 110, 136, -1,
      136, 110, 122, -1,
      136, 122, 137, -1,
      137, 122, 123, -1,
      137, 123, 138, -1,
      138, 123, 124, -1,
      138, 124, 139, -1,
      139, 124, 125, -1,
      139, 125, 140, -1,
      140, 125, 126, -1,
      140, 126, 141, -1,
      141, 126, 127, -1,
      141, 127, 142, -1,
      142, 127, 114, -1,
      142, 114, 143, -1,
      143, 114, 115, -1,
      143, 115, 144, -1,
      144, 115, 116, -1,
      144, 116, 128, -1,
      132, 133, 145, -1,
      145, 133, 146, -1,
      132, 145, 147, -1,
      132, 147, 131, -1,
      131, 147, 148, -1,
      131, 148, 130, -1,
      130, 148, 149, -1,
      130, 149, 129, -1,
      129, 149, 150, -1,
      129, 150, 128, -1,
      128, 150, 151, -1,
      128, 151, 144, -1,
      144, 151, 152, -1,
      144, 152, 143, -1,
      143, 152, 153, -1,
      143, 153, 142, -1,
      142, 153, 154, -1,
      142, 154, 141, -1,
      141, 154, 155, -1,
      141, 155, 140, -1,
      140, 155, 156, -1,
      140, 156, 139, -1,
      139, 156, 157, -1,
      139, 157, 138, -1,
      138, 157, 158, -1,
      138, 158, 137, -1,
      137, 158, 159, -1,
      137, 159, 136, -1,
      136, 159, 160, -1,
      136, 160, 135, -1,
      134, 135, 161, -1,
      161, 135, 160, -1,
      133, 134, 146, -1,
      146, 134, 161, -1,
      162, 163, 66, -1,
      66, 163, 67, -1,
      163, 164, 67, -1,
      67, 164, 48, -1,
      164, 165, 48, -1,
      48, 165, 49, -1,
      165, 166, 49, -1,
      49, 166, 56, -1,
      166, 167, 56, -1,
      56, 167, 53, -1,
      167, 168, 53, -1,
      53, 168, 54, -1,
      168, 169, 54, -1,
      54, 169, 55, -1,
      169, 170, 55, -1,
      55, 170, 58, -1,
      170, 171, 58, -1,
      58, 171, 60, -1,
      171, 172, 60, -1,
      60, 172, 64, -1,
      172, 173, 64, -1,
      64, 173, 65, -1,
      173, 162, 65, -1,
      65, 162, 66, -1,
      164, 163, 162, -1,
      162, 173, 164, -1,
      164, 173, 172, -1,
      164, 172, 165, -1,
      167, 166, 168, -1,
      168, 166, 165, -1,
      168, 165, 169, -1,
      169, 165, 172, -1,
      169, 172, 170, -1,
      170, 172, 171, -1,
      174, 175, 23, -1,
      23, 175, 46, -1,
      46, 175, 176, -1,
      177, 47, 43, -1,
      177, 43, 178, -1,
      178, 43, 44, -1,
      178, 44, 176, -1,
      176, 44, 45, -1,
      176, 45, 46, -1,
      179, 39, 38, -1,
      179, 38, 180, -1,
      180, 38, 31, -1,
      180, 31, 181, -1,
      181, 31, 29, -1,
      181, 29, 182, -1,
      182, 29, 28, -1,
      182, 28, 183, -1,
      183, 28, 8, -1,
      183, 8, 184, -1,
      184, 8, 7, -1,
      184, 7, 185, -1,
      185, 7, 177, -1,
      177, 7, 5, -1,
      177, 5, 47, -1,
      186, 41, 37, -1,
      186, 37, 187, -1,
      187, 37, 36, -1,
      187, 36, 188, -1,
      188, 36, 35, -1,
      188, 35, 189, -1,
      189, 35, 34, -1,
      189, 34, 190, -1,
      190, 34, 33, -1,
      190, 33, 191, -1,
      191, 33, 40, -1,
      191, 40, 192, -1,
      192, 40, 39, -1,
      192, 39, 179, -1,
      193, 25, 42, -1,
      193, 42, 194, -1,
      194, 42, 41, -1,
      194, 41, 186, -1,
      193, 195, 25, -1,
      25, 195, 24, -1,
      196, 0, 22, -1,
      196, 22, 197, -1,
      197, 22, 24, -1,
      197, 24, 195, -1,
      198, 13, 27, -1,
      198, 27, 199, -1,
      199, 27, 26, -1,
      199, 26, 200, -1,
      200, 26, 12, -1,
      200, 12, 201, -1,
      201, 12, 11, -1,
      201, 11, 202, -1,
      202, 11, 10, -1,
      202, 10, 203, -1,
      203, 10, 1, -1,
      203, 1, 204, -1,
      204, 1, 0, -1,
      204, 0, 196, -1,
      205, 17, 16, -1,
      205, 16, 206, -1,
      206, 16, 18, -1,
      206, 18, 207, -1,
      207, 18, 19, -1,
      207, 19, 208, -1,
      208, 19, 20, -1,
      208, 20, 209, -1,
      209, 20, 15, -1,
      209, 15, 210, -1,
      210, 15, 14, -1,
      210, 14, 211, -1,
      211, 14, 13, -1,
      211, 13, 198, -1,
      174, 23, 2, -1,
      174, 2, 212, -1,
      212, 2, 21, -1,
      212, 21, 213, -1,
      213, 21, 17, -1,
      213, 17, 205, -1,
      206, 177, 205, -1,
      205, 177, 178, -1,
      205, 178, 213, -1,
      213, 178, 176, -1,
      213, 176, 212, -1,
      212, 176, 175, -1,
      212, 175, 174, -1,
      195, 193, 197, -1,
      197, 193, 194, -1,
      197, 194, 196, -1,
      196, 194, 186, -1,
      196, 186, 204, -1,
      204, 186, 187, -1,
      204, 187, 203, -1,
      203, 187, 188, -1,
      203, 188, 202, -1,
      202, 188, 189, -1,
      202, 189, 201, -1,
      201, 189, 190, -1,
      201, 190, 200, -1,
      200, 190, 191, -1,
      200, 191, 199, -1,
      199, 191, 192, -1,
      199, 192, 198, -1,
      198, 192, 179, -1,
      198, 179, 211, -1,
      211, 179, 180, -1,
      211, 180, 210, -1,
      210, 180, 181, -1,
      210, 181, 209, -1,
      209, 181, 182, -1,
      209, 182, 208, -1,
      208, 182, 183, -1,
      208, 183, 207, -1,
      207, 183, 184, -1,
      207, 184, 206, -1,
      206, 184, 185, -1,
      206, 185, 177, -1,
      214, 215, 30, -1,
      30, 215, 6, -1,
      215, 216, 6, -1,
      6, 216, 4, -1,
      216, 217, 4, -1,
      4, 217, 3, -1,
      217, 218, 3, -1,
      3, 218, 9, -1,
      218, 219, 9, -1,
      9, 219, 32, -1,
      219, 214, 32, -1,
      32, 214, 30, -1,
      218, 217, 219, -1,
      219, 217, 216, -1,
      219, 216, 214, -1,
      214, 216, 215, -1,
    ]
  }
}

Shape {
  appearance Appearance {
    material Material {
      diffuseColor 0.8549 0.8549 0.8549
      specularColor 0.4275 0.4275 0.4275
      ambientIntensity 0.2
      transparency 0.0000
      shininess 0.5
    }
  }
  geometry IndexedFaceSet {
    ccw TRUE
    solid FALSE
    coord DEF co Coordinate {
      point [
        -0.085578 -0.006742 0.000000,
        -0.105327 -0.006742 0.000000,
        -0.094389 0.017925 0.000000,
        -0.094957 0.019973 0.000000,
        -0.095335 0.022066 0.000000,
        -0.095526 0.022066 0.000000,
        -0.095911 0.019979 0.000000,
        -0.096437 0.017925 0.000000,
        -0.034085 0.022786 0.000000,
        -0.025375 0.022786 0.000000,
        -0.041075 0.022043 0.000000,
        -0.045949 0.020337 0.000000,
        -0.050263 0.017550 0.000000,
        -0.053131 0.014505 0.000000,
        -0.055183 0.010862 0.000000,
        -0.056562 0.006191 0.000000,
        -0.057063 0.000314 0.000000,
        -0.056521 -0.005889 0.000000,
        -0.054789 -0.011440 0.000000,
        -0.052298 -0.015512 0.000000,
        -0.048986 -0.018783 0.000000,
        -0.044959 -0.021175 0.000000,
        -0.039989 -0.022726 0.000000,
        -0.033759 -0.023306 0.000000,
        -0.025375 -0.023306 0.000000,
        -0.590551 -0.043307 0.078740,
        -0.590551 0.043307 0.078740,
        -0.590551 -0.043307 0.000000,
        -0.590551 0.043307 0.000000,
        -0.436530 -0.043307 0.078740,
        -0.436530 -0.043307 0.000000,
        -0.436530 0.043307 0.078740,
        -0.436530 0.043307 0.000000,
        -0.590551 -0.240157 0.078740,
        -0.590551 -0.153543 0.078740,
        -0.590551 -0.240157 0.000000,
        -0.590551 -0.153543 0.000000,
        -0.436530 -0.240157 0.078740,
        -0.436530 -0.240157 0.000000,
        -0.436530 -0.153543 0.078740,
        -0.436530 -0.153543 0.000000,
      ]
    }
    coordIndex [
      0, 1, 2, -1,
      2, 1, 7, -1,
      2, 7, 3, -1,
      3, 7, 6, -1,
      3, 6, 4, -1,
      4, 6, 5, -1,
      9, 24, 8, -1,
      8, 24, 23, -1,
      8, 23, 22, -1,
      16, 15, 8, -1,
      8, 15, 14, -1,
      8, 14, 10, -1,
      22, 21, 8, -1,
      8, 21, 20, -1,
      8, 20, 19, -1,
      19, 18, 8, -1,
      8, 18, 17, -1,
      8, 17, 16, -1,
      13, 12, 14, -1,
      14, 12, 11, -1,
      14, 11, 10, -1,
      25, 26, 27, -1,
      27, 26, 28, -1,
      29, 25, 30, -1,
      30, 25, 27, -1,
      31, 29, 32, -1,
      32, 29, 30, -1,
      26, 31, 28, -1,
      28, 31, 32, -1,
      29, 31, 25, -1,
      25, 31, 26, -1,
      32, 30, 28, -1,
      28, 30, 27, -1,
      33, 34, 35, -1,
      35, 34, 36, -1,
      37, 33, 38, -1,
      38, 33, 35, -1,
      39, 37, 40, -1,
      40, 37, 38, -1,
      34, 39, 36, -1,
      36, 39, 40, -1,
      37, 39, 33, -1,
      33, 39, 34, -1,
      40, 38, 36, -1,
      36, 38, 35, -1,
    ]
  }
}
