#VRML V2.0 utf8

Shape {
  appearance Appearance {
    material Material {
      diffuseColor 0.7529 0.7529 0.7529
      specularColor 0.3765 0.3765 0.3765
      ambientIntensity 0.2
      transparency 0.0000
      shininess 0.5
    }
  }
  geometry IndexedFaceSet {
    ccw TRUE
    solid FALSE
    coord DEF co Coordinate {
      point [
        -1.633858 2.992126 2.007874,
        -1.948819 2.992126 2.007874,
        -1.633858 2.992126 2.086614,
        -1.948819 2.992126 2.401575,
        -1.257054 2.992126 2.086614,
        -1.257054 2.992126 2.401575,
        -0.784613 2.992126 2.401575,
        0.784613 2.992126 2.401575,
        -0.784613 2.992126 2.086614,
        0.784613 2.992126 2.086614,
        0.335798 0.718252 0.000000,
        0.363913 0.723299 0.000000,
        0.236220 0.551181 0.000000,
        0.164500 0.800825 0.000000,
        0.240009 0.738696 0.000000,
        0.124120 0.723299 0.000000,
        0.284806 0.723485 0.000000,
        0.286093 0.723299 0.000000,
        0.164500 1.049806 0.000000,
        0.195416 1.026146 0.000000,
        0.195416 0.824248 0.000000,
        0.780289 0.728346 0.000000,
        0.780289 1.122047 0.000000,
        1.948819 2.992126 0.000000,
        0.124120 2.992126 0.000000,
        0.744957 1.122047 0.000000,
        0.744957 0.768726 0.000000,
        0.593533 0.768726 0.000000,
        0.425759 1.070177 0.000000,
        0.486741 1.015193 0.000000,
        0.338480 1.091763 0.000000,
        0.512140 0.940670 0.000000,
        0.512774 0.924802 0.000000,
        0.492382 0.843670 0.000000,
        0.438100 0.786785 0.000000,
        0.360830 0.759922 0.000000,
        0.258235 0.775312 0.000000,
        0.259234 1.075551 0.000000,
        0.336035 0.758631 0.000000,
        0.296388 1.087554 0.000000,
        0.322193 1.091140 0.000000,
        0.548106 0.927484 0.000000,
        0.522753 1.028074 0.000000,
        0.455417 1.099055 0.000000,
        0.353681 1.131524 0.000000,
        0.336271 1.132142 0.000000,
        0.240196 1.111915 0.000000,
        0.199874 1.086985 0.000000,
        0.176891 1.065239 0.000000,
        1.948819 0.723299 0.000000,
        0.593533 0.728346 0.000000,
        0.424971 0.734261 0.000000,
        0.463285 0.755197 0.000000,
        0.485706 0.773818 0.000000,
        0.498184 0.787102 0.000000,
        0.536113 0.852631 0.000000,
        1.948819 -1.535433 0.000000,
        1.555118 -1.535433 0.000000,
        1.555118 0.236220 0.000000,
        0.316064 0.718973 0.000000,
        1.220472 0.236220 0.000000,
        1.220472 0.551181 0.000000,
        0.748031 0.551181 0.000000,
        0.748031 0.236220 0.000000,
        0.236220 0.236220 0.000000,
        -0.236220 0.236220 0.000000,
        -0.748031 0.236220 0.000000,
        -0.236220 0.551181 0.000000,
        -0.748031 0.551181 0.000000,
        0.124120 0.551181 0.000000,
        -1.948819 0.723299 0.000000,
        -1.220472 0.551181 0.000000,
        -1.555118 -1.535433 0.000000,
        -1.948819 -1.535433 0.000000,
        -1.555118 0.236220 0.000000,
        -1.220472 0.236220 0.000000,
        -0.138346 1.081668 0.000000,
        0.048409 1.081668 0.000000,
        0.048409 0.960529 0.000000,
        -0.138346 0.960529 0.000000,
        -0.138346 0.920149 0.000000,
        -0.209011 0.728346 0.000000,
        -0.138346 0.728346 0.000000,
        0.083741 0.728346 0.000000,
        0.083741 1.122047 0.000000,
        -0.138346 1.122047 0.000000,
        0.048409 0.920149 0.000000,
        0.048409 0.768726 0.000000,
        -0.138346 0.768726 0.000000,
        -0.413432 1.107851 0.000000,
        -0.484384 1.060115 0.000000,
        -0.769277 1.122047 0.000000,
        -0.524652 0.982168 0.000000,
        -0.532047 0.920228 0.000000,
        -0.582522 0.728346 0.000000,
        -0.509839 0.821199 0.000000,
        -0.452804 0.755895 0.000000,
        -0.209011 1.122047 0.000000,
        -0.288508 1.122047 0.000000,
        -0.351574 1.119639 0.000000,
        -1.948819 2.992126 0.000000,
        -0.774325 1.122047 0.000000,
        -0.956033 0.728346 0.000000,
        -0.917625 0.728346 0.000000,
        -0.859422 0.854533 0.000000,
        -0.680947 0.854533 0.000000,
        -0.621087 0.728346 0.000000,
        -0.331017 0.728346 0.000000,
        -0.373542 0.730523 0.000000,
        1.712598 2.992126 1.614173,
        1.948819 2.992126 1.614173,
        1.712598 2.992126 0.236220,
        -1.712598 2.992126 0.236220,
        -1.712598 2.992126 1.614173,
        -1.948819 2.992126 1.614173,
        -0.236220 0.236220 2.401575,
        -0.748031 0.236220 2.401575,
        0.236220 0.236220 2.401575,
        0.748031 0.236220 2.401575,
        -1.555118 0.236220 1.834920,
        -1.220472 0.236220 2.401575,
        -1.948819 0.236220 1.834920,
        -1.948819 0.236220 2.401575,
        -1.948819 -1.535433 1.038974,
        -1.555118 -1.535433 1.038974,
        1.948819 -1.535433 1.038974,
        1.948819 0.236220 1.834920,
        1.948819 1.885044 1.614173,
        1.948819 1.885044 1.692913,
        1.948819 0.236220 2.401575,
        1.948819 1.909019 1.813444,
        1.948819 1.977294 1.915624,
        1.948819 2.079475 1.983899,
        1.948819 2.200005 2.007874,
        1.948819 2.992126 2.401575,
        1.948819 2.992126 2.007874,
        1.257054 2.992126 2.086614,
        1.257054 2.992126 2.401575,
        1.633858 2.992126 2.086614,
        1.633858 2.992126 2.007874,
        -1.948819 1.885044 1.614173,
        -1.948819 2.079475 1.983899,
        -1.948819 2.200005 2.007874,
        -1.948819 1.977294 1.915624,
        -1.948819 1.909019 1.813444,
        -1.948819 1.885044 1.692913,
        1.555118 -1.535433 1.038974,
        -0.748031 0.551181 2.401575,
        1.123644 1.839098 2.401575,
        1.056461 1.796884 2.401575,
        0.981569 1.770678 2.401575,
        0.902723 1.761794 2.401575,
        0.784613 1.761794 2.401575,
        -0.784613 1.761794 2.401575,
        -1.257054 2.684145 2.401575,
        -1.117452 2.823747 2.401575,
        -1.117452 2.936313 2.401575,
        0.236220 0.551181 2.401575,
        0.748031 0.551181 2.401575,
        -1.248170 2.037279 2.401575,
        -1.220472 0.551181 2.401575,
        1.220472 0.236220 2.401575,
        1.220472 0.551181 2.401575,
        -1.056461 1.796884 2.401575,
        -1.123644 1.839098 2.401575,
        -1.257054 2.116125 2.401575,
        -0.902723 1.761794 2.401575,
        -0.981569 1.770678 2.401575,
        -1.179750 1.895204 2.401575,
        -1.221964 1.962387 2.401575,
        1.117452 2.936313 2.401575,
        1.117452 2.823747 2.401575,
        1.257054 2.684145 2.401575,
        1.257054 2.116125 2.401575,
        1.248170 2.037279 2.401575,
        1.221964 1.962387 2.401575,
        1.179750 1.895204 2.401575,
        -0.236220 0.551181 2.401575,
        1.555118 0.236220 1.834920,
        -0.858268 0.551181 1.329638,
        -0.858268 0.551181 1.077670,
        -1.110236 0.551181 1.329638,
        -1.110236 0.551181 1.077670,
        1.110236 0.551181 1.329638,
        1.110236 0.551181 1.077670,
        0.858268 0.551181 1.329638,
        0.858268 0.551181 1.077670,
        0.125984 0.551181 1.329638,
        0.125984 0.551181 1.077670,
        -0.125984 0.551181 1.077670,
        -0.125984 0.551181 1.329638,
        1.633858 2.129920 1.999977,
        1.633858 2.063349 1.976683,
        1.633858 1.023622 2.086614,
        1.633858 2.003630 1.939159,
        1.633858 1.953759 1.889288,
        1.633858 1.916235 1.829570,
        1.633858 2.200005 2.007874,
        1.633858 2.913386 1.614173,
        1.633858 2.913386 0.314961,
        1.633858 1.885044 1.614173,
        1.633858 1.023622 0.314961,
        1.633858 1.885044 1.692913,
        1.633858 1.892941 1.762999,
        -1.117452 2.936313 2.086614,
        -1.117452 2.823747 2.086614,
        -1.257054 2.684145 2.086614,
        1.257054 2.684145 2.086614,
        1.117452 2.823747 2.086614,
        1.117452 2.936313 2.086614,
        -1.257054 2.116125 2.086614,
        -1.633858 1.023622 2.086614,
        -1.248170 2.037279 2.086614,
        -1.221964 1.962387 2.086614,
        -1.179750 1.895204 2.086614,
        -1.123644 1.839098 2.086614,
        -1.056461 1.796884 2.086614,
        -0.981569 1.770678 2.086614,
        -0.902723 1.761794 2.086614,
        -0.784613 1.761794 2.086614,
        0.981569 1.770678 2.086614,
        1.056461 1.796884 2.086614,
        1.123644 1.839098 2.086614,
        1.179750 1.895204 2.086614,
        1.257054 2.116125 2.086614,
        1.221964 1.962387 2.086614,
        1.248170 2.037279 2.086614,
        0.784613 1.761794 2.086614,
        0.902723 1.761794 2.086614,
        -1.633858 1.892941 1.762999,
        -1.633858 1.916235 1.829570,
        -1.633858 1.953759 1.889288,
        -1.633858 2.003630 1.939159,
        -1.633858 2.063349 1.976683,
        -1.633858 2.913386 0.314961,
        -1.633858 2.913386 1.614173,
        -1.633858 1.023622 0.314961,
        -1.633858 1.885044 1.614173,
        -1.633858 1.885044 1.692913,
        -1.633858 2.200005 2.007874,
        -1.633858 2.129920 1.999977,
        0.858268 1.023622 1.077670,
        1.110236 1.023622 1.077670,
        0.125984 1.023622 1.329638,
        -0.125984 1.023622 1.329638,
        1.110236 1.023622 1.329638,
        0.858268 1.023622 1.329638,
        0.125984 1.023622 1.077670,
        -0.125984 1.023622 1.077670,
        -0.858268 1.023622 1.077670,
        -0.858268 1.023622 1.329638,
        -1.110236 1.023622 1.329638,
        -1.110236 1.023622 1.077670,
        -1.633858 1.909019 1.813444,
        -1.633858 1.977294 1.915624,
        -1.633858 2.079475 1.983899,
        1.633858 1.909019 1.813444,
        1.633858 1.977294 1.915624,
        1.633858 2.079475 1.983899,
      ]
    }
    coordIndex [
      0, 1, 2, -1,
      2, 1, 3, -1,
      2, 3, 4, -1,
      4, 3, 5, -1,
      6, 7, 8, -1,
      8, 7, 9, -1,
      10, 11, 12, -1,
      13, 14, 15, -1,
      15, 14, 16, -1,
      15, 16, 17, -1,
      18, 19, 20, -1,
      21, 22, 23, -1,
      23, 22, 24, -1,
      22, 25, 24, -1,
      24, 25, 26, -1,
      24, 26, 27, -1,
      28, 29, 30, -1,
      30, 29, 31, -1,
      30, 31, 32, -1,
      32, 33, 30, -1,
      30, 33, 34, -1,
      30, 34, 35, -1,
      20, 19, 36, -1,
      36, 19, 37, -1,
      36, 37, 38, -1,
      38, 37, 39, -1,
      38, 39, 35, -1,
      35, 39, 40, -1,
      35, 40, 30, -1,
      27, 41, 24, -1,
      24, 41, 42, -1,
      24, 42, 43, -1,
      43, 44, 24, -1,
      24, 44, 45, -1,
      24, 45, 46, -1,
      46, 47, 24, -1,
      24, 47, 48, -1,
      24, 48, 18, -1,
      23, 49, 21, -1,
      21, 49, 11, -1,
      21, 11, 50, -1,
      50, 11, 51, -1,
      50, 51, 52, -1,
      52, 53, 50, -1,
      50, 53, 54, -1,
      50, 54, 27, -1,
      27, 54, 55, -1,
      27, 55, 41, -1,
      56, 57, 49, -1,
      49, 57, 58, -1,
      10, 12, 59, -1,
      58, 60, 49, -1,
      49, 60, 61, -1,
      49, 61, 11, -1,
      11, 61, 62, -1,
      11, 62, 12, -1,
      12, 62, 63, -1,
      12, 63, 64, -1,
      65, 66, 67, -1,
      67, 66, 68, -1,
      59, 12, 17, -1,
      17, 12, 69, -1,
      17, 69, 15, -1,
      15, 69, 67, -1,
      15, 67, 70, -1,
      70, 67, 68, -1,
      70, 68, 71, -1,
      72, 73, 74, -1,
      74, 73, 70, -1,
      74, 70, 75, -1,
      75, 70, 71, -1,
      76, 77, 78, -1,
      79, 80, 81, -1,
      70, 82, 15, -1,
      15, 82, 83, -1,
      15, 83, 84, -1,
      20, 13, 18, -1,
      18, 13, 15, -1,
      18, 15, 24, -1,
      24, 15, 84, -1,
      24, 84, 85, -1,
      86, 87, 80, -1,
      80, 87, 88, -1,
      80, 88, 81, -1,
      89, 90, 91, -1,
      90, 92, 91, -1,
      91, 92, 93, -1,
      91, 93, 94, -1,
      94, 93, 95, -1,
      94, 95, 96, -1,
      78, 79, 76, -1,
      76, 79, 81, -1,
      76, 81, 85, -1,
      85, 81, 97, -1,
      85, 97, 24, -1,
      24, 97, 98, -1,
      24, 98, 99, -1,
      99, 89, 24, -1,
      24, 89, 91, -1,
      24, 91, 100, -1,
      100, 91, 101, -1,
      100, 101, 70, -1,
      70, 101, 102, -1,
      70, 102, 103, -1,
      104, 105, 103, -1,
      103, 105, 106, -1,
      103, 106, 70, -1,
      70, 106, 94, -1,
      88, 82, 81, -1,
      81, 82, 70, -1,
      81, 70, 107, -1,
      107, 70, 94, -1,
      107, 94, 108, -1,
      108, 94, 96, -1,
      109, 110, 111, -1,
      111, 110, 23, -1,
      111, 23, 112, -1,
      112, 23, 100, -1,
      112, 100, 113, -1,
      113, 100, 114, -1,
      115, 116, 65, -1,
      65, 116, 66, -1,
      64, 63, 117, -1,
      117, 63, 118, -1,
      74, 75, 119, -1,
      119, 75, 120, -1,
      119, 120, 121, -1,
      121, 120, 122, -1,
      123, 73, 124, -1,
      124, 73, 72, -1,
      125, 56, 126, -1,
      126, 56, 49, -1,
      23, 110, 49, -1,
      49, 110, 127, -1,
      49, 127, 126, -1,
      126, 127, 128, -1,
      126, 128, 129, -1,
      129, 128, 130, -1,
      129, 130, 131, -1,
      131, 132, 129, -1,
      129, 132, 133, -1,
      129, 133, 134, -1,
      134, 133, 135, -1,
      136, 137, 138, -1,
      138, 137, 134, -1,
      138, 134, 139, -1,
      139, 134, 135, -1,
      114, 100, 140, -1,
      140, 100, 70, -1,
      140, 70, 121, -1,
      121, 70, 73, -1,
      121, 73, 123, -1,
      141, 122, 142, -1,
      142, 122, 3, -1,
      142, 3, 1, -1,
      141, 143, 122, -1,
      122, 143, 144, -1,
      122, 144, 121, -1,
      121, 144, 145, -1,
      121, 145, 140, -1,
      146, 57, 125, -1,
      125, 57, 56, -1,
      147, 148, 149, -1,
      149, 150, 147, -1,
      147, 150, 151, -1,
      147, 151, 152, -1,
      6, 153, 7, -1,
      7, 153, 152, -1,
      154, 155, 156, -1,
      117, 118, 157, -1,
      157, 118, 158, -1,
      159, 3, 160, -1,
      160, 3, 122, -1,
      160, 122, 120, -1,
      161, 129, 162, -1,
      162, 129, 134, -1,
      163, 164, 160, -1,
      156, 5, 154, -1,
      154, 5, 3, -1,
      154, 3, 165, -1,
      165, 3, 159, -1,
      152, 153, 147, -1,
      147, 153, 166, -1,
      147, 166, 160, -1,
      160, 166, 167, -1,
      160, 167, 163, -1,
      164, 168, 160, -1,
      160, 168, 169, -1,
      160, 169, 159, -1,
      170, 171, 137, -1,
      137, 171, 172, -1,
      137, 172, 134, -1,
      172, 173, 134, -1,
      134, 173, 174, -1,
      134, 174, 162, -1,
      162, 174, 175, -1,
      162, 175, 176, -1,
      116, 115, 147, -1,
      147, 115, 177, -1,
      147, 177, 148, -1,
      148, 177, 157, -1,
      148, 157, 176, -1,
      176, 157, 158, -1,
      176, 158, 162, -1,
      124, 72, 119, -1,
      119, 72, 74, -1,
      126, 129, 178, -1,
      178, 129, 161, -1,
      178, 161, 58, -1,
      58, 161, 60, -1,
      178, 58, 146, -1,
      146, 58, 57, -1,
      126, 178, 125, -1,
      125, 178, 146, -1,
      123, 124, 121, -1,
      121, 124, 119, -1,
      75, 71, 120, -1,
      120, 71, 160, -1,
      147, 179, 180, -1,
      179, 147, 181, -1,
      181, 147, 160, -1,
      181, 160, 182, -1,
      182, 160, 71, -1,
      182, 71, 180, -1,
      180, 71, 68, -1,
      180, 68, 147, -1,
      68, 66, 147, -1,
      147, 66, 116, -1,
      63, 62, 118, -1,
      118, 62, 158, -1,
      162, 183, 184, -1,
      183, 162, 185, -1,
      185, 162, 158, -1,
      185, 158, 186, -1,
      186, 158, 62, -1,
      186, 62, 184, -1,
      184, 62, 61, -1,
      184, 61, 162, -1,
      61, 60, 162, -1,
      162, 60, 161, -1,
      65, 67, 115, -1,
      115, 67, 177, -1,
      157, 187, 188, -1,
      189, 69, 188, -1,
      188, 69, 12, -1,
      188, 12, 157, -1,
      187, 157, 190, -1,
      190, 157, 177, -1,
      190, 177, 189, -1,
      189, 177, 67, -1,
      189, 67, 69, -1,
      12, 64, 157, -1,
      157, 64, 117, -1,
      191, 192, 193, -1,
      192, 194, 193, -1,
      193, 194, 195, -1,
      193, 195, 196, -1,
      191, 193, 197, -1,
      197, 193, 138, -1,
      197, 138, 139, -1,
      198, 199, 200, -1,
      200, 199, 201, -1,
      200, 201, 202, -1,
      202, 201, 193, -1,
      202, 193, 203, -1,
      203, 193, 196, -1,
      204, 205, 4, -1,
      4, 205, 206, -1,
      207, 208, 209, -1,
      210, 211, 206, -1,
      206, 211, 2, -1,
      206, 2, 4, -1,
      210, 212, 211, -1,
      211, 212, 213, -1,
      211, 213, 214, -1,
      214, 215, 211, -1,
      211, 215, 216, -1,
      211, 216, 217, -1,
      217, 218, 211, -1,
      211, 218, 219, -1,
      211, 219, 193, -1,
      220, 221, 193, -1,
      193, 221, 222, -1,
      193, 222, 223, -1,
      209, 136, 207, -1,
      207, 136, 138, -1,
      207, 138, 224, -1,
      224, 138, 193, -1,
      223, 225, 193, -1,
      193, 225, 226, -1,
      193, 226, 224, -1,
      8, 9, 219, -1,
      219, 9, 227, -1,
      219, 227, 193, -1,
      193, 227, 228, -1,
      193, 228, 220, -1,
      211, 229, 230, -1,
      230, 231, 211, -1,
      211, 231, 232, -1,
      211, 232, 233, -1,
      234, 235, 236, -1,
      236, 235, 237, -1,
      236, 237, 211, -1,
      211, 237, 238, -1,
      211, 238, 229, -1,
      0, 2, 239, -1,
      239, 2, 211, -1,
      239, 211, 240, -1,
      240, 211, 233, -1,
      234, 236, 199, -1,
      199, 236, 201, -1,
      241, 242, 201, -1,
      201, 242, 193, -1,
      211, 243, 244, -1,
      242, 245, 193, -1,
      193, 245, 246, -1,
      193, 246, 211, -1,
      211, 246, 241, -1,
      211, 241, 243, -1,
      243, 241, 201, -1,
      243, 201, 247, -1,
      247, 201, 248, -1,
      201, 236, 248, -1,
      248, 236, 249, -1,
      248, 249, 244, -1,
      244, 249, 250, -1,
      244, 250, 211, -1,
      211, 250, 251, -1,
      211, 251, 236, -1,
      236, 251, 252, -1,
      236, 252, 249, -1,
      145, 238, 140, -1,
      140, 238, 237, -1,
      238, 145, 253, -1,
      253, 145, 144, -1,
      253, 144, 254, -1,
      254, 144, 143, -1,
      254, 143, 255, -1,
      255, 143, 141, -1,
      255, 141, 239, -1,
      239, 141, 142, -1,
      1, 0, 142, -1,
      142, 0, 239, -1,
      113, 114, 235, -1,
      235, 114, 140, -1,
      235, 140, 237, -1,
      198, 200, 109, -1,
      109, 200, 127, -1,
      109, 127, 110, -1,
      133, 197, 135, -1,
      135, 197, 139, -1,
      128, 202, 130, -1,
      130, 202, 256, -1,
      130, 256, 131, -1,
      131, 256, 257, -1,
      131, 257, 132, -1,
      132, 257, 258, -1,
      132, 258, 133, -1,
      133, 258, 197, -1,
      127, 200, 128, -1,
      128, 200, 202, -1,
    ]
  }
}

Shape {
  appearance Appearance {
    material Material {
      diffuseColor 0.7961 0.8235 0.9373
      specularColor 0.3961 0.4118 0.4667
      ambientIntensity 0.2
      transparency 0.0000
      shininess 0.5
    }
  }
  geometry IndexedFaceSet {
    ccw TRUE
    solid FALSE
    coord DEF co Coordinate {
      point [
        -0.858268 0.551181 1.329638,
        -0.858268 0.551181 1.077670,
        -1.110236 0.551181 1.329638,
        -1.110236 0.551181 1.077670,
        1.110236 0.551181 1.329638,
        1.110236 0.551181 1.077670,
        0.858268 0.551181 1.329638,
        0.858268 0.551181 1.077670,
        0.125984 0.551181 1.329638,
        0.125984 0.551181 1.077670,
        -0.125984 0.551181 1.077670,
        -0.125984 0.551181 1.329638,
        0.858268 1.023622 1.077670,
        1.110236 1.023622 1.077670,
        0.125984 1.023622 1.329638,
        -0.125984 1.023622 1.329638,
        1.110236 1.023622 1.329638,
        0.858268 1.023622 1.329638,
        0.125984 1.023622 1.077670,
        -0.125984 1.023622 1.077670,
        -0.858268 1.023622 1.077670,
        -0.858268 1.023622 1.329638,
        -1.110236 1.023622 1.329638,
        -1.110236 1.023622 1.077670,
        -1.031496 2.800683 1.156410,
        -1.031496 2.800683 1.250898,
        -0.937008 2.800683 1.156410,
        -0.937008 2.800683 1.250898,
        -0.858268 2.721943 1.329638,
        -0.858268 2.721943 1.077670,
        -1.110236 2.721943 1.077670,
        -1.110236 2.721943 1.329638,
        -1.110236 0.188976 1.329638,
        -0.858268 0.188976 1.329638,
        -0.858268 0.283465 1.077670,
        -1.110236 0.283465 1.077670,
        -0.858268 0.223200 1.065682,
        -0.858268 0.068446 1.305663,
        -0.858268 0.172109 1.031545,
        -0.858268 -0.033734 1.237389,
        -0.858268 0.137972 0.980454,
        -0.858268 -0.102009 1.135208,
        -0.858268 0.125984 0.920189,
        -0.858268 -0.125984 1.014678,
        -0.858268 0.125984 -1.259843,
        -0.858268 -0.125984 -1.259843,
        -1.110236 0.125984 -1.259843,
        -1.110236 -0.125984 -1.259843,
        -1.110236 0.125984 0.920189,
        -1.110236 -0.125984 1.014678,
        -1.110236 0.137972 0.980454,
        -1.110236 -0.102009 1.135208,
        -1.110236 0.172109 1.031545,
        -1.110236 -0.033734 1.237389,
        -1.110236 0.223200 1.065682,
        -1.110236 0.068446 1.305663,
        -1.031496 -0.047244 -1.338583,
        -1.031496 0.047244 -1.338583,
        -0.937008 -0.047244 -1.338583,
        -0.937008 0.047244 -1.338583,
        -0.047244 2.800683 1.156410,
        -0.047244 2.800683 1.250898,
        0.047244 2.800683 1.156410,
        0.047244 2.800683 1.250898,
        0.125984 2.721943 1.329638,
        0.125984 2.721943 1.077670,
        -0.125984 2.721943 1.077670,
        -0.125984 2.721943 1.329638,
        -0.125984 0.188976 1.329638,
        0.125984 0.188976 1.329638,
        0.125984 0.283465 1.077670,
        -0.125984 0.283465 1.077670,
        0.125984 0.223200 1.065682,
        0.125984 0.068446 1.305663,
        0.125984 0.172109 1.031545,
        0.125984 -0.033734 1.237389,
        0.125984 0.137972 0.980454,
        0.125984 -0.102009 1.135208,
        0.125984 0.125984 0.920189,
        0.125984 -0.125984 1.014678,
        0.125984 0.125984 -1.259843,
        0.125984 -0.125984 -1.259843,
        -0.125984 0.125984 -1.259843,
        -0.125984 -0.125984 -1.259843,
        -0.125984 0.125984 0.920189,
        -0.125984 -0.125984 1.014678,
        -0.125984 0.137972 0.980454,
        -0.125984 -0.102009 1.135208,
        -0.125984 0.172109 1.031545,
        -0.125984 -0.033734 1.237389,
        -0.125984 0.223200 1.065682,
        -0.125984 0.068446 1.305663,
        -0.047244 -0.047244 -1.338583,
        -0.047244 0.047244 -1.338583,
        0.047244 -0.047244 -1.338583,
        0.047244 0.047244 -1.338583,
        0.937008 2.800683 1.156410,
        0.937008 2.800683 1.250898,
        1.031496 2.800683 1.156410,
        1.031496 2.800683 1.250898,
        1.110236 2.721943 1.329638,
        1.110236 2.721943 1.077670,
        0.858268 2.721943 1.077670,
        0.858268 2.721943 1.329638,
        0.858268 0.188976 1.329638,
        1.110236 0.188976 1.329638,
        1.110236 0.283465 1.077670,
        0.858268 0.283465 1.077670,
        1.110236 0.223200 1.065682,
        1.110236 0.068446 1.305663,
        1.110236 0.172109 1.031545,
        1.110236 -0.033734 1.237389,
        1.110236 0.137972 0.980454,
        1.110236 -0.102009 1.135208,
        1.110236 0.125984 0.920189,
        1.110236 -0.125984 1.014678,
        1.110236 0.125984 -1.259843,
        1.110236 -0.125984 -1.259843,
        0.858268 0.125984 -1.259843,
        0.858268 -0.125984 -1.259843,
        0.858268 0.125984 0.920189,
        0.858268 -0.125984 1.014678,
        0.858268 0.137972 0.980454,
        0.858268 -0.102009 1.135208,
        0.858268 0.172109 1.031545,
        0.858268 -0.033734 1.237389,
        0.858268 0.223200 1.065682,
        0.858268 0.068446 1.305663,
        0.937008 -0.047244 -1.338583,
        0.937008 0.047244 -1.338583,
        1.031496 -0.047244 -1.338583,
        1.031496 0.047244 -1.338583,
      ]
    }
    coordIndex [
      24, 25, 26, -1,
      26, 25, 27, -1,
      28, 21, 29, -1,
      29, 21, 20, -1,
      30, 23, 31, -1,
      31, 23, 22, -1,
      29, 20, 30, -1,
      30, 20, 23, -1,
      31, 22, 28, -1,
      28, 22, 21, -1,
      2, 32, 0, -1,
      0, 32, 33, -1,
      1, 34, 3, -1,
      3, 34, 35, -1,
      1, 0, 34, -1,
      34, 0, 33, -1,
      34, 33, 36, -1,
      36, 33, 37, -1,
      36, 37, 38, -1,
      38, 37, 39, -1,
      38, 39, 40, -1,
      40, 39, 41, -1,
      40, 41, 42, -1,
      42, 41, 43, -1,
      42, 43, 44, -1,
      44, 43, 45, -1,
      46, 47, 48, -1,
      48, 47, 49, -1,
      48, 49, 50, -1,
      50, 49, 51, -1,
      50, 51, 52, -1,
      52, 51, 53, -1,
      52, 53, 54, -1,
      54, 53, 55, -1,
      54, 55, 35, -1,
      35, 55, 32, -1,
      35, 32, 3, -1,
      3, 32, 2, -1,
      33, 32, 55, -1,
      33, 55, 37, -1,
      37, 55, 53, -1,
      37, 53, 39, -1,
      39, 53, 51, -1,
      39, 51, 41, -1,
      41, 51, 49, -1,
      41, 49, 43, -1,
      45, 43, 47, -1,
      47, 43, 49, -1,
      56, 57, 58, -1,
      58, 57, 59, -1,
      46, 48, 44, -1,
      44, 48, 42, -1,
      42, 48, 40, -1,
      40, 48, 50, -1,
      40, 50, 38, -1,
      38, 50, 52, -1,
      38, 52, 36, -1,
      36, 52, 54, -1,
      36, 54, 34, -1,
      34, 54, 35, -1,
      44, 59, 46, -1,
      46, 59, 57, -1,
      45, 58, 44, -1,
      44, 58, 59, -1,
      56, 47, 57, -1,
      57, 47, 46, -1,
      47, 56, 45, -1,
      45, 56, 58, -1,
      28, 27, 31, -1,
      31, 27, 25, -1,
      29, 26, 28, -1,
      28, 26, 27, -1,
      24, 30, 25, -1,
      25, 30, 31, -1,
      30, 24, 29, -1,
      29, 24, 26, -1,
      60, 61, 62, -1,
      62, 61, 63, -1,
      64, 14, 65, -1,
      65, 14, 18, -1,
      66, 19, 67, -1,
      67, 19, 15, -1,
      65, 18, 66, -1,
      66, 18, 19, -1,
      67, 15, 64, -1,
      64, 15, 14, -1,
      11, 68, 8, -1,
      8, 68, 69, -1,
      9, 70, 10, -1,
      10, 70, 71, -1,
      9, 8, 70, -1,
      70, 8, 69, -1,
      70, 69, 72, -1,
      72, 69, 73, -1,
      72, 73, 74, -1,
      74, 73, 75, -1,
      74, 75, 76, -1,
      76, 75, 77, -1,
      76, 77, 78, -1,
      78, 77, 79, -1,
      78, 79, 80, -1,
      80, 79, 81, -1,
      82, 83, 84, -1,
      84, 83, 85, -1,
      84, 85, 86, -1,
      86, 85, 87, -1,
      86, 87, 88, -1,
      88, 87, 89, -1,
      88, 89, 90, -1,
      90, 89, 91, -1,
      90, 91, 71, -1,
      71, 91, 68, -1,
      71, 68, 10, -1,
      10, 68, 11, -1,
      69, 68, 91, -1,
      69, 91, 73, -1,
      73, 91, 89, -1,
      73, 89, 75, -1,
      75, 89, 87, -1,
      75, 87, 77, -1,
      77, 87, 85, -1,
      77, 85, 79, -1,
      81, 79, 83, -1,
      83, 79, 85, -1,
      92, 93, 94, -1,
      94, 93, 95, -1,
      82, 84, 80, -1,
      80, 84, 78, -1,
      78, 84, 76, -1,
      76, 84, 86, -1,
      76, 86, 74, -1,
      74, 86, 88, -1,
      74, 88, 72, -1,
      72, 88, 90, -1,
      72, 90, 70, -1,
      70, 90, 71, -1,
      96, 97, 98, -1,
      98, 97, 99, -1,
      100, 16, 101, -1,
      101, 16, 13, -1,
      102, 12, 103, -1,
      103, 12, 17, -1,
      101, 13, 102, -1,
      102, 13, 12, -1,
      103, 17, 100, -1,
      100, 17, 16, -1,
      6, 104, 4, -1,
      4, 104, 105, -1,
      5, 106, 7, -1,
      7, 106, 107, -1,
      5, 4, 106, -1,
      106, 4, 105, -1,
      106, 105, 108, -1,
      108, 105, 109, -1,
      108, 109, 110, -1,
      110, 109, 111, -1,
      110, 111, 112, -1,
      112, 111, 113, -1,
      112, 113, 114, -1,
      114, 113, 115, -1,
      114, 115, 116, -1,
      116, 115, 117, -1,
      118, 119, 120, -1,
      120, 119, 121, -1,
      120, 121, 122, -1,
      122, 121, 123, -1,
      122, 123, 124, -1,
      124, 123, 125, -1,
      124, 125, 126, -1,
      126, 125, 127, -1,
      126, 127, 107, -1,
      107, 127, 104, -1,
      107, 104, 7, -1,
      7, 104, 6, -1,
      105, 104, 127, -1,
      105, 127, 109, -1,
      109, 127, 125, -1,
      109, 125, 111, -1,
      111, 125, 123, -1,
      111, 123, 113, -1,
      113, 123, 121, -1,
      113, 121, 115, -1,
      117, 115, 119, -1,
      119, 115, 121, -1,
      128, 129, 130, -1,
      130, 129, 131, -1,
      118, 120, 116, -1,
      116, 120, 114, -1,
      114, 120, 112, -1,
      112, 120, 122, -1,
      112, 122, 110, -1,
      110, 122, 124, -1,
      110, 124, 108, -1,
      108, 124, 126, -1,
      108, 126, 106, -1,
      106, 126, 107, -1,
      80, 95, 82, -1,
      82, 95, 93, -1,
      81, 94, 80, -1,
      80, 94, 95, -1,
      92, 83, 93, -1,
      93, 83, 82, -1,
      83, 92, 81, -1,
      81, 92, 94, -1,
      64, 63, 67, -1,
      67, 63, 61, -1,
      65, 62, 64, -1,
      64, 62, 63, -1,
      60, 66, 61, -1,
      61, 66, 67, -1,
      66, 60, 65, -1,
      65, 60, 62, -1,
      116, 131, 118, -1,
      118, 131, 129, -1,
      117, 130, 116, -1,
      116, 130, 131, -1,
      128, 119, 129, -1,
      129, 119, 118, -1,
      119, 128, 117, -1,
      117, 128, 130, -1,
      100, 99, 103, -1,
      103, 99, 97, -1,
      101, 98, 100, -1,
      100, 98, 99, -1,
      96, 102, 97, -1,
      97, 102, 103, -1,
      102, 96, 101, -1,
      101, 96, 98, -1,
    ]
  }
}

Shape {
  appearance Appearance {
    material Material {
      diffuseColor 0.7529 0.7529 0.7529
      specularColor 0.3765 0.3765 0.3765
      ambientIntensity 0.2
      transparency 0.0000
      shininess 0.5
    }
  }
  geometry IndexedFaceSet {
    ccw TRUE
    solid FALSE
    coord DEF co Coordinate {
      point [
        -1.257054 2.992126 2.086614,
        -1.257054 2.992126 2.401575,
        -0.784613 2.992126 2.401575,
        0.784613 2.992126 2.401575,
        -0.784613 2.992126 2.086614,
        0.784613 2.992126 2.086614,
        0.335798 0.718252 0.000000,
        0.363913 0.723299 0.000000,
        0.164500 0.800825 0.000000,
        0.240009 0.738696 0.000000,
        0.284806 0.723485 0.000000,
        0.286093 0.723299 0.000000,
        0.164500 1.049806 0.000000,
        0.195416 1.026146 0.000000,
        0.195416 0.824248 0.000000,
        0.780289 0.728346 0.000000,
        0.780289 1.122047 0.000000,
        0.744957 1.122047 0.000000,
        0.744957 0.768726 0.000000,
        0.593533 0.768726 0.000000,
        0.425759 1.070177 0.000000,
        0.486741 1.015193 0.000000,
        0.338480 1.091763 0.000000,
        0.512140 0.940670 0.000000,
        0.512774 0.924802 0.000000,
        0.492382 0.843670 0.000000,
        0.438100 0.786785 0.000000,
        0.360830 0.759922 0.000000,
        0.258235 0.775312 0.000000,
        0.259234 1.075551 0.000000,
        0.336035 0.758631 0.000000,
        0.296388 1.087554 0.000000,
        0.322193 1.091140 0.000000,
        0.548106 0.927484 0.000000,
        0.522753 1.028074 0.000000,
        0.455417 1.099055 0.000000,
        0.353681 1.131524 0.000000,
        0.336271 1.132142 0.000000,
        0.240196 1.111915 0.000000,
        0.199874 1.086985 0.000000,
        0.176891 1.065239 0.000000,
        0.593533 0.728346 0.000000,
        0.424971 0.734261 0.000000,
        0.463285 0.755197 0.000000,
        0.485706 0.773818 0.000000,
        0.498184 0.787102 0.000000,
        0.536113 0.852631 0.000000,
        0.316064 0.718973 0.000000,
        -0.138346 1.081668 0.000000,
        0.048409 1.081668 0.000000,
        0.048409 0.960529 0.000000,
        -0.138346 0.960529 0.000000,
        -0.138346 0.920149 0.000000,
        -0.209011 0.728346 0.000000,
        -0.138346 0.728346 0.000000,
        0.083741 0.728346 0.000000,
        0.083741 1.122047 0.000000,
        -0.138346 1.122047 0.000000,
        0.048409 0.920149 0.000000,
        0.048409 0.768726 0.000000,
        -0.138346 0.768726 0.000000,
        -0.413432 1.107851 0.000000,
        -0.484384 1.060115 0.000000,
        -0.769277 1.122047 0.000000,
        -0.524652 0.982168 0.000000,
        -0.532047 0.920228 0.000000,
        -0.582522 0.728346 0.000000,
        -0.509839 0.821199 0.000000,
        -0.452804 0.755895 0.000000,
        -0.209011 1.122047 0.000000,
        -0.288508 1.122047 0.000000,
        -0.351574 1.119639 0.000000,
        -0.774325 1.122047 0.000000,
        -0.956033 0.728346 0.000000,
        -0.917625 0.728346 0.000000,
        -0.859422 0.854533 0.000000,
        -0.680947 0.854533 0.000000,
        -0.621087 0.728346 0.000000,
        -0.331017 0.728346 0.000000,
        -0.373542 0.730523 0.000000,
        1.712598 2.992126 1.614173,
        1.712598 2.992126 0.236220,
        -1.712598 2.992126 0.236220,
        -1.712598 2.992126 1.614173,
        1.257054 2.992126 2.086614,
        1.257054 2.992126 2.401575,
        1.123644 1.839098 2.401575,
        1.056461 1.796884 2.401575,
        0.981569 1.770678 2.401575,
        0.902723 1.761794 2.401575,
        0.784613 1.761794 2.401575,
        -0.784613 1.761794 2.401575,
        -1.257054 2.684145 2.401575,
        -1.117452 2.823747 2.401575,
        -1.117452 2.936313 2.401575,
        -1.248170 2.037279 2.401575,
        -1.056461 1.796884 2.401575,
        -1.123644 1.839098 2.401575,
        -1.257054 2.116125 2.401575,
        -0.902723 1.761794 2.401575,
        -0.981569 1.770678 2.401575,
        -1.179750 1.895204 2.401575,
        -1.221964 1.962387 2.401575,
        1.117452 2.936313 2.401575,
        1.117452 2.823747 2.401575,
        1.257054 2.684145 2.401575,
        1.257054 2.116125 2.401575,
        1.248170 2.037279 2.401575,
        1.221964 1.962387 2.401575,
        1.179750 1.895204 2.401575,
        1.633858 2.913386 1.614173,
        1.633858 2.913386 0.314961,
        -1.117452 2.936313 2.086614,
        -1.117452 2.823747 2.086614,
        -1.257054 2.684145 2.086614,
        1.257054 2.684145 2.086614,
        1.117452 2.823747 2.086614,
        1.117452 2.936313 2.086614,
        -1.257054 2.116125 2.086614,
        -1.248170 2.037279 2.086614,
        -1.221964 1.962387 2.086614,
        -1.179750 1.895204 2.086614,
        -1.123644 1.839098 2.086614,
        -1.056461 1.796884 2.086614,
        -0.981569 1.770678 2.086614,
        -0.902723 1.761794 2.086614,
        -0.784613 1.761794 2.086614,
        0.981569 1.770678 2.086614,
        1.056461 1.796884 2.086614,
        1.123644 1.839098 2.086614,
        1.179750 1.895204 2.086614,
        1.257054 2.116125 2.086614,
        1.221964 1.962387 2.086614,
        1.248170 2.037279 2.086614,
        0.784613 1.761794 2.086614,
        0.902723 1.761794 2.086614,
        -1.633858 2.913386 0.314961,
        -1.633858 2.913386 1.614173,
        -0.769277 1.122047 0.039370,
        -0.774325 1.122047 0.039370,
        -0.956033 0.728346 0.039370,
        -0.917625 0.728346 0.039370,
        -0.859422 0.854533 0.039370,
        -0.680947 0.854533 0.039370,
        -0.621087 0.728346 0.039370,
        -0.582522 0.728346 0.039370,
        -0.840809 0.894912 0.039370,
        -0.700111 0.894912 0.039370,
        -0.771407 1.045310 0.039370,
        -0.840809 0.894912 0.000000,
        -0.771407 1.045310 0.000000,
        -0.700111 0.894912 0.000000,
        -0.331017 0.728346 0.039370,
        -0.209011 0.728346 0.039370,
        -0.209011 1.122047 0.039370,
        -0.288508 1.122047 0.039370,
        -0.413432 1.107851 0.039370,
        -0.351574 1.119639 0.039370,
        -0.532047 0.920228 0.039370,
        -0.524652 0.982168 0.039370,
        -0.484384 1.060115 0.039370,
        -0.373542 0.730523 0.039370,
        -0.452804 0.755895 0.039370,
        -0.509839 0.821199 0.039370,
        -0.490481 0.871289 0.039370,
        -0.458328 0.813657 0.039370,
        -0.402076 0.778742 0.039370,
        -0.346165 0.770319 0.039370,
        -0.289533 0.768726 0.039370,
        -0.244343 0.768726 0.039370,
        -0.244343 1.081668 0.039370,
        -0.272025 1.081668 0.039370,
        -0.332900 1.079814 0.039370,
        -0.393006 1.070626 0.039370,
        -0.436549 1.049641 0.039370,
        -0.479478 0.998930 0.039370,
        -0.496715 0.920307 0.039370,
        -0.244343 1.081668 0.000000,
        -0.244343 0.768726 0.000000,
        -0.272025 1.081668 0.000000,
        -0.332900 1.079814 0.000000,
        -0.393006 1.070626 0.000000,
        -0.436549 1.049641 0.000000,
        -0.479478 0.998930 0.000000,
        -0.496715 0.920307 0.000000,
        -0.490481 0.871289 0.000000,
        -0.458328 0.813657 0.000000,
        -0.402076 0.778742 0.000000,
        -0.346165 0.770319 -0.000000,
        -0.289533 0.768726 0.000000,
        0.083741 0.728346 0.039370,
        0.083741 1.122047 0.039370,
        -0.138346 1.122047 0.039370,
        -0.138346 1.081668 0.039370,
        0.048409 1.081668 0.039370,
        0.048409 0.960529 0.039370,
        -0.138346 0.960529 0.039370,
        -0.138346 0.920149 0.039370,
        0.048409 0.920149 0.039370,
        0.048409 0.768726 0.039370,
        -0.138346 0.768726 0.039370,
        -0.138346 0.728346 0.039370,
        0.164500 1.049806 0.039370,
        0.176891 1.065239 0.039370,
        0.199874 1.086985 0.039370,
        0.240196 1.111915 0.039370,
        0.336271 1.132142 0.039370,
        0.195416 1.026146 0.039370,
        0.338480 1.091763 0.039370,
        0.322193 1.091140 0.039370,
        0.296388 1.087554 0.039370,
        0.259234 1.075551 0.039370,
        0.512774 0.924802 0.039370,
        0.512140 0.940670 0.039370,
        0.486741 1.015193 0.039370,
        0.425759 1.070177 0.039370,
        0.336035 0.758631 0.039370,
        0.360830 0.759922 0.039370,
        0.438100 0.786785 0.039370,
        0.492382 0.843670 0.039370,
        0.195416 0.824248 0.039370,
        0.258235 0.775312 0.039370,
        0.164500 0.800825 0.039370,
        0.335798 0.718252 0.039370,
        0.316064 0.718973 0.039370,
        0.284806 0.723485 0.039370,
        0.240009 0.738696 0.039370,
        0.498184 0.787102 0.039370,
        0.485706 0.773818 0.039370,
        0.463285 0.755197 0.039370,
        0.424971 0.734261 0.039370,
        0.548106 0.927484 0.039370,
        0.536113 0.852631 0.039370,
        0.353681 1.131524 0.039370,
        0.455417 1.099055 0.039370,
        0.522753 1.028074 0.039370,
        0.780289 0.728346 0.039370,
        0.780289 1.122047 0.039370,
        0.744957 1.122047 0.039370,
        0.744957 0.768726 0.039370,
        0.593533 0.768726 0.039370,
        0.593533 0.728346 0.039370,
      ]
    }
    coordIndex [
      138, 139, 63, -1,
      63, 139, 72, -1,
      139, 140, 72, -1,
      72, 140, 73, -1,
      140, 141, 73, -1,
      73, 141, 74, -1,
      141, 142, 74, -1,
      74, 142, 75, -1,
      142, 143, 75, -1,
      75, 143, 76, -1,
      143, 144, 76, -1,
      76, 144, 77, -1,
      144, 145, 77, -1,
      77, 145, 66, -1,
      145, 138, 66, -1,
      66, 138, 63, -1,
      146, 140, 139, -1,
      138, 147, 139, -1,
      139, 147, 148, -1,
      139, 148, 146, -1,
      145, 144, 143, -1,
      141, 140, 142, -1,
      142, 140, 146, -1,
      142, 146, 143, -1,
      143, 146, 147, -1,
      143, 147, 145, -1,
      145, 147, 138, -1,
      146, 148, 149, -1,
      149, 148, 150, -1,
      147, 146, 151, -1,
      151, 146, 149, -1,
      148, 147, 150, -1,
      150, 147, 151, -1,
      152, 153, 78, -1,
      78, 153, 53, -1,
      153, 154, 53, -1,
      53, 154, 69, -1,
      154, 155, 69, -1,
      69, 155, 70, -1,
      156, 61, 71, -1,
      156, 71, 157, -1,
      157, 71, 70, -1,
      157, 70, 155, -1,
      158, 65, 64, -1,
      158, 64, 159, -1,
      159, 64, 62, -1,
      159, 62, 160, -1,
      160, 62, 61, -1,
      160, 61, 156, -1,
      152, 78, 79, -1,
      152, 79, 161, -1,
      161, 79, 68, -1,
      161, 68, 162, -1,
      162, 68, 67, -1,
      162, 67, 163, -1,
      163, 67, 65, -1,
      163, 65, 158, -1,
      164, 165, 162, -1,
      162, 165, 166, -1,
      162, 166, 161, -1,
      161, 166, 167, -1,
      161, 167, 152, -1,
      152, 167, 168, -1,
      152, 168, 153, -1,
      153, 168, 169, -1,
      153, 169, 154, -1,
      154, 169, 170, -1,
      154, 170, 155, -1,
      155, 170, 171, -1,
      155, 171, 157, -1,
      157, 171, 172, -1,
      157, 172, 156, -1,
      156, 172, 173, -1,
      156, 173, 160, -1,
      160, 173, 174, -1,
      160, 174, 159, -1,
      159, 174, 175, -1,
      159, 175, 158, -1,
      158, 175, 176, -1,
      158, 176, 163, -1,
      163, 176, 164, -1,
      163, 164, 162, -1,
      170, 169, 177, -1,
      177, 169, 178, -1,
      171, 170, 179, -1,
      179, 170, 177, -1,
      171, 179, 180, -1,
      171, 180, 172, -1,
      172, 180, 181, -1,
      172, 181, 173, -1,
      173, 181, 182, -1,
      173, 182, 174, -1,
      174, 182, 183, -1,
      174, 183, 175, -1,
      175, 183, 184, -1,
      175, 184, 176, -1,
      176, 184, 185, -1,
      176, 185, 164, -1,
      164, 185, 186, -1,
      164, 186, 165, -1,
      165, 186, 187, -1,
      165, 187, 166, -1,
      166, 187, 188, -1,
      166, 188, 167, -1,
      167, 188, 189, -1,
      167, 189, 168, -1,
      169, 168, 178, -1,
      178, 168, 189, -1,
      190, 191, 55, -1,
      55, 191, 56, -1,
      191, 192, 56, -1,
      56, 192, 57, -1,
      192, 193, 57, -1,
      57, 193, 48, -1,
      193, 194, 48, -1,
      48, 194, 49, -1,
      194, 195, 49, -1,
      49, 195, 50, -1,
      195, 196, 50, -1,
      50, 196, 51, -1,
      196, 197, 51, -1,
      51, 197, 52, -1,
      197, 198, 52, -1,
      52, 198, 58, -1,
      198, 199, 58, -1,
      58, 199, 59, -1,
      199, 200, 59, -1,
      59, 200, 60, -1,
      200, 201, 60, -1,
      60, 201, 54, -1,
      201, 190, 54, -1,
      54, 190, 55, -1,
      190, 201, 200, -1,
      200, 199, 190, -1,
      190, 199, 198, -1,
      190, 198, 191, -1,
      193, 192, 194, -1,
      194, 192, 191, -1,
      194, 191, 195, -1,
      195, 191, 198, -1,
      195, 198, 196, -1,
      196, 198, 197, -1,
      202, 12, 40, -1,
      202, 40, 203, -1,
      203, 40, 39, -1,
      203, 39, 204, -1,
      204, 39, 38, -1,
      204, 38, 205, -1,
      205, 38, 37, -1,
      205, 37, 206, -1,
      202, 207, 12, -1,
      12, 207, 13, -1,
      208, 22, 32, -1,
      208, 32, 209, -1,
      209, 32, 31, -1,
      209, 31, 210, -1,
      210, 31, 29, -1,
      210, 29, 211, -1,
      211, 29, 13, -1,
      211, 13, 207, -1,
      212, 24, 23, -1,
      212, 23, 213, -1,
      213, 23, 21, -1,
      213, 21, 214, -1,
      214, 21, 20, -1,
      214, 20, 215, -1,
      215, 20, 22, -1,
      215, 22, 208, -1,
      216, 30, 27, -1,
      216, 27, 217, -1,
      217, 27, 26, -1,
      217, 26, 218, -1,
      218, 26, 25, -1,
      218, 25, 219, -1,
      219, 25, 24, -1,
      219, 24, 212, -1,
      220, 14, 28, -1,
      220, 28, 221, -1,
      221, 28, 30, -1,
      221, 30, 216, -1,
      220, 222, 14, -1,
      14, 222, 8, -1,
      223, 6, 47, -1,
      223, 47, 224, -1,
      224, 47, 11, -1,
      224, 11, 225, -1,
      11, 10, 225, -1,
      225, 10, 9, -1,
      225, 9, 226, -1,
      226, 9, 8, -1,
      226, 8, 222, -1,
      227, 45, 44, -1,
      227, 44, 228, -1,
      228, 44, 43, -1,
      228, 43, 229, -1,
      229, 43, 42, -1,
      229, 42, 230, -1,
      230, 42, 223, -1,
      223, 42, 7, -1,
      223, 7, 6, -1,
      231, 33, 46, -1,
      231, 46, 232, -1,
      232, 46, 45, -1,
      232, 45, 227, -1,
      206, 37, 36, -1,
      206, 36, 233, -1,
      233, 36, 35, -1,
      233, 35, 234, -1,
      234, 35, 34, -1,
      234, 34, 235, -1,
      235, 34, 33, -1,
      235, 33, 231, -1,
      222, 220, 226, -1,
      226, 220, 221, -1,
      231, 232, 219, -1,
      219, 232, 218, -1,
      218, 232, 227, -1,
      218, 227, 228, -1,
      207, 202, 203, -1,
      207, 203, 211, -1,
      211, 203, 204, -1,
      211, 204, 205, -1,
      228, 229, 218, -1,
      218, 229, 230, -1,
      218, 230, 217, -1,
      217, 230, 223, -1,
      217, 223, 216, -1,
      216, 223, 224, -1,
      216, 224, 221, -1,
      221, 224, 225, -1,
      221, 225, 226, -1,
      219, 212, 231, -1,
      231, 212, 213, -1,
      231, 213, 235, -1,
      235, 213, 214, -1,
      235, 214, 234, -1,
      234, 214, 215, -1,
      234, 215, 233, -1,
      233, 215, 208, -1,
      233, 208, 206, -1,
      206, 208, 209, -1,
      206, 209, 205, -1,
      205, 209, 210, -1,
      205, 210, 211, -1,
      236, 237, 15, -1,
      15, 237, 16, -1,
      237, 238, 16, -1,
      16, 238, 17, -1,
      238, 239, 17, -1,
      17, 239, 18, -1,
      239, 240, 18, -1,
      18, 240, 19, -1,
      240, 241, 19, -1,
      19, 241, 41, -1,
      241, 236, 41, -1,
      41, 236, 15, -1,
      238, 237, 239, -1,
      239, 237, 236, -1,
      239, 236, 240, -1,
      240, 236, 241, -1,
      149, 150, 151, -1,
      177, 178, 179, -1,
      179, 178, 189, -1,
      179, 189, 180, -1,
      180, 189, 188, -1,
      180, 188, 181, -1,
      187, 186, 188, -1,
      188, 186, 185, -1,
      188, 185, 184, -1,
      184, 183, 188, -1,
      188, 183, 182, -1,
      188, 182, 181, -1,
      103, 117, 104, -1,
      104, 117, 116, -1,
      104, 116, 105, -1,
      105, 116, 115, -1,
      105, 115, 106, -1,
      106, 115, 131, -1,
      135, 89, 127, -1,
      127, 89, 88, -1,
      127, 88, 128, -1,
      128, 88, 87, -1,
      128, 87, 129, -1,
      129, 87, 86, -1,
      129, 86, 130, -1,
      130, 86, 109, -1,
      130, 109, 132, -1,
      132, 109, 108, -1,
      132, 108, 133, -1,
      133, 108, 107, -1,
      133, 107, 131, -1,
      131, 107, 106, -1,
      89, 135, 90, -1,
      90, 135, 134, -1,
      90, 134, 3, -1,
      3, 134, 5, -1,
      85, 84, 103, -1,
      103, 84, 117, -1,
      94, 112, 1, -1,
      1, 112, 0, -1,
      2, 4, 91, -1,
      91, 4, 126, -1,
      91, 126, 99, -1,
      99, 126, 125, -1,
      118, 98, 119, -1,
      119, 98, 95, -1,
      119, 95, 120, -1,
      120, 95, 102, -1,
      120, 102, 121, -1,
      121, 102, 101, -1,
      121, 101, 122, -1,
      122, 101, 97, -1,
      122, 97, 123, -1,
      123, 97, 96, -1,
      123, 96, 124, -1,
      124, 96, 100, -1,
      124, 100, 125, -1,
      125, 100, 99, -1,
      98, 118, 92, -1,
      92, 118, 114, -1,
      92, 114, 93, -1,
      93, 114, 113, -1,
      93, 113, 94, -1,
      94, 113, 112, -1,
      81, 111, 80, -1,
      80, 111, 110, -1,
      82, 136, 81, -1,
      81, 136, 111, -1,
      83, 137, 82, -1,
      82, 137, 136, -1,
    ]
  }
}
